<svg width="216" height="135" viewBox="0 0 216 135" fill="none" xmlns="http://www.w3.org/2000/svg">
<path d="M98.2022 12.816L103.365 58.7376L92.3261 59.9787L72.8707 33.23L76.0833 61.8048L65.0129 63.0494L59.85 17.1278L70.9204 15.8832L90.3759 42.6319L87.1633 14.0571L98.2022 12.816ZM146.539 29.7064L146.748 31.5673C147.143 35.0787 147.004 38.2882 146.33 41.1958C145.675 44.08 144.565 46.6108 143 48.7883C141.432 50.9446 139.488 52.6856 137.167 54.0111C134.844 55.3157 132.211 56.1334 129.267 56.4643C126.302 56.7976 123.532 56.5874 120.956 55.8337C118.399 55.0566 116.106 53.792 114.078 52.0398C112.068 50.2643 110.413 48.0443 109.113 45.38C107.832 42.6922 106.993 39.5926 106.599 36.0812L106.389 34.2204C105.995 30.709 106.124 27.5006 106.776 24.5954C107.45 21.6878 108.56 19.1569 110.107 17.0029C111.672 14.8255 113.616 13.0845 115.939 11.78C118.281 10.4521 120.934 9.62153 123.899 9.28821C126.843 8.95726 129.593 9.18034 132.151 9.95744C134.726 10.7112 137.019 11.9758 139.029 13.7513C141.036 15.5058 142.691 17.7258 143.993 20.4112C145.296 23.0966 146.145 26.195 146.539 29.7064ZM135.52 32.8296L135.304 30.9057C135.049 28.6348 134.624 26.6598 134.031 24.9805C133.456 23.2779 132.724 21.8804 131.835 20.788C130.946 19.6956 129.911 18.9177 128.73 18.4543C127.568 17.9674 126.283 17.8032 124.874 17.9616C123.402 18.1271 122.154 18.5762 121.129 19.3088C120.102 20.0205 119.287 21.0064 118.683 22.2667C118.08 23.5269 117.687 25.0509 117.504 26.8386C117.341 28.6029 117.387 30.6205 117.642 32.8914L117.858 34.8153C118.111 37.0651 118.514 39.0425 119.068 40.7476C119.64 42.4292 120.362 43.8279 121.233 44.9436C122.124 46.057 123.151 46.8571 124.313 47.344C125.496 47.8285 126.823 47.988 128.295 47.8225C129.704 47.6641 130.921 47.2186 131.946 46.4859C132.97 45.7532 133.783 44.7462 134.385 43.465C135.007 42.1814 135.41 40.6562 135.595 38.8895C135.798 37.0994 135.773 35.0794 135.52 32.8296ZM42.6795 122.346L43.6369 130.862L20.4238 133.472L19.4664 124.956L42.6795 122.346ZM19.2034 87.1071L24.3662 133.029L13.2958 134.273L8.13302 88.3517L19.2034 87.1071ZM55.1916 95.006L59.0282 129.132L48.3679 130.33L44.5312 96.2045L55.1916 95.006ZM42.9111 87.4758C42.7409 85.9619 43.1481 84.6599 44.1327 83.5698C45.1174 82.4797 46.4823 81.8365 48.2275 81.6403C49.9727 81.4441 51.4463 81.7681 52.6484 82.6124C53.8505 83.4567 54.5367 84.6358 54.7069 86.1497C54.8771 87.6636 54.4699 88.9656 53.4853 90.0557C52.5006 91.1459 51.1357 91.7891 49.3905 91.9853C47.6453 92.1815 46.1717 91.8574 44.9696 91.0131C43.7675 90.1688 43.0813 88.9897 42.9111 87.4758ZM66.4182 81.7989L75.4385 80.7848L89.2808 111.582L95.9392 78.4799L104.96 77.4658L94.5103 125.143L87.1931 125.965L66.4182 81.7989ZM60.9303 82.4159L70.266 81.3663L75.9579 116.369L77.1635 127.093L66.0931 128.338L60.9303 82.4159ZM101.112 77.8984L110.479 76.8453L115.642 122.767L104.54 124.015L103.334 113.292L101.112 77.8984ZM129.625 86.6376L133.462 120.763L122.801 121.962L118.965 87.8361L129.625 86.6376ZM117.345 79.1075C117.174 77.5936 117.582 76.2916 118.566 75.2015C119.551 74.1113 120.916 73.4682 122.661 73.272C124.406 73.0757 125.88 73.3998 127.082 74.2441C128.284 75.0884 128.97 76.2675 129.14 77.7814C129.311 79.2953 128.903 80.5973 127.919 81.6874C126.934 82.7776 125.569 83.4207 123.824 83.6169C122.079 83.8131 120.605 83.4891 119.403 82.6448C118.201 81.8005 117.515 80.6214 117.345 79.1075ZM157.599 71.5477L162.762 117.469L151.692 118.714L146.529 72.7923L157.599 71.5477ZM171.413 69.9946L172.374 78.5418L133.991 82.8572L133.03 74.3099L171.413 69.9946ZM203.053 100.579C202.973 99.8645 202.796 99.235 202.522 98.6909C202.245 98.1258 201.795 97.6229 201.17 97.1821C200.546 96.7412 199.669 96.3288 198.54 95.9447C197.43 95.5373 195.98 95.1466 194.192 94.7727C192.098 94.3268 190.068 93.7885 188.102 93.1579C186.134 92.5062 184.35 91.6954 182.751 90.7254C181.149 89.7344 179.831 88.5199 178.796 87.0819C177.759 85.6229 177.125 83.8631 176.893 81.8025C176.671 79.826 176.913 77.9997 177.618 76.3234C178.322 74.6261 179.399 73.1316 180.851 71.8399C182.321 70.5248 184.096 69.4524 186.174 68.6225C188.25 67.7716 190.561 67.2032 193.105 66.9171C196.469 66.5389 199.5 66.7943 202.198 67.6834C204.914 68.5491 207.118 69.9727 208.81 71.9543C210.52 73.9125 211.539 76.3424 211.865 79.244L200.858 80.4816C200.728 79.3251 200.371 78.3325 199.788 77.5038C199.227 76.6727 198.444 76.058 197.441 75.6597C196.438 75.2615 195.222 75.1427 193.792 75.3035C192.404 75.4595 191.261 75.801 190.362 76.3279C189.463 76.8548 188.812 77.5029 188.409 78.2721C188.003 79.0204 187.848 79.815 187.942 80.6561C188.02 81.3499 188.281 81.9595 188.723 82.4846C189.184 82.9864 189.799 83.4389 190.568 83.8421C191.359 84.243 192.294 84.6063 193.374 84.932C194.475 85.2554 195.7 85.554 197.051 85.828C199.578 86.3318 201.842 86.9609 203.843 87.7153C205.863 88.4464 207.593 89.3484 209.034 90.4214C210.493 91.471 211.645 92.7254 212.491 94.1847C213.357 95.6416 213.899 97.3373 214.117 99.2717C214.348 101.332 214.155 103.206 213.535 104.894C212.916 106.582 211.922 108.067 210.555 109.349C209.185 110.611 207.491 111.642 205.473 112.444C203.455 113.246 201.164 113.791 198.599 114.079C196.244 114.344 193.887 114.311 191.529 113.98C189.19 113.625 187.025 112.932 185.035 111.899C183.043 110.846 181.38 109.404 180.046 107.574C178.73 105.72 177.92 103.437 177.615 100.725L188.717 99.4764C188.868 100.822 189.175 101.937 189.636 102.822C190.098 103.707 190.707 104.395 191.465 104.884C192.22 105.353 193.117 105.657 194.154 105.796C195.19 105.914 196.359 105.899 197.663 105.753C199.071 105.594 200.184 105.267 201.002 104.77C201.816 104.253 202.386 103.635 202.709 102.918C203.031 102.179 203.146 101.399 203.053 100.579Z" fill="#1A1A1A"/>
</svg>
