<svg width="589" height="157" viewBox="0 0 589 157" fill="none" xmlns="http://www.w3.org/2000/svg">
<path d="M72.4894 61.5213L82.1796 147.713L61.4605 150.042L24.9441 99.8368L30.9739 153.47L10.1956 155.806L0.505385 69.6143L21.2837 67.2782L57.8001 117.484L51.7703 63.8507L72.4894 61.5213ZM163.214 93.2234L163.607 96.716C164.348 103.307 164.086 109.331 162.821 114.788C161.592 120.201 159.508 124.952 156.571 129.038C153.629 133.086 149.98 136.354 145.624 138.841C141.263 141.29 136.32 142.825 130.795 143.446C125.231 144.071 120.031 143.677 115.196 142.262C110.397 140.804 106.093 138.43 102.287 135.141C98.5152 131.809 95.4091 127.642 92.9686 122.641C90.5631 117.597 88.9898 111.779 88.2489 105.188L87.8562 101.696C87.1152 95.105 87.3574 89.0832 88.5827 83.6303C89.8474 78.1729 91.931 73.4228 94.8334 69.3798C97.7709 65.293 101.42 62.0254 105.78 59.5769C110.176 57.0845 115.156 55.5255 120.721 54.8999C126.246 54.2788 131.408 54.6975 136.208 56.156C141.043 57.5707 145.346 59.9443 149.117 63.2769C152.885 66.57 155.991 70.7367 158.436 75.777C160.881 80.8172 162.473 86.6327 163.214 93.2234ZM142.533 99.0853L142.127 95.4743C141.648 91.2121 140.851 87.5051 139.738 84.3532C138.659 81.1575 137.285 78.5345 135.616 76.4842C133.947 74.4339 132.004 72.9738 129.788 72.1039C127.607 71.1902 125.195 70.8819 122.551 71.1792C119.788 71.4898 117.445 72.3327 115.522 73.7079C113.594 75.0436 112.063 76.8942 110.931 79.2595C109.798 81.6248 109.06 84.4852 108.718 87.8407C108.411 91.1522 108.497 94.9391 108.976 99.2013L109.382 102.812C109.857 107.035 110.614 110.747 111.653 113.947C112.727 117.103 114.082 119.728 115.716 121.822C117.389 123.912 119.317 125.414 121.498 126.328C123.718 127.237 126.209 127.536 128.972 127.226C131.616 126.929 133.9 126.092 135.823 124.717C137.747 123.342 139.273 121.452 140.401 119.047C141.569 116.638 142.326 113.775 142.673 110.459C143.054 107.099 143.008 103.308 142.533 99.0853ZM264.368 111.044L266.165 127.028L222.596 131.926L220.799 115.943L264.368 111.044ZM220.305 44.9028L229.995 131.094L209.217 133.43L199.527 47.2389L220.305 44.9028ZM287.852 59.7284L295.053 123.78L275.045 126.029L267.844 61.9779L287.852 59.7284ZM264.803 45.5949C264.483 42.7535 265.248 40.3097 267.096 38.2636C268.944 36.2175 271.506 35.0103 274.781 34.642C278.057 34.2738 280.823 34.882 283.079 36.4666C285.335 38.0513 286.623 40.2644 286.943 43.1058C287.262 45.9473 286.498 48.3911 284.65 50.4372C282.802 52.4833 280.24 53.6905 276.964 54.0588C273.689 54.427 270.923 53.8188 268.666 52.2342C266.41 50.6495 265.122 48.4364 264.803 45.5949ZM308.924 34.9397L325.854 33.0363L351.835 90.8402L364.332 28.7103L381.263 26.8069L361.65 116.293L347.917 117.837L308.924 34.9397ZM298.623 36.0978L316.146 34.1278L326.829 99.826L329.092 119.953L308.314 122.289L298.623 36.0978ZM374.041 27.6188L391.622 25.6422L401.313 111.834L380.475 114.176L378.212 94.0491L374.041 27.6188ZM427.558 44.0217L434.759 108.073L414.75 110.323L407.549 46.2712L427.558 44.0217ZM404.508 29.8882C404.189 27.0468 404.953 24.603 406.801 22.5569C408.649 20.5108 411.211 19.3036 414.487 18.9353C417.763 18.5671 420.528 19.1753 422.785 20.7599C425.041 22.3446 426.329 24.5577 426.648 27.3991C426.968 30.2406 426.203 32.6844 424.355 34.7305C422.507 36.7766 419.945 37.9838 416.67 38.3521C413.394 38.7203 410.628 38.1121 408.372 36.5275C406.116 34.9428 404.828 32.7297 404.508 29.8882ZM480.063 15.699L489.753 101.89L468.975 104.226L459.285 18.0351L480.063 15.699ZM505.992 12.784L507.795 28.8264L435.752 36.926L433.948 20.8836L505.992 12.784ZM565.378 70.1892C565.227 68.8474 564.894 67.6659 564.38 66.6448C563.861 65.5841 563.015 64.6401 561.843 63.8127C560.671 62.9854 559.026 62.2113 556.906 61.4904C554.822 60.7256 552.102 59.9924 548.746 59.2906C544.816 58.4537 541.005 57.4434 537.316 56.2597C533.621 55.0365 530.273 53.5147 527.271 51.6941C524.264 49.8341 521.79 47.5546 519.848 44.8556C517.902 42.1171 516.711 38.8141 516.276 34.9465C515.859 31.2368 516.313 27.8089 517.638 24.6627C518.958 21.477 520.981 18.6719 523.705 16.2475C526.465 13.7792 529.796 11.7663 533.697 10.2087C537.593 8.61163 541.93 7.54467 546.705 7.0078C553.019 6.29789 558.708 6.77731 563.771 8.44604C568.869 10.0709 573.006 12.7429 576.182 16.4622C579.393 20.1376 581.304 24.6983 581.916 30.1445L561.256 32.4672C561.012 30.2966 560.343 28.4336 559.249 26.8781C558.195 25.3182 556.726 24.1645 554.844 23.417C552.961 22.6695 550.678 22.4466 547.995 22.7483C545.39 23.0412 543.244 23.6821 541.557 24.671C539.87 25.66 538.648 26.8764 537.891 28.3203C537.13 29.7247 536.838 31.2162 537.015 32.7947C537.162 34.0971 537.65 35.2411 538.48 36.2268C539.345 37.1686 540.5 38.0179 541.944 38.7747C543.427 39.5271 545.182 40.209 547.209 40.8204C549.276 41.4273 551.577 41.9878 554.112 42.502C558.854 43.4476 563.103 44.6284 566.859 46.0444C570.65 47.4166 573.898 49.1096 576.602 51.1235C579.341 53.0934 581.504 55.4479 583.091 58.1869C584.717 60.9214 585.734 64.104 586.143 67.7348C586.577 71.6024 586.214 75.1201 585.051 78.2881C583.889 81.456 582.024 84.2433 579.457 86.65C576.886 89.0171 573.707 90.9532 569.919 92.458C566.132 93.9628 561.831 94.9858 557.016 95.5271C552.596 96.0241 548.173 95.9618 543.747 95.3404C539.357 94.6751 535.294 93.3735 531.559 91.4355C527.82 89.4581 524.698 86.7518 522.194 83.3167C519.725 79.8378 518.204 75.5528 517.632 70.4618L538.469 68.1191C538.753 70.6449 539.328 72.7383 540.194 74.3993C541.06 76.0603 542.204 77.3504 543.627 78.2695C545.044 79.1492 546.727 79.7193 548.674 79.9799C550.618 80.2011 552.813 80.1741 555.259 79.899C557.904 79.6017 559.992 78.9872 561.526 78.0555C563.056 77.0843 564.124 75.9251 564.732 74.5779C565.335 73.1913 565.551 71.7284 565.378 70.1892Z" fill="#1A1A1A"/>
</svg>
