<svg width="289" height="198" viewBox="0 0 289 198" fill="none" xmlns="http://www.w3.org/2000/svg">
<path d="M116.14 149.608L206.342 27.4134C209.328 23.368 214.851 22.1654 219.249 24.6031C223.207 26.7972 225.149 31.3269 224.151 35.6203L223.708 37.0392L167.914 178.307C161.859 193.64 144.522 201.159 129.191 195.104C127.987 194.629 126.817 194.076 125.685 193.449C111.265 185.455 106.054 167.284 114.048 152.865L115.041 151.203L116.14 149.608L206.342 27.4134L116.14 149.608ZM170.935 111.79L133.538 162.451L132.961 163.349C130.758 167.323 132.194 172.332 136.169 174.535L137.135 174.992C140.935 176.492 145.184 174.964 147.211 171.565L147.802 170.364L170.935 111.79ZM239.551 34.1754C250.428 42.9884 260.273 53.4484 268.704 65.4881C276.266 76.2864 283.546 89.3638 287.734 100.064C289.91 105.626 287.166 111.897 281.604 114.073C276.044 116.249 269.771 113.505 267.596 107.944C266.193 104.36 264.322 100.358 262.156 96.2405L232.609 113.3C227.438 116.285 220.825 114.514 217.839 109.342C215.102 104.601 216.363 98.6496 220.576 95.39L221.797 94.5711L250.894 77.7497L247.571 73.2258C242.903 67.1346 237.793 61.5572 232.322 56.5078L237.803 42.6061C238.35 41.2231 238.765 39.8176 239.055 38.4042L239.396 36.2799L239.551 34.1754ZM201.655 11.6672C199.507 12.9151 197.526 14.5022 195.793 16.4049L194.147 18.412L186.349 28.9784C176.231 25.4618 165.724 23.1862 155.079 22.1963L155.076 60.7298C155.076 66.7014 150.235 71.5419 144.264 71.5419C138.79 71.5419 134.266 67.4745 133.549 62.197L133.451 60.7298L133.446 21.9594C110.426 23.5961 87.5412 31.2962 67.2624 45.4955C55.4991 53.7323 45.2428 64.5578 36.7172 77.2797L66.7357 94.61C71.9073 97.5957 73.6792 104.209 70.6934 109.38C67.9565 114.12 62.1719 116.004 57.2432 113.986L55.9232 113.337L26.0203 96.0805C24.1783 99.9197 22.4679 103.87 20.8935 107.921C18.7301 113.487 12.4642 116.245 6.89835 114.083C1.33236 111.919 -1.42597 105.653 0.737391 100.087C12.3637 70.1748 30.7138 44.6877 54.8587 27.7813C99.4336 -3.43038 154.828 -7.66211 201.655 11.6672Z" fill="#1A1A1A"/>
</svg>
