<svg width="80" height="82" viewBox="0 0 80 82" fill="none" xmlns="http://www.w3.org/2000/svg">
<g clip-path="url(#clip0_564_14039)">
<circle cx="40.3513" cy="8.46582" r="7.5" fill="#1E4FCD"/>
<circle cx="9.35132" cy="30.4658" r="7.5" fill="#1E4FCD"/>
<circle cx="70.3513" cy="30.4658" r="7.5" fill="#1E4FCD"/>
<path d="M74.424 37.8121C76.0348 36.8839 77.296 35.4523 78.0138 33.7374C78.7316 32.0225 78.8662 30.1194 78.3969 28.3205C77.9277 26.5217 76.8805 24.9268 75.4164 23.7811C73.9524 22.6355 72.1525 22.0024 70.2936 21.9794C68.4347 21.9563 66.6197 22.5446 65.1277 23.6536C63.6357 24.7627 62.5493 26.3311 62.0356 28.1177C61.5219 29.9044 61.6093 31.8103 62.2844 33.5425C62.9594 35.2746 64.1848 36.737 65.7721 37.7049C64.2747 38.2745 62.9856 39.2853 62.0753 40.6037C61.165 41.922 60.6765 43.4856 60.6744 45.0877V52.0803L54.399 34.6973C54.3375 34.5271 54.225 34.3801 54.0768 34.2763C53.9286 34.1725 53.752 34.1169 53.5711 34.1172H49.3734V23.6846C49.3715 21.999 48.8673 20.3523 47.9252 18.9547C46.9831 17.557 45.6458 16.4719 44.0842 15.8377C45.6956 14.9096 46.9576 13.4778 47.6759 11.7626C48.3942 10.0473 48.5292 8.14356 48.06 6.34412C47.5908 4.54468 46.5434 2.94921 45.079 1.8031C43.6146 0.656983 41.8142 0.0237018 39.9547 0.000652215C38.0953 -0.0223974 36.2797 0.566061 34.7873 1.67552C33.2949 2.78498 32.2084 4.354 31.6947 6.14126C31.181 7.92851 31.2688 9.83502 31.9444 11.5676C32.62 13.3001 33.846 14.7627 35.434 15.7305C33.9366 16.3001 32.6475 17.3109 31.7372 18.6292C30.827 19.9476 30.3384 21.5112 30.3363 23.1133V34.1172H26.1404C25.9595 34.1169 25.7829 34.1725 25.6347 34.2763C25.4865 34.3801 25.374 34.5271 25.3125 34.6973L19.0371 52.0803V45.659C19.0351 43.9737 18.531 42.3273 17.5893 40.9297C16.6476 39.5321 15.3108 38.4467 13.7496 37.8121C15.3609 36.8839 16.6226 35.452 17.3407 33.7368C18.0589 32.0215 18.1937 30.1179 17.7244 28.3185C17.2551 26.5192 16.2077 24.9239 14.7433 23.7779C13.2789 22.6318 11.4786 21.9986 9.61923 21.9756C7.75986 21.9525 5.9444 22.5409 4.45205 23.6503C2.9597 24.7597 1.87311 26.3286 1.35937 28.1157C0.845633 29.9029 0.933206 31.8093 1.60862 33.5418C2.28403 35.2743 3.50989 36.737 5.09766 37.7049C3.60029 38.2745 2.31118 39.2853 1.40091 40.6037C0.490636 41.922 0.00211815 43.4856 0 45.0877V56.9705C0 57.2036 0.0925988 57.4271 0.257426 57.592C0.422253 57.7568 0.645806 57.8494 0.878906 57.8494C1.11201 57.8494 1.33556 57.7568 1.50039 57.592C1.66521 57.4271 1.75781 57.2036 1.75781 56.9705V45.0877C1.75781 43.456 2.406 41.8911 3.55979 40.7373C4.71358 39.5835 6.27845 38.9353 7.91015 38.9353H10.5662C12.3453 38.9377 14.0508 39.6456 15.3086 40.9037C16.5665 42.1619 17.2739 43.8676 17.2758 45.6467V56.9617L8.68535 80.7537C8.63737 80.8864 8.62205 81.0287 8.64068 81.1685C8.65931 81.3084 8.71134 81.4417 8.79237 81.5573C8.8734 81.6728 8.98106 81.7671 9.10623 81.8322C9.23141 81.8973 9.37042 81.9314 9.51152 81.9314H70.1912C70.3323 81.9314 70.4713 81.8973 70.5965 81.8322C70.7217 81.7671 70.8293 81.6728 70.9103 81.5573C70.9914 81.4417 71.0434 81.3084 71.062 81.1685C71.0807 81.0287 71.0653 80.8864 71.0174 80.7537L62.4269 56.9617V45.0947C62.4269 43.463 63.0751 41.8981 64.2289 40.7444C65.3827 39.5906 66.9476 38.9424 68.5793 38.9424H71.2512C73.0304 38.9447 74.7361 39.6525 75.9942 40.9106C77.2523 42.1688 77.9602 43.8745 77.9625 45.6537V56.9722C77.9625 57.2053 78.0551 57.4289 78.2199 57.5937C78.3847 57.7586 78.6083 57.8512 78.8414 57.8512C79.0745 57.8512 79.298 57.7586 79.4629 57.5937C79.6277 57.4289 79.7203 57.2053 79.7203 56.9722V45.659C79.7178 43.9726 79.2126 42.3254 78.2691 40.9276C77.3257 39.5299 75.987 38.4452 74.424 37.8121ZM2.78262 30.4609C2.78262 29.1301 3.17726 27.8291 3.91664 26.7225C4.65602 25.616 5.70693 24.7535 6.93648 24.2442C8.16603 23.7349 9.51899 23.6017 10.8243 23.8613C12.1295 24.121 13.3285 24.7618 14.2696 25.7029C15.2106 26.6439 15.8515 27.8429 16.1111 29.1482C16.3708 30.4535 16.2375 31.8064 15.7282 33.036C15.2189 34.2655 14.3565 35.3164 13.2499 36.0558C12.1433 36.7952 10.8424 37.1898 9.51152 37.1898C7.72762 37.1875 6.01745 36.4778 4.75604 35.2164C3.49463 33.955 2.78494 32.2448 2.78262 30.4609ZM33.1225 8.48827C33.1221 7.15734 33.5165 5.85621 34.2556 4.74941C34.9948 3.64262 36.0456 2.77989 37.2751 2.27032C38.5046 1.76076 39.8576 1.62725 41.163 1.88669C42.4684 2.14613 43.6676 2.78685 44.6088 3.72784C45.55 4.66882 46.1911 5.86779 46.4508 7.17312C46.7106 8.47845 46.5775 9.8315 46.0682 11.0611C45.559 12.2908 44.6965 13.3418 43.5899 14.0813C42.4833 14.8207 41.1823 15.2154 39.8514 15.2154C38.0675 15.2131 36.3573 14.5034 35.0959 13.242C33.8345 11.9806 33.1248 10.2704 33.1225 8.48652V8.48827ZM32.0871 23.1221C32.0871 21.4904 32.7353 19.9255 33.8891 18.7717C35.0429 17.6179 36.6077 16.9697 38.2394 16.9697H40.906C42.6853 16.972 44.391 17.6799 45.6491 18.938C46.9072 20.1961 47.615 21.9018 47.6174 23.681V34.1207H32.0871V23.1221ZM10.7631 80.1736L26.7592 35.8767H52.9506L68.9467 80.1736H10.7631ZM63.4623 30.4609C63.4623 29.1301 63.8569 27.8291 64.5963 26.7225C65.3357 25.616 66.3866 24.7535 67.6162 24.2442C68.8457 23.7349 70.1987 23.6017 71.5039 23.8613C72.8092 24.121 74.0082 24.7618 74.9493 25.7029C75.8903 26.6439 76.5312 27.8429 76.7908 29.1482C77.0504 30.4535 76.9172 31.8064 76.4079 33.036C75.8986 34.2655 75.0361 35.3164 73.9296 36.0558C72.823 36.7952 71.522 37.1898 70.1912 37.1898C68.4073 37.1875 66.6971 36.4778 65.4357 35.2164C64.1743 33.955 63.4646 32.2448 63.4623 30.4609Z" fill="#1A1A1A"/>
</g>
<defs>
<clipPath id="clip0_564_14039">
<rect width="79.7203" height="81.9314" fill="white"/>
</clipPath>
</defs>
</svg>
