<svg width="77" height="80" viewBox="0 0 77 80" fill="none" xmlns="http://www.w3.org/2000/svg">
<rect x="18.0686" y="26" width="57" height="43" rx="9" fill="#1E4FCD"/>
<path d="M66.8017 25.0041H60.2574V7.58066C60.257 5.69034 59.5062 3.8775 58.17 2.54035C56.8338 1.20319 55.0216 0.451082 53.1312 0.449219H16.7832C14.8929 0.451082 13.0806 1.20319 11.7444 2.54035C10.4083 3.8775 9.65749 5.69034 9.65703 7.58066V19.2578L0.468941 24.1252C0.32432 24.2015 0.203838 24.3166 0.121039 24.4575C0.0382402 24.5985 -0.00359329 24.7598 0.000241905 24.9232C0.0040771 25.0867 0.0534289 25.2458 0.142749 25.3828C0.232069 25.5197 0.357817 25.629 0.505856 25.6984L9.65703 30.0033V37.1137C9.65889 39.0031 10.4103 40.8146 11.7463 42.1506C13.0823 43.4866 14.8938 44.238 16.7832 44.2398H17.3949V60.1779C17.3977 62.6526 18.382 65.0251 20.1319 66.775C21.8817 68.5248 24.2542 69.5091 26.7289 69.5119H53.14L58.1076 79.0727C58.1117 79.0801 58.1164 79.0871 58.1217 79.0938C58.1416 79.1311 58.1651 79.1665 58.192 79.1992L58.2201 79.2344C58.2483 79.2676 58.2789 79.2987 58.3115 79.3275L58.3308 79.3434C58.371 79.3759 58.4139 79.4047 58.4592 79.4295L58.4732 79.4383L58.5137 79.4576L58.5541 79.4752C58.5776 79.485 58.6016 79.4932 58.6262 79.4998L58.6596 79.5104C58.6877 79.5186 58.7165 79.5245 58.7457 79.5279H58.7721C58.8095 79.5306 58.8471 79.5306 58.8846 79.5279C58.9214 79.5305 58.9584 79.5305 58.9953 79.5279H59.0217C59.0495 79.5244 59.0771 79.5191 59.1043 79.5121L59.1412 79.4998L59.2098 79.477L59.2519 79.4576C59.2641 79.4534 59.2759 79.4481 59.2871 79.4418L59.3012 79.433C59.3478 79.4087 59.392 79.3798 59.433 79.3469L59.4453 79.3363C59.4807 79.3062 59.5136 79.2733 59.5437 79.2379L59.5701 79.2063C59.5983 79.1721 59.6236 79.1356 59.6457 79.0973L59.6562 79.0779L64.71 69.5119H66.8C69.2747 69.5091 71.6472 68.5248 73.397 66.775C75.1469 65.0251 76.1312 62.6526 76.134 60.1779V34.3381C76.1312 31.8637 75.1471 29.4915 73.3977 27.7417C71.6482 25.9919 69.2761 25.0074 66.8017 25.0041ZM16.7832 42.482C15.3598 42.4806 13.9952 41.9146 12.9887 40.9081C11.9823 39.9017 11.4162 38.537 11.4148 37.1137V29.4531C11.4148 29.4338 11.4148 29.4145 11.4148 29.3951C11.4166 29.3623 11.4166 29.3295 11.4148 29.2967C11.4148 29.2686 11.4008 29.2422 11.3937 29.2141C11.3867 29.1859 11.3779 29.1613 11.3691 29.135C11.3603 29.1086 11.3445 29.0805 11.3305 29.0541C11.3164 29.0277 11.3059 29.0066 11.2918 28.9838C11.2777 28.9609 11.2584 28.9363 11.2408 28.9135C11.2232 28.8906 11.2074 28.8695 11.1881 28.8502L11.123 28.7904L11.0598 28.7377C11.0323 28.7187 11.0035 28.7016 10.9736 28.6867C10.9578 28.6867 10.9437 28.6656 10.9262 28.6568L2.84726 24.8564L10.9473 20.5674L10.9824 20.5428C11.0088 20.527 11.0352 20.5111 11.0615 20.4918L11.1248 20.4391C11.1459 20.4197 11.1652 20.4004 11.1846 20.3793L11.2391 20.3125C11.2714 20.2667 11.3001 20.2185 11.3252 20.1684C11.3377 20.1426 11.3488 20.1162 11.3586 20.0893C11.3586 20.0629 11.3762 20.0365 11.3832 20.0084C11.3902 19.9803 11.3955 19.9557 11.4008 19.9275C11.4025 19.8965 11.4025 19.8654 11.4008 19.8344C11.4017 19.8197 11.4017 19.8051 11.4008 19.7904V7.58066C11.4008 6.87425 11.5401 6.17476 11.8107 5.52223C12.0813 4.8697 12.4779 4.27692 12.9778 3.77782C13.4777 3.27872 14.0711 2.88308 14.7241 2.61355C15.3771 2.34402 16.0768 2.20588 16.7832 2.20703H53.1312C54.5546 2.20843 55.9192 2.77447 56.9257 3.78093C57.9322 4.78739 58.4982 6.15204 58.4996 7.57539V24.9988H26.7289C24.2542 25.0016 21.8817 25.9859 20.1319 27.7358C18.382 29.4856 17.3977 31.8581 17.3949 34.3328V42.4768L16.7832 42.482ZM74.3779 60.1779C74.3761 62.1867 73.5773 64.1126 72.1569 65.533C70.7364 66.9534 68.8105 67.7522 66.8017 67.7541H64.1826C64.1686 67.7531 64.1545 67.7531 64.1404 67.7541C64.1081 67.7552 64.0758 67.7581 64.0437 67.7629L63.9646 67.7787L63.8803 67.8051L63.8047 67.8367L63.7273 67.8789L63.6623 67.9229C63.6377 67.9407 63.6142 67.9601 63.592 67.9809L63.5357 68.0371C63.5164 68.0582 63.4971 68.0811 63.4795 68.1039C63.4619 68.1268 63.4461 68.1531 63.4303 68.1795C63.4144 68.2059 63.4127 68.2041 63.4057 68.2182L58.8881 76.7664L54.4549 68.2234C54.4549 68.2094 54.4373 68.1988 54.4303 68.1848C54.4 68.1343 54.3653 68.0866 54.3265 68.0424L54.265 67.9809C54.2446 67.9618 54.2229 67.9442 54.2 67.9281L54.1297 67.8789L54.0576 67.8402C54.0307 67.8271 54.0031 67.8154 53.975 67.8051L53.8994 67.7822C53.8711 67.7739 53.8424 67.7675 53.8133 67.7629L53.7236 67.7541C53.7078 67.7541 53.692 67.7541 53.6744 67.7541H26.7289C24.7201 67.7522 22.7942 66.9534 21.3738 65.533C19.9534 64.1126 19.1546 62.1867 19.1527 60.1779V43.5578C19.1675 43.4932 19.1751 43.4272 19.1756 43.3609C19.1752 43.2947 19.1676 43.2286 19.1527 43.1641V34.3381C19.1546 32.3293 19.9534 30.4034 21.3738 28.983C22.7942 27.5626 24.7201 26.7638 26.7289 26.7619H66.807C68.8158 26.7638 70.7417 27.5626 72.1621 28.983C73.5825 30.4034 74.3813 32.3293 74.3832 34.3381L74.3779 60.1779Z" fill="#1A1A1A"/>
<path d="M59.0686 78.5C59.0686 79.3 55.7353 72.5 54.0686 69H64.0686C62.4019 71.8333 59.0686 77.7 59.0686 78.5Z" fill="#1E4FCD"/>
<path d="M17.2561 12.5293H52.2788C52.5119 12.5293 52.7354 12.4367 52.9002 12.2719C53.0651 12.107 53.1577 11.8835 53.1577 11.6504C53.1577 11.4173 53.0651 11.1937 52.9002 11.0289C52.7354 10.8641 52.5119 10.7715 52.2788 10.7715H17.2561C17.023 10.7715 16.7994 10.8641 16.6346 11.0289C16.4698 11.1937 16.3772 11.4173 16.3772 11.6504C16.3772 11.8835 16.4698 12.107 16.6346 12.2719C16.7994 12.4367 17.023 12.5293 17.2561 12.5293Z" fill="#1A1A1A"/>
<path d="M53.1577 19.7852C53.1577 19.5521 53.0651 19.3285 52.9002 19.1637C52.7354 18.9988 52.5119 18.9063 52.2788 18.9062H17.2561C17.023 18.9062 16.7994 18.9988 16.6346 19.1637C16.4698 19.3285 16.3772 19.5521 16.3772 19.7852C16.3772 20.0183 16.4698 20.2418 16.6346 20.4066C16.7994 20.5715 17.023 20.6641 17.2561 20.6641H52.2788C52.5119 20.6641 52.7354 20.5715 52.9002 20.4066C53.0651 20.2418 53.1577 20.0183 53.1577 19.7852Z" fill="#1A1A1A"/>
<path d="M65.5537 36.5508H27.9752C27.7421 36.5508 27.5186 36.6434 27.3537 36.8082C27.1889 36.973 27.0963 37.1966 27.0963 37.4297C27.0963 37.6628 27.1889 37.8863 27.3537 38.0512C27.5186 38.216 27.7421 38.3086 27.9752 38.3086H65.5537C65.7868 38.3086 66.0104 38.216 66.1752 38.0512C66.34 37.8863 66.4326 37.6628 66.4326 37.4297C66.4326 37.1966 66.34 36.973 66.1752 36.8082C66.0104 36.6434 65.7868 36.5508 65.5537 36.5508Z" fill="white"/>
<path d="M27.9752 47.0176H38.1336C38.3667 47.0176 38.5903 46.925 38.7551 46.7602C38.9199 46.5953 39.0125 46.3718 39.0125 46.1387C39.0125 45.9056 38.9199 45.682 38.7551 45.5172C38.5903 45.3524 38.3667 45.2598 38.1336 45.2598H27.9752C27.7421 45.2598 27.5186 45.3524 27.3537 45.5172C27.1889 45.682 27.0963 45.9056 27.0963 46.1387C27.0963 46.3718 27.1889 46.5953 27.3537 46.7602C27.5186 46.925 27.7421 47.0176 27.9752 47.0176Z" fill="white"/>
<path d="M53.6744 53.9678H27.9752C27.7421 53.9678 27.5186 54.0604 27.3537 54.2252C27.1889 54.39 27.0963 54.6136 27.0963 54.8467C27.0963 55.0798 27.1889 55.3033 27.3537 55.4682C27.5186 55.633 27.7421 55.7256 27.9752 55.7256H53.6744C53.9075 55.7256 54.1311 55.633 54.2959 55.4682C54.4608 55.3033 54.5534 55.0798 54.5534 54.8467C54.5534 54.6136 54.4608 54.39 54.2959 54.2252C54.1311 54.0604 53.9075 53.9678 53.6744 53.9678Z" fill="white"/>
<path d="M65.5537 45.2598H46.0648C45.8317 45.2598 45.6082 45.3524 45.4433 45.5172C45.2785 45.682 45.1859 45.9056 45.1859 46.1387C45.1859 46.3718 45.2785 46.5953 45.4433 46.7602C45.6082 46.925 45.8317 47.0176 46.0648 47.0176H65.5537C65.7868 47.0176 66.0103 46.925 66.1752 46.7602C66.34 46.5953 66.4326 46.3718 66.4326 46.1387C66.4326 45.9056 66.34 45.682 66.1752 45.5172C66.0103 45.3524 65.7868 45.2598 65.5537 45.2598Z" fill="white"/>
</svg>
