<svg width="80" height="79" viewBox="0 0 80 79" fill="none" xmlns="http://www.w3.org/2000/svg">
<g clip-path="url(#clip0_564_14007)">
<path d="M6.71484 54.3066L53.2148 7.30664L63.2148 17.3066C48.2148 31.9733 17.8148 61.8066 16.2148 63.8066C14.6148 65.8066 9.21484 58.3066 6.71484 54.3066Z" fill="#1E4FCD"/>
<path d="M79.4239 71.1226C79.3987 70.8909 79.2825 70.6787 79.1009 70.5327C78.9192 70.3866 78.687 70.3187 78.4553 70.3439C65.2823 71.7677 55.6882 72.3302 48.7026 72.4093C48.6762 71.3849 48.3424 70.3921 47.7446 69.5599C46.0536 67.0708 41.9438 64.7593 36.5579 65.2023C33.3341 65.4677 29.4352 66.6859 28.4913 68.7319C28.3244 69.0768 28.2561 69.4611 28.2939 69.8424C28.3318 70.2236 28.4743 70.587 28.7057 70.8923C30.2579 73.0527 36.2643 74.1583 46.2048 74.197C44.8987 75.6349 41.9491 76.5665 37.8921 76.788C24.8245 77.5034 9.00066 72.0155 3.35105 69.8587L16.7421 64.9913L16.7596 64.9825C16.7868 64.9714 16.8133 64.9585 16.8387 64.9439C16.8656 64.9325 16.8915 64.919 16.9161 64.9034C16.9372 64.8894 16.9565 64.8735 16.9759 64.8577C17.0028 64.8387 17.0286 64.8182 17.0532 64.7962C17.0532 64.7962 17.0532 64.7962 17.0637 64.7874L63.9815 17.8609L67.8786 13.9638C69.3428 12.4995 70.3712 10.297 70.6331 8.06984C70.7019 7.49359 70.7178 6.91226 70.6805 6.33312L71.2606 6.91319C71.7255 7.37778 72.0942 7.9294 72.3458 8.53655C72.5974 9.14369 72.7269 9.79446 72.7269 10.4517C72.7269 11.1089 72.5974 11.7596 72.3458 12.3668C72.0942 12.9739 71.7255 13.5256 71.2606 13.9901L57.0803 28.1704C56.9571 28.2933 56.8732 28.4501 56.8391 28.6208C56.8051 28.7915 56.8225 28.9685 56.8891 29.1292C56.9558 29.29 57.0687 29.4274 57.2135 29.524C57.3583 29.6205 57.5285 29.6719 57.7026 29.6716C57.9355 29.6711 58.1587 29.5781 58.3231 29.4132L72.5034 15.2329C73.1314 14.6051 73.6296 13.8597 73.9695 13.0394C74.3094 12.219 74.4843 11.3397 74.4843 10.4517C74.4843 9.56367 74.3094 8.68436 73.9695 7.86399C73.6296 7.04361 73.1314 6.29823 72.5034 5.67042L69.088 2.26202C69.0036 2.16534 68.9122 2.07042 68.8225 1.97902L68.7223 1.87882C65.611 -1.23427 59.7206 -0.17079 56.7288 2.82101L52.8335 6.71808L5.91394 53.6376L5.90339 53.6499C5.8823 53.6728 5.86472 53.6956 5.84538 53.7202C5.82605 53.7448 5.81023 53.7642 5.79441 53.787C5.78131 53.8091 5.76957 53.832 5.75925 53.8556C5.74285 53.8846 5.72818 53.9145 5.71531 53.9452V53.9575L0.0516331 69.5212C0.037483 69.5621 0.025744 69.6038 0.0164767 69.646C0.00774052 69.6948 0.00245395 69.7441 0.000656399 69.7937C-0.0002188 69.8077 -0.0002188 69.8218 0.000656399 69.8359C0.000556221 69.8771 0.00408536 69.9183 0.0112032 69.9589V69.9905C0.0217413 70.0401 0.0358406 70.0889 0.053391 70.1364L0.0656956 70.1628C0.0818942 70.2007 0.101301 70.2372 0.123703 70.2718L0.146555 70.3105C0.169703 70.3431 0.194952 70.3742 0.222141 70.4036C0.229223 70.4134 0.236853 70.4228 0.244992 70.4317L0.288938 70.4669C0.316051 70.4922 0.344826 70.5157 0.375071 70.5372C0.402589 70.5551 0.431376 70.571 0.461203 70.5847C0.480528 70.5968 0.500477 70.608 0.520969 70.6181C1.32429 70.9609 19.4421 78.6003 35.4276 78.6003C36.2842 78.6003 37.1339 78.5775 37.9764 78.5317C44.911 78.1503 47.393 76.0005 48.2526 74.2638L48.2948 74.1759C56.2559 74.1108 66.446 73.4077 78.6434 72.0911C78.7583 72.0789 78.8696 72.0441 78.9711 71.9887C79.0725 71.9334 79.162 71.8586 79.2345 71.7687C79.307 71.6787 79.361 71.5753 79.3935 71.4645C79.426 71.3536 79.4363 71.2374 79.4239 71.1226ZM57.9786 4.06378C60.3464 1.69776 65.1135 0.748546 67.4848 3.11983L67.585 3.22003C68.6555 4.29054 69.1196 5.94288 68.8946 7.8712C68.6784 9.71866 67.8399 11.5345 66.6428 12.728L63.368 16.0028L54.6968 7.33858L57.9786 4.06378ZM53.461 8.58136L62.1253 17.2456L16.4415 62.9224L7.77722 54.2581L53.461 8.58136ZM6.88952 55.856L14.8436 63.8101L2.34734 68.3523L6.88952 55.856ZM30.1348 69.8657C30.0846 69.8138 30.0527 69.7468 30.0442 69.6751C30.0356 69.6033 30.0508 69.5308 30.0874 69.4685C30.5426 68.4806 33.3112 67.2343 36.702 66.9548C37.0975 66.9214 37.4825 66.9056 37.8622 66.9056C41.9421 66.9056 45.0464 68.7179 46.2997 70.5478C46.6959 71.0944 46.9227 71.7454 46.9518 72.4198C32.5694 72.4146 30.3985 70.2296 30.1348 69.8657Z" fill="#1A1A1A"/>
</g>
<defs>
<clipPath id="clip0_564_14007">
<rect width="79.429" height="78.6003" fill="white"/>
</clipPath>
</defs>
</svg>
