<svg width="62" height="80" viewBox="0 0 62 80" fill="none" xmlns="http://www.w3.org/2000/svg">
<path d="M19.9999 19C19.5999 19 19.8332 13 19.9999 10C21.6666 9.83333 25.0999 9.6 25.4999 10C25.8999 10.4 25.6666 7.16667 25.4999 5.5L26.9999 2.5L30.4999 1L34.4999 2.5L36.4999 5.5V10H41.9999V19C41.9999 19.5 20.4999 19 19.9999 19Z" fill="#1E4FCD"/>
<path d="M57.5236 8.86875H37.43V6.67852C37.4277 4.98879 36.7554 3.36893 35.5606 2.17411C34.3658 0.979286 32.7459 0.307013 31.0562 0.304688H30.9437C29.254 0.307013 27.6341 0.979286 26.4393 2.17411C25.2445 3.36893 24.5722 4.98879 24.5699 6.67852V8.86875H4.47632C3.32756 8.87015 2.22625 9.32711 1.41396 10.1394C0.601666 10.9517 0.144706 12.053 0.143311 13.2018V75.3633C0.144707 76.5119 0.601723 77.613 1.41407 78.425C2.22641 79.237 3.32772 79.6936 4.47632 79.6945H57.5236C58.6722 79.6936 59.7735 79.237 60.5858 78.425C61.3982 77.613 61.8552 76.5119 61.8566 75.3633V13.2018C61.8552 12.053 61.3982 10.9517 60.5859 10.1394C59.7737 9.32711 58.6723 8.87015 57.5236 8.86875ZM25.4488 10.6266C25.6819 10.6266 25.9054 10.534 26.0703 10.3691C26.2351 10.2043 26.3277 9.98076 26.3277 9.74766V6.67852C26.3291 5.4547 26.8159 4.28141 27.6812 3.41604C28.5466 2.55067 29.7199 2.0639 30.9437 2.0625H31.0562C32.28 2.0639 33.4533 2.55067 34.3187 3.41604C35.184 4.28141 35.6708 5.4547 35.6722 6.67852V9.74766C35.6722 9.98076 35.7648 10.2043 35.9296 10.3691C36.0945 10.534 36.318 10.6266 36.5511 10.6266H41.2972V18.0691H20.6974V10.6266H25.4488ZM60.0988 75.3633C60.0979 76.0458 59.8262 76.7001 59.3434 77.1826C58.8606 77.665 58.2061 77.9363 57.5236 77.9367H4.47632C3.79378 77.9363 3.13931 77.665 2.65652 77.1826C2.17372 76.7001 1.90205 76.0458 1.90112 75.3633V13.2018C1.90159 12.5189 2.17305 11.8642 2.6559 11.3813C3.13874 10.8985 3.79348 10.627 4.47632 10.6266H18.9396V18.948C18.9396 19.1812 19.0322 19.4047 19.197 19.5695C19.3619 19.7344 19.5854 19.827 19.8185 19.827H42.1814C42.2968 19.827 42.4111 19.8042 42.5177 19.76C42.6244 19.7159 42.7213 19.6511 42.8029 19.5695C42.8845 19.4879 42.9492 19.391 42.9934 19.2844C43.0376 19.1778 43.0603 19.0635 43.0603 18.948V10.6266H57.5236C58.2064 10.627 58.8612 10.8985 59.344 11.3813C59.8269 11.8642 60.0983 12.5189 60.0988 13.2018V75.3633Z" fill="#1A1A1A"/>
<path d="M32.5749 7.42601C32.9353 6.55601 32.5221 5.55859 31.6521 5.19822C30.7821 4.83785 29.7847 5.251 29.4244 6.121C29.064 6.99101 29.4771 7.98843 30.3471 8.34879C31.2171 8.70916 32.2146 8.29602 32.5749 7.42601Z" fill="#1A1A1A"/>
<path d="M39.0859 29.4883H11.4883C11.2552 29.4883 11.0316 29.5809 10.8668 29.7457C10.702 29.9105 10.6094 30.1341 10.6094 30.3672C10.6094 30.6003 10.702 30.8238 10.8668 30.9887C11.0316 31.1535 11.2552 31.2461 11.4883 31.2461H39.0859C39.319 31.2461 39.5426 31.1535 39.7074 30.9887C39.8722 30.8238 39.9648 30.6003 39.9648 30.3672C39.9648 30.1341 39.8722 29.9105 39.7074 29.7457C39.5426 29.5809 39.319 29.4883 39.0859 29.4883Z" fill="#1A1A1A"/>
<path d="M53.9675 25.1729C53.8685 25.1135 53.7588 25.0743 53.6446 25.0573C53.5304 25.0404 53.414 25.0462 53.302 25.0742C53.19 25.1023 53.0846 25.1522 52.9919 25.221C52.8992 25.2898 52.821 25.3762 52.7617 25.4752L48.0507 33.3555L46.6269 31.8297C46.4665 31.6654 46.2481 31.5704 46.0185 31.565C45.789 31.5597 45.5664 31.6444 45.3985 31.8011C45.2306 31.9577 45.1306 32.1739 45.1201 32.4033C45.1095 32.6327 45.1892 32.8571 45.342 33.0285L47.5638 35.4086C47.6459 35.4967 47.7452 35.5669 47.8556 35.615C47.966 35.663 48.0851 35.6879 48.2054 35.6881C48.2365 35.6899 48.2676 35.6899 48.2986 35.6881C48.4341 35.6736 48.5643 35.6277 48.679 35.5542C48.7937 35.4807 48.8897 35.3815 48.9595 35.2645L54.2734 26.3822C54.3331 26.2829 54.3726 26.1727 54.3896 26.0579C54.4066 25.9432 54.4007 25.8263 54.3722 25.7139C54.3438 25.6015 54.2934 25.4958 54.2239 25.4029C54.1545 25.3101 54.0673 25.2319 53.9675 25.1729Z" fill="#1A1A1A"/>
<path d="M39.0859 41.1465H11.4883C11.2552 41.1465 11.0316 41.2391 10.8668 41.4039C10.702 41.5687 10.6094 41.7923 10.6094 42.0254C10.6094 42.2585 10.702 42.482 10.8668 42.6469C11.0316 42.8117 11.2552 42.9043 11.4883 42.9043H39.0859C39.319 42.9043 39.5426 42.8117 39.7074 42.6469C39.8722 42.482 39.9648 42.2585 39.9648 42.0254C39.9648 41.7923 39.8722 41.5687 39.7074 41.4039C39.5426 41.2391 39.319 41.1465 39.0859 41.1465Z" fill="#1A1A1A"/>
<path d="M53.9675 36.836C53.8685 36.7766 53.7588 36.7374 53.6446 36.7204C53.5304 36.7035 53.414 36.7092 53.302 36.7373C53.19 36.7654 53.0846 36.8153 52.9919 36.8841C52.8992 36.9529 52.821 37.0393 52.7617 37.1383L48.0507 45.0133L46.6269 43.4875C46.4665 43.3232 46.2481 43.2282 46.0185 43.2228C45.789 43.2175 45.5664 43.3022 45.3985 43.4589C45.2306 43.6155 45.1306 43.8317 45.1201 44.0611C45.1095 44.2905 45.1892 44.5149 45.342 44.6863L47.5638 47.0664C47.6459 47.1545 47.7453 47.2247 47.8556 47.2728C47.966 47.3209 48.0851 47.3457 48.2054 47.3459C48.2365 47.3477 48.2676 47.3477 48.2986 47.3459C48.4341 47.3314 48.5643 47.2855 48.679 47.212C48.7937 47.1385 48.8897 47.0393 48.9595 46.9223L54.2734 38.0401C54.3924 37.8398 54.427 37.6005 54.3697 37.3747C54.3123 37.1489 54.1677 36.9552 53.9675 36.836Z" fill="#1A1A1A"/>
<path d="M39.0859 52.8037H11.4883C11.2552 52.8037 11.0316 52.8963 10.8668 53.0611C10.702 53.226 10.6094 53.4495 10.6094 53.6826C10.6094 53.9157 10.702 54.1393 10.8668 54.3041C11.0316 54.4689 11.2552 54.5615 11.4883 54.5615H39.0859C39.319 54.5615 39.5426 54.4689 39.7074 54.3041C39.8722 54.1393 39.9648 53.9157 39.9648 53.6826C39.9648 53.4495 39.8722 53.226 39.7074 53.0611C39.5426 52.8963 39.319 52.8037 39.0859 52.8037Z" fill="#1A1A1A"/>
<path d="M53.9675 48.4888C53.7678 48.3688 53.5285 48.333 53.3024 48.3894C53.0762 48.4457 52.8817 48.5896 52.7617 48.7894L48.0507 56.6714L46.6269 55.1456C46.4665 54.9813 46.2481 54.8863 46.0185 54.8809C45.789 54.8756 45.5664 54.9603 45.3985 55.117C45.2306 55.2736 45.1306 55.4898 45.1201 55.7192C45.1095 55.9486 45.1892 56.173 45.342 56.3444L47.5638 58.7245C47.6459 58.8126 47.7452 58.8828 47.8556 58.9309C47.966 58.979 48.085 59.0039 48.2054 59.004C48.2365 59.0058 48.2676 59.0058 48.2986 59.004C48.4341 58.9895 48.5643 58.9436 48.679 58.8701C48.7937 58.7966 48.8897 58.6974 48.9595 58.5804L54.2734 49.6999C54.3334 49.6005 54.3731 49.4901 54.3902 49.3752C54.4073 49.2603 54.4015 49.1432 54.3731 49.0305C54.3446 48.9179 54.2941 48.8121 54.2245 48.7191C54.1549 48.6261 54.0676 48.5478 53.9675 48.4888Z" fill="#1A1A1A"/>
<path d="M39.0859 64.4619H11.4883C11.2552 64.4619 11.0316 64.5545 10.8668 64.7193C10.702 64.8842 10.6094 65.1077 10.6094 65.3408C10.6094 65.5739 10.702 65.7975 10.8668 65.9623C11.0316 66.1271 11.2552 66.2197 11.4883 66.2197H39.0859C39.319 66.2197 39.5426 66.1271 39.7074 65.9623C39.8722 65.7975 39.9648 65.5739 39.9648 65.3408C39.9648 65.1077 39.8722 64.8842 39.7074 64.7193C39.5426 64.5545 39.319 64.4619 39.0859 64.4619Z" fill="#1A1A1A"/>
<path d="M53.9675 60.1465C53.8685 60.0872 53.7587 60.0479 53.6445 60.031C53.5303 60.0141 53.4139 60.0198 53.3019 60.0479C53.19 60.0759 53.0846 60.1258 52.9919 60.1946C52.8992 60.2634 52.8209 60.3498 52.7616 60.4488L48.0507 68.3291L46.6269 66.8034C46.548 66.719 46.4534 66.651 46.3482 66.6032C46.2431 66.5554 46.1296 66.5288 46.0142 66.5249C45.8988 66.521 45.7838 66.5398 45.6756 66.5803C45.5675 66.6209 45.4685 66.6823 45.3841 66.7612C45.2997 66.84 45.2317 66.9347 45.1839 67.0398C45.1361 67.1449 45.1095 67.2584 45.1056 67.3738C45.1017 67.4892 45.1205 67.6043 45.1611 67.7124C45.2016 67.8205 45.2631 67.9196 45.3419 68.0039L47.5638 70.3823C47.6459 70.4703 47.7452 70.5405 47.8556 70.5886C47.9659 70.6367 48.085 70.6616 48.2054 70.6618C48.2364 70.6635 48.2675 70.6635 48.2985 70.6618C48.4339 70.6474 48.564 70.6018 48.6787 70.5286C48.7934 70.4554 48.8895 70.3566 48.9595 70.2399L54.2734 61.3576C54.3334 61.2582 54.3731 61.1478 54.3902 61.0329C54.4073 60.918 54.4015 60.8009 54.373 60.6883C54.3446 60.5757 54.2941 60.4698 54.2245 60.3768C54.1549 60.2838 54.0675 60.2055 53.9675 60.1465Z" fill="#1A1A1A"/>
</svg>
