<svg width="80" height="79" viewBox="0 0 80 79" fill="none" xmlns="http://www.w3.org/2000/svg">
<g clip-path="url(#clip0_564_14045)">
<path d="M20.941 1.25781L18.941 3.25781L19.441 5.25781L33.441 17.2578V41.7578L45.941 41.2578L46.441 18.2578L59.441 6.25781L60.941 4.25781L59.941 1.75781L56.941 1.25781C53.6077 3.92448 46.741 9.45781 45.941 10.2578C45.141 11.0578 45.941 8.25781 46.441 6.75781L44.441 3.25781L40.441 1.25781C39.1077 1.59115 36.341 2.35781 35.941 2.75781C35.441 3.25781 33.941 5.75781 33.941 6.75781C33.941 7.55781 34.2744 9.75781 34.441 10.7578L23.441 1.25781H20.941Z" fill="#1E4FCD"/>
<path d="M79.0031 58.5308H53.8418V41.6558C53.8418 41.4227 53.7492 41.1991 53.5844 41.0343C53.4195 40.8695 53.196 40.7769 52.9629 40.7769H47.0461V18.0958L60.2578 6.51357C60.9907 5.86438 61.4401 4.9538 61.5094 3.97715C61.5787 3.00051 61.2626 2.03559 60.6287 1.28935C60.314 0.920111 59.9291 0.61715 59.4962 0.398107C59.0633 0.179064 58.5912 0.048315 58.1073 0.0134712C57.6234 -0.0213725 57.1374 0.0403849 56.6776 0.195149C56.2178 0.349912 55.7934 0.59459 55.4291 0.91494L46.9125 8.3751C46.9492 8.08355 46.9679 7.79003 46.9688 7.49619C46.9688 5.63139 46.228 3.84296 44.9093 2.52435C43.5907 1.20573 41.8023 0.46494 39.9375 0.46494C38.0727 0.46494 36.2843 1.20573 34.9657 2.52435C33.647 3.84296 32.9062 5.63139 32.9062 7.49619C32.9071 7.79003 32.9258 8.08355 32.9625 8.3751L24.4529 0.907909C24.0882 0.587973 23.6634 0.343803 23.2033 0.189615C22.7433 0.0354279 22.2571 -0.0256951 21.7732 0.00980398C21.2893 0.0453031 20.8173 0.176715 20.3847 0.396389C19.9521 0.616064 19.5675 0.91961 19.2533 1.28935C18.6177 2.03618 18.3005 3.00255 18.3699 3.98076C18.4393 4.95897 18.8896 5.87093 19.6242 6.5206L32.8359 18.1028V40.7821H26.9209C26.6878 40.7821 26.4642 40.8747 26.2994 41.0396C26.1346 41.2044 26.042 41.4279 26.042 41.661V58.536H0.878906C0.645805 58.536 0.422253 58.6286 0.257426 58.7935C0.0925988 58.9583 0 59.1818 0 59.4149V77.6399C0 77.873 0.0925988 78.0966 0.257426 78.2614C0.422253 78.4262 0.645805 78.5188 0.878906 78.5188C1.11201 78.5188 1.33556 78.4262 1.50039 78.2614C1.66521 78.0966 1.75781 77.873 1.75781 77.6399V60.2886H26.042V77.6399C26.042 77.873 26.1346 78.0966 26.2994 78.2614C26.4642 78.4262 26.6878 78.5188 26.9209 78.5188C27.154 78.5188 27.3776 78.4262 27.5424 78.2614C27.7072 78.0966 27.7998 77.873 27.7998 77.6399V42.5399H52.084V77.6399C52.084 77.873 52.1766 78.0966 52.3414 78.2614C52.5062 78.4262 52.7298 78.5188 52.9629 78.5188C53.196 78.5188 53.4195 78.4262 53.5844 78.2614C53.7492 78.0966 53.8418 77.873 53.8418 77.6399V60.2886H78.1242V77.6399C78.1242 77.873 78.2168 78.0966 78.3816 78.2614C78.5465 78.4262 78.77 78.5188 79.0031 78.5188C79.2362 78.5188 79.4598 78.4262 79.6246 78.2614C79.7894 78.0966 79.882 77.873 79.882 77.6399V59.4097C79.882 59.1766 79.7894 58.953 79.6246 58.7882C79.4598 58.6234 79.2362 58.5308 79.0031 58.5308ZM34.6676 7.49971C34.6657 6.63291 34.8775 5.77901 35.2842 5.01357C35.6909 4.24813 36.2801 3.59475 36.9995 3.11126C37.7189 2.62777 38.5465 2.32907 39.4088 2.24159C40.2712 2.15412 41.1418 2.28057 41.9437 2.60975C42.7456 2.93894 43.4539 3.4607 44.0061 4.12888C44.5582 4.79705 44.9372 5.59103 45.1093 6.44056C45.2815 7.29008 45.2417 8.16895 44.9932 8.99939C44.7448 9.82983 44.2956 10.5862 43.6852 11.2017L43.541 11.3265C43.5089 11.3565 43.4789 11.3888 43.4514 11.4231C42.4861 12.2912 41.2339 12.7714 39.9357 12.7714C38.6376 12.7714 37.3854 12.2912 36.4201 11.4231C36.3926 11.3888 36.3626 11.3565 36.3305 11.3265L36.1863 11.2017C35.2118 10.2162 34.6659 8.88567 34.6676 7.49971ZM34.5867 17.6704C34.5867 17.6388 34.5867 17.6089 34.5779 17.5772C34.575 17.55 34.5703 17.523 34.5639 17.4964C34.5573 17.4695 34.5491 17.4431 34.5393 17.4173C34.5311 17.3891 34.5212 17.3615 34.5094 17.3347C34.4982 17.3103 34.4853 17.2868 34.4707 17.2644C34.4566 17.2376 34.4407 17.2117 34.4232 17.187C34.4083 17.1659 34.3919 17.1459 34.374 17.1272C34.3537 17.1026 34.332 17.0791 34.309 17.0569L34.2896 17.0376L20.7809 5.1917C20.3926 4.84814 20.1548 4.36587 20.1187 3.84872C20.0825 3.33158 20.2509 2.82091 20.5875 2.42666C20.7508 2.23311 20.9513 2.07438 21.1772 1.95993C21.4031 1.84548 21.6497 1.77764 21.9023 1.76045C22.1536 1.74328 22.4058 1.7759 22.6444 1.85645C22.883 1.93699 23.1033 2.06386 23.2928 2.22978L35.0016 12.4954C36.3153 13.7971 38.0899 14.5273 39.9393 14.5273C41.7886 14.5273 43.5632 13.7971 44.8769 12.4954L56.5857 2.22978C56.9689 1.89552 57.4689 1.72675 57.9762 1.76045C58.2288 1.77764 58.4754 1.84548 58.7013 1.95993C58.9272 2.07438 59.1277 2.23311 59.291 2.42666C59.6281 2.82046 59.797 3.33086 59.7615 3.848C59.726 4.36513 59.4889 4.84765 59.1012 5.1917L45.5906 17.0376C45.5837 17.0436 45.5773 17.0501 45.5713 17.0569C45.5483 17.0791 45.5266 17.1026 45.5063 17.1272C45.4884 17.1459 45.472 17.1659 45.457 17.187C45.4396 17.2117 45.4237 17.2376 45.4096 17.2644C45.395 17.2868 45.3821 17.3103 45.3709 17.3347C45.3591 17.3615 45.3491 17.3891 45.341 17.4173C45.3312 17.4431 45.323 17.4695 45.3164 17.4964C45.31 17.523 45.3053 17.55 45.3023 17.5772C45.3023 17.6089 45.3023 17.6388 45.2936 17.6704C45.2848 17.702 45.2936 17.688 45.2936 17.6968V40.7821H40.8199V29.3862C40.8199 29.1531 40.7273 28.9296 40.5625 28.7647C40.3977 28.5999 40.1741 28.5073 39.941 28.5073C39.7079 28.5073 39.4844 28.5999 39.3195 28.7647C39.1547 28.9296 39.0621 29.1531 39.0621 29.3862V40.7821H34.5938V17.6968C34.5938 17.688 34.5902 17.6792 34.5902 17.6704H34.5867Z" fill="#1A1A1A"/>
<path d="M4.41737 33.3477C4.42093 33.3796 4.42621 33.4112 4.43319 33.4426C4.43319 33.4566 4.43319 33.4725 4.43319 33.4865C4.43319 33.5006 4.43319 33.5076 4.44374 33.5199C4.45429 33.5322 4.45956 33.5656 4.46835 33.5885C4.47714 33.6113 4.49296 33.643 4.50702 33.6693C4.52108 33.6957 4.52811 33.7098 4.53866 33.7273C4.56048 33.7557 4.58396 33.7827 4.60897 33.8082C4.62304 33.824 4.63358 33.8416 4.64765 33.8557C4.67404 33.8838 4.70223 33.9102 4.73202 33.9348C4.74257 33.9348 4.75136 33.9541 4.76366 33.9629C4.80459 33.9941 4.84811 34.0217 4.89374 34.0455L4.9412 34.0648C4.97592 34.0809 5.01175 34.0944 5.04843 34.1053H5.07304C5.12577 34.1193 10.3342 35.573 10.3342 42.6746C10.3342 42.9077 10.4268 43.1313 10.5916 43.2961C10.7564 43.4609 10.98 43.5535 11.2131 43.5535C11.4462 43.5535 11.6697 43.4609 11.8346 43.2961C11.9994 43.1313 12.092 42.9077 12.092 42.6746C12.092 35.6311 17.1351 34.165 17.3549 34.1053H17.3742C17.4153 34.0943 17.4553 34.0796 17.4937 34.0613L17.5307 34.0455C17.5772 34.0207 17.6219 33.9925 17.6642 33.9611L17.6889 33.94C17.7205 33.9119 17.7504 33.8838 17.7785 33.8539L17.8137 33.81C17.835 33.7835 17.8549 33.7559 17.8734 33.7273L17.9033 33.6728C17.9176 33.6454 17.9306 33.6172 17.942 33.5885C17.9508 33.5656 17.9596 33.5428 17.9666 33.5199C17.9709 33.5097 17.9744 33.4991 17.9771 33.4883C17.979 33.4737 17.979 33.4589 17.9771 33.4443C17.9843 33.4124 17.9895 33.3802 17.993 33.3477C17.9947 33.3201 17.9947 33.2926 17.993 33.265C17.9947 33.2369 17.9947 33.2088 17.993 33.1807C17.9895 33.1482 17.9843 33.1159 17.9771 33.084C17.9788 33.07 17.9788 33.0558 17.9771 33.0418C17.9744 33.0316 17.9709 33.0216 17.9666 33.0119C17.957 32.9803 17.9459 32.9492 17.9332 32.9187L17.9016 32.8502C17.8857 32.8238 17.8699 32.7975 17.8523 32.7729L17.8066 32.7078C17.7873 32.685 17.7644 32.6639 17.7434 32.641C17.7223 32.6182 17.7082 32.6059 17.6889 32.59C17.6639 32.5693 17.6375 32.5505 17.6098 32.5338L17.55 32.4951L17.4621 32.4547C17.4375 32.4547 17.4146 32.4353 17.39 32.4283C17.3654 32.4213 17.3654 32.4178 17.3531 32.4143C17.2986 32.4002 12.092 30.9482 12.092 23.8467C12.092 23.6136 11.9994 23.39 11.8346 23.2252C11.6697 23.0604 11.4462 22.9678 11.2131 22.9678C10.98 22.9678 10.7564 23.0604 10.5916 23.2252C10.4268 23.39 10.3342 23.6136 10.3342 23.8467C10.3342 30.8902 5.28925 32.3545 5.06952 32.416L5.03085 32.4301L4.96933 32.4529C4.93571 32.4664 4.90285 32.4816 4.87089 32.4986L4.82343 32.5285C4.79179 32.5496 4.76015 32.5707 4.73202 32.5936L4.68808 32.6357C4.66347 32.6604 4.63886 32.685 4.61601 32.7113L4.57558 32.7676C4.55565 32.7957 4.53808 32.8238 4.52284 32.852C4.51229 32.873 4.50351 32.8959 4.49296 32.917C4.47865 32.9482 4.46689 32.9805 4.4578 33.0137C4.45324 33.0226 4.4497 33.0321 4.44726 33.0418C4.44726 33.0559 4.44726 33.0699 4.44726 33.084C4.44012 33.1165 4.43484 33.1493 4.43144 33.1824C4.43144 33.2088 4.43144 33.2369 4.43144 33.2633C4.43144 33.2896 4.41561 33.3178 4.41737 33.3477ZM11.206 28.6754C11.9706 30.5793 13.3261 32.1875 15.0732 33.2633C13.3262 34.3383 11.9706 35.9459 11.206 37.8494C10.4409 35.9463 9.08541 34.3388 7.33886 33.2633C9.08545 32.187 10.4409 30.5789 11.206 28.6754Z" fill="#1A1A1A"/>
<path d="M61.8926 17.7949C61.8996 17.837 61.9061 17.8792 61.9119 17.9215C61.9119 17.9391 61.9242 17.9531 61.9295 17.9707L61.9383 17.9953C61.9553 18.0405 61.9753 18.0845 61.998 18.1271V18.1412C62.0243 18.1864 62.0543 18.2294 62.0877 18.2695C62.1616 18.3543 62.2511 18.4241 62.3514 18.4752H62.3672C62.4105 18.4966 62.4559 18.5137 62.5025 18.5262H62.5201C62.7346 18.5859 67.7935 20.0484 67.7935 27.0973C67.7935 27.3304 67.8861 27.5539 68.051 27.7187C68.2158 27.8836 68.4394 27.9762 68.6725 27.9762C68.9056 27.9762 69.1291 27.8836 69.2939 27.7187C69.4588 27.5539 69.5514 27.3304 69.5514 27.0973C69.5514 20.052 74.5945 18.5877 74.8142 18.5262H74.8336C74.8739 18.5144 74.9132 18.4997 74.9514 18.4822L74.9883 18.4664C75.0353 18.4424 75.08 18.4142 75.1219 18.382L75.1465 18.3592C75.179 18.3334 75.2095 18.3052 75.2379 18.2748L75.273 18.2309C75.2939 18.2045 75.3133 18.1769 75.331 18.1482C75.3426 18.1301 75.3532 18.1113 75.3627 18.092C75.3767 18.0656 75.389 18.0375 75.4014 18.0094C75.4137 17.9812 75.4189 17.9637 75.426 17.9408C75.4303 17.9306 75.4338 17.92 75.4365 17.9092C75.4365 17.8934 75.4365 17.8793 75.4365 17.8652C75.4436 17.8327 75.4489 17.7999 75.4523 17.7668C75.4523 17.7404 75.4523 17.7123 75.4523 17.6859C75.4523 17.6596 75.4523 17.6297 75.4523 17.5998C75.4488 17.5679 75.4435 17.5362 75.4365 17.5049C75.4365 17.4908 75.4365 17.4768 75.4365 17.4609C75.4335 17.4514 75.43 17.442 75.426 17.4328C75.4169 17.4008 75.4051 17.3697 75.3908 17.3396C75.3817 17.3156 75.3712 17.2921 75.3592 17.2693C75.345 17.2431 75.3292 17.2179 75.3117 17.1937C75.2975 17.171 75.2816 17.1492 75.2642 17.1287C75.2457 17.1058 75.2258 17.0841 75.2045 17.0637C75.1851 17.0443 75.1676 17.0268 75.1465 17.0092C75.1254 16.9916 75.0972 16.974 75.0726 16.9564C75.048 16.9389 75.0287 16.9266 75.0058 16.9143C74.983 16.902 74.9531 16.8896 74.925 16.8773L74.8459 16.8475L74.8107 16.8352C74.758 16.8211 69.5514 15.3691 69.5514 8.26758C69.5514 8.03448 69.4588 7.81093 69.2939 7.6461C69.1291 7.48127 68.9056 7.38867 68.6725 7.38867C68.4394 7.38867 68.2158 7.48127 68.051 7.6461C67.8861 7.81093 67.7935 8.03448 67.7935 8.26758C67.7935 15.3146 62.7434 16.7771 62.5201 16.8369C62.5099 16.8396 62.4999 16.8432 62.4902 16.8475C62.4604 16.857 62.431 16.8682 62.4023 16.8809L62.3303 16.9143L62.2582 16.96L62.1879 17.0092C62.1686 17.025 62.151 17.0443 62.1334 17.0619C62.1104 17.0835 62.0887 17.1063 62.0684 17.1305C62.0543 17.148 62.0438 17.1656 62.0314 17.1832C62.0099 17.2132 61.99 17.2443 61.9717 17.2764L61.9523 17.3221C61.9338 17.3606 61.9185 17.4005 61.9066 17.4416V17.4574C61.9066 17.4574 61.9066 17.475 61.9066 17.4838C61.8959 17.5265 61.8889 17.57 61.8855 17.6139C61.8847 17.6297 61.8847 17.6455 61.8855 17.6613C61.8836 17.706 61.886 17.7507 61.8926 17.7949ZM68.6777 13.1104C69.4421 15.0144 70.7977 16.6226 72.5449 17.6982C70.7974 18.7727 69.4416 20.3805 68.6777 22.2844C67.9131 20.3809 66.5575 18.7733 64.8105 17.6982C66.5571 16.6219 67.9126 15.0139 68.6777 13.1104Z" fill="#1A1A1A"/>
<path d="M41.7093 49.4758C41.5488 49.4092 41.372 49.3917 41.2015 49.4255C41.031 49.4592 40.8743 49.5429 40.7513 49.6657L37.8878 52.5292C37.7277 52.6949 37.6391 52.9169 37.6411 53.1474C37.6431 53.3778 37.7356 53.5983 37.8985 53.7612C38.0615 53.9242 38.2819 54.0166 38.5124 54.0186C38.7428 54.0206 38.9648 53.932 39.1306 53.7719L40.4929 52.4096V61.9809C40.4929 62.214 40.5855 62.4376 40.7503 62.6024C40.9152 62.7672 41.1387 62.8598 41.3718 62.8598C41.6049 62.8598 41.8285 62.7672 41.9933 62.6024C42.1581 62.4376 42.2507 62.214 42.2507 61.9809V50.288C42.2508 50.1142 42.1995 49.9444 42.1031 49.7998C42.0068 49.6553 41.8697 49.5426 41.7093 49.4758Z" fill="#1A1A1A"/>
<path d="M18.0457 68.7011C18.0424 67.7266 17.654 66.793 16.9651 66.1038C16.2762 65.4145 15.3428 65.0257 14.3683 65.022H13.9588C12.984 65.0252 12.0501 65.4139 11.3608 66.1031C10.6716 66.7924 10.2829 67.7263 10.2797 68.7011C10.2797 68.9342 10.3723 69.1577 10.5371 69.3226C10.7019 69.4874 10.9255 69.58 11.1586 69.58C11.3917 69.58 11.6152 69.4874 11.78 69.3226C11.9449 69.1577 12.0375 68.9342 12.0375 68.7011C12.0379 68.1917 12.2405 67.7032 12.6007 67.343C12.9609 66.9828 13.4493 66.7803 13.9588 66.7798H14.3683C14.8774 66.7807 15.3654 66.9835 15.7252 67.3437C16.0851 67.7038 16.2874 68.192 16.2879 68.7011C16.2884 69.6002 15.9737 70.471 15.3984 71.162L10.4853 77.0296C10.3785 77.1578 10.3105 77.3138 10.289 77.4792C10.2676 77.6447 10.2937 77.8129 10.3643 77.964C10.4349 78.1152 10.5471 78.2432 10.6878 78.3329C10.8284 78.4227 10.9917 78.4706 11.1586 78.471H17.1668C17.3999 78.471 17.6234 78.3784 17.7882 78.2136C17.9531 78.0487 18.0457 77.8252 18.0457 77.5921C18.0457 77.359 17.9531 77.1354 17.7882 76.9706C17.6234 76.8058 17.3999 76.7132 17.1668 76.7132H13.0465L16.7537 72.2853C17.5901 71.2783 18.0473 70.0101 18.0457 68.7011Z" fill="#1A1A1A"/>
<path d="M69.5778 68.6223C69.578 68.1058 69.4746 67.5946 69.2735 67.1189C69.0725 66.6431 68.7781 66.2126 68.4076 65.8528C68.0371 65.493 67.5982 65.2112 67.1168 65.0241C66.6354 64.8371 66.1213 64.7486 65.6051 64.7639C63.5415 64.8272 61.8645 66.6131 61.8645 68.7471C61.8645 68.9802 61.9571 69.2038 62.1219 69.3686C62.2868 69.5334 62.5103 69.626 62.7434 69.626C62.9765 69.626 63.2001 69.5334 63.3649 69.3686C63.5297 69.2038 63.6223 68.9802 63.6223 68.7471C63.6223 67.5535 64.5346 66.5551 65.6579 66.5217C65.9392 66.5147 66.2192 66.5635 66.4817 66.6651C66.7442 66.7668 66.9839 66.9194 67.1872 67.1141C67.4848 67.4018 67.69 67.7717 67.7765 68.1766C67.863 68.5815 67.8269 69.0029 67.6728 69.3872C67.5186 69.7714 67.2535 70.101 66.9112 70.3339C66.5689 70.5668 66.165 70.6925 65.751 70.6948C65.5179 70.6948 65.2944 70.7874 65.1295 70.9522C64.9647 71.117 64.8721 71.3406 64.8721 71.5737C64.8721 71.8068 64.9647 72.0303 65.1295 72.1951C65.2944 72.36 65.5179 72.4526 65.751 72.4526C66.1654 72.4545 66.5698 72.58 66.9124 72.813C67.2551 73.046 67.5205 73.3758 67.6747 73.7605C67.8289 74.1451 67.8649 74.567 67.778 74.9721C67.6912 75.3773 67.4854 75.7474 67.1872 76.035C66.9839 76.2296 66.7441 76.3822 66.4816 76.4838C66.2192 76.5855 65.9392 76.6343 65.6579 76.6274C64.5346 76.594 63.6223 75.5955 63.6223 74.402C63.6223 74.1689 63.5297 73.9453 63.3649 73.7805C63.2001 73.6157 62.9765 73.5231 62.7434 73.5231C62.5103 73.5231 62.2868 73.6157 62.1219 73.7805C61.9571 73.9453 61.8645 74.1689 61.8645 74.402C61.8645 76.536 63.5415 78.3219 65.6051 78.3834H65.7247C66.5166 78.3838 67.2893 78.14 67.9376 77.6852C68.5859 77.2304 69.0781 76.5867 69.3472 75.8419C69.6163 75.0971 69.6491 74.2874 69.4412 73.5233C69.2334 72.7592 68.7949 72.0777 68.1856 71.5719C68.621 71.2135 68.9716 70.7631 69.2123 70.2532C69.4531 69.7432 69.5779 69.1862 69.5778 68.6223Z" fill="#1A1A1A"/>
</g>
<defs>
<clipPath id="clip0_564_14045">
<rect width="79.882" height="78.5188" fill="white"/>
</clipPath>
</defs>
</svg>
