<svg width="79" height="78" viewBox="0 0 79 78" fill="none" xmlns="http://www.w3.org/2000/svg">
<g clip-path="url(#clip0_423_2591)">
<path d="M36.3241 40.9316C35.9241 40.9316 36.1575 23.265 36.3241 14.4316H38.3242L44.3242 15.9316L50.8242 19.4316L55.3242 23.4316L58.8242 27.9316L62.3242 35.9316L62.8242 40.9316H36.3241Z" fill="#1E4FCD"/>
<path d="M1.82422 40.9316C2.65755 38.765 4.42422 34.4316 4.82422 34.4316C12.6576 39.0983 28.4242 48.4316 28.8242 48.4316C29.2242 48.4316 16.3242 62.4316 9.82422 69.4316L8.32422 67.9316L4.82422 63.4316L1.82422 55.9316L0.324219 47.9316L1.82422 40.9316Z" fill="#1E4FCD"/>
<path d="M36.2955 42.1119H62.9264C63.0456 42.1121 63.1636 42.088 63.2732 42.0411C63.3828 41.9942 63.4817 41.9255 63.5639 41.8392C63.6462 41.7528 63.7099 41.6507 63.7514 41.5389C63.7929 41.4272 63.8113 41.3081 63.8053 41.1891C63.5666 36.3831 62.144 31.7107 59.664 27.5872C57.1839 23.4637 53.7233 20.017 49.5899 17.5535L57.4861 7.75781H69.8682C70.1013 7.75781 70.3248 7.66521 70.4896 7.50039C70.6545 7.33556 70.7471 7.11201 70.7471 6.87891C70.7471 6.64581 70.6545 6.42225 70.4896 6.25743C70.3248 6.0926 70.1013 6 69.8682 6H57.1223C57.0065 6.00025 56.892 6.02337 56.7852 6.06801C56.6784 6.11266 56.5815 6.17796 56.5 6.26016L47.992 16.6693C44.3744 14.8103 40.4086 13.7266 36.3483 13.4877C36.2286 13.4804 36.1087 13.4977 35.9959 13.5385C35.8831 13.5794 35.7799 13.6428 35.6926 13.725C35.6054 13.8072 35.536 13.9064 35.4885 14.0164C35.441 14.1264 35.4166 14.245 35.4166 14.3648V41.233C35.4166 41.4661 35.5092 41.6897 35.6741 41.8545C35.8389 42.0193 36.0624 42.1119 36.2955 42.1119ZM37.1744 15.3106C40.8186 15.6476 44.3586 16.7102 47.586 18.4359C47.6717 18.508 47.7709 18.5623 47.8778 18.5959C51.8411 20.7786 55.2033 23.9072 57.6653 27.7033C60.1274 31.4994 61.6128 35.8452 61.9895 40.3541H37.1744V15.3106Z" fill="#1A1A1A"/>
<path d="M69.7555 12H62.8789C62.6458 12 62.4223 12.0926 62.2574 12.2574C62.0926 12.4223 62 12.6458 62 12.8789C62 13.112 62.0926 13.3356 62.2574 13.5004C62.4223 13.6652 62.6458 13.7578 62.8789 13.7578H69.7555C69.9886 13.7578 70.2121 13.6652 70.3769 13.5004C70.5418 13.3356 70.6344 13.112 70.6344 12.8789C70.6344 12.6458 70.5418 12.4223 70.3769 12.2574C70.2121 12.0926 69.9886 12 69.7555 12Z" fill="#1A1A1A"/>
<path d="M73.8125 66.5613H62.9351L56.2555 59.8904C57.7574 56.3159 58.5301 52.4773 58.5283 48.6C58.5283 48.3669 58.4357 48.1433 58.2709 47.9785C58.1061 47.8137 57.8825 47.7211 57.6494 47.7211H30.1432V20.2148C30.1432 19.9817 30.0506 19.7582 29.8857 19.5934C29.7209 19.4285 29.4973 19.3359 29.2642 19.3359C24.2476 19.3385 19.3158 20.63 14.9419 23.0867C10.5679 25.5433 6.89855 29.0826 4.28573 33.365C4.26288 33.3967 4.23651 33.4248 4.21541 33.46C4.19629 33.4946 4.17926 33.5305 4.16444 33.5672C0.728592 39.2927 -0.642262 46.0224 0.280149 52.6356C1.20256 59.2489 4.36257 65.3467 9.23397 69.9135C9.26172 69.953 9.29354 69.9895 9.32889 70.0224C9.36599 70.0564 9.40598 70.0869 9.44842 70.1139C13.0429 73.4338 17.4134 75.7983 22.1592 76.9904C22.2117 77.0085 22.2659 77.0214 22.3209 77.0291C27.8597 78.3808 33.6726 78.0863 39.0465 76.1818C39.1069 76.1656 39.1658 76.1438 39.2223 76.1168C41.4868 75.2941 43.6406 74.1941 45.6348 72.842L45.7086 72.8051C45.7645 72.7705 45.8163 72.7298 45.8633 72.6838C47.8702 71.2961 49.697 69.6647 51.3019 67.8269C51.3745 67.7664 51.4368 67.6946 51.4865 67.6143C53.0586 65.7792 54.3982 63.757 55.475 61.5937L61.9437 68.0625C62.0255 68.1441 62.1226 68.2087 62.2293 68.2527C62.3361 68.2968 62.4505 68.3193 62.566 68.3191H73.8125C74.0456 68.3191 74.2691 68.2265 74.434 68.0617C74.5988 67.8969 74.6914 67.6733 74.6914 67.4402C74.6914 67.2071 74.5988 66.9836 74.434 66.8187C74.2691 66.6539 74.0456 66.5613 73.8125 66.5613ZM28.3853 21.1078V47.0426L6.19823 33.6305C8.61315 29.9093 11.892 26.8271 15.7552 24.6467C19.6184 22.4662 23.9516 21.2521 28.3853 21.1078ZM1.75799 48.6C1.75187 43.8819 2.96727 39.2425 5.28592 35.1334L27.8844 48.7934L9.90018 68.1117C7.31935 65.56 5.27071 62.5215 3.87303 59.1721C2.47536 55.8228 1.75645 52.2293 1.75799 48.6ZM11.1869 69.3141L14.9012 65.3238L20.5262 74.6842C17.0892 73.5279 13.9152 71.7028 11.1869 69.3141ZM29.2642 76.1062C27.1565 76.107 25.0556 75.8658 23.0029 75.3873L16.1474 63.9844L20.0146 59.8201L29.8021 76.0992C29.6281 76.1027 29.4471 76.1062 29.2642 76.1062ZM31.7937 75.9885L21.268 58.4824L25.1439 54.3164L37.526 74.8371C35.6621 75.4255 33.7403 75.8115 31.7937 75.9885ZM39.2205 74.2412L26.3885 52.9717L29.6562 49.4789H30.6723L44.0703 71.7715C42.5395 72.7534 40.9149 73.5807 39.2205 74.2412ZM45.5187 70.7766L32.7148 49.4789H39.0939L49.6531 67.043C48.4035 68.4228 47.0184 69.6736 45.5187 70.7766ZM50.8519 65.6262L41.1435 49.4789H47.5226L54.1004 60.4178C53.2144 62.2692 52.1248 64.0161 50.8519 65.6262ZM54.9547 58.4279L49.574 49.4789H56.7564C56.662 52.5418 56.0529 55.5671 54.9547 58.4279Z" fill="#1A1A1A"/>
<path d="M73.8125 72.3936H66.7126C66.4795 72.3936 66.256 72.4862 66.0912 72.651C65.9263 72.8158 65.8337 73.0394 65.8337 73.2725C65.8337 73.5056 65.9263 73.7291 66.0912 73.8939C66.256 74.0588 66.4795 74.1514 66.7126 74.1514H73.8125C74.0456 74.1514 74.2691 74.0588 74.4339 73.8939C74.5988 73.7291 74.6914 73.5056 74.6914 73.2725C74.6914 73.0394 74.5988 72.8158 74.4339 72.651C74.2691 72.4862 74.0456 72.3936 73.8125 72.3936Z" fill="#1A1A1A"/>
</g>
<defs>
<clipPath id="clip0_423_2591">
<rect width="78.6482" height="77.864" fill="white"/>
</clipPath>
</defs>
</svg>
