<svg width="138" height="111" viewBox="0 0 138 111" fill="none" xmlns="http://www.w3.org/2000/svg">
<path d="M23.4608 98.67L13.8008 41.4L48.3008 55.2L69.0008 13.8L89.7008 55.2L124.201 41.4L114.541 98.67C113.161 105.57 107.641 110.4 100.741 110.4H36.5708C30.3608 110.4 24.1508 105.57 23.4608 98.67Z" fill="white"/>
<path d="M68.9992 27.6C76.6207 27.6 82.7992 21.4215 82.7992 13.8C82.7992 6.17847 76.6207 0 68.9992 0C61.3777 0 55.1992 6.17847 55.1992 13.8C55.1992 21.4215 61.3777 27.6 68.9992 27.6Z" fill="white"/>
<path d="M124.2 55.2C131.822 55.2 138 49.0215 138 41.4C138 33.7785 131.822 27.6 124.2 27.6C116.579 27.6 110.4 33.7785 110.4 41.4C110.4 49.0215 116.579 55.2 124.2 55.2Z" fill="white"/>
<path d="M13.8 55.2C21.4215 55.2 27.6 49.0215 27.6 41.4C27.6 33.7785 21.4215 27.6 13.8 27.6C6.17847 27.6 0 33.7785 0 41.4C0 49.0215 6.17847 55.2 13.8 55.2Z" fill="white"/>
</svg>
