<svg width="96" height="96" viewBox="0 0 96 96" fill="none" xmlns="http://www.w3.org/2000/svg">
<path d="M80 72C80 69.8333 79.2083 67.9583 77.625 66.375C76.0417 64.7917 74.1667 64 72 64C69.8333 64 67.9583 64.7917 66.375 66.375C64.7917 67.9583 64 69.8333 64 72C64 74.1667 64.7917 76.0417 66.375 77.625C67.9583 79.2083 69.8333 80 72 80C74.1667 80 76.0417 79.2083 77.625 77.625C79.2083 76.0417 80 74.1667 80 72ZM32 24C32 21.8333 31.2083 19.9583 29.625 18.375C28.0417 16.7917 26.1667 16 24 16C21.8333 16 19.9583 16.7917 18.375 18.375C16.7917 19.9583 16 21.8333 16 24C16 26.1667 16.7917 28.0417 18.375 29.625C19.9583 31.2083 21.8333 32 24 32C26.1667 32 28.0417 31.2083 29.625 29.625C31.2083 28.0417 32 26.1667 32 24ZM96 72C96 78.625 93.6562 84.2812 88.9688 88.9688C84.2812 93.6562 78.625 96 72 96C65.375 96 59.7188 93.6562 55.0312 88.9688C50.3438 84.2812 48 78.625 48 72C48 65.375 50.3438 59.7188 55.0312 55.0312C59.7188 50.3438 65.375 48 72 48C78.625 48 84.2812 50.3438 88.9688 55.0312C93.6562 59.7188 96 65.375 96 72ZM90 4C90 4.83333 89.7292 5.625 89.1875 6.375L23.1875 94.375C22.3958 95.4583 21.3333 96 20 96H10C8.91667 96 7.97917 95.6042 7.1875 94.8125C6.39583 94.0208 6 93.0833 6 92C6 91.1667 6.27083 90.375 6.8125 89.625L72.8125 1.625C73.6042 0.541667 74.6667 0 76 0H86C87.0833 0 88.0208 0.395833 88.8125 1.1875C89.6042 1.97917 90 2.91667 90 4ZM48 24C48 30.625 45.6562 36.2812 40.9688 40.9688C36.2812 45.6562 30.625 48 24 48C17.375 48 11.7188 45.6562 7.03125 40.9688C2.34375 36.2812 0 30.625 0 24C0 17.375 2.34375 11.7188 7.03125 7.03125C11.7188 2.34375 17.375 0 24 0C30.625 0 36.2812 2.34375 40.9688 7.03125C45.6562 11.7188 48 17.375 48 24Z" fill="white"/>
</svg>
