<svg width="743" height="66" viewBox="0 0 743 66" fill="none" xmlns="http://www.w3.org/2000/svg">
<rect x="4" y="4" width="735" height="58" stroke="#1E4FCD" stroke-width="8"/>
<path d="M77.21 38.6201C77.21 38.3174 77.1221 38.0439 76.9463 37.7998C76.7705 37.5557 76.4434 37.3311 75.9648 37.126C75.4961 36.9111 74.8174 36.7158 73.9287 36.54C73.1279 36.3643 72.3809 36.1445 71.6875 35.8809C71.0039 35.6074 70.4082 35.2803 69.9004 34.8994C69.4023 34.5186 69.0117 34.0693 68.7285 33.5518C68.4453 33.0244 68.3037 32.4238 68.3037 31.75C68.3037 31.0859 68.4453 30.4609 68.7285 29.875C69.0215 29.2891 69.4365 28.7715 69.9736 28.3223C70.5205 27.8633 71.1846 27.5068 71.9658 27.2529C72.7568 26.9893 73.6455 26.8574 74.6318 26.8574C76.0088 26.8574 77.1904 27.0771 78.1768 27.5166C79.1729 27.9561 79.9346 28.5615 80.4619 29.333C80.999 30.0947 81.2676 30.9639 81.2676 31.9404H77.0488C77.0488 31.5303 76.9609 31.1641 76.7852 30.8418C76.6191 30.5098 76.3555 30.251 75.9941 30.0654C75.6426 29.8701 75.1836 29.7725 74.6172 29.7725C74.1484 29.7725 73.7432 29.8555 73.4014 30.0215C73.0596 30.1777 72.7959 30.3926 72.6104 30.666C72.4346 30.9297 72.3467 31.2227 72.3467 31.5449C72.3467 31.7891 72.3955 32.0088 72.4932 32.2041C72.6006 32.3896 72.7715 32.5605 73.0059 32.7168C73.2402 32.873 73.543 33.0195 73.9141 33.1562C74.2949 33.2832 74.7637 33.4004 75.3203 33.5078C76.4629 33.7422 77.4834 34.0498 78.3818 34.4307C79.2803 34.8018 79.9932 35.3096 80.5205 35.9541C81.0479 36.5889 81.3115 37.4238 81.3115 38.459C81.3115 39.1621 81.1553 39.8066 80.8428 40.3926C80.5303 40.9785 80.0811 41.4912 79.4951 41.9307C78.9092 42.3604 78.2061 42.6973 77.3857 42.9414C76.5752 43.1758 75.6621 43.293 74.6465 43.293C73.1719 43.293 71.9219 43.0293 70.8965 42.502C69.8809 41.9746 69.1094 41.3057 68.582 40.4951C68.0645 39.6748 67.8057 38.835 67.8057 37.9756H71.8047C71.8242 38.5518 71.9707 39.0156 72.2441 39.3672C72.5273 39.7188 72.8838 39.9727 73.3135 40.1289C73.7529 40.2852 74.2266 40.3633 74.7344 40.3633C75.2812 40.3633 75.7354 40.29 76.0967 40.1436C76.458 39.9873 76.7314 39.7822 76.917 39.5283C77.1123 39.2646 77.21 38.9619 77.21 38.6201ZM91.3457 43.293C90.1152 43.293 89.0117 43.0977 88.0352 42.707C87.0586 42.3066 86.2285 41.7549 85.5449 41.0518C84.8711 40.3486 84.3535 39.5332 83.9922 38.6055C83.6309 37.668 83.4502 36.6719 83.4502 35.6172V35.0312C83.4502 33.8301 83.6211 32.7314 83.9629 31.7354C84.3047 30.7393 84.793 29.875 85.4277 29.1426C86.0723 28.4102 86.8535 27.8486 87.7715 27.458C88.6895 27.0576 89.7246 26.8574 90.877 26.8574C92 26.8574 92.9961 27.043 93.8652 27.4141C94.7344 27.7852 95.4619 28.3125 96.0479 28.9961C96.6436 29.6797 97.0928 30.5 97.3955 31.457C97.6982 32.4043 97.8496 33.459 97.8496 34.6211V36.3789H85.252V33.5664H93.7041V33.2441C93.7041 32.6582 93.5967 32.1357 93.3818 31.6768C93.1768 31.208 92.8643 30.8369 92.4443 30.5635C92.0244 30.29 91.4873 30.1533 90.833 30.1533C90.2764 30.1533 89.7979 30.2754 89.3975 30.5195C88.9971 30.7637 88.6699 31.1055 88.416 31.5449C88.1719 31.9844 87.9863 32.502 87.8594 33.0977C87.7422 33.6836 87.6836 34.3281 87.6836 35.0312V35.6172C87.6836 36.252 87.7715 36.8379 87.9473 37.375C88.1328 37.9121 88.3916 38.376 88.7236 38.7666C89.0654 39.1572 89.4756 39.46 89.9541 39.6748C90.4424 39.8896 90.9941 39.9971 91.6094 39.9971C92.3711 39.9971 93.0791 39.8506 93.7334 39.5576C94.3975 39.2549 94.9688 38.8008 95.4473 38.1953L97.498 40.4219C97.166 40.9004 96.7119 41.3594 96.1357 41.7988C95.5693 42.2383 94.8857 42.5996 94.085 42.8828C93.2842 43.1562 92.3711 43.293 91.3457 43.293ZM108.807 39.4258V32.3652C108.807 31.8574 108.724 31.4229 108.558 31.0615C108.392 30.6904 108.133 30.4023 107.781 30.1973C107.439 29.9922 106.995 29.8896 106.448 29.8896C105.979 29.8896 105.574 29.9727 105.232 30.1387C104.891 30.2949 104.627 30.5244 104.441 30.8271C104.256 31.1201 104.163 31.4668 104.163 31.8672H99.9443C99.9443 31.1934 100.101 30.5537 100.413 29.9482C100.726 29.3428 101.18 28.8105 101.775 28.3516C102.371 27.8828 103.079 27.5166 103.899 27.2529C104.729 26.9893 105.657 26.8574 106.683 26.8574C107.913 26.8574 109.007 27.0625 109.964 27.4727C110.921 27.8828 111.673 28.498 112.22 29.3184C112.776 30.1387 113.055 31.1641 113.055 32.3945V39.1768C113.055 40.0459 113.108 40.7588 113.216 41.3154C113.323 41.8623 113.479 42.3408 113.685 42.751V43H109.422C109.217 42.5703 109.061 42.0332 108.953 41.3887C108.855 40.7344 108.807 40.0801 108.807 39.4258ZM109.363 33.3467L109.393 35.7344H107.034C106.478 35.7344 105.994 35.7979 105.584 35.9248C105.174 36.0518 104.837 36.2324 104.573 36.4668C104.31 36.6914 104.114 36.9551 103.987 37.2578C103.87 37.5605 103.812 37.8926 103.812 38.2539C103.812 38.6152 103.895 38.9424 104.061 39.2354C104.227 39.5186 104.466 39.7432 104.778 39.9092C105.091 40.0654 105.457 40.1436 105.877 40.1436C106.512 40.1436 107.063 40.0166 107.532 39.7627C108.001 39.5088 108.362 39.1963 108.616 38.8252C108.88 38.4541 109.017 38.1025 109.026 37.7705L110.14 39.5576C109.983 39.958 109.769 40.373 109.495 40.8027C109.231 41.2324 108.895 41.6377 108.484 42.0186C108.074 42.3896 107.581 42.6973 107.005 42.9414C106.429 43.1758 105.745 43.293 104.954 43.293C103.948 43.293 103.035 43.0928 102.215 42.6924C101.404 42.2822 100.76 41.7207 100.281 41.0078C99.8125 40.2852 99.5781 39.4648 99.5781 38.5469C99.5781 37.7168 99.7344 36.9795 100.047 36.335C100.359 35.6904 100.818 35.1484 101.424 34.709C102.039 34.2598 102.806 33.9229 103.724 33.6982C104.642 33.4639 105.706 33.3467 106.917 33.3467H109.363ZM120.525 30.6074V43H116.307V27.1504H120.276L120.525 30.6074ZM125.301 27.0479L125.228 30.959C125.022 30.9297 124.773 30.9053 124.48 30.8857C124.197 30.8564 123.938 30.8418 123.704 30.8418C123.108 30.8418 122.591 30.9199 122.151 31.0762C121.722 31.2227 121.36 31.4424 121.067 31.7354C120.784 32.0283 120.569 32.3848 120.423 32.8047C120.286 33.2246 120.208 33.7031 120.188 34.2402L119.339 33.9766C119.339 32.9512 119.441 32.0088 119.646 31.1494C119.852 30.2803 120.149 29.5234 120.54 28.8789C120.94 28.2344 121.429 27.7363 122.005 27.3848C122.581 27.0332 123.24 26.8574 123.982 26.8574C124.217 26.8574 124.456 26.877 124.7 26.916C124.944 26.9453 125.145 26.9893 125.301 27.0479ZM133.548 39.9971C134.065 39.9971 134.524 39.8994 134.925 39.7041C135.325 39.499 135.638 39.2158 135.862 38.8545C136.097 38.4834 136.219 38.0488 136.229 37.5508H140.198C140.188 38.6641 139.891 39.6553 139.305 40.5244C138.719 41.3838 137.933 42.0625 136.946 42.5605C135.96 43.0488 134.856 43.293 133.636 43.293C132.405 43.293 131.331 43.0879 130.413 42.6777C129.505 42.2676 128.748 41.7012 128.143 40.9785C127.537 40.2461 127.083 39.3965 126.78 38.4297C126.478 37.4531 126.326 36.4082 126.326 35.2949V34.8701C126.326 33.7471 126.478 32.7021 126.78 31.7354C127.083 30.7588 127.537 29.9092 128.143 29.1865C128.748 28.4541 129.505 27.8828 130.413 27.4727C131.321 27.0625 132.386 26.8574 133.606 26.8574C134.905 26.8574 136.043 27.1064 137.02 27.6045C138.006 28.1025 138.777 28.8154 139.334 29.7432C139.9 30.6611 140.188 31.75 140.198 33.0098H136.229C136.219 32.4824 136.106 32.0039 135.892 31.5742C135.687 31.1445 135.384 30.8027 134.983 30.5488C134.593 30.2852 134.109 30.1533 133.533 30.1533C132.918 30.1533 132.415 30.2852 132.024 30.5488C131.634 30.8027 131.331 31.1543 131.116 31.6035C130.901 32.043 130.75 32.5459 130.662 33.1123C130.584 33.6689 130.545 34.2549 130.545 34.8701V35.2949C130.545 35.9102 130.584 36.501 130.662 37.0674C130.74 37.6338 130.887 38.1367 131.102 38.5762C131.326 39.0156 131.634 39.3623 132.024 39.6162C132.415 39.8701 132.923 39.9971 133.548 39.9971ZM146.761 20.5V43H142.542V20.5H146.761ZM146.16 34.5186H145.003C145.013 33.415 145.159 32.3994 145.442 31.4717C145.726 30.5342 146.131 29.7236 146.658 29.04C147.186 28.3467 147.815 27.8096 148.548 27.4287C149.29 27.0479 150.11 26.8574 151.009 26.8574C151.79 26.8574 152.498 26.9697 153.133 27.1943C153.777 27.4092 154.329 27.7607 154.788 28.249C155.257 28.7275 155.618 29.3574 155.872 30.1387C156.126 30.9199 156.253 31.8672 156.253 32.9805V43H152.005V32.9512C152.005 32.248 151.902 31.6963 151.697 31.2959C151.502 30.8857 151.214 30.5977 150.833 30.4316C150.462 30.2559 150.003 30.168 149.456 30.168C148.851 30.168 148.333 30.2803 147.903 30.5049C147.483 30.7295 147.146 31.042 146.893 31.4424C146.639 31.833 146.453 32.292 146.336 32.8193C146.219 33.3467 146.16 33.9131 146.16 34.5186Z" fill="#1E4FCD"/>
<path d="M56.6942 44.8058L49.7134 37.8249C51.1557 35.651 52 33.0481 52 30.25C52 22.6683 45.8317 16.5 38.25 16.5C30.6683 16.5 24.5 22.6683 24.5 30.25C24.5 37.8317 30.6683 44 38.25 44C41.0481 44 43.651 43.1557 45.8249 41.7134L52.8058 48.6942C53.8783 49.7681 55.6217 49.7681 56.6942 48.6942C57.7681 47.6204 57.7681 45.8796 56.6942 44.8058ZM28.625 30.25C28.625 24.9425 32.9425 20.625 38.25 20.625C43.5575 20.625 47.875 24.9425 47.875 30.25C47.875 35.5575 43.5575 39.875 38.25 39.875C32.9425 39.875 28.625 35.5575 28.625 30.25Z" fill="#1E4FCD"/>
</svg>
