<svg width="383" height="383" viewBox="0 0 383 383" fill="none" xmlns="http://www.w3.org/2000/svg">
<path d="M27.708 162.06C59.1267 163.78 80.3973 164.64 91.52 164.64C94.1573 164.64 96.2213 163.895 97.712 162.404C99.3173 160.799 100.12 158.677 100.12 156.04V140.56H60.56C48.52 140.56 39.748 137.865 34.244 132.476C28.8547 126.972 26.16 118.2 26.16 106.16V101C26.16 88.96 28.8547 80.2453 34.244 74.856C39.748 69.352 48.52 66.6 60.56 66.6H120.932V90.68H67.44C60.56 90.68 57.12 94.12 57.12 101V104.44C57.12 111.32 60.56 114.76 67.44 114.76H98.4C109.637 114.76 117.893 117.397 123.168 122.672C128.443 127.947 131.08 136.203 131.08 147.44V156.04C131.08 167.277 128.443 175.533 123.168 180.808C117.893 186.083 109.637 188.72 98.4 188.72C92.552 188.72 86.36 188.605 79.824 188.376L64 187.688C52.304 187.115 40.2067 186.312 27.708 185.28V162.06ZM242.007 187H146.547V66.6H242.007V90.68H177.507V113.9H228.247V137.98H177.507V162.92H242.007V187ZM333.126 99.28C333.126 92.4 329.686 88.96 322.806 88.96H293.566C286.686 88.96 283.246 92.4 283.246 99.28V154.32C283.246 161.2 286.686 164.64 293.566 164.64H322.806C329.686 164.64 333.126 161.2 333.126 154.32V99.28ZM364.086 154.32C364.086 166.36 361.334 175.132 355.83 180.636C350.441 186.025 341.726 188.72 329.686 188.72H286.686C274.646 188.72 265.874 186.025 260.37 180.636C254.981 175.132 252.286 166.36 252.286 154.32V99.28C252.286 87.24 254.981 78.5253 260.37 73.136C265.874 67.632 274.646 64.88 286.686 64.88H329.686C341.726 64.88 350.441 67.632 355.83 73.136C361.334 78.5253 364.086 87.24 364.086 99.28V154.32Z" fill="#1A1A1A"/>
<path d="M27.708 292.06C59.1267 293.78 80.3973 294.64 91.52 294.64C94.1573 294.64 96.2213 293.895 97.712 292.404C99.3173 290.799 100.12 288.677 100.12 286.04V270.56H60.56C48.52 270.56 39.748 267.865 34.244 262.476C28.8547 256.972 26.16 248.2 26.16 236.16V231C26.16 218.96 28.8547 210.245 34.244 204.856C39.748 199.352 48.52 196.6 60.56 196.6H120.932V220.68H67.44C60.56 220.68 57.12 224.12 57.12 231V234.44C57.12 241.32 60.56 244.76 67.44 244.76H98.4C109.637 244.76 117.893 247.397 123.168 252.672C128.443 257.947 131.08 266.203 131.08 277.44V286.04C131.08 297.277 128.443 305.533 123.168 310.808C117.893 316.083 109.637 318.72 98.4 318.72C92.552 318.72 86.36 318.605 79.824 318.376L64 317.688C52.304 317.115 40.2067 316.312 27.708 315.28V292.06ZM242.007 317H146.547V196.6H242.007V220.68H177.507V243.9H228.247V267.98H177.507V292.92H242.007V317ZM333.126 229.28C333.126 222.4 329.686 218.96 322.806 218.96H293.566C286.686 218.96 283.246 222.4 283.246 229.28V284.32C283.246 291.2 286.686 294.64 293.566 294.64H322.806C329.686 294.64 333.126 291.2 333.126 284.32V229.28ZM364.086 284.32C364.086 296.36 361.334 305.132 355.83 310.636C350.441 316.025 341.726 318.72 329.686 318.72H286.686C274.646 318.72 265.874 316.025 260.37 310.636C254.981 305.132 252.286 296.36 252.286 284.32V229.28C252.286 217.24 254.981 208.525 260.37 203.136C265.874 197.632 274.646 194.88 286.686 194.88H329.686C341.726 194.88 350.441 197.632 355.83 203.136C361.334 208.525 364.086 217.24 364.086 229.28V284.32Z" fill="#1E4FCD"/>
<rect x="19.4399" y="99.7823" width="275.352" height="275.352" transform="rotate(-16.9645 19.4399 99.7823)" stroke="#1A1A1A" stroke-width="31"/>
<path d="M241.78 317H146.32V196.6H241.78V220.68H177.28V243.9H228.02V267.98H177.28V292.92H241.78V317ZM332.9 229.28C332.9 222.4 329.46 218.96 322.58 218.96H293.34C286.46 218.96 283.02 222.4 283.02 229.28V284.32C283.02 291.2 286.46 294.64 293.34 294.64H322.58C329.46 294.64 332.9 291.2 332.9 284.32V229.28ZM363.86 284.32C363.86 296.36 361.108 305.132 355.604 310.636C350.214 316.025 341.5 318.72 329.46 318.72H286.46C274.42 318.72 265.648 316.025 260.144 310.636C254.754 305.132 252.06 296.36 252.06 284.32V229.28C252.06 217.24 254.754 208.525 260.144 203.136C265.648 197.632 274.42 194.88 286.46 194.88H329.46C341.5 194.88 350.214 197.632 355.604 203.136C361.108 208.525 363.86 217.24 363.86 229.28V284.32Z" fill="#1E4FCD"/>
</svg>
