<svg width="701" height="575" viewBox="0 0 701 575" fill="none" xmlns="http://www.w3.org/2000/svg">
<path d="M211.5 321L210.1 314C205.713 316.893 201.186 319.04 196.52 320.44C191.946 321.747 188.073 322.4 184.9 322.4H178.6C172.253 322.4 167.166 320.487 163.34 316.66C159.513 312.833 157.6 307.747 157.6 301.4V269.2C157.6 262.2 159.56 256.74 163.48 252.82C167.493 248.807 173 246.8 180 246.8H208.7V223H233.2V321H211.5ZM191.9 302.1C196.846 302.1 202.446 301.167 208.7 299.3V265.7H187.7C183.966 265.7 182.1 267.567 182.1 271.3V297.2C182.1 298.6 182.566 299.767 183.5 300.7C184.433 301.633 185.6 302.1 187 302.1H191.9ZM277.983 249.6V321H253.483V268.5H242.983V249.6H277.983ZM253.483 221.6H277.983V241.2H253.483V221.6ZM340.327 315.4C331.274 317.267 323.34 318.2 316.527 318.2H311.627C305.28 318.2 300.194 316.287 296.367 312.46C292.54 308.633 290.627 303.547 290.627 297.2V269.2C290.627 262.2 292.587 256.74 296.507 252.82C300.52 248.807 306.027 246.8 313.027 246.8H364.827V325.2C364.827 331.547 362.914 336.633 359.087 340.46C355.26 344.287 350.174 346.2 343.827 346.2C329.174 346.2 312.84 345.267 294.827 343.4V325.2C312.654 326.6 326.187 327.3 335.427 327.3C336.827 327.3 337.994 326.833 338.927 325.9C339.86 324.967 340.327 323.8 340.327 322.4V315.4ZM323.527 299.3C329.407 299.3 335.007 298.833 340.327 297.9V265.7H320.727C316.994 265.7 315.127 267.567 315.127 271.3V294.4C315.127 295.8 315.594 296.967 316.527 297.9C317.46 298.833 318.627 299.3 320.027 299.3H323.527ZM409.644 249.6V321H385.144V268.5H374.644V249.6H409.644ZM385.144 221.6H409.644V241.2H385.144V221.6ZM475.487 321C466.434 321.933 457.567 322.4 448.887 322.4C442.541 322.4 437.454 320.487 433.627 316.66C429.801 312.833 427.887 307.747 427.887 301.4V265.7H419.487V246.8H427.887L430.687 230H452.387V246.8H469.887V265.7H452.387V297.9C452.387 299.3 452.854 300.467 453.787 301.4C454.721 302.333 455.887 302.8 457.287 302.8L475.487 302.8V321ZM512.013 302.8C516.96 302.8 522.56 301.867 528.813 300V291.6H508.513C507.113 291.6 505.946 292.067 505.013 293C504.08 293.933 503.613 295.1 503.613 296.5V297.9C503.613 299.3 504.08 300.467 505.013 301.4C505.946 302.333 507.113 302.8 508.513 302.8H512.013ZM486.113 248.2C503.193 246.333 518.593 245.4 532.313 245.4C538.66 245.4 543.746 247.313 547.573 251.14C551.4 254.967 553.313 260.053 553.313 266.4V321L531.613 321L530.213 314C525.826 316.893 521.3 319.04 516.633 320.44C512.06 321.747 508.186 322.4 505.013 322.4H500.113C493.766 322.4 488.68 320.487 484.853 316.66C481.026 312.833 479.113 307.747 479.113 301.4V295.1C479.113 288.753 481.026 283.667 484.853 279.84C488.68 276.013 493.766 274.1 500.113 274.1H528.813V268.5C528.813 267.1 528.346 265.933 527.413 265C526.48 264.067 525.313 263.6 523.913 263.6C517.846 263.6 511.126 263.88 503.753 264.44C496.473 265 490.593 265.42 486.113 265.7V248.2ZM603.675 321C597.421 321.933 591.448 322.4 585.755 322.4C580.155 322.4 575.441 320.487 571.615 316.66C567.788 312.833 565.875 307.747 565.875 301.4V223H590.375V297.9C590.375 299.3 590.841 300.467 591.775 301.4C592.708 302.333 593.875 302.8 595.275 302.8H603.675V321Z" fill="white"/>
<path d="M37.2 439.4C56.1467 440.8 71.08 441.5 82 441.5C83.4 441.5 84.5667 441.033 85.5 440.1C86.4333 439.167 86.9 438 86.9 436.6V431.7H56.8C50.4533 431.7 45.3667 429.787 41.54 425.96C37.7133 422.133 35.8 417.047 35.8 410.7V405.8C35.8 399.453 37.7133 394.367 41.54 390.54C45.3667 386.713 50.4533 384.8 56.8 384.8H104.4L104.4 403H65.2C63.8 403 62.6333 403.467 61.7 404.4C60.7667 405.333 60.3 406.5 60.3 407.9C60.3 409.3 60.7667 410.467 61.7 411.4C62.6333 412.333 63.8 412.8 65.2 412.8H90.4C96.7467 412.8 101.833 414.713 105.66 418.54C109.487 422.367 111.4 427.453 111.4 433.8V439.4C111.4 445.747 109.487 450.833 105.66 454.66C101.833 458.487 96.7467 460.4 90.4 460.4C73.88 460.4 56.1467 459.467 37.2 457.6V439.4ZM196.811 438C196.811 445 194.804 450.507 190.791 454.52C186.871 458.44 181.411 460.4 174.411 460.4H142.211C135.211 460.4 129.704 458.44 125.691 454.52C121.771 450.507 119.811 445 119.811 438V405.8C119.811 398.8 121.771 393.34 125.691 389.42C129.704 385.407 135.211 383.4 142.211 383.4H174.411C181.411 383.4 186.871 385.407 190.791 389.42C194.804 393.34 196.811 398.8 196.811 405.8V438ZM172.311 407.9C172.311 404.167 170.444 402.3 166.711 402.3H149.911C146.178 402.3 144.311 404.167 144.311 407.9V435.9C144.311 439.633 146.178 441.5 149.911 441.5H166.711C170.444 441.5 172.311 439.633 172.311 435.9V407.9ZM247.195 459C240.941 459.933 234.968 460.4 229.275 460.4C223.675 460.4 218.961 458.487 215.135 454.66C211.308 450.833 209.395 445.747 209.395 439.4V361H233.895V435.9C233.895 437.3 234.361 438.467 235.295 439.4C236.228 440.333 237.395 440.8 238.795 440.8H247.195L247.195 459ZM291.273 440.1C296.219 440.1 301.819 439.167 308.073 437.3V384.8L332.573 384.8V459H310.873L309.473 452C305.086 454.893 300.559 457.04 295.893 458.44C291.319 459.747 287.446 460.4 284.273 460.4H277.973C271.626 460.4 266.539 458.487 262.713 454.66C258.886 450.833 256.973 445.747 256.973 439.4V384.8H281.473V435.2C281.473 436.6 281.939 437.767 282.873 438.7C283.806 439.633 284.973 440.1 286.373 440.1H291.273ZM398.323 459C389.27 459.933 380.403 460.4 371.723 460.4C365.377 460.4 360.29 458.487 356.463 454.66C352.637 450.833 350.723 445.747 350.723 439.4V403.7H342.323V384.8H350.723L353.523 368H375.223V384.8H392.723V403.7H375.223V435.9C375.223 437.3 375.69 438.467 376.623 439.4C377.557 440.333 378.723 440.8 380.123 440.8H398.323V459ZM436.249 387.6V459L411.749 459V406.5H401.249V387.6H436.249ZM411.749 359.6H436.249V379.2H411.749V359.6ZM525.893 438C525.893 445 523.886 450.507 519.873 454.52C515.953 458.44 510.493 460.4 503.493 460.4H471.293C464.293 460.4 458.786 458.44 454.773 454.52C450.853 450.507 448.893 445 448.893 438V405.8C448.893 398.8 450.853 393.34 454.773 389.42C458.786 385.407 464.293 383.4 471.293 383.4H503.493C510.493 383.4 515.953 385.407 519.873 389.42C523.886 393.34 525.893 398.8 525.893 405.8V438ZM501.393 407.9C501.393 404.167 499.526 402.3 495.793 402.3H478.993C475.26 402.3 473.393 404.167 473.393 407.9V435.9C473.393 439.633 475.26 441.5 478.993 441.5H495.793C499.526 441.5 501.393 439.633 501.393 435.9V407.9ZM579.777 403.7C574.83 403.7 569.23 404.633 562.977 406.5V459H538.477V384.8H560.177L561.577 391.8C565.963 388.907 570.443 386.807 575.017 385.5C579.683 384.1 583.603 383.4 586.777 383.4H593.077C599.423 383.4 604.51 385.313 608.337 389.14C612.163 392.967 614.077 398.053 614.077 404.4V459H589.577V408.6C589.577 407.2 589.11 406.033 588.177 405.1C587.243 404.167 586.077 403.7 584.677 403.7H579.777ZM623.86 439.4C642.807 440.8 657.74 441.5 668.66 441.5C670.06 441.5 671.227 441.033 672.16 440.1C673.093 439.167 673.56 438 673.56 436.6V431.7H643.46C637.113 431.7 632.027 429.787 628.2 425.96C624.373 422.133 622.46 417.047 622.46 410.7V405.8C622.46 399.453 624.373 394.367 628.2 390.54C632.027 386.713 637.113 384.8 643.46 384.8H691.06V403H651.86C650.46 403 649.293 403.467 648.36 404.4C647.427 405.333 646.96 406.5 646.96 407.9C646.96 409.3 647.427 410.467 648.36 411.4C649.293 412.333 650.46 412.8 651.86 412.8H677.06C683.407 412.8 688.493 414.713 692.32 418.54C696.147 422.367 698.06 427.453 698.06 433.8V439.4C698.06 445.747 696.147 450.833 692.32 454.66C688.493 458.487 683.407 460.4 677.06 460.4C660.54 460.4 642.807 459.467 623.86 457.6V439.4Z" fill="white"/>
<path d="M109.7 117.023C117.26 117.023 123.093 119.823 127.2 125.423C131.493 122.53 136.113 120.43 141.06 119.123C146.1 117.723 150.58 117.023 154.5 117.023H155.9C162.247 117.023 167.333 118.936 171.16 122.763C174.987 126.59 176.9 131.676 176.9 138.023V192.623H152.4V142.223C152.4 140.823 151.933 139.656 151 138.723C150.067 137.79 148.9 137.323 147.5 137.323H146.8C142.6 137.323 137.233 138.256 130.7 140.123V192.623H106.2L106.2 142.223C106.2 140.823 105.733 139.656 104.8 138.723C103.867 137.79 102.7 137.323 101.3 137.323H100.6C96.4 137.323 91.0333 138.256 84.5 140.123L84.5 192.623H60L60 118.423H81.7L83.1 125.423C87.4867 122.53 91.9667 120.43 96.54 119.123C101.207 117.723 105.127 117.023 108.3 117.023H109.7ZM265.073 171.623C265.073 178.623 263.066 184.13 259.053 188.143C255.133 192.063 249.673 194.023 242.673 194.023H210.473C203.473 194.023 197.966 192.063 193.953 188.143C190.033 184.13 188.073 178.623 188.073 171.623V139.423C188.073 132.423 190.033 126.963 193.953 123.043C197.966 119.03 203.473 117.023 210.473 117.023L242.673 117.023C249.673 117.023 255.133 119.03 259.053 123.043C263.066 126.963 265.073 132.423 265.073 139.423V171.623ZM240.573 141.523C240.573 137.79 238.706 135.923 234.973 135.923H218.173C214.439 135.923 212.573 137.79 212.573 141.523V169.523C212.573 173.256 214.439 175.123 218.173 175.123H234.973C238.706 175.123 240.573 173.256 240.573 169.523V141.523ZM330.156 192.623L328.756 185.623C324.37 188.516 319.843 190.663 315.176 192.063C310.603 193.37 306.73 194.023 303.556 194.023H297.256C290.91 194.023 285.823 192.11 281.996 188.283C278.17 184.456 276.256 179.37 276.256 173.023V140.823C276.256 133.823 278.216 128.363 282.136 124.443C286.15 120.43 291.656 118.423 298.656 118.423H327.356V94.623H351.856V192.623H330.156ZM310.556 173.723C315.503 173.723 321.103 172.79 327.356 170.923V137.323H306.356C302.623 137.323 300.756 139.19 300.756 142.923V168.823C300.756 170.223 301.223 171.39 302.156 172.323C303.09 173.256 304.256 173.723 305.656 173.723H310.556ZM394.54 134.523C390.807 134.523 388.94 136.39 388.94 140.123V147.823H412.74V140.123C412.74 136.39 410.873 134.523 407.14 134.523H394.54ZM434.44 191.223C416.427 193.09 400.093 194.023 385.44 194.023C379.093 194.023 374.007 192.11 370.18 188.283C366.353 184.456 364.44 179.37 364.44 173.023V139.423C364.44 132.423 366.4 126.963 370.32 123.043C374.333 119.03 379.84 117.023 386.84 117.023L414.84 117.023C421.84 117.023 427.3 119.03 431.22 123.043C435.233 126.963 437.24 132.423 437.24 139.423V165.323H388.94V170.923C388.94 172.323 389.407 173.49 390.34 174.423C391.273 175.356 392.44 175.823 393.84 175.823C403.08 175.823 416.613 175.123 434.44 173.723V191.223ZM492.485 138.723C486.605 138.723 480.538 140.123 474.285 142.923V192.623H449.785V118.423L471.485 118.423L472.885 127.523C480.912 120.523 489.312 117.023 498.085 117.023H504.385V138.723H492.485ZM555.48 137.323C550.533 137.323 544.933 138.256 538.68 140.123V192.623H514.18V118.423H535.88L537.28 125.423C541.666 122.53 546.146 120.43 550.72 119.123C555.386 117.723 559.306 117.023 562.48 117.023H568.78C575.126 117.023 580.213 118.936 584.04 122.763C587.866 126.59 589.78 131.676 589.78 138.023V192.623H565.28V142.223C565.28 140.823 564.813 139.656 563.88 138.723C562.946 137.79 561.78 137.323 560.38 137.323H555.48Z" fill="white"/>
<mask id="mask0_1441_8821" style="mask-type:alpha" maskUnits="userSpaceOnUse" x="15" y="18" width="612" height="547">
<path d="M623.676 376.131C642.243 471.973 556.906 569.437 459.328 564.577C377.803 560.516 384.297 450.474 308.655 419.816C226.338 386.453 155.634 475.386 81.3039 426.782C-36.8813 349.503 18.8978 147.184 136.952 69.7286C239.868 2.20542 424.284 -12.3253 449.903 108.01C466.916 187.924 336.421 215.066 355.2 294.585C380.367 401.152 602.85 268.633 623.676 376.131Z" fill="#1E4FCD"/>
</mask>
<g mask="url(#mask0_1441_8821)">
</g>
</svg>
