<svg width="668" height="456" viewBox="0 0 668 456" fill="none" xmlns="http://www.w3.org/2000/svg">
<path d="M178.5 273.999L177.1 266.999C172.713 269.892 168.186 272.039 163.52 273.439C158.946 274.746 155.073 275.399 151.9 275.399H145.6C139.253 275.399 134.166 273.486 130.34 269.659C126.513 265.832 124.6 260.746 124.6 254.399V222.199C124.6 215.199 126.56 209.739 130.48 205.819C134.493 201.806 140 199.799 147 199.799H175.7V175.999H200.2V273.999H178.5ZM158.9 255.099C163.846 255.099 169.446 254.166 175.7 252.299V218.699H154.7C150.966 218.699 149.1 220.566 149.1 224.299V250.199C149.1 251.599 149.566 252.766 150.5 253.699C151.433 254.632 152.6 255.099 154 255.099H158.9ZM244.983 202.599V273.999H220.483V221.499H209.983V202.599H244.983ZM220.483 174.599H244.983V194.199H220.483V174.599ZM307.327 268.399C298.274 270.266 290.34 271.199 283.527 271.199H278.627C272.28 271.199 267.194 269.286 263.367 265.459C259.54 261.632 257.627 256.546 257.627 250.199V222.199C257.627 215.199 259.587 209.739 263.507 205.819C267.52 201.806 273.027 199.799 280.027 199.799H331.827V278.199C331.827 284.546 329.914 289.632 326.087 293.459C322.26 297.286 317.174 299.199 310.827 299.199C296.174 299.199 279.84 298.266 261.827 296.399V278.199C279.654 279.599 293.187 280.299 302.427 280.299C303.827 280.299 304.994 279.832 305.927 278.899C306.86 277.966 307.327 276.799 307.327 275.399V268.399ZM290.527 252.299C296.407 252.299 302.007 251.832 307.327 250.899V218.699H287.727C283.994 218.699 282.127 220.566 282.127 224.299V247.399C282.127 248.799 282.594 249.966 283.527 250.899C284.46 251.832 285.627 252.299 287.027 252.299H290.527ZM376.644 202.599V273.999H352.144V221.499H341.644V202.599H376.644ZM352.144 174.599H376.644V194.199H352.144V174.599ZM442.487 273.999C433.434 274.932 424.567 275.399 415.887 275.399C409.541 275.399 404.454 273.486 400.627 269.659C396.801 265.832 394.887 260.746 394.887 254.399V218.699H386.487V199.799H394.887L397.687 182.999H419.387V199.799H436.887V218.699H419.387V250.899C419.387 252.299 419.854 253.466 420.787 254.399C421.721 255.332 422.887 255.799 424.287 255.799L442.487 255.799V273.999ZM479.013 255.799C483.96 255.799 489.56 254.866 495.813 252.999V244.599H475.513C474.113 244.599 472.946 245.066 472.013 245.999C471.08 246.932 470.613 248.099 470.613 249.499V250.899C470.613 252.299 471.08 253.466 472.013 254.399C472.946 255.332 474.113 255.799 475.513 255.799H479.013ZM453.113 201.199C470.193 199.332 485.593 198.399 499.313 198.399C505.66 198.399 510.746 200.312 514.573 204.139C518.4 207.966 520.313 213.052 520.313 219.399V273.999L498.613 273.999L497.213 266.999C492.826 269.892 488.3 272.039 483.633 273.439C479.06 274.746 475.186 275.399 472.013 275.399H467.113C460.766 275.399 455.68 273.486 451.853 269.659C448.026 265.832 446.113 260.746 446.113 254.399V248.099C446.113 241.752 448.026 236.666 451.853 232.839C455.68 229.012 460.766 227.099 467.113 227.099H495.813V221.499C495.813 220.099 495.346 218.932 494.413 217.999C493.48 217.066 492.313 216.599 490.913 216.599C484.846 216.599 478.126 216.879 470.753 217.439C463.473 217.999 457.593 218.419 453.113 218.699V201.199ZM570.675 273.999C564.421 274.932 558.448 275.399 552.755 275.399C547.155 275.399 542.441 273.486 538.615 269.659C534.788 265.832 532.875 260.746 532.875 254.399V175.999H557.375V250.899C557.375 252.299 557.841 253.466 558.775 254.399C559.708 255.332 560.875 255.799 562.275 255.799H570.675V273.999Z" fill="white"/>
</svg>
