<svg width="225" height="645" viewBox="0 0 225 645" fill="none" xmlns="http://www.w3.org/2000/svg">
<path d="M114.116 185.5C108.662 155.855 57.6429 163.638 57.0757 133.5C56.4985 102.831 101.035 107.245 114.116 79.5C127.383 51.3625 119.12 0 119.12 0H633.485V632H114.116C114.116 632 135.719 578.391 116.5 555.5C102.627 538.976 80.9267 550.055 65 535.5C49.2069 521.068 38.7355 509.384 40.5 486.5C42.5006 460.554 117.19 478.341 114.116 452.5C112.293 437.175 92.1853 437.098 88.9851 422C84.2579 399.697 117.473 394.739 119.12 372C121.49 339.273 58.2931 351.28 45.4852 318C33.9388 287.997 41.5335 264.641 57.0756 236.5C71.5218 210.343 121.888 227.739 114.116 185.5Z" fill="#1E4FCD"/>
<path d="M1.00015 54C-0.907726 29.048 33.1606 7.28211 55.0001 19.5C68.3421 26.964 74.6657 38.7566 73.5001 54C71.3416 82.2306 3.15871 82.2306 1.00015 54Z" fill="#1E4FCD"/>
<path d="M43.0443 376.854C41.9423 362.517 61.6542 349.958 74.2354 357.031C84 362.52 87.9214 389.347 74.2354 396.02C61.3849 402.286 44.2911 393.075 43.0443 376.854Z" fill="#1E4FCD"/>
<path d="M49.8322 569.084C76.8398 566.995 100.497 604.364 87.1745 628.214C76.8343 646.725 26.2989 654.159 13.7286 628.214C1.92563 603.853 19.2757 571.448 49.8322 569.084Z" fill="#1E4FCD"/>
</svg>
