<svg width="320" height="117" viewBox="0 0 320 117" fill="none" xmlns="http://www.w3.org/2000/svg">
<path d="M207.421 72.5091C226.371 69.0174 221.396 36.3558 240.661 35.9927C260.266 35.6232 257.444 64.1345 275.18 72.509C293.167 81.0019 326 75.7122 326 75.7122L326 116.5L-78 116.5L-78 72.509C-78 72.509 -43.7311 86.3389 -29.0981 74.0351C-18.5354 65.1537 -25.6171 51.2617 -16.3133 41.0657C-7.08746 30.9552 0.38089 24.2516 15.0095 25.3812C31.5955 26.6619 20.225 74.4765 36.7437 72.509C46.5404 71.3421 46.5893 58.4692 56.2405 56.4205C70.4975 53.3942 73.667 74.6581 88.2026 75.7122C109.123 77.2293 101.447 36.772 122.722 28.5727C141.901 21.1808 156.831 26.0428 174.82 35.9926C191.54 45.2408 180.42 77.4841 207.421 72.5091Z" fill="#1E4FCD"/>
<path d="M291.597 0.0496448C307.621 -1.18356 321.599 20.8374 313.753 34.954C308.959 43.5779 301.386 47.6653 291.597 46.9119C273.468 45.5167 273.468 1.44489 291.597 0.0496448Z" fill="#1E4FCD"/>
<path d="M84.7691 27.0287C94.1051 26.314 102.283 39.098 97.6776 47.2574C94.1032 53.5902 76.6342 56.1334 72.2889 47.2574C68.2089 38.9233 74.2064 27.8373 84.7691 27.0287Z" fill="#1E4FCD"/>
</svg>
