<svg width="287" height="267" viewBox="0 0 287 267" fill="none" xmlns="http://www.w3.org/2000/svg">
<path d="M228.68 79.9992L173.502 92.9165L160.645 37.9965C158.237 27.7094 147.947 21.3232 137.66 23.7314C132.006 25.055 127.249 28.8838 124.752 34.123L76.6818 134.977L76.691 134.975L76.6818 134.977L98.2035 226.908L130.087 238.838L244.754 211.994C252.954 210.075 258.887 202.945 259.291 194.521L263.404 108.951C264.3 90.1622 246.983 75.7143 228.68 79.9992Z" stroke="#1E4FCD" stroke-width="17" stroke-miterlimit="10" stroke-linecap="round" stroke-linejoin="round"/>
<path d="M72.3758 116.59L17.2168 129.503L47.3471 258.208L102.506 245.295L72.3758 116.59Z" stroke="#1E4FCD" stroke-width="17" stroke-miterlimit="10" stroke-linecap="round" stroke-linejoin="round"/>
<path d="M75.0243 212.94C76.15 217.749 73.1646 222.559 68.3562 223.685C63.5478 224.811 58.7373 221.825 57.6117 217.017C56.486 212.208 59.4714 207.398 64.2798 206.272C69.0882 205.147 73.8987 208.132 75.0243 212.94Z" fill="#1E4FCD" stroke="#1E4FCD"/>
</svg>
