<svg width="661" height="336" viewBox="0 0 661 336" fill="none" xmlns="http://www.w3.org/2000/svg">
<g clip-path="url(#clip0_795_7373)">
<path d="M183.81 65H155.37V53.94H162.48V20.76H155.37V9.7H183.81V20.76H176.7V53.94H183.81V65ZM239.104 65H224.094L205.134 31.82V65H190.914V9.7H205.924L224.884 42.88V9.7H239.104V65ZM246.962 53.545C261.393 54.335 271.162 54.73 276.271 54.73C277.482 54.73 278.43 54.3877 279.115 53.703C279.852 52.9657 280.221 51.9913 280.221 50.78V43.67H262.051C256.521 43.67 252.492 42.4323 249.964 39.957C247.489 37.429 246.251 33.4 246.251 27.87V25.5C246.251 19.97 247.489 15.9673 249.964 13.492C252.492 10.964 256.521 9.7 262.051 9.7H289.78V20.76H265.211C262.051 20.76 260.471 22.34 260.471 25.5V27.08C260.471 30.24 262.051 31.82 265.211 31.82H279.431C284.592 31.82 288.384 33.0313 290.807 35.454C293.23 37.8767 294.441 41.6687 294.441 46.83V50.78C294.441 55.9413 293.23 59.7333 290.807 62.156C288.384 64.5787 284.592 65.79 279.431 65.79C276.745 65.79 273.901 65.7373 270.899 65.632L263.631 65.316C258.259 65.0527 252.703 64.684 246.962 64.21V53.545ZM324.47 65H310.25V20.76H293.66V9.7H341.06V20.76H324.47V65ZM350.92 65H335.515L356.45 9.7H372.25L393.185 65H377.78L374.225 55.125H354.475L350.92 65ZM358.03 44.855H370.67L364.35 26.29L358.03 44.855ZM442.989 63.815C430.665 65.1317 419.341 65.79 409.019 65.79C403.857 65.79 400.065 64.5787 397.643 62.156C395.22 59.7333 394.009 55.9413 394.009 50.78V25.5C394.009 19.97 395.246 15.9673 397.722 13.492C400.25 10.964 404.279 9.7 409.809 9.7H438.249V20.76H412.969C409.809 20.76 408.229 22.34 408.229 25.5V50.78C408.229 51.9913 408.571 52.9657 409.256 53.703C409.993 54.3877 410.967 54.73 412.179 54.73C418.235 54.73 423.765 54.5983 428.769 54.335V42.88H418.499V33.4H442.989V63.815ZM450.904 9.7H484.084C489.614 9.7 493.617 10.964 496.092 13.492C498.62 15.9673 499.884 19.97 499.884 25.5V32.61C499.884 36.9813 499.147 40.3783 497.672 42.801C496.25 45.2237 493.959 46.83 490.799 47.62L500.674 65H485.269L476.184 48.41H465.124V65H450.904V9.7ZM485.664 25.5C485.664 22.34 484.084 20.76 480.924 20.76H465.124V37.35H480.924C484.084 37.35 485.664 35.77 485.664 32.61V25.5ZM517.637 65H502.232L523.167 9.7H538.967L559.902 65H544.497L540.942 55.125H521.192L517.637 65ZM524.747 44.855H537.387L531.067 26.29L524.747 44.855ZM611.249 34.19L600.189 53.94H589.129L578.069 34.19V65H563.849V9.7H578.859L594.659 38.93L610.459 9.7H625.469V65H611.249V34.19Z" fill="#1A1A1A"/>
</g>
<g clip-path="url(#clip1_795_7373)">
<path d="M47.64 122H36.66V79.3H70.515V87.84H47.64V97.905H65.635V106.445H47.64V122ZM78.7762 122H66.8812L83.0462 79.3H95.2462L111.411 122H99.5162L96.7712 114.375H81.5212L78.7762 122ZM84.2662 106.445H94.0262L89.1462 92.11L84.2662 106.445ZM146.207 121.39C137.139 122.203 129.615 122.61 123.637 122.61C119.652 122.61 116.724 121.675 114.853 119.804C112.983 117.933 112.047 115.005 112.047 111.02V91.5C112.047 87.23 113.003 84.1393 114.914 82.228C116.866 80.276 119.977 79.3 124.247 79.3H146.207V87.84H126.687C124.247 87.84 123.027 89.06 123.027 91.5V111.02C123.027 111.955 123.292 112.708 123.82 113.277C124.39 113.806 125.101 114.07 125.955 114.07C126.809 114.07 127.745 114.07 128.761 114.07C129.778 114.029 130.835 113.989 131.933 113.948C133.031 113.907 134.129 113.867 135.227 113.826C136.366 113.785 137.81 113.704 139.558 113.582C141.348 113.46 143.564 113.318 146.207 113.155V121.39ZM184.95 122H151.095V79.3H184.95V87.84H162.075V96.075H180.07V104.615H162.075V113.46H184.95V122ZM189.815 79.3H214.215C218.201 79.3 221.129 80.215 222.999 82.045C224.87 83.8343 225.805 86.5793 225.805 90.28C225.805 92.72 225.277 94.7127 224.219 96.258C223.162 97.7627 221.861 98.82 220.315 99.43C223.609 100.325 225.846 102.521 227.025 106.018C227.432 107.279 227.635 108.743 227.635 110.41C227.635 114.395 226.7 117.323 224.829 119.194C222.959 121.065 220.031 122 216.045 122H189.815V79.3ZM216.655 108.58C216.655 106.14 215.435 104.92 212.995 104.92H200.795V113.46H212.995C215.435 113.46 216.655 112.24 216.655 109.8V108.58ZM214.825 91.5C214.825 89.06 213.605 87.84 211.165 87.84H200.795V96.38H211.165C213.605 96.38 214.825 95.16 214.825 92.72V91.5ZM260.573 90.89C260.573 88.45 259.353 87.23 256.913 87.23H246.543C244.103 87.23 242.883 88.45 242.883 90.89V110.41C242.883 112.85 244.103 114.07 246.543 114.07H256.913C259.353 114.07 260.573 112.85 260.573 110.41V90.89ZM271.553 110.41C271.553 114.68 270.577 117.791 268.625 119.743C266.714 121.654 263.623 122.61 259.353 122.61H244.103C239.833 122.61 236.722 121.654 234.77 119.743C232.859 117.791 231.903 114.68 231.903 110.41V90.89C231.903 86.62 232.859 83.5293 234.77 81.618C236.722 79.666 239.833 78.69 244.103 78.69H259.353C263.623 78.69 266.714 79.666 268.625 81.618C270.577 83.5293 271.553 86.62 271.553 90.89V110.41ZM305.131 90.89C305.131 88.45 303.911 87.23 301.471 87.23H291.101C288.661 87.23 287.441 88.45 287.441 90.89V110.41C287.441 112.85 288.661 114.07 291.101 114.07H301.471C303.911 114.07 305.131 112.85 305.131 110.41V90.89ZM316.111 110.41C316.111 114.68 315.135 117.791 313.183 119.743C311.272 121.654 308.181 122.61 303.911 122.61H288.661C284.391 122.61 281.28 121.654 279.328 119.743C277.417 117.791 276.461 114.68 276.461 110.41V90.89C276.461 86.62 277.417 83.5293 279.328 81.618C281.28 79.666 284.391 78.69 288.661 78.69H303.911C308.181 78.69 311.272 79.666 313.183 81.618C315.135 83.5293 316.111 86.62 316.111 90.89V110.41ZM333.22 122H322.24V79.3H333.22V96.075H338.71L348.226 79.3H359.816L347.86 100.345L359.755 122H348.165L338.71 104.615H333.22V122Z" fill="#1E4FCD"/>
</g>
<g clip-path="url(#clip2_795_7373)">
<path d="M215.26 215H195.46V153.4H172.36V138H238.36V153.4H215.26V215ZM282.373 215H242.773V199.6H252.673V153.4H242.773V138H282.373V153.4H272.473V199.6H282.373V215ZM312.064 215H292.264V138H312.064V168.25H321.964L339.124 138H360.024L338.464 175.95L359.914 215H339.014L321.964 183.65H312.064V215Z" fill="#1A1A1A"/>
<path d="M181.1 310H161.3V248.4H138.2V233H204.2V248.4H181.1V310ZM261.413 253.9C261.413 249.5 259.213 247.3 254.813 247.3H236.113C231.713 247.3 229.513 249.5 229.513 253.9V289.1C229.513 293.5 231.713 295.7 236.113 295.7H254.813C259.213 295.7 261.413 293.5 261.413 289.1V253.9ZM281.213 289.1C281.213 296.8 279.453 302.41 275.933 305.93C272.486 309.377 266.913 311.1 259.213 311.1H231.713C224.013 311.1 218.403 309.377 214.883 305.93C211.436 302.41 209.713 296.8 209.713 289.1V253.9C209.713 246.2 211.436 240.627 214.883 237.18C218.403 233.66 224.013 231.9 231.713 231.9H259.213C266.913 231.9 272.486 233.66 275.933 237.18C279.453 240.627 281.213 246.2 281.213 253.9V289.1ZM312.064 310H292.264V233H312.064V263.25H321.964L339.124 233H360.024L338.464 270.95L359.914 310H339.014L321.964 278.65H312.064V310Z" fill="#1E4FCD"/>
</g>
<g clip-path="url(#clip3_795_7373)">
<path d="M479.12 149.76L503.6 79.2H531.68L493.52 180H464.72L426.56 79.2H454.64L479.12 149.76ZM564.794 180H538.874V79.2H564.794V118.8H577.754L600.218 79.2H627.578L599.354 128.88L627.434 180H600.074L577.754 138.96H564.794V180Z" fill="#1E4FCD"/>
</g>
<path d="M498.44 224.56C498.44 218.8 495.56 215.92 489.8 215.92H465.32C459.56 215.92 456.68 218.8 456.68 224.56V270.64C456.68 276.4 459.56 279.28 465.32 279.28H489.8C495.56 279.28 498.44 276.4 498.44 270.64V224.56ZM524.36 270.64C524.36 280.72 522.056 288.064 517.448 292.672C512.936 297.184 505.64 299.44 495.56 299.44H459.56C449.48 299.44 442.136 297.184 437.528 292.672C433.016 288.064 430.76 280.72 430.76 270.64V224.56C430.76 214.48 433.016 207.184 437.528 202.672C442.136 198.064 449.48 195.76 459.56 195.76H495.56C505.64 195.76 512.936 198.064 517.448 202.672C522.056 207.184 524.36 214.48 524.36 224.56V270.64ZM564.748 298H538.828V197.2H564.748V236.8H577.708L600.172 197.2H627.532L599.308 246.88L627.388 298H600.028L577.708 256.96H564.748V298Z" fill="#1A1A1A"/>
<g clip-path="url(#clip4_795_7373)">
<path d="M411.1 77.94L411.1 88.01L393.08 96.755L411.1 105.5L411.1 115.57L383.805 101.525L374 101.525L374 91.985L383.805 91.985L411.1 77.94ZM401.03 140.501C403.15 140.501 404.21 139.441 404.21 137.321L404.21 128.311C404.21 126.191 403.15 125.131 401.03 125.131L384.07 125.131C381.95 125.131 380.89 126.191 380.89 128.311L380.89 137.321C380.89 139.441 381.95 140.501 384.07 140.501L401.03 140.501ZM384.07 150.041C380.36 150.041 377.657 149.193 375.961 147.497C374.3 145.836 373.47 143.151 373.47 139.441L373.47 126.191C373.47 122.481 374.3 119.778 375.961 118.082C377.657 116.421 380.36 115.591 384.07 115.591L401.03 115.591C404.74 115.591 407.425 116.421 409.086 118.082C410.782 119.778 411.63 122.481 411.63 126.191L411.63 139.441C411.63 143.151 410.782 145.836 409.086 147.497C407.425 149.193 404.74 150.041 401.03 150.041L384.07 150.041ZM411.1 179.216L411.1 188.756L384.07 188.756C380.36 188.756 377.657 187.908 375.961 186.212C374.3 184.551 373.47 181.866 373.47 178.156L373.47 165.966C373.47 162.256 374.3 159.553 375.961 157.857C377.657 156.196 380.36 155.366 384.07 155.366L411.1 155.366L411.1 164.906L384.07 164.906C381.95 164.906 380.89 165.966 380.89 168.086L380.89 176.036C380.89 178.156 381.95 179.216 384.07 179.216L411.1 179.216ZM374 213.136L374 203.596L403.68 203.596L403.68 192.466L411.1 192.466L411.1 224.266L403.68 224.266L403.68 213.136L374 213.136ZM411.1 251.832L411.1 261.372L384.07 261.372C380.36 261.372 377.657 260.524 375.961 258.828C374.3 257.167 373.47 254.482 373.47 250.772L373.47 238.582C373.47 234.872 374.3 232.169 375.961 230.473C377.657 228.812 380.36 227.982 384.07 227.982L411.1 227.982L411.1 237.522L384.07 237.522C381.95 237.522 380.89 238.582 380.89 240.702L380.89 248.652C380.89 250.772 381.95 251.832 384.07 251.832L411.1 251.832ZM411.1 267.732L411.1 288.932C411.1 292.394 410.305 294.938 408.715 296.564C407.16 298.189 404.775 299.002 401.56 299.002C399.44 299.002 397.709 298.542 396.366 297.624C395.059 296.705 394.14 295.574 393.61 294.232C392.833 297.094 390.925 299.037 387.886 300.062C386.791 300.415 385.519 300.592 384.07 300.592C380.607 300.592 378.063 299.779 376.438 298.154C374.813 296.528 374 293.984 374 290.522L374 267.732L411.1 267.732ZM385.66 291.052C387.78 291.052 388.84 289.992 388.84 287.872L388.84 277.272L381.42 277.272L381.42 287.872C381.42 289.992 382.48 291.052 384.6 291.052L385.66 291.052ZM400.5 289.462C402.62 289.462 403.68 288.402 403.68 286.282L403.68 277.272L396.26 277.272L396.26 286.282C396.26 288.402 397.32 289.462 399.44 289.462L400.5 289.462ZM374 334.775L374 305.36L411.1 305.36L411.1 334.775L403.68 334.775L403.68 314.9L396.525 314.9L396.525 330.535L389.105 330.535L389.105 314.9L381.42 314.9L381.42 334.775L374 334.775Z" fill="#1A1A1A"/>
</g>
<defs>
<clipPath id="clip0_795_7373">
<rect width="478" height="67" fill="white" transform="translate(153)"/>
</clipPath>
<clipPath id="clip1_795_7373">
<rect width="330" height="52" fill="white" transform="translate(33 72)"/>
</clipPath>
<clipPath id="clip2_795_7373">
<rect width="236" height="190" fill="white" transform="translate(124 132)"/>
</clipPath>
<clipPath id="clip3_795_7373">
<rect width="200" height="144" fill="white" transform="translate(428 61)"/>
</clipPath>
<clipPath id="clip4_795_7373">
<rect width="53" height="257" fill="white" transform="translate(365 79)"/>
</clipPath>
</defs>
</svg>
