<svg width="123" height="106" viewBox="0 0 123 106" fill="none" xmlns="http://www.w3.org/2000/svg">
<path d="M37.2714 34.6236C48.6064 35.2156 58.463 38.652 66.4654 46.415C74.5505 54.2582 78.2412 63.8691 77.2324 75.7831C81.6627 75.2344 85.6981 74.6304 89.7565 74.2888C91.1581 74.1708 92.8215 74.3384 94.0086 75.0083C97.9492 77.232 101.727 79.7426 106.205 82.5415C105.383 78.8255 104.851 75.5713 103.91 72.4414C103.218 70.1411 103.538 68.8608 105.658 67.3625C119.264 57.7558 125 43.3788 120.708 28.5774C116.736 14.8845 106.984 6.58025 93.7331 2.25132C75.6466 -3.65645 55.3207 2.36984 44.3229 16.7294C40.3507 21.9164 37.915 27.7382 37.2714 34.6236ZM89.4389 30.0115C89.3345 27.3043 91.6802 24.8654 94.4668 24.7838C97.3195 24.7 99.6659 26.8801 99.7492 29.6912C99.8335 32.5402 97.6544 34.8234 94.7809 34.8963C91.9321 34.9687 89.5443 32.7856 89.4389 30.0115ZM62.221 24.7821C65.0177 24.8336 67.3807 27.2155 67.3311 29.9334C67.2801 32.7507 64.9619 34.9546 62.0861 34.9201C59.2029 34.8854 57.0161 32.6579 57.0434 29.7814C57.0674 26.9574 59.3752 24.73 62.221 24.7821Z" fill="white"/>
<path d="M11.806 105.289C15.3951 103.69 18.6876 101.293 22.1929 100.927C25.6848 100.562 29.3555 102.576 33.0088 102.95C44.1368 104.088 54.1062 100.987 62.3267 93.3849C77.9612 78.9241 75.7271 56.7514 57.6388 44.9009C41.5625 34.3687 17.9857 37.8799 6.65144 52.4936C-3.23988 65.2456 -2.07732 82.1735 9.9978 92.8863C13.4919 95.9867 14.7495 98.5382 12.5074 102.625C12.0936 103.38 12.0462 104.336 11.806 105.289ZM52.662 65.7316C50.3771 65.7338 48.4955 63.9457 48.409 61.6888C48.3177 59.2994 50.2395 57.2954 52.632 57.2855C55.0008 57.2748 56.9852 59.3069 56.9029 61.6607C56.8253 63.9097 54.9306 65.7288 52.662 65.7316ZM26.3242 57.2949C28.5413 57.2795 30.4251 59.0944 30.5156 61.3345C30.6115 63.73 28.7498 65.6971 26.379 65.7031C24.0862 65.7105 22.2745 63.9764 22.1912 61.695C22.1022 59.294 23.9649 57.3112 26.3242 57.2949Z" fill="white"/>
</svg>
