<svg width="270" height="243" viewBox="0 0 270 243" fill="none" xmlns="http://www.w3.org/2000/svg">
<path d="M189.001 152.891C191.105 152.933 193.158 152.236 194.801 150.922C196.444 149.607 197.574 147.758 197.995 145.696L219.04 39.6616C220.266 33.5508 223.569 28.0529 228.389 24.1017C233.209 20.1506 239.248 17.9901 245.481 17.9871H260.95C263.335 17.9871 265.623 17.0396 267.309 15.353C268.996 13.6664 269.943 11.3788 269.943 8.99356C269.943 6.60832 268.996 4.32077 267.309 2.63415C265.623 0.947534 263.335 9.37384e-07 260.95 9.37384e-07H245.481C235.114 -0.00211484 225.066 3.57749 217.035 10.133C209.005 16.6885 203.486 25.8172 201.412 35.9743L180.008 142.098C179.746 143.281 179.727 144.505 179.95 145.695C180.173 146.886 180.635 148.019 181.306 149.027C181.978 150.035 182.847 150.897 183.86 151.56C184.873 152.224 186.01 152.677 187.203 152.891H189.001Z" fill="white"/>
<path d="M180.009 215.846H196.737C206.276 215.786 215.428 212.069 222.306 205.459C229.184 198.85 233.262 189.853 233.701 180.324C234.139 170.795 230.904 161.462 224.662 154.249C218.42 147.036 209.648 142.493 200.155 141.559L34.5835 126.539L20.1039 53.9614H206.99C209.375 53.9614 211.663 53.0138 213.35 51.3272C215.036 49.6406 215.984 47.353 215.984 44.9678C215.984 42.5826 215.036 40.295 213.35 38.6084C211.663 36.9218 209.375 35.9742 206.99 35.9742H9.13173C7.80331 35.983 6.49336 36.286 5.29599 36.8614C4.09862 37.4367 3.04356 38.2702 2.20668 39.3019C1.3275 40.3134 0.685501 41.5086 0.327606 42.8001C-0.0302734 44.0916 -0.0950165 45.4468 0.138168 46.7665L18.1253 136.702C18.5052 138.604 19.4899 140.332 20.9324 141.629C22.3749 142.926 24.1979 143.721 26.1296 143.897L198.536 159.546C203.617 159.784 208.394 162.031 211.818 165.793C215.242 169.554 217.032 174.521 216.793 179.601C216.555 184.682 214.308 189.46 210.546 192.884C206.785 196.307 201.818 198.097 196.737 197.858H180.009C177.624 197.858 175.337 198.806 173.65 200.493C171.963 202.179 171.016 204.467 171.016 206.852C171.016 209.237 171.963 211.525 173.65 213.211C175.337 214.898 177.624 215.846 180.009 215.846Z" fill="white"/>
<path d="M45.1038 242.826C52.2189 242.826 59.1741 240.716 65.0901 236.763C71.006 232.811 75.6169 227.192 78.3397 220.619C81.0625 214.045 81.7749 206.812 80.3869 199.834C78.9988 192.855 75.5726 186.445 70.5415 181.414C65.5104 176.383 59.1004 172.957 52.1221 171.569C45.1438 170.181 37.9105 170.893 31.3371 173.616C24.7637 176.339 19.1452 180.95 15.1923 186.866C11.2394 192.782 9.12959 199.737 9.12959 206.852C9.12959 216.393 12.9197 225.543 19.6662 232.29C26.4127 239.036 35.5629 242.826 45.1038 242.826ZM45.1038 188.865C48.6614 188.865 52.139 189.92 55.097 191.896C58.0549 193.873 60.3604 196.682 61.7218 199.969C63.0832 203.255 63.4394 206.872 62.7454 210.361C62.0513 213.85 60.3382 217.055 57.8227 219.571C55.3071 222.086 52.1021 223.799 48.613 224.494C45.1238 225.188 41.5072 224.831 38.2205 223.47C34.9337 222.109 32.1245 219.803 30.1481 216.845C28.1716 213.887 27.1167 210.41 27.1167 206.852C27.1167 202.082 29.0118 197.506 32.385 194.133C35.7583 190.76 40.3334 188.865 45.1038 188.865Z" fill="white"/>
<path d="M153.028 242.826C160.143 242.826 167.098 240.716 173.014 236.763C178.93 232.811 183.541 227.192 186.264 220.619C188.986 214.045 189.699 206.812 188.311 199.834C186.923 192.855 183.496 186.445 178.465 181.414C173.434 176.383 167.024 172.957 160.046 171.569C153.068 170.181 145.834 170.893 139.261 173.616C132.687 176.339 127.069 180.95 123.116 186.866C119.163 192.782 117.053 199.737 117.053 206.852C117.053 216.393 120.844 225.543 127.59 232.29C134.337 239.036 143.487 242.826 153.028 242.826ZM153.028 188.865C156.585 188.865 160.063 189.92 163.021 191.896C165.979 193.873 168.284 196.682 169.646 199.969C171.007 203.255 171.363 206.872 170.669 210.361C169.975 213.85 168.262 217.055 165.746 219.571C163.231 222.086 160.026 223.799 156.537 224.494C153.048 225.188 149.431 224.831 146.144 223.47C142.858 222.109 140.048 219.803 138.072 216.845C136.095 213.887 135.041 210.41 135.041 206.852C135.041 202.082 136.936 197.506 140.309 194.133C143.682 190.76 148.257 188.865 153.028 188.865Z" fill="white"/>
<path d="M72.0861 215.846H126.047C128.433 215.846 130.72 214.898 132.407 213.211C134.093 211.525 135.041 209.237 135.041 206.852C135.041 204.467 134.093 202.179 132.407 200.493C130.72 198.806 128.433 197.858 126.047 197.858H72.0861C69.7008 197.858 67.4133 198.806 65.7267 200.493C64.04 202.179 63.0925 204.467 63.0925 206.852C63.0925 209.237 64.04 211.525 65.7267 213.211C67.4133 214.898 69.7008 215.846 72.0861 215.846Z" fill="white"/>
</svg>
