<svg width="110" height="111" viewBox="0 0 110 111" fill="none" xmlns="http://www.w3.org/2000/svg">
<path d="M103.977 24.4768L108.713 14.9521L104.669 12.9301L109.99 7.60908L102.594 0L97.273 5.32103L95.251 1.27705L85.7263 6.01277L89.3446 13.2494L86.8969 15.697C76.3288 7.0539 62.8428 2.80352 49.2286 3.82515C35.6144 4.84677 22.9137 11.0622 13.7539 21.1858C4.59399 31.3094 -0.324225 44.5664 0.0166009 58.2147C0.357427 71.8629 5.93121 84.8579 15.585 94.5117C25.2387 104.165 38.2338 109.739 51.882 110.08C65.5302 110.421 78.7873 105.503 88.9109 96.3428C99.0344 87.1829 105.25 74.4823 106.272 60.8681C107.293 47.2539 103.043 33.7679 94.3996 23.1997L96.8473 20.752L103.977 24.4768ZM95.7299 56.9883C95.7464 66.6094 92.5032 75.9524 86.5291 83.494C80.5549 91.0356 72.2021 96.331 62.8325 98.5167C53.4629 100.703 43.6292 99.6498 34.9347 95.5302C26.2401 91.4106 19.1975 84.4671 14.9552 75.8318C10.7128 67.1965 9.5208 57.3787 11.5736 47.9791C13.6264 38.5795 18.8029 30.1525 26.2591 24.0721C33.7152 17.9916 43.0114 14.6164 52.6318 14.4966C62.2522 14.3768 71.6294 17.5196 79.2346 23.4125L71.6256 30.9684C65.102 26.3264 57.0724 24.305 49.1285 25.3048C41.1847 26.3047 33.9064 30.2529 28.7367 36.3667C23.5669 42.4805 20.8831 50.3136 21.2171 58.3132C21.5512 66.3128 24.8788 73.8949 30.5403 79.5564C36.2018 85.2178 43.7839 88.5455 51.7834 88.8795C59.783 89.2136 67.6161 86.5297 73.7299 81.36C79.8438 76.1902 83.7919 68.912 84.7918 60.9681C85.7917 53.0242 83.7702 44.9946 79.1282 38.4711L86.7373 30.9152C92.5453 38.3674 95.7089 47.5401 95.7299 56.9883ZM74.4457 56.9883C74.4457 61.1979 73.1974 65.3129 70.8587 68.8131C68.52 72.3133 65.1958 75.0413 61.3067 76.6523C57.4175 78.2632 53.138 78.6847 49.0093 77.8634C44.8805 77.0422 41.0881 75.0151 38.1114 72.0384C35.1348 69.0618 33.1077 65.2693 32.2864 61.1406C31.4652 57.0119 31.8867 52.7324 33.4976 48.8432C35.1086 44.954 37.8366 41.6299 41.3368 39.2912C44.8369 36.9524 48.952 35.7041 53.1616 35.7041C56.9143 35.7592 60.5858 36.8055 63.8037 38.7371L50.98 51.6672H47.8406V62.3093H58.4826V59.1699L71.4127 46.3462C73.3443 49.5641 74.3907 53.2356 74.4457 56.9883Z" fill="#1E4FCD"/>
</svg>
