<svg width="261" height="219" viewBox="0 0 261 219" fill="none" xmlns="http://www.w3.org/2000/svg">
<path d="M0 21.6447C0 9.69066 9.73788 0 21.7502 0H189.538C201.55 0 211.288 9.69066 211.288 21.6447V86.5789H174.002C160.273 86.5789 149.144 97.6536 149.144 111.316V148.421H21.7502C9.73788 148.421 0 138.73 0 126.776V21.6447ZM37.2861 27.8289C37.2861 32.9521 33.1126 37.1053 27.9646 37.1053H15.5359V55.6579H27.9646C43.4089 55.6579 55.9291 43.1984 55.9291 27.8289V15.4605H37.2861V27.8289ZM105.644 105.132C121.088 105.132 133.608 92.6716 133.608 77.3026C133.608 61.9331 121.088 49.4737 105.644 49.4737C90.1995 49.4737 77.6793 61.9331 77.6793 77.3026C77.6793 92.6716 90.1995 105.132 105.644 105.132ZM27.9646 111.316C33.1126 111.316 37.2861 115.469 37.2861 120.592V132.961H55.9291V120.592C55.9291 105.223 43.4089 92.7632 27.9646 92.7632H15.5359V111.316H27.9646ZM183.323 37.1053C178.175 37.1053 174.002 32.9521 174.002 27.8289V15.4605H155.359V27.8289C155.359 43.1984 167.879 55.6579 183.323 55.6579H195.752V37.1053H183.323ZM29.8456 166.974H149.144V185.526H62.1434C48.3424 185.526 36.2925 178.064 29.8456 166.974ZM248.574 61.8421V86.5789H229.931V29.7009C241.076 36.1165 248.574 48.108 248.574 61.8421ZM180.216 98.9474C169.92 98.9474 161.573 107.254 161.573 117.5V216.447C161.573 226.693 169.92 235 180.216 235H242.357C252.653 235 261 226.693 261 216.447V117.5C261 107.254 252.653 98.9474 242.357 98.9474H180.216ZM186.43 154.605H198.857C202.288 154.605 205.071 157.375 205.071 160.789C205.071 164.204 202.288 166.974 198.857 166.974H186.43C182.999 166.974 180.216 164.204 180.216 160.789C180.216 157.375 182.999 154.605 186.43 154.605ZM223.716 154.605H236.145C239.577 154.605 242.359 157.375 242.359 160.789C242.359 164.204 239.577 166.974 236.145 166.974H223.716C220.285 166.974 217.502 164.204 217.502 160.789C217.502 157.375 220.285 154.605 223.716 154.605ZM186.43 179.342H198.857C202.288 179.342 205.071 182.111 205.071 185.526C205.071 188.941 202.288 191.711 198.857 191.711H186.43C182.999 191.711 180.216 188.941 180.216 185.526C180.216 182.111 182.999 179.342 186.43 179.342ZM223.716 179.342H236.145C239.577 179.342 242.359 182.111 242.359 185.526C242.359 188.941 239.577 191.711 236.145 191.711H223.716C220.285 191.711 217.502 188.941 217.502 185.526C217.502 182.111 220.285 179.342 223.716 179.342ZM186.43 204.079H198.857C202.288 204.079 205.071 206.848 205.071 210.263C205.071 213.678 202.288 216.447 198.857 216.447H186.43C182.999 216.447 180.216 213.678 180.216 210.263C180.216 206.848 182.999 204.079 186.43 204.079ZM223.716 204.079H236.145C239.577 204.079 242.359 206.848 242.359 210.263C242.359 213.678 239.577 216.447 236.145 216.447H223.716C220.285 216.447 217.502 213.678 217.502 210.263C217.502 206.848 220.285 204.079 223.716 204.079ZM180.215 123.683C180.215 120.268 182.998 117.499 186.429 117.499H236.144C239.575 117.499 242.358 120.268 242.358 123.683V136.051C242.358 139.466 239.575 142.236 236.144 142.236H186.429C182.998 142.236 180.215 139.466 180.215 136.051V123.683Z" fill="#1A1A1A"/>
</svg>
