<svg width="281" height="200" viewBox="0 0 281 200" fill="none" xmlns="http://www.w3.org/2000/svg">
<path d="M140.011 132.313L220.011 60.0001H170.011V0H109.761V60.0001H60.0107L140.011 132.313Z" fill="#1A1A1A"/>
<path d="M270.886 125.75L226.261 91.3752H200.011L238.761 130H207.136C205.699 130 204.449 130.75 203.761 131.813L192.261 160.25H87.5733L76.0733 131.813C75.4483 130.688 74.1358 130 72.6983 130H41.1357L80.0108 91.3752H53.6357L9.01064 125.75C2.38563 129.625 -0.864382 137.625 0.198121 145.5L5.63563 187.313C7.07314 195.5 11.6981 200 23.1982 200H256.824C268.761 200 272.949 195.25 274.386 187.313L279.824 145.5C280.886 137.438 277.511 129.625 270.886 125.75Z" fill="#1A1A1A"/>
</svg>
