<svg width="253" height="229" viewBox="0 0 253 229" fill="none" xmlns="http://www.w3.org/2000/svg">
<path d="M102.16 17.9782C108.839 22.5871 115.222 25.6242 120.483 26.294C117.615 31.9907 115.614 38.1087 114.57 44.4299C106.084 42.5682 98.0331 38.0948 91.4253 33.5349C88.1589 31.2807 85.0661 28.8788 82.2373 26.514V54.6554C82.2373 58.5144 79.8911 61.9851 76.3116 63.424L76.2335 63.4563C76.1552 63.4888 76.0213 63.545 75.8363 63.625C75.4661 63.7851 74.8929 64.0394 74.1527 64.3878C72.6693 65.0858 70.5325 66.1532 68.0248 67.5862C62.9595 70.4806 56.6313 74.7253 51.1174 80.2391C45.4027 85.9539 41.8798 93.629 39.8901 99.5892C37.3382 107.234 30.8406 114.28 21.591 115.822C20.2305 116.048 19.2332 117.225 19.2332 118.605V140.693C19.2332 142.777 20.7404 144.556 22.7967 144.899C30.6585 146.21 36.8523 151.342 40.335 157.577C43.5025 163.247 49.1338 171.997 57.4178 180.281C63.8549 186.719 71.3512 190.845 77.3837 193.371C80.3736 194.622 82.9279 195.447 84.6949 195.951C85.5761 196.203 86.2546 196.373 86.6853 196.474C86.9004 196.525 87.0532 196.559 87.1376 196.576L87.1982 196.589L87.2118 196.593C91.6414 197.463 94.8381 201.347 94.8381 205.866V221.617C94.8381 223.355 96.2485 224.767 97.9883 224.767H113.739C113.739 214.327 122.202 205.866 132.64 205.866H157.842C168.281 205.866 176.743 214.327 176.743 224.767H192.494C194.234 224.767 195.644 223.355 195.644 221.617V193.265C195.644 189.7 197.657 186.438 200.833 184.829L201.001 184.739C201.176 184.643 201.477 184.476 201.886 184.233C202.703 183.746 203.943 182.962 205.468 181.862C208.526 179.653 212.668 176.208 216.821 171.363C225.041 161.773 233.447 146.566 233.447 123.96C233.447 111.275 231.075 101.022 227.037 92.6146C231.547 86.6294 234.946 79.8943 237.094 72.7562C238.344 74.4682 239.529 76.2457 240.646 78.0913C248.259 90.6695 252.348 105.852 252.348 123.96C252.348 151.757 241.853 171.202 231.171 183.663C225.874 189.845 220.565 194.274 216.535 197.185C215.832 197.691 215.167 198.154 214.546 198.574V221.617C214.546 233.795 204.673 243.668 192.494 243.668H176.743C166.305 243.668 157.842 235.205 157.842 224.767H132.64C132.64 235.205 124.178 243.668 113.739 243.668H97.9883C85.8096 243.668 75.9369 233.795 75.9369 221.617V213.015C74.1972 212.428 72.2234 211.7 70.0867 210.806C62.5756 207.662 52.7457 202.34 44.0527 193.647C34.1733 183.768 27.5563 173.459 23.8338 166.794C22.7351 164.827 21.0941 163.778 19.6894 163.543C8.51915 161.682 0.332031 152.017 0.332031 140.693V118.605C0.332031 107.986 8.0092 98.9239 18.4836 97.1774C19.5788 96.9947 21.1927 95.9072 21.9614 93.6051C24.3852 86.3437 29.0882 75.538 37.7523 66.874C44.8392 59.7872 52.6869 54.5811 58.6473 51.1753C60.3657 50.1933 61.9478 49.3494 63.336 48.6426V12.7093C63.336 0.891015 77.5828 -3.96004 85.2597 3.68436C89.4236 7.83065 95.4689 13.3604 102.16 17.9782Z" fill="white"/>
<path d="M139.823 77.942C133.647 75.3847 128.437 70.5294 127.195 63.9617C122.861 41.0096 135.017 17.3855 157.45 8.09074C183.167 -2.56412 212.653 9.64618 223.308 35.3632C232.602 57.7972 224.498 83.0988 205.204 96.2664C199.684 100.034 192.566 99.7833 186.39 97.2266L139.823 77.942ZM195.192 80.2039C206.78 71.8606 211.543 56.3468 205.846 42.5979C199.186 26.5247 180.758 18.8933 164.685 25.5526C150.937 31.249 143.337 45.588 145.633 59.6806C145.706 59.7382 145.795 59.8036 145.903 59.8749C146.2 60.0732 146.587 60.2853 147.054 60.479L193.622 79.7635C194.091 79.9572 194.514 80.0806 194.864 80.1507C194.99 80.1758 195.1 80.1928 195.192 80.2039Z" fill="white"/>
<path d="M88.5375 92.4572C88.5375 99.4166 82.8959 105.058 75.9367 105.058C68.9776 105.058 63.3359 99.4166 63.3359 92.4572C63.3359 85.4982 68.9776 79.8566 75.9367 79.8566C82.8959 79.8566 88.5375 85.4982 88.5375 92.4572Z" fill="white"/>
</svg>
