<svg width="470" height="478" viewBox="0 0 470 478" fill="none" xmlns="http://www.w3.org/2000/svg">
<path d="M37.769 145.415L36.0162 144.476L36.3911 126.515L39.1956 128.018L38.61 141.636L38.4817 141.454L38.9199 141.689L38.6976 141.683L49.7125 133.653L52.517 135.156L37.769 145.415Z" fill="white"/>
<path d="M57.6787 128.289L36.7193 113.845L38.4684 111.307L57.1763 124.199L63.8907 114.457L66.1422 116.008L57.6787 128.289Z" fill="white"/>
<path d="M51.8789 93.195L71.6761 109.195L69.7386 111.592L49.9414 95.5923L51.8789 93.195Z" fill="white"/>
<path d="M72.3945 70.9266L90.5931 88.7239L88.5075 90.8566L64.5206 86.7997L64.3468 86.9774L78.6355 100.951L76.4804 103.155L58.2818 85.3575L60.3674 83.2249L84.4246 87.2809L84.5984 87.1032L70.2741 73.0948L72.3945 70.9266Z" fill="white"/>
<path d="M96.4858 83.5724L80.6864 63.6146L83.1032 61.7014L90.9411 71.6023L91.175 71.4172L92.3025 54.4188L95.4599 51.9193L94.2074 67.5582L111.259 71.8772L108.336 74.1915L94.053 70.407L93.7801 75.1885L98.9025 81.6592L96.4858 83.5724Z" fill="white"/>
<path d="M123.72 63.8213L111.423 41.5341L118.954 37.3791C120.695 36.4184 122.288 35.9272 123.734 35.9057C125.175 35.8769 126.449 36.2295 127.554 36.9635C128.659 37.6975 129.574 38.7211 130.299 40.0342C131.023 41.3473 131.397 42.6599 131.421 43.9718C131.444 45.2837 131.061 46.5361 130.272 47.7289C129.478 48.9145 128.218 49.9836 126.491 50.9363L120.397 54.2988L119.052 51.8611L125.059 48.5467C126.249 47.8902 127.11 47.1877 127.644 46.4392C128.184 45.6866 128.442 44.9011 128.416 44.0825C128.393 43.2527 128.136 42.3916 127.644 41.4993C127.151 40.6069 126.554 39.9191 125.852 39.4357C125.15 38.9524 124.333 38.7315 123.4 38.7731C122.463 38.8074 121.392 39.1567 120.188 39.8212L115.443 42.4391L126.419 62.3322L123.72 63.8213ZM128.687 48.0213L139.696 55.0069L136.561 56.7362L125.64 49.7025L128.687 48.0213Z" fill="white"/>
<path d="M144.735 52.7398L134.942 29.2447L149.121 23.3341L150.173 25.858L138.839 30.5826L142.148 38.5214L152.748 34.1028L153.8 36.6267L143.2 41.0453L146.528 49.0299L158.047 44.2288L159.099 46.7527L144.735 52.7398Z" fill="white"/>
<path d="M165.173 44.6719L157.905 20.2769L160.859 19.3969L167.346 41.1713L178.686 37.7929L179.467 40.4134L165.173 44.6719Z" fill="white"/>
<path d="M183.786 26.7828L183.305 24.1416L198.369 21.3971L198.85 24.0383L183.786 26.7828ZM185.105 34.0216L184.624 31.3804L199.688 28.6359L200.169 31.2771L185.105 34.0216Z" fill="white"/>
<path d="M209.783 9.60427L210.492 18.3255L207.767 18.547L207.058 9.82577L209.783 9.60427ZM216.126 9.08877L216.835 17.81L214.11 18.0315L213.401 9.31027L216.126 9.08877Z" fill="white"/>
<path d="M239.672 15.167C239.542 13.9054 238.952 12.9185 237.902 12.2064C236.853 11.4942 235.557 11.1264 234.016 11.1029C232.889 11.0857 231.901 11.2529 231.05 11.6045C230.208 11.9563 229.546 12.4475 229.064 13.0783C228.59 13.7091 228.347 14.4305 228.334 15.2424C228.324 15.9218 228.477 16.5084 228.792 17.0021C229.116 17.4877 229.533 17.896 230.042 18.227C230.55 18.5496 231.085 18.8188 231.645 19.0346C232.205 19.242 232.721 19.4115 233.191 19.543L235.765 20.2784C236.426 20.4625 237.159 20.714 237.967 21.033C238.782 21.352 239.559 21.7824 240.296 22.324C241.042 22.8575 241.653 23.5381 242.13 24.3657C242.606 25.1934 242.835 26.2038 242.817 27.3968C242.796 28.7721 242.416 30.0094 241.679 31.1086C240.949 32.2079 239.892 33.0743 238.506 33.7078C237.129 34.3415 235.463 34.6433 233.508 34.6135C231.685 34.5856 230.111 34.2674 228.787 33.6588C227.47 33.0503 226.439 32.2142 225.692 31.1503C224.955 30.0866 224.547 28.8581 224.468 27.4647L227.65 27.5133C227.718 28.4756 228.029 29.2759 228.583 29.9141C229.145 30.5443 229.859 31.0192 230.724 31.3391C231.597 31.6507 232.54 31.8143 233.55 31.8297C234.727 31.8477 235.786 31.6733 236.728 31.3064C237.67 30.9313 238.42 30.4041 238.977 29.7248C239.535 29.0373 239.821 28.2295 239.835 27.3016C239.848 26.4565 239.622 25.7652 239.158 25.2278C238.694 24.6903 238.079 24.25 237.314 23.9069C236.548 23.5637 235.72 23.261 234.829 22.9988L231.711 22.0562C229.731 21.4541 228.17 20.614 227.026 19.5358C225.882 18.4576 225.323 17.061 225.35 15.346C225.371 13.921 225.776 12.6841 226.562 11.6354C227.357 10.5785 228.414 9.76599 229.732 9.19774C231.058 8.62134 232.534 8.34554 234.157 8.37034C235.798 8.39539 237.251 8.71178 238.518 9.3195C239.785 9.91894 240.784 10.7297 241.514 11.7519C242.253 12.7742 242.633 13.9277 242.655 15.2125L239.672 15.167Z" fill="white"/>
<path d="M250.988 12.1746L251.347 9.46387L270.273 11.9685L269.914 14.6793L261.979 13.6291L258.998 36.1529L255.942 35.7485L258.923 13.2247L250.988 12.1746Z" fill="white"/>
<path d="M277.378 13.3023L280.795 14.1867L284.653 27.4585L284.941 27.5333L294.753 17.7989L298.17 18.6833L285.517 30.8661L282.889 41.0216L279.905 40.2493L282.533 30.0939L277.378 13.3023Z" fill="white"/>
<path d="M297.076 45.2599L306.153 21.4788L309.033 22.578L300.931 43.8045L311.985 48.0239L311.01 50.5785L297.076 45.2599Z" fill="white"/>
<path d="M317.145 53.3694L328.733 30.7057L342.411 37.6994L341.166 40.134L330.233 34.5435L326.317 42.2014L336.542 47.4297L335.297 49.8643L325.072 44.6359L321.134 52.3381L332.244 58.0191L331 60.4537L317.145 53.3694Z" fill="white"/>
<path d="M358.549 55.3124C359.115 54.1774 359.145 53.0281 358.64 51.8644C358.135 50.7008 357.238 49.6964 355.949 48.8512C355.007 48.2333 354.082 47.845 353.175 47.6864C352.276 47.5323 351.453 47.5926 350.709 47.8671C349.971 48.1462 349.379 48.6253 348.934 49.3043C348.561 49.8725 348.376 50.4496 348.378 51.0356C348.392 51.6192 348.525 52.187 348.777 52.739C349.034 53.284 349.341 53.7976 349.699 54.2798C350.061 54.7551 350.405 55.1742 350.732 55.5371L352.512 57.5369C352.971 58.0459 353.456 58.6512 353.967 59.3529C354.485 60.0591 354.91 60.8384 355.243 61.6908C355.587 62.5408 355.739 63.4428 355.698 64.3969C355.657 65.351 355.309 66.3269 354.655 67.3247C353.901 68.4749 352.918 69.3166 351.706 69.8497C350.501 70.3875 349.144 70.5529 347.635 70.346C346.133 70.1437 344.564 69.5063 342.929 68.434C341.404 67.4343 340.246 66.3228 339.453 65.0992C338.667 63.8803 338.244 62.6218 338.183 61.3238C338.13 60.0303 338.443 58.7743 339.123 57.5557L341.784 59.3005C341.326 60.1497 341.16 60.9921 341.286 61.8277C341.423 62.6609 341.772 63.4442 342.331 64.1777C342.902 64.9088 343.61 65.5515 344.456 66.1058C345.439 66.7511 346.427 67.171 347.419 67.3657C348.416 67.5535 349.331 67.5098 350.166 67.2346C351.005 66.9525 351.679 66.4234 352.188 65.6473C352.651 64.9406 352.831 64.2359 352.727 63.5335C352.623 62.831 352.339 62.1299 351.877 61.4302C351.414 60.7305 350.877 60.0313 350.265 59.3327L348.136 56.8668C346.787 55.2982 345.918 53.7523 345.529 52.2293C345.141 50.7062 345.417 49.2276 346.357 47.7933C347.139 46.6015 348.143 45.7734 349.369 45.3091C350.606 44.8423 351.934 44.722 353.351 44.9479C354.78 45.1715 356.173 45.7286 357.532 46.6192C358.903 47.5189 359.962 48.5645 360.706 49.7563C361.455 50.941 361.864 52.1606 361.934 53.4149C362.01 54.6737 361.713 55.8515 361.043 56.9482L358.549 55.3124Z" fill="white"/>
<path d="M356.273 77.1667L372.793 57.8015L375.138 59.802L367.781 68.4256L378.107 77.2343L385.464 68.6107L387.809 70.6112L371.288 89.9764L368.943 87.9759L376.332 79.3145L366.007 70.5058L358.618 79.1672L356.273 77.1667Z" fill="white"/>
<path d="M376.351 95.1351L395.079 77.8953L405.483 89.1977L403.472 91.0496L395.155 82.015L388.827 87.8402L396.605 96.2895L394.593 98.1415L386.815 89.6921L380.451 95.5509L388.902 104.732L386.89 106.584L376.351 95.1351Z" fill="white"/>
<path d="M390.842 111.498L411.315 96.3717L420.444 108.727L418.245 110.352L410.947 100.476L404.03 105.587L410.854 114.823L408.655 116.448L401.831 107.212L394.873 112.352L402.289 122.389L400.089 124.013L390.842 111.498Z" fill="white"/>
<path d="M422.449 116.652L424.813 115.279L434.4 131.788L432.036 133.161L428.016 126.239L408.368 137.649L406.821 134.983L426.468 123.574L422.449 116.652Z" fill="white"/>
<path d="M439.029 141.568L431.067 145.197L429.933 142.709L437.895 139.08L439.029 141.568ZM441.668 147.359L433.706 150.988L432.572 148.5L440.534 144.871L441.668 147.359Z" fill="white"/>
<path d="M424.673 173.437L449.146 166.435L449.993 169.399L439.095 172.517L442.828 185.566L453.726 182.448L454.574 185.411L430.101 192.413L429.254 189.449L440.199 186.318L436.466 173.269L425.521 176.4L424.673 173.437Z" fill="white"/>
<path d="M431.572 199.538L456.723 195.619L458.048 204.117C458.354 206.082 458.27 207.747 457.795 209.113C457.328 210.477 456.561 211.552 455.493 212.339C454.424 213.126 453.149 213.635 451.667 213.866C450.186 214.097 448.824 213.999 447.584 213.572C446.343 213.145 445.298 212.356 444.448 211.205C443.606 210.053 443.033 208.503 442.729 206.555L441.657 199.677L444.408 199.249L445.465 206.028C445.674 207.37 446.039 208.42 446.559 209.178C447.081 209.944 447.731 210.454 448.509 210.711C449.296 210.974 450.193 211.027 451.2 210.87C452.208 210.713 453.058 210.387 453.753 209.893C454.447 209.399 454.935 208.707 455.215 207.816C455.504 206.924 455.542 205.799 455.331 204.44L454.496 199.085L432.047 202.584L431.572 199.538ZM444.716 209.616L434.382 217.566L433.831 214.029L444.18 206.178L444.716 209.616Z" fill="white"/>
<path d="M434.784 223.057L460.214 221.934L460.892 237.281L458.16 237.402L457.618 225.134L449.026 225.513L449.533 236.986L446.801 237.107L446.294 225.634L437.652 226.016L438.203 238.482L435.471 238.603L434.784 223.057Z" fill="white"/>
<path d="M435.357 244.987L460.76 246.611L459.786 261.843L457.057 261.669L457.834 249.513L449.251 248.964L448.547 259.979L445.818 259.804L446.522 248.79L435.16 248.063L435.357 244.987Z" fill="white"/>
<path d="M445.616 269.478L448.258 269.951L445.562 285.024L442.919 284.551L445.616 269.478ZM438.373 268.183L441.015 268.655L438.319 283.728L435.676 283.256L438.373 268.183Z" fill="white"/>
<path d="M452.663 299.716L444.245 297.329L444.991 294.699L453.409 297.085L452.663 299.716ZM450.928 305.838L442.51 303.452L443.255 300.821L451.674 303.207L450.928 305.838Z" fill="white"/>
<path d="M446.228 323.134L420.399 304.999L421.317 302.476L447.147 320.612L446.228 323.134Z" fill="white"/>
<path d="M418.609 320.488L420.002 317.572L438.942 336.978L437.571 339.849L410.573 337.31L411.966 334.395L434.58 336.767L434.665 336.588L418.609 320.488ZM427.067 325.85L421.453 337.604L418.985 336.425L424.6 324.672L427.067 325.85Z" fill="white"/>
<path d="M416.454 364.05C417.597 364.599 418.747 364.611 419.903 364.088C421.058 363.565 422.049 362.653 422.874 361.351C423.478 360.4 423.852 359.469 423.996 358.56C424.136 357.658 424.064 356.837 423.778 356.096C423.487 355.363 422.999 354.779 422.313 354.344C421.74 353.98 421.16 353.804 420.574 353.815C419.99 353.837 419.425 353.979 418.877 354.24C418.336 354.505 417.827 354.82 417.35 355.185C416.881 355.555 416.467 355.906 416.109 356.238L414.137 358.049C413.635 358.515 413.037 359.009 412.343 359.531C411.645 360.06 410.872 360.497 410.025 360.843C409.181 361.2 408.281 361.365 407.326 361.339C406.372 361.313 405.391 360.98 404.383 360.341C403.221 359.605 402.365 358.635 401.813 357.431C401.257 356.235 401.071 354.881 401.254 353.368C401.433 351.863 402.047 350.285 403.094 348.633C404.07 347.094 405.164 345.918 406.375 345.107C407.582 344.302 408.833 343.859 410.13 343.779C411.423 343.706 412.683 344 413.912 344.661L412.209 347.349C411.352 346.904 410.508 346.751 409.674 346.889C408.843 347.04 408.065 347.4 407.34 347.971C406.618 348.553 405.986 349.27 405.445 350.124C404.815 351.118 404.41 352.112 404.231 353.107C404.058 354.106 404.116 355.021 404.404 355.851C404.699 356.686 405.238 357.352 406.022 357.848C406.736 358.301 407.443 358.47 408.144 358.355C408.845 358.24 409.542 357.946 410.234 357.473C410.927 356.999 411.617 356.451 412.307 355.829L414.74 353.663C416.287 352.289 417.82 351.397 419.336 350.985C420.853 350.573 422.336 350.826 423.785 351.745C424.988 352.508 425.832 353.499 426.315 354.718C426.8 355.948 426.941 357.273 426.737 358.694C426.535 360.126 426 361.528 425.13 362.9C424.252 364.285 423.222 365.359 422.042 366.122C420.869 366.889 419.656 367.317 418.403 367.405C417.145 367.501 415.963 367.222 414.856 366.569L416.454 364.05Z" fill="white"/>
<path d="M401.108 384.371C402.181 385.047 403.322 385.191 404.53 384.804C405.738 384.417 406.826 383.624 407.795 382.425C408.503 381.548 408.981 380.667 409.229 379.78C409.471 378.9 409.493 378.076 409.294 377.308C409.089 376.546 408.671 375.91 408.039 375.399C407.511 374.972 406.955 374.731 406.372 374.675C405.79 374.63 405.212 374.706 404.637 374.903C404.069 375.105 403.528 375.359 403.013 375.667C402.504 375.981 402.053 376.282 401.659 376.571L399.493 378.144C398.941 378.55 398.29 378.973 397.541 379.412C396.787 379.857 395.97 380.203 395.089 380.45C394.209 380.708 393.296 380.769 392.351 380.634C391.405 380.499 390.469 380.056 389.541 379.306C388.471 378.441 387.731 377.38 387.32 376.121C386.905 374.869 386.875 373.502 387.23 372.021C387.58 370.546 388.37 369.048 389.599 367.528C390.745 366.11 391.966 365.067 393.262 364.399C394.553 363.738 395.847 363.442 397.145 363.51C398.437 363.585 399.656 364.021 400.801 364.819L398.801 367.294C398.002 366.754 397.18 366.505 396.336 366.548C395.493 366.602 394.679 366.871 393.894 367.355C393.11 367.85 392.4 368.491 391.765 369.278C391.025 370.193 390.509 371.134 390.217 372.102C389.931 373.075 389.884 373.99 390.075 374.848C390.273 375.711 390.733 376.434 391.454 377.017C392.112 377.548 392.795 377.797 393.504 377.763C394.214 377.729 394.939 377.517 395.682 377.126C396.424 376.735 397.173 376.269 397.929 375.729L400.593 373.856C402.288 372.669 403.912 371.957 405.466 371.722C407.02 371.486 408.465 371.907 409.799 372.986C410.907 373.881 411.631 374.962 411.972 376.228C412.314 377.506 412.302 378.839 411.936 380.227C411.572 381.626 410.88 382.958 409.859 384.221C408.828 385.497 407.682 386.446 406.423 387.069C405.169 387.697 403.915 387.983 402.66 387.928C401.4 387.879 400.258 387.467 399.233 386.691L401.108 384.371Z" fill="white"/>
<path d="M379.54 379.968L397.401 398.104L386.456 408.883L384.537 406.935L393.287 398.318L387.251 392.19L379.069 400.249L377.15 398.301L385.333 390.242L379.263 384.079L370.372 392.835L368.453 390.887L379.54 379.968Z" fill="white"/>
<path d="M378.968 412.002L380.657 414.152L365.645 425.946L363.956 423.796L370.25 418.851L356.214 400.985L358.638 399.081L372.674 416.947L378.968 412.002Z" fill="white"/>
<path d="M342.613 433.171C343.396 434.168 344.422 434.688 345.69 434.729C346.958 434.77 348.249 434.39 349.565 433.587C350.527 432.999 351.273 432.33 351.805 431.579C352.329 430.831 352.627 430.062 352.697 429.272C352.761 428.485 352.581 427.746 352.158 427.053C351.804 426.473 351.362 426.058 350.831 425.809C350.298 425.572 349.728 425.449 349.121 425.441C348.518 425.44 347.923 425.498 347.334 425.614C346.749 425.738 346.223 425.87 345.755 426.01L343.186 426.763C342.53 426.96 341.775 427.139 340.922 427.301C340.062 427.466 339.176 427.517 338.263 427.453C337.347 427.4 336.467 427.151 335.623 426.706C334.778 426.26 334.045 425.529 333.423 424.51C332.706 423.336 332.366 422.087 332.403 420.764C332.433 419.445 332.864 418.148 333.697 416.873C334.523 415.601 335.77 414.456 337.44 413.438C338.995 412.488 340.496 411.916 341.941 411.723C343.379 411.535 344.698 411.691 345.897 412.192C347.089 412.697 348.09 413.518 348.9 414.654L346.184 416.312C345.613 415.535 344.922 415.025 344.113 414.781C343.301 414.548 342.444 414.528 341.542 414.719C340.637 414.922 339.753 415.287 338.89 415.814C337.886 416.427 337.083 417.14 336.483 417.953C335.887 418.774 335.534 419.62 335.426 420.492C335.322 421.371 335.511 422.206 335.995 422.998C336.435 423.72 336.995 424.184 337.675 424.39C338.354 424.597 339.109 424.641 339.939 424.522C340.77 424.403 341.632 424.217 342.525 423.963L345.665 423.095C347.66 422.547 349.429 422.423 350.972 422.724C352.514 423.025 353.733 423.907 354.626 425.371C355.369 426.588 355.688 427.849 355.583 429.156C355.475 430.474 355.015 431.725 354.204 432.91C353.391 434.105 352.291 435.126 350.905 435.972C349.504 436.827 348.106 437.336 346.711 437.499C345.319 437.668 344.042 437.516 342.879 437.042C341.709 436.572 340.771 435.8 340.067 434.725L342.613 433.171Z" fill="white"/>
<path d="M328.012 449.265L321.932 418.295L324.342 417.111L330.421 448.081L328.012 449.265Z" fill="white"/>
<path d="M298.637 451.175L301.523 450.093C302.005 450.859 302.577 451.476 303.239 451.945C303.894 452.416 304.604 452.752 305.369 452.952C306.129 453.162 306.915 453.24 307.726 453.184C308.536 453.128 309.337 452.951 310.129 452.655C311.572 452.114 312.743 451.259 313.641 450.091C314.531 448.925 315.056 447.503 315.214 445.824C315.365 444.148 315.053 442.279 314.28 440.215C313.506 438.151 312.512 436.537 311.297 435.373C310.074 434.212 308.744 433.485 307.307 433.192C305.862 432.901 304.418 433.027 302.975 433.568C302.184 433.864 301.464 434.258 300.816 434.748C300.168 435.239 299.625 435.81 299.188 436.46C298.746 437.122 298.433 437.845 298.249 438.631C298.061 439.427 298.036 440.268 298.173 441.154L295.287 442.236C295.048 440.937 295.035 439.698 295.248 438.521C295.462 437.344 295.869 436.258 296.469 435.263C297.073 434.275 297.84 433.408 298.773 432.661C299.697 431.916 300.76 431.318 301.963 430.867C303.996 430.106 305.99 429.925 307.945 430.324C309.9 430.724 311.674 431.67 313.269 433.161C314.863 434.651 316.131 436.654 317.073 439.168C318.015 441.682 318.376 444.024 318.154 446.196C317.933 448.367 317.217 450.246 316.006 451.832C314.795 453.419 313.174 454.593 311.141 455.355C309.938 455.805 308.744 456.054 307.558 456.1C306.364 456.15 305.214 455.997 304.107 455.641C303.004 455.294 301.985 454.747 301.05 454C300.118 453.261 299.314 452.319 298.637 451.175Z" fill="white"/>
<path d="M277.154 458.393C277.592 459.583 278.408 460.393 279.602 460.823C280.795 461.253 282.141 461.289 283.64 460.93C284.736 460.668 285.653 460.261 286.39 459.709C287.119 459.16 287.639 458.52 287.949 457.79C288.252 457.061 288.309 456.302 288.12 455.512C287.962 454.851 287.669 454.321 287.24 453.921C286.806 453.531 286.302 453.238 285.727 453.043C285.154 452.857 284.569 452.728 283.973 452.658C283.379 452.596 282.838 452.559 282.349 452.548L279.673 452.473C278.988 452.458 278.215 452.396 277.354 452.287C276.485 452.18 275.626 451.955 274.777 451.613C273.922 451.281 273.162 450.773 272.495 450.089C271.829 449.405 271.357 448.483 271.079 447.323C270.759 445.985 270.82 444.692 271.263 443.445C271.697 442.199 272.507 441.098 273.692 440.141C274.869 439.186 276.409 438.481 278.311 438.026C280.084 437.601 281.687 437.52 283.122 437.781C284.548 438.045 285.754 438.6 286.74 439.446C287.719 440.293 288.418 441.383 288.839 442.713L285.745 443.454C285.44 442.539 284.941 441.84 284.246 441.359C283.546 440.888 282.736 440.604 281.819 440.509C280.895 440.423 279.942 440.498 278.959 440.733C277.815 441.007 276.832 441.438 276.01 442.027C275.19 442.624 274.594 443.32 274.222 444.116C273.852 444.921 273.775 445.774 273.991 446.676C274.188 447.498 274.578 448.112 275.161 448.518C275.744 448.924 276.448 449.198 277.275 449.341C278.101 449.484 278.979 449.572 279.907 449.606L283.161 449.747C285.228 449.84 286.95 450.267 288.325 451.029C289.7 451.79 290.587 453.005 290.986 454.673C291.318 456.059 291.233 457.357 290.73 458.568C290.221 459.789 289.399 460.838 288.263 461.715C287.12 462.602 285.759 463.234 284.18 463.612C282.584 463.994 281.098 464.048 279.72 463.773C278.344 463.505 277.175 462.967 276.215 462.158C275.246 461.35 274.592 460.327 274.253 459.087L277.154 458.393Z" fill="white"/>
<path d="M251.099 462.405C251.395 463.639 252.111 464.538 253.246 465.105C254.381 465.671 255.714 465.864 257.245 465.683C258.364 465.55 259.322 465.253 260.118 464.792C260.906 464.331 261.497 463.756 261.891 463.067C262.277 462.379 262.422 461.632 262.327 460.825C262.247 460.15 262.017 459.589 261.639 459.142C261.253 458.704 260.786 458.354 260.238 458.094C259.691 457.842 259.125 457.646 258.542 457.506C257.959 457.375 257.425 457.276 256.942 457.208L254.293 456.821C253.614 456.726 252.853 456.574 252.011 456.365C251.16 456.157 250.333 455.834 249.53 455.395C248.72 454.965 248.024 454.372 247.442 453.614C246.86 452.857 246.499 451.886 246.359 450.701C246.197 449.335 246.409 448.059 246.994 446.871C247.571 445.685 248.504 444.686 249.793 443.874C251.073 443.063 252.685 442.543 254.627 442.313C256.437 442.098 258.039 442.205 259.433 442.632C260.819 443.06 261.952 443.752 262.833 444.707C263.705 445.664 264.273 446.827 264.535 448.198L261.376 448.572C261.18 447.627 260.766 446.875 260.132 446.316C259.491 445.766 258.721 445.391 257.821 445.188C256.914 444.995 255.958 444.958 254.954 445.077C253.786 445.216 252.759 445.529 251.874 446.018C250.99 446.515 250.317 447.137 249.855 447.884C249.394 448.64 249.218 449.478 249.327 450.4C249.426 451.239 249.742 451.894 250.273 452.365C250.804 452.837 251.472 453.191 252.276 453.43C253.081 453.668 253.942 453.858 254.86 454L258.075 454.52C260.117 454.854 261.777 455.479 263.053 456.396C264.33 457.313 265.069 458.623 265.271 460.326C265.439 461.741 265.202 463.021 264.562 464.165C263.914 465.318 262.975 466.264 261.744 467.002C260.506 467.749 259.08 468.219 257.468 468.41C255.838 468.603 254.356 468.482 253.019 468.048C251.684 467.622 250.586 466.951 249.727 466.035C248.859 465.12 248.329 464.027 248.137 462.756L251.099 462.405Z" fill="white"/>
<path d="M230.869 470.941L238.289 440.265L240.973 440.196L233.553 470.872L230.869 470.941Z" fill="white"/>
<path d="M210.863 462.551C210.932 463.817 211.473 464.832 212.487 465.594C213.501 466.356 214.777 466.787 216.315 466.885C217.44 466.957 218.436 466.838 219.302 466.528C220.161 466.218 220.846 465.759 221.358 465.152C221.862 464.545 222.14 463.837 222.191 463.026C222.235 462.348 222.111 461.755 221.82 461.246C221.519 460.746 221.123 460.318 220.631 459.962C220.139 459.615 219.618 459.32 219.069 459.078C218.519 458.843 218.013 458.649 217.549 458.495L215.014 457.635C214.363 457.419 213.643 457.133 212.852 456.775C212.053 456.416 211.298 455.949 210.588 455.372C209.869 454.803 209.291 454.094 208.856 453.244C208.42 452.394 208.24 451.374 208.317 450.183C208.404 448.81 208.843 447.593 209.634 446.531C210.416 445.468 211.514 444.654 212.928 444.089C214.334 443.523 216.013 443.302 217.965 443.427C219.784 443.543 221.34 443.937 222.634 444.61C223.92 445.281 224.909 446.167 225.603 447.265C226.288 448.364 226.636 449.611 226.647 451.006L223.471 450.803C223.45 449.839 223.178 449.024 222.656 448.36C222.125 447.703 221.435 447.194 220.587 446.833C219.729 446.479 218.796 446.27 217.787 446.205C216.613 446.13 215.546 446.253 214.588 446.574C213.628 446.902 212.854 447.393 212.264 448.044C211.674 448.704 211.349 449.497 211.29 450.423C211.236 451.266 211.428 451.968 211.866 452.527C212.303 453.086 212.896 453.556 213.644 453.936C214.392 454.316 215.204 454.658 216.081 454.964L219.15 456.057C221.098 456.754 222.617 457.669 223.707 458.801C224.797 459.934 225.287 461.356 225.178 463.068C225.087 464.49 224.623 465.706 223.786 466.715C222.941 467.732 221.846 468.492 220.502 468.996C219.149 469.507 217.662 469.711 216.042 469.607C214.404 469.503 212.968 469.116 211.732 468.448C210.495 467.787 209.537 466.929 208.858 465.873C208.17 464.816 207.846 463.645 207.887 462.361L210.863 462.551Z" fill="white"/>
<path d="M199.666 465.141L199.175 467.83L180.395 464.397L180.887 461.707L188.76 463.147L192.846 440.797L195.878 441.351L191.792 463.701L199.666 465.141Z" fill="white"/>
<path d="M172.438 462.592L169.069 461.538L165.877 448.091L165.593 448.002L155.309 457.235L151.94 456.182L165.184 444.644L168.315 434.632L171.257 435.552L168.126 445.564L172.438 462.592Z" fill="white"/>
<path d="M155.465 430.218L145.297 453.553L142.471 452.322L151.547 431.493L140.699 426.767L141.791 424.26L155.465 430.218Z" fill="white"/>
<path d="M135.196 420.989L122.572 443.093L109.232 435.474L110.588 433.1L121.251 439.19L125.517 431.721L115.544 426.026L116.9 423.651L126.873 429.347L131.163 421.835L120.327 415.646L121.683 413.272L135.196 420.989Z" fill="white"/>
<path d="M93.9669 417.195C93.3452 418.301 93.2577 419.447 93.7044 420.634C94.1511 421.822 94.9971 422.87 96.2422 423.778C97.1527 424.442 98.0567 424.876 98.9544 425.079C99.8454 425.278 100.67 425.258 101.427 425.021C102.178 424.779 102.793 424.33 103.271 423.674C103.672 423.125 103.885 422.558 103.912 421.973C103.928 421.389 103.823 420.815 103.599 420.252C103.369 419.694 103.088 419.166 102.755 418.667C102.417 418.174 102.093 417.738 101.785 417.36L100.107 415.274C99.6736 414.743 99.2194 414.114 98.744 413.388C98.2619 412.657 97.8759 411.857 97.5859 410.989C97.2843 410.123 97.1777 409.215 97.2662 408.264C97.3546 407.313 97.7504 406.356 98.4535 405.392C99.2641 404.28 100.288 403.489 101.524 403.016C102.754 402.539 104.118 402.441 105.615 402.723C107.105 403 108.64 403.715 110.22 404.867C111.693 405.941 112.795 407.109 113.526 408.37C114.251 409.627 114.611 410.905 114.606 412.204C114.595 413.499 114.22 414.738 113.48 415.921L110.909 414.046C111.409 413.221 111.617 412.388 111.532 411.547C111.437 410.708 111.128 409.908 110.605 409.148C110.072 408.389 109.396 407.712 108.58 407.116C107.629 406.423 106.663 405.954 105.682 405.71C104.696 405.473 103.78 405.471 102.933 405.705C102.081 405.945 101.381 406.44 100.834 407.19C100.336 407.872 100.122 408.567 100.191 409.274C100.26 409.981 100.508 410.695 100.935 411.417C101.363 412.139 101.864 412.864 102.441 413.592L104.444 416.161C105.714 417.795 106.505 419.382 106.817 420.922C107.129 422.463 106.78 423.926 105.769 425.312C104.929 426.463 103.886 427.24 102.638 427.643C101.379 428.047 100.047 428.102 98.6427 427.805C97.2267 427.511 95.8626 426.885 94.5505 425.928C93.2251 424.962 92.2202 423.864 91.5359 422.637C90.8468 421.417 90.4988 420.178 90.492 418.922C90.4786 417.661 90.8335 416.499 91.5569 415.437L93.9669 417.195Z" fill="white"/>
<path d="M96.6519 394.479C97.1154 394.881 97.3693 395.391 97.4137 396.01C97.458 396.63 97.2795 397.171 96.878 397.635C96.4766 398.098 95.9661 398.352 95.3466 398.397C94.7271 398.441 94.1857 398.262 93.7222 397.861C93.2588 397.46 93.0048 396.949 92.9605 396.33C92.9161 395.71 93.0946 395.169 93.4961 394.705C93.7619 394.398 94.0844 394.184 94.4634 394.063C94.8361 393.937 95.2187 393.906 95.6111 393.972C95.9918 394.039 96.3388 394.208 96.6519 394.479Z" fill="white"/>
<path d="M62.2498 385.51L64.3795 387.738C63.8645 388.482 63.5218 389.251 63.3515 390.044C63.1754 390.831 63.1459 391.616 63.263 392.398C63.3684 393.18 63.6063 393.933 63.9767 394.656C64.3471 395.379 64.8243 396.047 65.4083 396.658C66.4731 397.772 67.7193 398.512 69.1469 398.878C70.5687 399.239 72.0824 399.162 73.6882 398.647C75.2882 398.127 76.8849 397.105 78.4783 395.582C80.0716 394.059 81.1645 392.51 81.7569 390.936C82.3436 389.355 82.4891 387.846 82.1935 386.409C81.8921 384.967 81.2089 383.688 80.1441 382.574C79.5601 381.963 78.9152 381.456 78.2094 381.053C77.5035 380.651 76.7654 380.376 75.9951 380.23C75.2131 380.083 74.425 380.08 73.6306 380.22C72.8245 380.36 72.041 380.668 71.2801 381.143L69.1505 378.914C70.2512 378.183 71.3848 377.684 72.5512 377.418C73.7177 377.151 74.8763 377.098 76.0272 377.259C77.1721 377.426 78.2715 377.79 79.3254 378.353C80.3735 378.911 81.3413 379.653 82.2287 380.582C83.7286 382.151 84.6792 383.913 85.0803 385.868C85.4815 387.823 85.3101 389.826 84.5663 391.878C83.8224 393.93 82.4801 395.884 80.5392 397.738C78.5984 399.593 76.5863 400.846 74.5028 401.496C72.4193 402.146 70.4102 402.227 68.4756 401.738C66.5409 401.249 64.8236 400.219 63.3237 398.65C62.4363 397.721 61.7381 396.721 61.2291 395.649C60.7143 394.57 60.4026 393.453 60.294 392.296C60.1794 391.144 60.2817 389.992 60.6008 388.839C60.914 387.692 61.4636 386.582 62.2498 385.51Z" fill="white"/>
<path d="M47.6522 369.236C46.7311 370.108 46.3081 371.177 46.3832 372.443C46.4584 373.71 46.9561 374.961 47.8766 376.197C48.5495 377.101 49.2846 377.783 50.0818 378.243C50.874 378.697 51.667 378.923 52.4609 378.92C53.2497 378.911 53.9698 378.665 54.6211 378.18C55.1661 377.774 55.5381 377.295 55.7373 376.744C55.9248 376.191 55.9948 375.612 55.9472 375.007C55.8929 374.407 55.7806 373.819 55.6103 373.244C55.4333 372.673 55.2536 372.161 55.0712 371.708L54.0856 369.219C53.8292 368.583 53.5816 367.848 53.3425 367.014C53.0985 366.173 52.9665 365.295 52.9465 364.38C52.9149 363.463 53.0821 362.564 53.4481 361.682C53.8141 360.8 54.4756 360.003 55.4326 359.29C56.5359 358.469 57.748 358.016 59.0691 357.931C60.3853 357.839 61.7166 358.15 63.0631 358.862C64.4046 359.568 65.6593 360.705 66.8271 362.273C67.9158 363.735 68.6226 365.177 68.9474 366.598C69.2673 368.013 69.2328 369.34 68.844 370.58C68.4503 371.814 67.7249 372.886 66.6677 373.797L64.7675 371.245C65.4889 370.604 65.934 369.87 66.1026 369.042C66.2596 368.212 66.2012 367.357 65.9276 366.476C65.6423 365.593 65.1978 364.747 64.5941 363.936C63.8914 362.992 63.1076 362.259 62.2427 361.735C61.3712 361.217 60.4963 360.944 59.6181 360.916C58.7332 360.893 57.9186 361.158 57.1742 361.713C56.4963 362.217 56.0857 362.817 55.9424 363.513C55.7992 364.208 55.8247 364.964 56.0191 365.78C56.2134 366.596 56.4781 367.437 56.8132 368.304L57.9659 371.35C58.695 373.287 58.9806 375.037 58.8227 376.601C58.6648 378.165 57.8979 379.459 56.5222 380.483C55.3791 381.334 54.1521 381.767 52.8412 381.783C51.5187 381.796 50.2305 381.454 48.9768 380.755C47.7115 380.055 46.5939 379.053 45.624 377.751C44.6442 376.435 44.0092 375.089 43.719 373.714C43.4221 372.345 43.4564 371.059 43.8219 369.857C44.1824 368.648 44.8654 367.644 45.8708 366.844L47.6522 369.236Z" fill="white"/>
<path d="M33.5865 346.751C32.5695 347.509 32.024 348.521 31.9501 349.787C31.8762 351.054 32.2238 352.355 32.9928 353.69C33.5551 354.667 34.2052 355.43 34.9429 355.981C35.6764 356.524 36.4375 356.841 37.2261 356.932C38.0105 357.016 38.7546 356.855 39.4583 356.45C40.0471 356.111 40.4727 355.679 40.7351 355.155C40.9862 354.628 41.1236 354.062 41.1473 353.455C41.1638 352.853 41.1212 352.256 41.0196 351.664C40.9107 351.077 40.7923 350.547 40.6644 350.076L39.9775 347.488C39.7975 346.827 39.6378 346.068 39.4982 345.211C39.3546 344.347 39.3265 343.46 39.4139 342.549C39.49 341.635 39.7615 340.762 40.2285 339.929C40.6954 339.096 41.4459 338.382 42.4799 337.786C43.6718 337.1 44.9288 336.792 46.2507 336.863C47.5685 336.926 48.8542 337.391 50.1079 338.256C51.3574 339.114 52.47 340.39 53.4458 342.085C54.3555 343.665 54.8882 345.179 55.0441 346.629C55.1959 348.072 55.006 349.386 54.4744 350.571C53.9387 351.75 53.0925 352.73 51.9358 353.51L50.3481 350.753C51.1397 350.202 51.6678 349.525 51.9323 348.722C52.1856 347.917 52.228 347.06 52.0595 346.153C51.8797 345.243 51.5376 344.35 51.0332 343.474C50.446 342.455 49.7537 341.634 48.9561 341.013C48.1514 340.396 47.3146 340.022 46.4457 339.891C45.5697 339.765 44.7295 339.933 43.9253 340.396C43.1929 340.818 42.7147 341.366 42.4908 342.04C42.267 342.713 42.2037 343.467 42.301 344.3C42.3983 345.133 42.5625 346 42.7937 346.899L43.5811 350.06C44.078 352.069 44.1563 353.84 43.816 355.375C43.4758 356.909 42.5625 358.105 41.0761 358.961C39.841 359.672 38.5716 359.958 37.268 359.82C35.953 359.678 34.714 359.187 33.5509 358.346C32.3764 357.502 31.384 356.376 30.5736 354.969C29.7549 353.547 29.2821 352.136 29.1552 350.737C29.0211 349.342 29.206 348.069 29.7099 346.918C30.2096 345.76 31.0057 344.843 32.098 344.166L33.5865 346.751Z" fill="white"/>
<path d="M21.1881 336.178L29.1632 332.578L30.2882 335.07L22.3131 338.67L21.1881 336.178ZM18.5699 330.378L26.545 326.778L27.67 329.27L19.6949 332.87L18.5699 330.378Z" fill="white"/>
<path d="M25.161 300.563L38.0105 313.119L34.9962 314.137L25.4599 304.398L25.6801 304.428L25.2092 304.588L25.3657 304.43L23.6924 317.957L20.6781 318.976L23.2771 301.2L25.161 300.563Z" fill="white"/>
</svg>
