<svg width="643" height="278" viewBox="0 0 643 278" fill="none" xmlns="http://www.w3.org/2000/svg">
<path d="M434.75 1.68507C427.347 2.89243 420.21 5.37957 413.66 9.03507C406.37 13.0951 399.43 18.0351 391.83 21.3251C387.811 23.1815 383.479 24.267 379.06 24.5251C372.39 25.0951 365.8 23.3651 359.4 21.4351C354.22 19.7551 349.07 17.9651 343.9 16.2551C341.48 15.3569 339.013 14.5924 336.51 13.9651C340.36 14.3951 344.07 15.7551 347.86 16.5751C355.94 18.7951 364.13 20.6851 372.45 21.1751C377.469 21.464 382.497 20.7851 387.26 19.1751C401.09 14.4351 413.6 4.58507 427.87 1.30507C433.37 0.16507 446.42 -1.07493 455.37 1.59507C448.68 0.335071 439 1.03507 434.75 1.68507Z" fill="white"/>
<path d="M260.22 15.2351C250.37 13.6951 232.99 7.96507 223.12 6.53507C187.81 1.43507 159.72 3.67508 125.44 15.9151C121.22 17.1651 117.18 19.1351 112.96 20.3551C115.431 19.0836 117.972 17.9518 120.57 16.9651C159 -0.374931 203.5 0.745072 243.7 7.73507C257.43 10.0951 270.91 14.5951 284.84 15.2551C282.94 15.4051 281.36 15.6251 278.76 15.9051C275.31 15.7051 266.42 16.2051 260.22 15.2351Z" fill="white"/>
<path d="M22.16 13.1851C28.4854 11.5185 35.1236 11.4326 41.49 12.9351C48.69 14.6451 55.3 18.4951 61.71 22.4751C65.09 24.6851 68.95 26.8451 72.19 29.3351C69.91 30.1951 63.36 33.0051 61.59 33.8351C50.45 26.9451 39.08 19.0451 26.47 16.3151C20.91 14.9951 15.18 15.7651 9.65 16.8951C10.55 16.4751 11.46 16.0651 12.37 15.6651C11.52 15.2251 0.01 10.3451 0.01 10.6651V6.05507C4.06128 7.17849 8.01434 8.62996 11.83 10.3951C14.94 11.8451 18.7 14.0451 22.16 13.1851Z" fill="white"/>
<path d="M378.12 19.4151C371.734 19.9456 365.306 19.6092 359.01 18.4151C362.879 18.6026 366.755 18.5659 370.62 18.3051C378.509 17.4441 386.279 15.717 393.79 13.1551C399.29 11.3451 404.58 8.87507 410.52 6.85507C407.86 7.94507 406.15 8.92507 403.91 9.95507C395.2 13.9351 387.32 18.3851 378.12 19.4151Z" fill="white"/>
<path d="M48.23 12.9551C54.74 13.2451 61.37 14.5051 67.23 17.8951C71.691 20.3594 75.9184 23.2245 79.86 26.4551C78.5974 26.9828 77.3091 27.4467 76 27.8451C67.5 22.2851 58.6 13.4151 48.23 12.9551Z" fill="white"/>
<path d="M62.08 13.6451C69.0293 12.8556 76.0633 13.2956 82.86 14.9451C88.637 16.6023 94.1538 19.0595 99.25 22.2451C95.41 22.6851 91.63 23.6351 87.81 24.1151C83.0181 20.4806 77.6824 17.6255 72 15.6551C68.77 14.4951 65.39 14.2551 62.08 13.6451Z" fill="white"/>
<path d="M530.76 40.5751C528.99 39.7851 527.1 38.8151 525.76 38.0951C522.3 36.0351 518.66 34.0951 515.37 32.0951C523.48 29.4951 531.93 27.7851 540.98 28.3351C546.64 28.5951 556.81 30.7751 568.17 34.5951C558.17 36.3151 548.17 37.9251 538.17 39.5451C535.41 39.9351 532.89 40.3151 530.76 40.5751Z" fill="white"/>
<path d="M569.61 34.3051C556.95 27.6551 546.45 23.7551 541.82 23.0751C530.57 20.2651 519.71 22.7251 510.27 25.6851C508.66 26.2451 507.91 26.4851 506.76 26.8351C505.12 25.6551 502.57 24.1751 501.11 23.2351C504.34 22.0951 507.58 21.0151 510.84 20.0051C526.05 15.4251 538.11 18.6251 553.05 22.0051C562.05 24.1451 571.26 25.7651 580.5 25.2851C601.5 24.3651 621.67 17.3651 642.21 13.1851V23.2551C627.43 24.9451 612.58 26.0351 597.92 28.8951C588.51 30.9151 579.07 32.6651 569.61 34.3051Z" fill="white"/>
<path d="M494.87 19.3751C499.22 18.6851 503.63 17.8751 507.99 17.3051C511.1 16.7955 514.249 16.5679 517.4 16.6251C511.61 17.5051 506.94 18.8651 502.93 19.8251C500.62 20.3751 499.07 20.6551 497.76 21.1051C496.67 20.4151 495.67 19.8451 494.87 19.3751Z" fill="white"/>
<path d="M0 16.4351C0.88 17.0751 1.84 17.4351 4.57 18.0851C3.68 18.5451 0.89 19.6751 0 20.0851V16.3951V16.4351Z" fill="white"/>
<path d="M42.85 39.8451C38.47 40.7551 28.78 41.5751 18.25 43.3551C16.65 43.6251 13.33 41.0351 11.15 39.4751C6.32 36.0551 3.7 34.9051 0 33.8451V22.1351C5.83989 22.2875 11.6021 23.5111 17 25.7451C25.81 29.3551 35.51 33.0551 42.85 39.8451Z" fill="white"/>
<path d="M593.48 59.7351C590.147 58.5217 586.707 57.3584 583.16 56.2451C597.26 50.6051 611.06 43.8351 625.74 40.3051C631.138 39.0228 636.654 38.299 642.2 38.1451V38.5851C626.2 44.8351 610.61 52.5851 594.69 59.2151C594.29 59.3751 593.89 59.5451 593.48 59.7351Z" fill="white"/>
<path d="M31.78 55.5351C38.0738 51.3534 44.7306 47.7456 51.67 44.7551C61.9678 40.4049 73.1005 38.3867 84.27 38.8451C96.3588 39.5159 108.258 42.1504 119.5 46.6451C135.84 52.8351 151.3 61.6451 166.41 70.9351C192.5 87.0751 217.75 105.065 244.85 119.025C264.98 129.565 285.92 138.375 307.66 143.505C335.03 150.195 363.86 150.135 390.94 141.755C407.42 136.755 423.23 129.285 438.78 121.385C459.55 110.775 479.93 99.1351 501.07 89.4651C517.63 81.8551 534.76 75.5351 552.47 72.5751C564.154 70.7677 576.028 70.5491 587.77 71.9251C606.28 74.0051 624.45 78.9251 642.2 85.1651V120.225C625.51 117.495 608.65 115.685 591.78 115.895C570.696 115.587 549.67 118.195 529.3 123.645C511.44 128.355 511.44 128.355 495.3 133.795C492.05 134.965 487.74 136.335 478.3 139.795C445.54 142.025 404.22 147.575 371.3 156.685C356.33 160.994 341.636 166.211 327.3 172.305C325.73 172.305 325.3 172.215 324.41 172.215C295.29 170.675 266.87 164.755 238.82 155.905C212.59 147.775 187.11 136.905 161.66 126.065C143.35 118.315 124.97 110.725 106.16 104.675C87.35 98.6251 68 94.5351 48.43 94.3751C31.99 93.9651 15.61 97.3751 0 103.125V80.8451C2 78.8451 4.2 77.1751 6.27 75.2951C14.56 68.3851 22.88 61.4351 31.78 55.5351Z" fill="white"/>
<path d="M596.48 60.8451C600.84 59.0051 605.23 57.2351 609.55 55.2851C620.4 50.3951 631.26 45.5351 642.2 40.9451V56.6651C632.2 60.3851 622.2 63.9751 612.15 67.2451C607.19 65.0351 602 62.8451 596.48 60.8451Z" fill="white"/>
<path d="M37.5 49.3251C33.97 51.0251 28.6 53.0451 21.42 59.0351C20.07 60.0951 13.31 65.3651 10.01 68.5251C6.19 68.8951 3.82 68.8551 0.01 69.0751V48.9951C4.93 49.4751 6.94 49.3751 12.31 49.5451C21.43 49.7851 29.78 49.6251 37.5 49.3251Z" fill="white"/>
<path d="M631.57 76.6951C634.41 76.2651 640.91 75.5351 642.2 75.1551V81.7651C641.46 81.3951 638.96 80.3651 636.43 79.3451C634.863 78.4717 633.243 77.5884 631.57 76.6951Z" fill="white"/>
<path d="M412.81 160.925C432.486 155.962 452.49 152.403 472.67 150.275C510.07 146.155 547.73 146.115 585.25 147.875C604.25 148.345 623.25 149.585 642.19 149.605V168.365C635.81 168.925 629.51 170.215 623.19 171.085C579.86 177.655 536.71 185.995 494.09 197.155C451.67 208.107 410.179 222.381 370 239.845C343.7 251.405 317.86 264.305 292.32 277.845H182.46C221.16 254.185 259.38 229.435 299.02 207.845C335.43 187.965 373.24 170.735 412.81 160.925Z" fill="white"/>
<path d="M206.11 197.255C233.32 196.645 256.11 193.845 284.21 190.955C280.48 193.465 247.36 211.755 251.42 209.345C225.37 215.975 199.37 222.915 173.18 228.835C144.124 235.564 114.632 240.242 84.92 242.835C56.65 245.145 28.18 245.105 0 241.445V169.645C13.54 174.095 33.59 179.345 42.85 181.545C104.36 196.165 144.11 198.655 206.11 197.255Z" fill="white"/>
<path d="M204.45 235.325C208.54 233.405 233.77 220.985 237.81 218.935C237.69 219.355 163.81 262.345 131.29 277.935H68.61C81.53 275.735 94.4 273.085 107.11 269.645C146.48 259.155 167 252.355 204.45 235.325Z" fill="white"/>
<path d="M642.2 277.845H477.64C530.82 248.365 586.01 230.985 642.2 218.845V277.845Z" fill="white"/>
<path d="M602.29 35.8451C589.51 40.2051 577.8 46.2051 565.34 51.3151C560.02 50.0651 554.56 48.9651 548.99 48.0751C552.82 47.0751 556.65 46.0751 560.42 44.7551C575.67 39.7551 590.56 33.0951 606.21 29.7551C618.09 27.2151 630.21 26.5851 642.21 25.3151V33.9251C639.733 33.1797 637.202 32.628 634.64 32.2751C623.78 30.3951 612.73 32.3851 602.29 35.8451Z" fill="white"/>
<path d="M168.44 35.5051C183.24 41.2851 198.03 48.4151 212.33 55.3051C228.33 63.0251 244.6 70.8551 261.62 77.2551C265.62 78.8617 269.67 80.3784 273.77 81.8051C300.13 91.0951 327.77 96.9151 355.46 95.0451C369.735 94.1684 383.83 91.3905 397.37 86.7851C426.37 77.0651 453.82 61.9551 483.14 53.3151C492.97 50.3078 503.107 48.4191 513.36 47.6851C525.592 48.5577 537.768 50.1034 549.83 52.3151C543.279 52.1919 536.732 52.7043 530.28 53.8451C521.033 55.3134 511.955 57.6985 503.18 60.9651C468.18 73.7451 436.47 95.7551 401.79 109.505C387.519 115.337 372.388 118.79 357 119.725C328.95 121.125 301.08 113.855 275 102.345C252.78 92.6451 231.68 79.9551 210.94 66.7551C192.94 55.3851 174.94 43.7551 155.94 34.8151C141.29 28.0351 125.82 22.7351 109.94 22.1751C133 20.8451 168.06 35.3451 168.44 35.5051Z" fill="white"/>
<path d="M268.7 73.4151C253.7 70.5551 243.95 68.0851 230 62.0651C225.09 59.7651 220.22 57.4251 215.37 55.0651C225.558 58.756 236.091 61.4127 246.81 62.9951C257.68 64.5951 269.43 66.3551 278.54 66.3551C301.98 66.3551 318.3 68.3551 340.7 64.0051C353.49 61.5251 363.39 59.3451 377.91 56.2151C388.29 53.9751 411.91 49.8951 420.7 49.0451C412.75 50.8051 376.91 60.5751 368.7 63.4951C336.45 74.9751 300.62 79.5051 268.7 73.4151Z" fill="white"/>
<path d="M322.87 29.8451C337.96 31.8451 356.58 35.4851 372.2 34.6651L372.02 34.7151C356.32 39.2251 340.07 42.7151 323.97 42.0651C303.3 41.3551 284.61 36.3951 263.97 38.7351C254.65 39.7351 243.63 40.5951 234.41 42.4151C232.41 42.7351 231.16 43.0651 229.06 43.4151C237.32 40.0251 256.97 32.3351 269.06 29.7451C286.81 25.8451 305 27.5551 322.87 29.8451Z" fill="white"/>
<path d="M180.75 38.9551C176.99 37.3351 173.22 35.7751 169.44 34.2951C168.67 33.9751 159.74 30.2951 148.07 26.8151C149.45 26.8151 153.38 26.8151 154.28 26.7351C162.48 26.4751 172.7 28.5151 180.7 30.6151C191.19 33.3451 195.92 36.1951 206.59 38.0451C214.674 39.4587 222.978 38.9169 230.81 36.4651C248.06 31.0251 263.63 19.7551 281.55 16.8451C290.87 15.2451 300.38 15.7651 309.69 17.2151C331.24 20.3851 355.76 30.6151 377.41 33.1051C376.15 33.5351 374.88 33.9251 373.61 34.2951C370.12 33.7751 364.47 32.8251 361.77 32.4651C346.88 30.5251 332.31 26.3551 317.56 23.4051C304.14 20.7351 290.33 19.4051 276.83 22.0551C267.44 23.7951 258.61 27.9951 249.91 32.2351C240.69 36.7151 231.45 41.6051 221.62 44.0551C216.56 44.5351 212.35 45.0551 209.62 45.3751C204.748 45.2429 199.905 44.5722 195.18 43.3751C190.296 42.1554 185.479 40.68 180.75 38.9551Z" fill="white"/>
<path d="M383.44 27.4551C387.736 26.8122 391.926 25.5981 395.9 23.8451C390.9 26.3851 388.61 27.4851 384.95 29.5051C384.44 29.7251 381.88 31.0851 381.7 31.1851C368.64 30.8851 355.12 26.0251 342.83 21.7151C330.54 17.4051 317.75 14.1251 304.83 14.1251C300.41 14.0051 296.65 14.0151 291.57 14.1251C294.908 13.5957 298.273 13.2618 301.65 13.1251C310.5 12.6551 319.45 12.2451 328.24 13.7851C341.91 15.9951 354.42 23.2051 367.89 26.3351C372.953 27.703 378.233 28.0832 383.44 27.4551Z" fill="white"/>
<path d="M305.62 81.8451C321.582 81.2879 337.432 78.9399 352.87 74.8451C370.8 70.2351 382.27 65.8451 398.95 58.9551C414 52.8451 438.64 47.8451 450.2 47.4851C439.87 49.9151 431.8 52.1351 425.47 54.6351C412.3 59.8251 398.07 66.6351 385.7 70.3951C375.3 73.5751 336.51 87.3751 305.62 81.8451Z" fill="white"/>
<path d="M116.16 20.7551C124.16 19.0551 132.133 17.2884 140.08 15.4551C152.93 12.4551 165.93 9.50507 179.08 9.87507C196.08 9.87507 212.65 14.8751 229.5 16.7751C240.954 18.0772 252.504 18.3049 264 17.4551C268.37 17.1951 271.65 16.8351 276.08 16.4551C271.61 17.4551 267.9 18.4051 263.46 19.8951C250.7 24.1651 237.7 28.5351 223.99 28.1451C204.12 27.6651 185.28 17.8951 165.31 18.8551C154.59 19.2251 144.02 21.4251 133.42 23.0951C127.739 21.8543 121.967 21.0718 116.16 20.7551Z" fill="white"/>
<path d="M412 72.2851C397 77.6451 386.58 82.1251 371 84.9451C360.14 86.9451 339.3 89.1851 325.64 86.7451C351.22 84.3951 379.72 77.3151 402.51 68.6251C406.87 66.9651 411.22 65.1751 415.84 63.2851C421.46 60.9851 427.15 58.6451 432.92 56.5151L433.6 56.2651C450.82 49.9551 472.01 45.0851 491.7 46.0651L494.7 46.2851C491.95 46.4151 489.06 46.6451 485.56 46.9351C459.54 49.7051 436.84 63.5651 412 72.2851Z" fill="white"/>
<path d="M423.84 26.6051C436.735 23.8333 450.145 24.6777 462.59 29.0451C473.83 33.0451 480.75 37.6051 491.77 42.8351L492.48 43.1651C485.1 42.7751 477.85 42.5551 470.14 42.5351C465.39 40.7451 459.9 38.6051 456.46 37.9251C444.52 35.7351 437.89 35.2751 425.96 37.2251C414.86 39.0551 403.1 44.5151 391.96 48.0751C382.59 49.2451 372.67 50.5351 363.17 51.7751C364.04 51.3251 365 50.7751 366.25 50.1951C385.09 40.9351 403.61 30.7251 423.84 26.6051Z" fill="white"/>
<path d="M328 83.8451H327.75L327.99 83.7951L328 83.8451Z" fill="white"/>
<path d="M305.68 53.1851C309.33 54.1851 313.41 56.1251 317.05 57.5551C311.87 57.8751 306.54 58.1251 301.11 58.2951C298.89 58.2951 296.68 58.3951 294.46 58.4551C279.016 58.7987 263.565 58.221 248.19 56.7251C258.85 54.4951 270.61 50.4251 281.19 50.2451C289.446 50.1594 297.679 51.1476 305.68 53.1851Z" fill="white"/>
<path d="M214.3 49.1051C222.3 50.1051 223.84 50.6251 231.65 52.9951C232.65 53.3051 235.89 54.4751 238.53 55.5751C227.005 54.0704 215.63 51.5813 204.53 48.1351C207.8 48.4951 211.09 48.7051 214.3 49.1051Z" fill="white"/>
<path d="M513.76 44.5851C501.61 38.4651 490.26 30.9951 478.35 24.2351C470.13 19.6251 461.56 15.5751 452.51 13.6851C442.63 11.6851 432.51 13.1751 422.84 16.0451C412.726 19.4219 403.004 23.8741 393.84 29.3251C381.28 36.3251 371.08 43.1751 358.41 49.9251C356.35 50.9951 353.41 52.2351 350.51 53.4051C344.08 54.2251 338.1 54.9751 332.93 55.5851C329.93 54.3351 326.93 53.0251 323.93 51.7951C325.49 51.5351 327.06 51.3151 328.63 51.0951C348.63 48.6451 367.63 40.4151 385.53 30.4651C397.28 23.7851 408.74 16.4151 420.94 10.8151C430.25 6.68507 440.16 3.39507 450.26 4.17507C460.56 4.71507 470.37 8.94508 479.61 13.9151C491.52 20.3551 502.61 28.4351 514.48 35.0551C522.109 39.4788 530.046 43.3487 538.23 46.6351C536.23 46.4151 534.23 46.2151 532.17 46.0551C525.56 45.5251 519.49 45.0351 513.76 44.5851Z" fill="white"/>
<path d="M211.17 46.5951C213.56 46.5951 216.17 46.0151 218.5 45.7651C231.117 44.3617 243.833 44.074 256.5 44.9051C259.764 45.0924 263.011 45.5 266.22 46.1251C269.22 46.7251 272.36 47.3951 276.49 48.4251C273.02 48.9251 269.57 49.5551 266.11 50.1051C263.11 50.6451 260.11 51.2351 257.06 51.9751C254.126 51.5903 251.217 51.0293 248.35 50.2951C239.369 48.1958 230.214 46.9337 221 46.5251C217.72 46.3751 214.44 46.5451 211.17 46.5951Z" fill="white"/>
<path d="M319.75 56.9351C310.3 51.9351 303.2 48.2451 289.86 47.5951C288.86 47.5951 284.57 47.5451 283.53 47.5951C288.14 46.5951 295.16 45.7251 300.01 46.2651C309.4 47.1351 318.22 51.3651 326.47 56.3551C323.87 56.5851 321.6 56.8451 319.75 56.9351Z" fill="white"/>
</svg>
