<svg width="123" height="50" viewBox="0 0 123 50" fill="none" xmlns="http://www.w3.org/2000/svg">
<path fill-rule="evenodd" clip-rule="evenodd" d="M37.4221 7.19446C37.4825 7.30135 39.6489 11.0734 42.2361 15.5766L46.9402 23.7643H51.8867C57.3631 23.7643 57.1438 23.777 57.6207 23.433C58.1503 23.051 58.1734 22.3594 57.6905 21.3503C57.4357 20.8181 51.1993 9.96694 50.8761 9.49358C50.0096 8.22444 48.9428 7.45412 47.5916 7.12193C47.2831 7.04608 46.6947 7.03456 42.2784 7.01835L37.3122 7L37.4221 7.19446ZM51.445 7.19641C51.5049 7.30233 53.6707 11.0734 56.258 15.5766L60.962 23.7643L62.8844 23.7778C63.9416 23.7852 64.7989 23.7722 64.7893 23.749C64.7798 23.7259 62.6145 19.9494 59.9777 15.3569L55.1835 7.00713L51.3363 7.0039L51.445 7.19641ZM59.4107 7.05896C58.1513 7.26943 57.8477 7.99854 58.4395 9.39089C58.6209 9.81758 65.0669 21.0478 65.4079 21.5313C65.7356 21.9958 66.453 22.697 66.9006 22.99C67.1073 23.1253 67.4726 23.3158 67.7123 23.413C68.601 23.7738 68.3392 23.7575 73.5525 23.7764L78.2605 23.7936L78.0891 23.4913C77.9947 23.3249 76.6763 21.0266 75.1595 18.3837L72.4015 13.5785L69.476 13.5766C67.8669 13.5755 66.5504 13.5891 66.5504 13.6069C66.5504 13.6246 66.9929 14.41 67.5337 15.3522L68.517 17.0653H70.6669L71.338 18.2344C71.7071 18.8773 72.025 19.4444 72.0442 19.4945C72.0775 19.5808 71.9845 19.5848 70.2557 19.5703C68.4803 19.5554 68.4264 19.552 68.216 19.4399C68.0971 19.3767 67.9423 19.2496 67.8718 19.1576C67.7193 18.9583 63.6799 11.9309 63.5762 11.6843C63.4826 11.462 63.5272 11.3375 63.7249 11.2689C63.8339 11.2311 65.0054 11.2132 67.3873 11.2132C69.3134 11.2132 70.8817 11.1936 70.8721 11.1695C70.8627 11.1455 70.3224 10.1984 69.6716 9.06484L68.4882 7.0039L64.0783 7.00986C61.6529 7.01318 59.5524 7.03524 59.4107 7.05896ZM70.5189 7.19641C70.5789 7.30233 72.7445 11.0734 75.3318 15.5766L80.036 23.7643L81.9583 23.7778C83.0155 23.7852 83.8728 23.7722 83.8633 23.749C83.8537 23.7259 81.6884 19.9494 79.0516 15.3569L74.2573 7.00713L70.4102 7.0039L70.5189 7.19641ZM75.6954 7.08551C75.7127 7.13042 76.2508 8.07732 76.891 9.1896L78.0552 11.2121L81.9248 11.2389L89.1165 23.7643L91.0327 23.7778C92.8492 23.7906 92.9464 23.7866 92.9 23.7008C92.8732 23.6511 91.2599 20.842 89.3151 17.4585C87.3702 14.075 85.779 11.286 85.779 11.2607C85.779 11.2344 86.5982 11.2087 87.6762 11.201L89.5736 11.1876L87.1613 7.0039H81.4126C76.1789 7.0039 75.6668 7.01123 75.6954 7.08551ZM90.831 7.0573C90.255 7.14574 89.8393 7.36597 89.6435 7.68665C89.4067 8.0743 89.5009 8.77491 89.8941 9.55157C90.1045 9.96733 97.9744 23.682 98.0427 23.7522C98.0632 23.7737 98.9281 23.7852 99.9648 23.7778L101.849 23.7643L99.917 20.402C98.8549 18.5527 97.9744 17.0105 97.9597 16.975C97.9392 16.9234 98.4488 16.913 100.478 16.9237L103.023 16.9369L106.946 23.7643L108.868 23.7778C109.925 23.7852 110.782 23.7724 110.773 23.7494C110.698 23.57 102.765 9.80616 102.541 9.46791C101.724 8.23469 100.648 7.47111 99.2337 7.12114C98.9428 7.0491 98.3893 7.03661 95.0067 7.02597C92.866 7.01923 90.987 7.03339 90.831 7.0573ZM103.203 7.19641C103.262 7.30233 105.428 11.0734 108.015 15.5766L112.72 23.7643L117.679 23.7774C120.406 23.7846 122.638 23.7788 122.638 23.7645C122.638 23.7503 122.101 22.803 121.445 21.6596L120.253 19.5807H114.157L106.941 7.00752L103.094 7.0039L103.203 7.19641ZM8.97854 9.20795C8.66454 9.35399 8.19496 9.81934 7.84138 10.3349C7.56754 10.734 6.80355 12.0204 3.46294 17.707C2.88242 18.6952 2.07038 20.0696 1.65839 20.7614C0.598754 22.5404 0.251403 23.3015 0.0712322 24.2391C-0.080895 25.0308 0.0139075 25.9081 0.3244 26.5831C0.442451 26.8397 3.42329 31.9894 3.50072 32.0704C3.53412 32.1055 6.01683 27.9517 6.03606 27.8287C6.03966 27.8054 5.4806 26.8285 4.79362 25.6576C3.94205 24.2062 3.53613 23.4661 3.51804 23.3318C3.46871 22.9653 3.36948 23.1473 6.79422 17.3219C8.14976 15.0162 8.11316 15.0727 8.27739 15.0317C8.38926 15.0037 8.44066 15.0223 8.52562 15.1216C8.58459 15.1904 9.16526 16.141 9.81608 17.234C10.4669 18.327 11.012 19.2211 11.0275 19.2208C11.0431 19.2206 11.56 18.3601 12.1765 17.3087C12.793 16.2572 13.3525 15.3045 13.42 15.1916L13.5426 14.9863L11.9641 12.3645C11.0959 10.9223 10.3186 9.66344 10.2368 9.5667C9.8685 9.13112 9.41925 9.00304 8.97854 9.20795ZM99.3215 11.1699C99.6837 11.2607 99.9277 11.5408 100.463 12.4771C100.722 12.9322 100.935 13.3194 100.935 13.3374C100.935 13.3555 99.796 13.3643 98.4039 13.3569L95.8725 13.3436L95.3816 12.498C94.8388 11.5629 94.7641 11.3317 94.9608 11.1946C95.0672 11.1203 95.313 11.1105 97.0831 11.1105C98.4264 11.1105 99.1634 11.1301 99.3215 11.1699ZM47.9218 11.3524C48.039 11.4149 48.2033 11.5535 48.2867 11.6604C48.4229 11.8349 52.2469 18.4647 52.5242 19.007C52.5867 19.1292 52.6306 19.2788 52.6218 19.3394C52.589 19.5662 52.468 19.5791 50.3618 19.5799L48.3754 19.5807L45.9928 15.4301C44.6824 13.1472 43.6102 11.2633 43.6102 11.2437C43.6102 11.224 44.5323 11.2149 45.6594 11.2234C47.6603 11.2385 47.7136 11.2415 47.9218 11.3524ZM12.8209 18.1561C12.1242 19.349 10.8831 21.4684 10.063 22.866C5.39286 30.8243 5.38249 30.8428 5.13102 31.6003C4.92044 32.2348 4.84373 32.6842 4.84466 33.2772C4.84651 34.3914 4.90317 34.5212 6.82165 37.8041C8.11738 40.0214 8.36096 40.3698 8.74048 40.5491C9.12283 40.7298 9.56302 40.5953 10.0317 40.1547C10.4226 39.7872 10.6534 39.454 11.3925 38.1891C13.2731 34.9711 19.2358 24.6984 19.2608 24.6334C19.2779 24.589 18.9624 24.0122 18.5015 23.2455L17.7129 21.9336L17.565 22.1816C17.4836 22.3181 17.2018 22.7993 16.939 23.251C16.676 23.7027 15.6991 25.3775 14.7681 26.9727C13.8371 28.5679 12.739 30.4505 12.3278 31.1563C10.3114 34.618 10.2918 34.6473 10.0677 34.528C10.0135 34.499 9.61046 33.8672 9.17217 33.1239C8.40111 31.8162 8.37524 31.763 8.37514 31.4855C8.37503 31.2659 8.412 31.1273 8.53242 30.8951C8.61902 30.7283 9.69691 28.8708 10.9278 26.7674C12.1585 24.664 13.7371 21.9632 14.4358 20.7657L15.7059 18.5886L14.9273 17.2895C14.4991 16.5751 14.135 15.9898 14.1183 15.989C14.1015 15.988 13.5177 16.9632 12.8209 18.1561ZM18.301 29.5747C16.984 31.828 14.7256 35.6888 13.2826 38.1541C11.8397 40.6195 10.6688 42.6463 10.6807 42.6581C10.6926 42.67 12.4638 42.6799 14.6165 42.6801C18.8923 42.6804 18.8281 42.6844 19.5064 42.3781C20.3523 41.9962 21.2022 41.2139 21.8795 40.1936C22.2085 39.6977 23.9519 36.7053 24.2284 36.1614C24.721 35.1926 24.708 34.5623 24.1883 34.2364C24.0983 34.1799 24.0239 34.122 24.0228 34.1077C24.0217 34.0934 24.1194 34.0513 24.2399 34.0141C25.0717 33.7575 25.9059 33.055 26.5954 32.0311C26.9026 31.5747 28.5798 28.6752 28.8532 28.1277C29.3677 27.0972 29.4568 26.3566 29.1132 25.9669C28.9163 25.7435 28.7651 25.6647 28.4027 25.596C28.2331 25.564 26.6271 25.5295 24.4074 25.51L20.6957 25.4777L18.301 29.5747ZM31.4101 26.3885C30.9042 27.2618 29.1622 30.2642 24.7357 37.8925C23.2083 40.5245 21.9587 42.6902 21.9587 42.705C21.9587 42.72 23.8552 42.732 26.173 42.7319L30.3873 42.7316L32.8769 38.4201H30.2273C28.4138 38.4201 27.5778 38.4031 27.5778 38.3663C27.5778 38.3367 27.8968 37.7595 28.2867 37.0838L28.9955 35.8549L33.5835 35.9134L35.6649 32.2857L31.0953 32.2343L31.7638 31.0794C32.1314 30.4441 32.4505 29.9054 32.4728 29.8823C32.495 29.8592 33.7034 29.836 35.1579 29.8309L37.8025 29.8217L38.9594 27.8197C39.5957 26.7186 40.128 25.7772 40.1423 25.7278C40.1666 25.6438 40.0716 25.6379 38.6544 25.6376C37.8218 25.6373 35.9575 25.6228 34.5115 25.6052L31.8824 25.5734L31.4101 26.3885ZM46.1233 27.4041C45.5634 28.3767 45.1052 29.1857 45.1052 29.2019C45.1052 29.2181 46.6 29.2314 48.4269 29.2314C50.382 29.2314 51.8012 29.2513 51.8764 29.2798C52.1543 29.385 52.1077 29.5641 51.5586 30.499L51.3417 30.8682L51.1565 30.7912C50.9978 30.7252 50.589 30.7168 48.3089 30.7326C45.7206 30.7504 45.6358 30.7541 45.2625 30.8668C44.7908 31.0092 44.2519 31.2743 43.8422 31.5657C43.4345 31.8556 42.7224 32.6004 42.3929 33.0815C41.9671 33.7031 40.6215 36.0791 40.4513 36.5097C40.2371 37.0517 40.1988 37.6386 40.3576 37.9485C40.499 38.2246 40.7631 38.3956 41.2054 38.4974C41.5133 38.5682 42.0062 38.5766 45.0459 38.562C48.4696 38.5456 48.5409 38.5432 48.9457 38.4309C49.4879 38.2804 50.1441 37.9642 50.5758 37.6454C51.0412 37.3019 51.664 36.6385 52.0199 36.1073C52.452 35.4623 56.5456 28.3378 56.7177 27.9314C56.9471 27.3895 57.0305 26.9172 56.9585 26.5677C56.9105 26.3351 56.8568 26.2391 56.6793 26.0685C56.2355 25.6425 56.5221 25.6658 51.5491 25.6499L47.1415 25.6359L46.1233 27.4041ZM61.7562 25.7374C60.4729 26.0073 59.321 26.8347 58.5 28.0763C57.9416 28.9207 54.689 34.6124 54.496 35.0829C54.309 35.5388 54.236 36.033 54.303 36.3889C54.345 36.612 54.5896 36.9028 54.8435 37.0313C55.2759 37.2505 55.3478 37.2559 58.1577 37.2867L60.8744 37.3164L60.4119 38.1121C59.9155 38.9661 59.6688 39.2522 59.3528 39.3395C59.2195 39.3764 58.0348 39.395 55.8 39.3951L52.4472 39.3954L51.5986 40.8681C51.1319 41.6781 50.7084 42.4183 50.6575 42.5129L50.5649 42.685L54.9878 42.6673C59.4001 42.6495 59.4116 42.6491 59.8189 42.5333C60.7127 42.2791 61.4088 41.8626 62.0918 41.1732C62.3472 40.9154 62.6975 40.4965 62.8703 40.2424C63.043 39.9883 64.988 36.6503 67.1927 32.8247C69.3973 28.999 71.2339 25.817 71.2741 25.7535L71.3471 25.638L66.7707 25.6416C62.5739 25.6449 62.158 25.6529 61.7562 25.7374ZM75.1853 25.7134C73.9267 25.9938 72.8502 26.7432 72.0075 27.925C71.6771 28.3886 67.6325 35.3797 67.2934 36.0737C66.762 37.1609 66.8157 37.9228 67.4502 38.2931C67.9185 38.5663 68.0287 38.5723 72.5561 38.5717L76.7318 38.5709L77.7371 36.8204C78.2899 35.8576 78.7498 35.0382 78.7589 34.9996C78.7729 34.9407 78.2299 34.9294 75.3989 34.9294C72.398 34.9294 72.0133 34.9204 71.9412 34.8488C71.8967 34.8043 71.8602 34.7343 71.8602 34.693C71.8602 34.6041 72.0496 34.2216 72.3404 33.723C72.4557 33.5254 72.5523 33.359 72.5551 33.3532C72.5578 33.3474 72.652 33.3753 72.7644 33.4151C72.9281 33.4732 73.4232 33.488 75.2639 33.4898C76.5809 33.4911 77.7456 33.4689 77.9962 33.4379C79.3866 33.2652 80.6152 32.4528 81.5429 31.0924C81.9495 30.4963 83.3008 28.0925 83.4626 27.6776C83.6688 27.149 83.7167 26.6593 83.5937 26.3385C83.489 26.0655 83.355 25.9353 83.0204 25.7817L82.7633 25.6637L79.1289 25.654C76.2478 25.6465 75.4305 25.6588 75.1853 25.7134ZM88.4081 25.7161C87.1029 25.9828 85.9559 26.8009 85.0986 28.0763C84.8097 28.5064 79.0258 38.4842 79.0258 38.5527C79.0258 38.5651 79.8635 38.5693 80.8872 38.5619L82.7487 38.5484L85.2189 34.2621C87.08 31.0326 87.7438 29.9232 87.9109 29.763C88.2311 29.456 88.4293 29.4273 90.0988 29.4464C91.5875 29.4635 91.6559 29.4759 91.6559 29.7274C91.6559 29.7956 91.6103 29.9403 91.5548 30.0489C91.4815 30.1917 86.8461 38.2496 86.6726 38.5355C86.6598 38.5568 87.48 38.5741 88.4953 38.574H90.3413L93.2643 33.5048C94.8719 30.7168 96.2699 28.2577 96.3707 28.0402C96.6224 27.4977 96.7261 27.0674 96.693 26.7043C96.6602 26.3445 96.5366 26.1211 96.2672 25.9352C95.8442 25.6433 95.763 25.6375 92.0961 25.6428C89.519 25.6465 88.6657 25.6635 88.4081 25.7161ZM101.611 25.7174C100.283 26.0041 99.26 26.722 98.3404 28.0113C97.9549 28.5519 93.7111 35.9526 93.5214 36.415C93.3357 36.8673 93.2636 37.3344 93.3271 37.6719C93.3703 37.9008 93.6152 38.1866 93.886 38.3242C94.3491 38.5596 94.5674 38.5722 98.1599 38.5732L101.544 38.5741L103.718 34.801L101.149 34.7754C98.2946 34.7469 98.3844 34.7586 98.4185 34.4189C98.44 34.2051 100.801 30.0748 101.052 29.8108C101.392 29.454 101.299 29.4652 104.182 29.4367L106.784 29.411L107.852 27.5631C108.44 26.5467 108.922 25.6977 108.923 25.6765C108.924 25.6553 107.354 25.6399 105.432 25.642C102.659 25.6453 101.872 25.6609 101.611 25.7174ZM109.729 25.7792C109.653 26.1418 107.431 37.6668 107.431 37.6989C107.431 37.7191 106.367 38.8424 105.065 40.1953L102.701 42.6551L104.713 42.6685C105.819 42.676 106.729 42.676 106.734 42.6685C106.739 42.6611 110.4 38.8262 114.871 34.1466L123 25.638H118.94L115.44 29.483C113.516 31.5978 111.937 33.3242 111.932 33.3199C111.927 33.3155 112.339 31.6029 112.848 29.5146C113.355 27.426 113.771 25.6994 113.771 25.6776C113.771 25.6558 112.868 25.638 111.765 25.638H109.759L109.729 25.7792ZM78.7702 29.2595C78.8475 29.3522 78.8001 29.4701 78.4206 30.1297C78.1275 30.639 77.9239 30.8602 77.6878 30.9256C77.4941 30.9791 74.4404 30.9966 74.248 30.9453C74.0097 30.8816 74.0566 30.7299 74.5967 29.8194C74.9978 29.1432 74.8613 29.1804 76.9446 29.1802C78.47 29.18 78.7127 29.1906 78.7702 29.2595ZM65.3945 29.4752C65.3527 29.5528 64.7769 30.552 64.1147 31.6954L62.911 33.7744L61.1399 33.7878C59.2142 33.8026 59.1271 33.7912 59.1271 33.5228C59.1271 33.407 60.9633 30.1542 61.2242 29.8078C61.2937 29.7155 61.4073 29.603 61.4766 29.5577C61.7907 29.3528 61.9352 29.3386 63.7294 29.3363L65.4706 29.3341L65.3945 29.4752ZM24.5517 29.7407C24.8301 29.8462 24.7849 29.9922 24.1211 31.1324C23.3654 32.4304 23.4807 32.3769 21.4898 32.3551C20.6778 32.3461 19.9651 32.3269 19.906 32.3122C19.8085 32.2881 19.8682 32.1668 20.5565 30.99L21.3143 29.6942L22.8704 29.6938C23.7263 29.6935 24.4829 29.7147 24.5517 29.7407ZM49.7871 33.4041C49.7988 33.5057 49.7107 33.7068 49.4836 34.0971C49.3076 34.3996 49.1146 34.7019 49.0546 34.7692C48.8315 35.0194 48.7307 35.0321 46.9593 35.0321C45.283 35.0321 45.1052 35.0137 45.1052 34.841C45.1052 34.758 45.5893 33.865 45.7906 33.5768C45.8468 33.4963 45.9649 33.3865 46.0532 33.3327C46.2039 33.2409 46.3207 33.2358 47.9921 33.248L49.7706 33.2611L49.7871 33.4041ZM21.1092 35.8875C21.1672 35.9451 21.1855 36.0202 21.1657 36.1189C21.1278 36.3076 20.2319 37.8582 20.0149 38.1106C19.7075 38.4682 19.6883 38.4714 17.8656 38.4714C16.9696 38.4714 16.2366 38.4559 16.2366 38.4368C16.2366 38.4178 16.5774 37.8172 16.9938 37.1021L17.751 35.802H19.3872C20.8445 35.802 21.0328 35.8114 21.1092 35.8875Z" fill="#272727"/>
<path fill-rule="evenodd" clip-rule="evenodd" d="M25.1819 7.01513L22.7798 7.0412L22.555 7.17093C22.2634 7.33923 22.1339 7.59138 22.1347 7.98947C22.136 8.63132 22.3795 9.21078 23.3562 10.8965C27.264 17.6408 29.4849 21.4395 29.7452 21.8245C30.708 23.2484 31.8787 24.0484 33.1113 24.1245C33.3102 24.1368 34.5259 24.1574 35.8128 24.1703C38.3108 24.1953 38.5401 24.1779 38.8734 23.9387C39.2304 23.6823 39.2637 23.0968 38.9666 22.2998C38.7793 21.7973 38.7578 21.7582 36.597 17.9775C35.8113 16.6026 34.4519 14.2239 33.5763 12.6916C32.7006 11.1592 31.8677 9.72963 31.7253 9.51486C30.8284 8.16186 29.8779 7.37281 28.815 7.0987C28.4104 6.99434 27.9899 6.98468 25.1819 7.01513ZM12.3067 7.08923C11.8301 7.26074 11.6738 7.48976 11.6819 8.0046C11.6924 8.67066 11.9564 9.24592 13.2709 11.4677C14.346 13.2849 14.5949 13.6704 15.0369 14.2018C15.5511 14.8202 16.2126 15.3182 16.7435 15.487C17.0369 15.5802 17.0833 15.6327 16.9189 15.6853C16.766 15.7343 16.5634 16.005 16.525 16.2119C16.4745 16.4826 16.5806 16.9313 16.8083 17.4113C17.0234 17.8643 18.7638 20.8269 19.2215 21.5187C19.8828 22.5184 20.6538 23.2624 21.4368 23.6565C22.1686 24.025 22.263 24.0347 25.2852 24.0538L27.9456 24.0705L28.2012 23.9403C28.5447 23.7653 28.6569 23.5969 28.6843 23.215C28.7098 22.8599 28.5825 22.3706 28.3105 21.779C28.0801 21.278 26.1144 17.9151 25.759 17.4141C25.1931 16.6164 24.452 16.0224 23.6632 15.7345C23.4205 15.6458 23.3761 15.6142 23.4579 15.588C23.5154 15.5697 23.6289 15.4847 23.7102 15.399C24.0062 15.0875 23.9385 14.453 23.519 13.6064C23.2146 12.9921 21.5558 10.148 21.1454 9.53663C20.2368 8.18344 19.2757 7.38784 18.2208 7.11588C17.8586 7.02246 17.6353 7.01523 15.165 7.01738C13.0779 7.01914 12.4581 7.03476 12.3067 7.08923ZM19.1526 11.3053C19.4197 11.4208 19.6158 11.6733 20.1676 12.6116C20.7248 13.559 20.8177 13.807 20.6593 13.9237C20.5401 14.0116 18.1879 14.0234 17.8817 13.9377C17.5465 13.8439 17.3026 13.5595 16.7359 12.6025C16.182 11.667 16.0873 11.4404 16.1953 11.3094C16.2846 11.2008 18.9028 11.1972 19.1526 11.3053ZM29.4614 11.3719C29.9786 11.4344 29.9973 11.4616 32.3112 15.4982C34.5339 19.376 34.6351 19.5598 34.6351 19.7185C34.6351 19.919 34.4841 19.9388 33.0946 19.9212C31.6095 19.9022 31.5884 19.8975 31.2697 19.5193C31.1268 19.3495 28.7409 15.2661 27.1319 12.4376C26.7222 11.7174 26.6553 11.4917 26.822 11.3937C26.9225 11.3348 29.0119 11.3174 29.4614 11.3719ZM22.7398 17.3451C22.8244 17.3892 22.961 17.5031 23.0434 17.5982C23.2842 17.8764 24.2031 19.4899 24.2355 19.6915C24.2624 19.8583 24.2511 19.8812 24.1166 19.9334C23.9009 20.0168 21.3821 19.9442 21.1991 19.8491C20.9809 19.736 20.7686 19.4541 20.3085 18.6673C19.7612 17.7317 19.7063 17.6215 19.7063 17.4618C19.7063 17.2295 19.7954 17.2167 21.2364 17.2416C22.3168 17.2603 22.6166 17.2809 22.7398 17.3451Z" fill="#1E4FCD"/>
</svg>
