<svg width="126" height="58" viewBox="0 0 126 58" fill="none" xmlns="http://www.w3.org/2000/svg">
<path fill-rule="evenodd" clip-rule="evenodd" d="M38.3348 11.1992C38.3967 11.3087 40.6159 15.1727 43.2662 19.7858L48.0851 28.1732H53.1522C58.7622 28.1732 58.5376 28.1862 59.0261 27.8338C59.5686 27.4425 59.5923 26.734 59.0976 25.7003C58.8366 25.1551 52.4481 14.0393 52.117 13.5544C51.2293 12.2543 50.1365 11.4652 48.7524 11.1249C48.4363 11.0472 47.8336 11.0354 43.3096 11.0188L38.2223 11L38.3348 11.1992ZM52.6998 11.2012C52.7611 11.3097 54.9797 15.1727 57.6301 19.7858L62.4489 28.1732L64.4182 28.187C65.5012 28.1946 66.3794 28.1813 66.3695 28.1575C66.3598 28.1338 64.1417 24.2652 61.4406 19.5607L56.5294 11.0073L52.5884 11.004L52.6998 11.2012ZM60.8597 11.0604C59.5696 11.276 59.2586 12.0229 59.8649 13.4492C60.0507 13.8863 66.6539 25.3904 67.0032 25.8857C67.3389 26.3616 68.0738 27.0799 68.5323 27.38C68.7441 27.5186 69.1183 27.7137 69.3638 27.8133C70.2742 28.1829 70.006 28.1662 75.3465 28.1856L80.1693 28.2032L79.9937 27.8935C79.897 27.7231 78.5465 25.3687 76.9927 22.6614L74.1674 17.739L71.1705 17.737C69.5222 17.7359 68.1736 17.7498 68.1736 17.768C68.1736 17.7862 68.6269 18.5907 69.1809 19.5559L70.1881 21.3108H72.3905L73.078 22.5084C73.4561 23.167 73.7817 23.7479 73.8014 23.7992C73.8355 23.8877 73.7402 23.8917 71.9693 23.8769C70.1506 23.8616 70.0953 23.8581 69.8798 23.7433C69.758 23.6786 69.5994 23.5484 69.5272 23.4541C69.371 23.25 65.2331 16.0512 65.1268 15.7986C65.031 15.5708 65.0766 15.4433 65.2792 15.373C65.3908 15.3343 66.5909 15.316 69.0309 15.316C71.004 15.316 72.6105 15.2959 72.6007 15.2712C72.5911 15.2466 72.0376 14.2764 71.3709 13.1152L70.1586 11.004L65.6412 11.0101C63.1566 11.0135 61.0049 11.0361 60.8597 11.0604ZM72.2389 11.2012C72.3003 11.3097 74.5188 15.1727 77.1692 19.7858L81.9881 28.1732L83.9573 28.187C85.0403 28.1946 85.9185 28.1813 85.9087 28.1575C85.8989 28.1338 83.6808 24.2652 80.9797 19.5607L76.0685 11.0073L72.1275 11.004L72.2389 11.2012ZM77.5416 11.0876C77.5594 11.1336 78.1106 12.1036 78.7664 13.243L79.959 15.3148L83.923 15.3423L91.2901 28.1732L93.253 28.187C95.1138 28.2001 95.2134 28.196 95.1659 28.1081C95.1384 28.0572 93.4858 25.1796 91.4935 21.7136C89.5012 18.2476 87.8712 15.3905 87.8712 15.3646C87.8712 15.3377 88.7104 15.3113 89.8147 15.3035L91.7583 15.2897L89.2872 11.004H83.3983C78.0369 11.004 77.5123 11.0115 77.5416 11.0876ZM93.0464 11.0587C92.4563 11.1493 92.0305 11.3749 91.8299 11.7034C91.5874 12.1005 91.6838 12.8182 92.0866 13.6138C92.3022 14.0397 100.364 28.0889 100.434 28.1608C100.455 28.1828 101.341 28.1946 102.403 28.187L104.333 28.1732L102.354 24.7289C101.266 22.8345 100.364 21.2547 100.349 21.2183C100.328 21.1654 100.85 21.1548 102.929 21.1657L105.536 21.1793L109.554 28.1732L111.523 28.187C112.606 28.1946 113.484 28.1815 113.475 28.1579C113.398 27.9741 105.271 13.8746 105.042 13.5281C104.205 12.2648 103.103 11.4826 101.654 11.1241C101.356 11.0503 100.789 11.0375 97.3239 11.0266C95.131 11.0197 93.2062 11.0342 93.0464 11.0587ZM105.72 11.2012C105.781 11.3097 107.999 15.1727 110.65 19.7858L115.469 28.1732L120.549 28.1866C123.343 28.194 125.629 28.188 125.629 28.1734C125.629 28.1588 125.079 27.1884 124.407 26.0172L123.186 23.8875H116.941L109.549 11.0077L105.608 11.004L105.72 11.2012ZM9.19753 13.2618C8.87587 13.4114 8.39484 13.8881 8.03263 14.4162C7.75211 14.8251 6.96949 16.1429 3.5474 21.9681C2.95272 22.9804 2.12088 24.3884 1.69884 25.097C0.613358 26.9194 0.257535 27.6991 0.0729696 28.6596C-0.0828681 29.4706 0.0142467 30.3693 0.332312 31.0607C0.453243 31.3236 3.50679 36.5989 3.5861 36.6819C3.62032 36.7178 6.16358 32.4627 6.18328 32.3367C6.18697 32.3129 5.61427 31.3121 4.91054 30.1127C4.0382 28.6259 3.62238 27.8677 3.60385 27.7301C3.55331 27.3547 3.45166 27.5411 6.95993 21.5737C8.34853 19.2117 8.31104 19.2696 8.47928 19.2276C8.59388 19.1989 8.64653 19.218 8.73356 19.3197C8.79397 19.3902 9.3888 20.364 10.0555 21.4836C10.7222 22.6033 11.2806 23.5192 11.2965 23.5189C11.3124 23.5187 11.842 22.6372 12.4735 21.5601C13.105 20.483 13.6782 19.5071 13.7473 19.3914L13.8729 19.1811L12.2559 16.4953C11.3665 15.018 10.5703 13.7284 10.4865 13.6293C10.1092 13.1831 9.64899 13.0519 9.19753 13.2618ZM101.744 15.2716C102.115 15.3646 102.365 15.6516 102.913 16.6107C103.179 17.0769 103.397 17.4735 103.397 17.492C103.397 17.5105 102.23 17.5195 100.804 17.5119L98.2109 17.4983L97.708 16.6321C97.1519 15.6742 97.0754 15.4374 97.2769 15.2969C97.3859 15.2208 97.6377 15.2108 99.451 15.2108C100.827 15.2108 101.582 15.2308 101.744 15.2716ZM49.0906 15.4586C49.2107 15.5226 49.379 15.6646 49.4644 15.7741C49.6039 15.9528 53.5212 22.7443 53.8053 23.2999C53.8693 23.425 53.9143 23.5783 53.9053 23.6404C53.8717 23.8727 53.7477 23.8859 51.5901 23.8867L49.5553 23.8875L47.1146 19.6357C45.7722 17.2971 44.6739 15.3673 44.6739 15.3472C44.6739 15.327 45.6185 15.3177 46.773 15.3264C48.8227 15.3419 48.8773 15.345 49.0906 15.4586ZM13.1336 22.4282C12.4199 23.6502 11.1485 25.8213 10.3084 27.253C5.52439 35.4054 5.51377 35.4243 5.25617 36.2003C5.04045 36.8503 4.96187 37.3106 4.96282 37.9181C4.96472 39.0595 5.02276 39.1924 6.98803 42.5554C8.31537 44.8268 8.56489 45.1837 8.95366 45.3674C9.34534 45.5525 9.79627 45.4147 10.2764 44.9634C10.6768 44.5869 10.9132 44.2456 11.6704 42.9498C13.5968 39.6533 19.705 29.1301 19.7306 29.0635C19.7481 29.018 19.4249 28.4271 18.9528 27.6417L18.1449 26.2978L17.9934 26.5519C17.91 26.6917 17.6214 27.1846 17.3521 27.6474C17.0827 28.1101 16.082 29.8257 15.1283 31.4598C14.1746 33.0939 13.0497 35.0225 12.6285 35.7455C10.5629 39.2916 10.5428 39.3216 10.3133 39.1994C10.2577 39.1697 9.84486 38.5225 9.39588 37.7611C8.60602 36.4215 8.57951 36.367 8.57941 36.0827C8.5793 35.8578 8.61717 35.7158 8.74053 35.4779C8.82924 35.307 9.93342 33.4042 11.1943 31.2495C12.4551 29.0948 14.0722 26.3282 14.7879 25.1015L16.089 22.8712L15.2914 21.5405C14.8527 20.8086 14.4798 20.2091 14.4626 20.2082C14.4454 20.2072 13.8474 21.2062 13.1336 22.4282ZM18.7474 34.1253C17.3982 36.4336 15.0848 40.3885 13.6066 42.914C12.1285 45.4395 10.929 47.5157 10.9412 47.5278C10.9534 47.54 12.7678 47.5501 14.973 47.5503C19.3531 47.5507 19.2873 47.5548 19.9822 47.241C20.8487 46.8498 21.7193 46.0484 22.4131 45.0032C22.7502 44.4952 24.5361 41.4298 24.8193 40.8727C25.324 39.8802 25.3106 39.2346 24.7783 38.9007C24.6861 38.8428 24.6098 38.7835 24.6087 38.7689C24.6076 38.7542 24.7077 38.7111 24.8311 38.673C25.6832 38.4101 26.5378 37.6905 27.2441 36.6416C27.5588 36.1741 29.2769 33.2039 29.5569 32.643C30.084 31.5874 30.1753 30.8287 29.8233 30.4295C29.6216 30.2007 29.4667 30.1199 29.0954 30.0496C28.9217 30.0168 27.2765 29.9814 25.0027 29.9615L21.2005 29.9284L18.7474 34.1253ZM32.1762 30.8614C31.658 31.756 29.8735 34.8316 25.339 42.646C23.7744 45.3422 22.4943 47.5607 22.4943 47.5759C22.4943 47.5912 24.437 47.6035 26.8114 47.6034L31.1285 47.6031L33.6788 43.1864H30.9646C29.1068 43.1864 28.2504 43.169 28.2504 43.1313C28.2504 43.101 28.5772 42.5097 28.9766 41.8175L29.7027 40.5587L34.4026 40.6186L36.5348 36.9024L31.8537 36.8498L32.5385 35.6667C32.9151 35.0159 33.242 34.4641 33.2648 34.4404C33.2876 34.4167 34.5254 34.393 36.0154 34.3878L38.7245 34.3783L39.9096 32.3275C40.5614 31.1995 41.1067 30.2352 41.1214 30.1846C41.1463 30.0985 41.049 30.0925 39.5972 30.0922C38.7443 30.0919 36.8345 30.077 35.3532 30.059L32.66 30.0264L32.1762 30.8614ZM47.2483 31.9018C46.6747 32.8981 46.2053 33.7268 46.2053 33.7434C46.2053 33.76 47.7366 33.7736 49.608 33.7736C51.6108 33.7736 53.0646 33.794 53.1417 33.8232C53.4264 33.931 53.3786 34.1144 52.8161 35.0721L52.5939 35.4504L52.4042 35.3715C52.2417 35.3039 51.8229 35.2953 49.4872 35.3114C46.8357 35.3297 46.7489 35.3335 46.3665 35.4489C45.8833 35.5948 45.3312 35.8664 44.9115 36.1649C44.4939 36.4618 43.7644 37.2248 43.4269 37.7176C42.9907 38.3544 41.6123 40.7883 41.4379 41.2294C41.2185 41.7847 41.1793 42.3859 41.3419 42.7033C41.4868 42.9862 41.7573 43.1613 42.2104 43.2656C42.5258 43.3382 43.0307 43.3468 46.1446 43.3318C49.6518 43.315 49.7248 43.3126 50.1395 43.1975C50.6949 43.0433 51.3671 42.7194 51.8094 42.3929C52.2861 42.041 52.9241 41.3614 53.2887 40.8172C53.7313 40.1565 57.9248 32.8582 58.1011 32.4419C58.3361 31.8868 58.4215 31.403 58.3477 31.045C58.2986 30.8067 58.2436 30.7083 58.0617 30.5336C57.6071 30.0972 57.9007 30.1211 52.8064 30.1048L48.2913 30.0904L47.2483 31.9018ZM63.2625 30.1944C61.9479 30.4709 60.7679 31.3185 59.9268 32.5904C59.3548 33.4553 56.0229 39.2859 55.8252 39.7678C55.6336 40.2349 55.5588 40.7411 55.6275 41.1057C55.6705 41.3342 55.9211 41.6321 56.1811 41.7638C56.6241 41.9883 56.6977 41.9939 59.5762 42.0254L62.3591 42.0558L61.8854 42.8709C61.3769 43.7458 61.1241 44.0388 60.8004 44.1283C60.6639 44.1661 59.4503 44.1851 57.161 44.1852L53.7264 44.1855L52.8571 45.6942C52.379 46.5239 51.9452 47.2822 51.8931 47.3791L51.7982 47.5554L56.329 47.5372C60.8489 47.519 60.8607 47.5186 61.2779 47.4C62.1935 47.1396 62.9066 46.7129 63.6062 46.0067C63.8679 45.7426 64.2267 45.3135 64.4037 45.0532C64.5806 44.7929 66.5731 41.3735 68.8315 37.4546C71.0899 33.5356 72.9713 30.276 73.0125 30.2109L73.0873 30.0926L68.3993 30.0963C64.1001 30.0997 63.6741 30.1078 63.2625 30.1944ZM77.0191 30.1698C75.7298 30.4571 74.627 31.2247 73.7638 32.4354C73.4253 32.9103 69.2821 40.0719 68.9347 40.7828C68.3903 41.8965 68.4454 42.677 69.0953 43.0563C69.5751 43.3362 69.6879 43.3424 74.3258 43.3417L78.6033 43.3409L79.6331 41.5477C80.1994 40.5614 80.6705 39.7221 80.6799 39.6825C80.6942 39.6222 80.138 39.6106 77.2379 39.6106C74.1638 39.6106 73.7697 39.6014 73.6959 39.528C73.6503 39.4825 73.6129 39.4107 73.6129 39.3684C73.6129 39.2774 73.8069 38.8855 74.1048 38.3748C74.2229 38.1724 74.3219 38.0019 74.3247 37.996C74.3275 37.99 74.424 38.0186 74.5391 38.0594C74.7068 38.1189 75.214 38.134 77.0996 38.1359C78.4487 38.1372 79.6418 38.1145 79.8985 38.0827C81.3229 37.9058 82.5814 37.0736 83.5318 35.68C83.9483 35.0694 85.3325 32.607 85.4983 32.1819C85.7095 31.6404 85.7586 31.1388 85.6326 30.8102C85.5253 30.5305 85.388 30.3971 85.0453 30.2398L84.7819 30.1189L81.0589 30.109C78.1075 30.1013 77.2703 30.1139 77.0191 30.1698ZM90.5644 30.1726C89.2274 30.4458 88.0524 31.2838 87.1742 32.5904C86.8782 33.0309 80.9533 43.2521 80.9533 43.3223C80.9533 43.335 81.8114 43.3393 82.8601 43.3317L84.767 43.3179L87.2974 38.927C89.2039 35.6188 89.8839 34.4823 90.0551 34.3182C90.3831 34.0037 90.5861 33.9743 92.2963 33.9939C93.8213 34.0114 93.8914 34.0241 93.8914 34.2817C93.8914 34.3516 93.8447 34.4998 93.7878 34.6111C93.7128 34.7574 88.9643 43.0118 88.7866 43.3047C88.7735 43.3265 89.6137 43.3442 90.6537 43.3441L92.5447 43.3441L95.539 38.1513C97.1859 35.2953 98.6179 32.7762 98.7212 32.5534C98.979 31.9976 99.0853 31.5569 99.0514 31.1849C99.0178 30.8163 98.8912 30.5875 98.6152 30.397C98.1819 30.098 98.0987 30.0921 94.3423 30.0975C91.7024 30.1013 90.8283 30.1187 90.5644 30.1726ZM104.089 30.1739C102.729 30.4676 101.681 31.203 100.739 32.5238C100.344 33.0776 95.9967 40.6588 95.8024 41.1324C95.6122 41.5958 95.5383 42.0743 95.6034 42.42C95.6476 42.6545 95.8985 42.9473 96.1759 43.0882C96.6503 43.3293 96.8739 43.3423 100.554 43.3433L104.021 43.3442L106.248 39.4791L103.616 39.4528C100.692 39.4237 100.784 39.4356 100.819 39.0877C100.841 38.8686 103.26 34.6376 103.517 34.3672C103.865 34.0017 103.77 34.0131 106.723 33.9839L109.389 33.9576L110.483 32.0646C111.085 31.0234 111.579 30.1537 111.58 30.132C111.581 30.1103 109.972 30.0945 108.004 30.0967C105.163 30.1001 104.357 30.116 104.089 30.1739ZM112.405 30.2372C112.327 30.6087 110.051 42.4148 110.051 42.4477C110.051 42.4683 108.961 43.619 107.628 45.0049L105.206 47.5247L107.267 47.5385C108.4 47.5461 109.332 47.5461 109.337 47.5385C109.342 47.5309 113.093 43.6025 117.673 38.8087L126 30.0926H121.841L118.256 34.0314C116.285 36.1977 114.667 37.9663 114.662 37.9618C114.657 37.9573 115.079 36.203 115.6 34.0637C116.12 31.9242 116.546 30.1555 116.546 30.1332C116.546 30.1108 115.621 30.0926 114.491 30.0926H112.436L112.405 30.2372ZM80.6914 33.8024C80.7706 33.8974 80.7221 34.0181 80.3333 34.6938C80.0331 35.2156 79.8245 35.4422 79.5826 35.5091C79.3842 35.564 76.256 35.5819 76.0589 35.5293C75.8148 35.4641 75.8629 35.3087 76.4161 34.376C76.827 33.6833 76.6872 33.7214 78.8213 33.7212C80.3839 33.721 80.6325 33.7318 80.6914 33.8024ZM66.9895 34.0234C66.9467 34.1029 66.3568 35.1264 65.6785 36.2977L64.4454 38.4274L62.6311 38.4412C60.6584 38.4563 60.5692 38.4446 60.5692 38.1697C60.5692 38.0511 62.4502 34.7189 62.7175 34.3641C62.7887 34.2695 62.905 34.1543 62.976 34.1079C63.2978 33.898 63.4458 33.8834 65.2838 33.8811L67.0674 33.8788L66.9895 34.0234ZM25.1505 34.2954C25.4357 34.4034 25.3894 34.553 24.7094 35.721C23.9353 37.0507 24.0534 36.9959 22.0139 36.9735C21.1821 36.9643 20.4521 36.9446 20.3915 36.9296C20.2916 36.9049 20.3528 36.7806 21.0579 35.5751L21.8342 34.2477L23.4282 34.2473C24.305 34.247 25.08 34.2687 25.1505 34.2954ZM51.0014 38.0481C51.0134 38.1522 50.9232 38.3582 50.6905 38.758C50.5102 39.0679 50.3125 39.3776 50.2511 39.4465C50.0225 39.7028 49.9193 39.7158 48.1046 39.7158C46.3875 39.7158 46.2053 39.697 46.2053 39.52C46.2053 39.435 46.7012 38.5202 46.9074 38.225C46.965 38.1426 47.086 38.0301 47.1764 37.975C47.3308 37.8809 47.4505 37.8757 49.1626 37.8882L50.9845 37.9016L51.0014 38.0481ZM21.6241 40.5921C21.6835 40.6511 21.7022 40.728 21.6819 40.8291C21.6431 41.0224 20.7254 42.6108 20.5031 42.8694C20.1882 43.2357 20.1685 43.239 18.3013 43.239C17.3835 43.239 16.6326 43.2231 16.6326 43.2036C16.6326 43.1841 16.9817 42.5688 17.4083 41.8363L18.184 40.5045H19.8601C21.3529 40.5045 21.5458 40.5141 21.6241 40.5921Z" fill="#1A1A1A"/>
<path fill-rule="evenodd" clip-rule="evenodd" d="M25.7961 11.0155L23.3354 11.0422L23.1051 11.1751C22.8064 11.3475 22.6738 11.6058 22.6746 12.0136C22.6759 12.6711 22.9253 13.2647 23.9259 14.9915C27.929 21.9003 30.204 25.7917 30.4707 26.1861C31.457 27.6447 32.6562 28.4642 33.9189 28.5422C34.1226 28.5548 35.368 28.5759 36.6863 28.5891C39.2452 28.6147 39.4801 28.5969 39.8215 28.3518C40.1872 28.0892 40.2214 27.4894 39.917 26.673C39.7251 26.1582 39.7031 26.1182 37.4896 22.2452C36.6847 20.8368 35.2922 18.4001 34.3952 16.8304C33.4982 15.2606 32.645 13.7962 32.4991 13.5762C31.5803 12.1902 30.6066 11.3819 29.5178 11.1011C29.1033 10.9942 28.6726 10.9843 25.7961 11.0155ZM12.6069 11.0914C12.1186 11.2671 11.9585 11.5017 11.9668 12.0291C11.9776 12.7114 12.248 13.3007 13.5946 15.5767C14.6959 17.4382 14.9509 17.8331 15.4037 18.3775C15.9304 19.0109 16.608 19.5211 17.1519 19.694C17.4524 19.7895 17.5 19.8432 17.3316 19.8971C17.1749 19.9473 16.9674 20.2246 16.928 20.4366C16.8763 20.7139 16.985 21.1735 17.2183 21.6652C17.4386 22.1293 19.2215 25.1641 19.6903 25.8728C20.3677 26.8969 21.1575 27.659 21.9596 28.0628C22.7093 28.4402 22.806 28.4502 25.9019 28.4697L28.6272 28.4868L28.889 28.3535C29.2409 28.1742 29.3559 28.0017 29.3839 27.6105C29.41 27.2467 29.2796 26.7455 29.001 26.1395C28.765 25.6262 26.7513 22.1813 26.3873 21.6681C25.8076 20.8509 25.0484 20.2425 24.2404 19.9475C23.9917 19.8567 23.9462 19.8243 24.03 19.7975C24.0889 19.7787 24.2052 19.6916 24.2885 19.6039C24.5917 19.2848 24.5224 18.6348 24.0926 17.7675C23.7808 17.1382 22.0816 14.2248 21.6611 13.5985C20.7304 12.2123 19.7458 11.3973 18.6652 11.1187C18.2942 11.023 18.0654 11.0156 15.5349 11.0178C13.3969 11.0196 12.762 11.0356 12.6069 11.0914ZM19.6197 15.4103C19.8933 15.5286 20.0942 15.7873 20.6595 16.7485C21.2303 17.719 21.3254 17.973 21.1632 18.0926C21.0411 18.1826 18.6315 18.1947 18.3178 18.1069C17.9745 18.0108 17.7246 17.7195 17.1441 16.7391C16.5767 15.7808 16.4797 15.5487 16.5903 15.4145C16.6818 15.3033 19.3638 15.2996 19.6197 15.4103ZM30.18 15.4785C30.7098 15.5426 30.7289 15.5704 33.0993 19.7055C35.3762 23.6779 35.4799 23.8661 35.4799 24.0287C35.4799 24.2341 35.3252 24.2544 33.9018 24.2363C32.3805 24.2169 32.3588 24.2121 32.0324 23.8246C31.886 23.6507 29.4419 19.4677 27.7937 16.5702C27.374 15.8325 27.3054 15.6012 27.4762 15.5009C27.5791 15.4405 29.7195 15.4227 30.18 15.4785ZM23.2944 21.5974C23.3811 21.6426 23.521 21.7593 23.6054 21.8567C23.8521 22.1417 24.7934 23.7945 24.8266 24.001C24.8542 24.1719 24.8426 24.1954 24.7048 24.2488C24.4838 24.3343 21.9036 24.2599 21.7161 24.1625C21.4926 24.0466 21.2751 23.7579 20.8038 22.9519C20.2432 21.9934 20.1869 21.8806 20.1869 21.717C20.1869 21.479 20.2782 21.4659 21.7544 21.4914C22.8611 21.5105 23.1682 21.5316 23.2944 21.5974Z" fill="#1E4FCD"/>
</svg>
