<svg width="126" height="58" viewBox="0 0 126 58" fill="none" xmlns="http://www.w3.org/2000/svg">
<rect x="74.677" y="7.76648" width="17.4604" height="5.6848" fill="#1A1A1A"/>
<rect x="74.677" y="17.9226" width="13.4419" height="5.67546" fill="#1A1A1A"/>
<rect x="74.677" y="28.0693" width="17.4604" height="5.6848" fill="#1A1A1A"/>
<path d="M17.3315 25.4054H22.652C22.5452 27.1492 22.0648 28.6973 21.2106 30.0497C20.3684 31.4021 19.188 32.4578 17.6696 33.2171C16.163 33.9763 14.348 34.3559 12.2246 34.3559C10.5638 34.3559 9.07502 34.0712 7.75825 33.5018C6.44149 32.9205 5.31452 32.0901 4.37736 31.0106C3.45207 29.9311 2.74623 28.6262 2.25986 27.0959C1.77348 25.5656 1.5303 23.8514 1.5303 21.9534V20.1561C1.5303 18.2581 1.77942 16.5439 2.27765 15.0136C2.78775 13.4715 3.51138 12.1606 4.44854 11.0811C5.39756 10.0016 6.53046 9.17122 7.84722 8.58994C9.16399 8.00867 10.635 7.71803 12.2602 7.71803C14.4192 7.71803 16.2401 8.1095 17.723 8.89244C19.2177 9.67539 20.3743 10.7549 21.1928 12.131C22.0232 13.5071 22.5215 15.0729 22.6876 16.8286H17.3493C17.29 15.7847 17.0824 14.9009 16.7265 14.1773C16.3706 13.4418 15.8309 12.8902 15.1072 12.5225C14.3955 12.1428 13.4465 11.953 12.2602 11.953C11.3705 11.953 10.5935 12.1191 9.92914 12.4513C9.26483 12.7834 8.70727 13.2876 8.25649 13.9638C7.8057 14.64 7.46762 15.4941 7.24222 16.5261C7.02869 17.5463 6.92193 18.7445 6.92193 20.1206V21.9534C6.92193 23.2938 7.02276 24.4742 7.22443 25.4944C7.4261 26.5027 7.73453 27.3568 8.14972 28.0568C8.57678 28.7448 9.12247 29.2668 9.78679 29.6226C10.463 29.9667 11.2756 30.1387 12.2246 30.1387C13.3397 30.1387 14.2591 29.9607 14.9827 29.6048C15.7063 29.249 16.2579 28.7211 16.6375 28.0212C17.029 27.3213 17.2603 26.4493 17.3315 25.4054ZM47.4392 20.4409V21.6686C47.4392 23.6379 47.1723 25.4054 46.6385 26.9713C46.1047 28.5372 45.3514 29.8718 44.3786 30.975C43.4059 32.0664 42.2433 32.9027 40.891 33.484C39.5505 34.0652 38.0617 34.3559 36.4246 34.3559C34.7994 34.3559 33.3107 34.0652 31.9583 33.484C30.6178 32.9027 29.4553 32.0664 28.4707 30.975C27.486 29.8718 26.7209 28.5372 26.1752 26.9713C25.6414 25.4054 25.3745 23.6379 25.3745 21.6686V20.4409C25.3745 18.4598 25.6414 16.6922 26.1752 15.1382C26.709 13.5723 27.4623 12.2377 28.4351 11.1345C29.4197 10.0313 30.5822 9.18901 31.9227 8.60774C33.2751 8.02646 34.7639 7.73582 36.3891 7.73582C38.0261 7.73582 39.5149 8.02646 40.8554 8.60774C42.2077 9.18901 43.3703 10.0313 44.343 11.1345C45.3277 12.2377 46.0869 13.5723 46.6207 15.1382C47.1664 16.6922 47.4392 18.4598 47.4392 20.4409ZM42.0476 21.6686V20.4053C42.0476 19.0292 41.923 17.8192 41.6739 16.7753C41.4248 15.7313 41.0571 14.8535 40.5707 14.1417C40.0843 13.43 39.4912 12.8961 38.7913 12.5402C38.0914 12.1725 37.2906 11.9886 36.3891 11.9886C35.4875 11.9886 34.6867 12.1725 33.9868 12.5402C33.2988 12.8961 32.7116 13.43 32.2252 14.1417C31.7507 14.8535 31.3889 15.7313 31.1398 16.7753C30.8907 17.8192 30.7661 19.0292 30.7661 20.4053V21.6686C30.7661 23.0329 30.8907 24.2429 31.1398 25.2987C31.3889 26.3426 31.7566 27.2264 32.243 27.95C32.7294 28.6618 33.3225 29.2015 34.0224 29.5693C34.7223 29.937 35.5231 30.1209 36.4246 30.1209C37.3262 30.1209 38.1269 29.937 38.8269 29.5693C39.5268 29.2015 40.114 28.6618 40.5885 27.95C41.063 27.2264 41.4248 26.3426 41.6739 25.2987C41.923 24.2429 42.0476 23.0329 42.0476 21.6686ZM59.2367 34H53.596L53.6316 29.8362H59.2367C60.6366 29.8362 61.8169 29.5218 62.7778 28.8931C63.7387 28.2525 64.4623 27.3213 64.9487 26.0994C65.4469 24.8775 65.696 23.4006 65.696 21.6686V20.4053C65.696 19.0766 65.5537 17.9081 65.269 16.8998C64.9961 15.8915 64.5869 15.0433 64.0412 14.3552C63.4955 13.6672 62.8252 13.1512 62.0304 12.8072C61.2356 12.4513 60.3222 12.2733 59.2901 12.2733H53.4892V8.09171H59.2901C61.0221 8.09171 62.6058 8.38827 64.0412 8.98141C65.4884 9.56269 66.74 10.399 67.7957 11.4904C68.8515 12.5818 69.6641 13.8867 70.2335 15.4051C70.8148 16.9117 71.1055 18.5903 71.1055 20.4409V21.6686C71.1055 23.5074 70.8148 25.186 70.2335 26.7044C69.6641 28.2228 68.8515 29.5277 67.7957 30.6191C66.7518 31.6986 65.5003 32.5349 64.0412 33.1281C62.5939 33.7094 60.9924 34 59.2367 34ZM56.621 8.09171V34H51.2828V8.09171H56.621ZM94.8322 31.5266C94.8322 30.7674 95.0932 30.1327 95.6151 29.6226C96.149 29.1125 96.8548 28.8575 97.7326 28.8575C98.6105 28.8575 99.3104 29.1125 99.8323 29.6226C100.366 30.1327 100.633 30.7674 100.633 31.5266C100.633 32.2858 100.366 32.9205 99.8323 33.4306C99.3104 33.9407 98.6105 34.1957 97.7326 34.1957C96.8548 34.1957 96.149 33.9407 95.6151 33.4306C95.0932 32.9205 94.8322 32.2858 94.8322 31.5266ZM94.8322 16.8464C94.8322 16.0872 95.0932 15.4526 95.6151 14.9425C96.149 14.4324 96.8548 14.1773 97.7326 14.1773C98.6105 14.1773 99.3104 14.4324 99.8323 14.9425C100.366 15.4526 100.633 16.0872 100.633 16.8464C100.633 17.6056 100.366 18.2403 99.8323 18.7504C99.3104 19.2605 98.6105 19.5156 97.7326 19.5156C96.8548 19.5156 96.149 19.2605 95.6151 18.7504C95.0932 18.2403 94.8322 17.6056 94.8322 16.8464ZM116.826 8.09171V34H111.505V8.09171H116.826ZM124.798 8.09171V12.2733H103.658V8.09171H124.798Z" fill="#1A1A1A"/>
<path d="M8.39194 51.007V45.0067C8.39194 44.547 8.29858 44.1484 8.11185 43.8109C7.9323 43.4662 7.6594 43.2004 7.29312 43.0137C6.92685 42.827 6.4744 42.7336 5.93576 42.7336C5.43304 42.7336 4.99135 42.8198 4.61072 42.9922C4.23727 43.1645 3.94281 43.3907 3.72736 43.6708C3.51908 43.9509 3.41495 44.2526 3.41495 44.5757H1.422C1.422 44.1592 1.52972 43.7462 1.74518 43.3369C1.96063 42.9275 2.26945 42.5577 2.67163 42.2273C3.08099 41.8897 3.56936 41.624 4.13672 41.4301C4.71126 41.229 5.35044 41.1285 6.05426 41.1285C6.90171 41.1285 7.64862 41.2721 8.29499 41.5594C8.94853 41.8467 9.45844 42.2812 9.82471 42.8629C10.1982 43.4374 10.3849 44.1592 10.3849 45.0282V50.4576C10.3849 50.8455 10.4172 51.2584 10.4818 51.6965C10.5537 52.1346 10.6578 52.5116 10.7943 52.8276V53H8.71512C8.61458 52.7702 8.53558 52.465 8.47812 52.0843C8.42067 51.6965 8.39194 51.3374 8.39194 51.007ZM8.73667 45.9331L8.75821 47.3336H6.74372C6.17635 47.3336 5.67004 47.3802 5.22476 47.4736C4.77949 47.5598 4.40604 47.6926 4.1044 47.8722C3.80277 48.0517 3.57295 48.278 3.41495 48.5509C3.25695 48.8166 3.17795 49.129 3.17795 49.4881C3.17795 49.8544 3.26054 50.1883 3.42572 50.49C3.5909 50.7916 3.83867 51.0322 4.16904 51.2117C4.50658 51.3841 4.91954 51.4703 5.4079 51.4703C6.01835 51.4703 6.55699 51.341 7.02381 51.0825C7.49062 50.8239 7.86049 50.5079 8.13339 50.1345C8.41348 49.761 8.5643 49.3983 8.58585 49.0464L9.43689 50.0052C9.38662 50.3068 9.25017 50.6408 9.02753 51.007C8.80489 51.3733 8.50685 51.7252 8.13339 52.0628C7.76712 52.3931 7.32903 52.6696 6.81912 52.8923C6.3164 53.1077 5.74904 53.2155 5.11704 53.2155C4.32704 53.2155 3.63399 53.061 3.0379 52.7522C2.449 52.4434 1.98936 52.0305 1.659 51.5134C1.33582 50.9891 1.17423 50.4038 1.17423 49.7574C1.17423 49.1326 1.29632 48.5832 1.5405 48.1092C1.78468 47.628 2.13659 47.2294 2.59622 46.9134C3.05586 46.5902 3.60886 46.3461 4.25522 46.1809C4.90158 46.0157 5.62335 45.9331 6.42053 45.9331H8.73667ZM25.4839 41.3439H27.2937V52.7522C27.2937 53.7792 27.0855 54.6554 26.6689 55.3808C26.2524 56.1061 25.6706 56.6555 24.9237 57.029C24.184 57.4096 23.3294 57.5999 22.3598 57.5999C21.9577 57.5999 21.4837 57.5353 20.9378 57.406C20.3992 57.2839 19.8677 57.0721 19.3435 56.7704C18.8264 56.476 18.3919 56.0774 18.04 55.5747L19.0849 54.3897C19.5733 54.9786 20.0832 55.388 20.6147 55.6178C21.1533 55.8476 21.6847 55.9625 22.209 55.9625C22.841 55.9625 23.3868 55.844 23.8465 55.607C24.3061 55.37 24.6616 55.0181 24.913 54.5513C25.1715 54.0916 25.3008 53.5243 25.3008 52.8492V43.9078L25.4839 41.3439ZM17.4583 47.3012V47.075C17.4583 46.1845 17.5624 45.3765 17.7707 44.6512C17.9861 43.9186 18.2913 43.2902 18.6863 42.7659C19.0885 42.2417 19.5733 41.8395 20.1407 41.5594C20.708 41.2721 21.3472 41.1285 22.0582 41.1285C22.7907 41.1285 23.4299 41.2577 23.9757 41.5163C24.5287 41.7677 24.9956 42.1375 25.3762 42.6259C25.764 43.1071 26.0692 43.6888 26.2919 44.3711C26.5145 45.0533 26.6689 45.8254 26.7551 46.6872V47.6783C26.6761 48.5329 26.5217 49.3014 26.2919 49.9836C26.0692 50.6659 25.764 51.2476 25.3762 51.7288C24.9956 52.21 24.5287 52.5799 23.9757 52.8384C23.4227 53.0898 22.7764 53.2155 22.0367 53.2155C21.34 53.2155 20.708 53.0682 20.1407 52.7738C19.5805 52.4793 19.0993 52.0664 18.6971 51.5349C18.2949 51.0035 17.9861 50.3786 17.7707 49.6605C17.5624 48.9351 17.4583 48.1487 17.4583 47.3012ZM19.4512 47.075V47.3012C19.4512 47.883 19.5087 48.4288 19.6236 48.9387C19.7457 49.4486 19.9288 49.8975 20.173 50.2853C20.4243 50.6731 20.7439 50.9783 21.1317 51.201C21.5196 51.4164 21.9828 51.5241 22.5214 51.5241C23.1821 51.5241 23.728 51.3841 24.1589 51.104C24.5898 50.8239 24.9309 50.4541 25.1823 49.9944C25.4408 49.5348 25.6419 49.0356 25.7856 48.497V45.9008C25.7066 45.5058 25.5845 45.1252 25.4193 44.7589C25.2613 44.3854 25.053 44.0551 24.7945 43.7678C24.5431 43.4733 24.2307 43.2399 23.8572 43.0676C23.4838 42.8952 23.0457 42.809 22.543 42.809C21.9972 42.809 21.5267 42.9239 21.1317 43.1537C20.7439 43.3764 20.4243 43.6852 20.173 44.0802C19.9288 44.468 19.7457 44.9205 19.6236 45.4376C19.5087 45.9475 19.4512 46.4933 19.4512 47.075ZM39.5703 53.2155C38.7588 53.2155 38.0226 53.079 37.3619 52.8061C36.7084 52.526 36.1446 52.1346 35.6706 51.6319C35.2038 51.1291 34.8447 50.533 34.5933 49.8436C34.342 49.1541 34.2163 48.4001 34.2163 47.5813V47.1289C34.2163 46.1809 34.3563 45.337 34.6364 44.5973C34.9165 43.8504 35.2971 43.2184 35.7783 42.7013C36.2595 42.1842 36.8053 41.7928 37.4158 41.5271C38.0262 41.2613 38.6582 41.1285 39.3118 41.1285C40.1449 41.1285 40.863 41.2721 41.4663 41.5594C42.0768 41.8467 42.5759 42.2488 42.9637 42.7659C43.3515 43.2758 43.6388 43.8791 43.8255 44.5757C44.0123 45.2652 44.1056 46.0193 44.1056 46.838V47.7321H35.4013V46.1055H42.1127V45.9546C42.0839 45.4376 41.9762 44.9348 41.7895 44.4465C41.6099 43.9581 41.3227 43.5559 40.9277 43.2399C40.5327 42.9239 39.994 42.7659 39.3118 42.7659C38.8593 42.7659 38.4428 42.8629 38.0621 43.0568C37.6815 43.2435 37.3547 43.5236 37.0818 43.8971C36.8089 44.2705 36.597 44.7266 36.4462 45.2652C36.2954 45.8038 36.22 46.4251 36.22 47.1289V47.5813C36.22 48.1343 36.2954 48.655 36.4462 49.1434C36.6042 49.6246 36.8305 50.0483 37.1249 50.4146C37.4265 50.7808 37.7892 51.0681 38.2129 51.2764C38.6439 51.4846 39.1322 51.5888 39.678 51.5888C40.3819 51.5888 40.9779 51.4451 41.4663 51.1579C41.9547 50.8706 42.382 50.4864 42.7483 50.0052L43.9548 50.964C43.7034 51.3446 43.3838 51.7073 42.996 52.052C42.6082 52.3967 42.1306 52.6768 41.5633 52.8923C41.0031 53.1077 40.3388 53.2155 39.5703 53.2155ZM52.838 43.8324V53H50.845V41.3439H52.7302L52.838 43.8324ZM52.364 46.7303L51.5345 46.698C51.5417 45.9008 51.6602 45.1647 51.89 44.4896C52.1198 43.8073 52.443 43.2148 52.8595 42.7121C53.2761 42.2093 53.7716 41.8215 54.3462 41.5486C54.9279 41.2685 55.5707 41.1285 56.2745 41.1285C56.849 41.1285 57.3661 41.2075 57.8257 41.3655C58.2854 41.5163 58.6768 41.7605 59 42.098C59.3303 42.4356 59.5817 42.8737 59.7541 43.4123C59.9264 43.9437 60.0126 44.5937 60.0126 45.3622V53H58.0089V45.3406C58.0089 44.7302 57.9191 44.2418 57.7396 43.8755C57.56 43.5021 57.2979 43.2327 56.9531 43.0676C56.6084 42.8952 56.1847 42.809 55.682 42.809C55.1864 42.809 54.734 42.9132 54.3246 43.1214C53.9224 43.3297 53.5741 43.617 53.2797 43.9832C52.9924 44.3495 52.7662 44.7697 52.601 45.2437C52.443 45.7105 52.364 46.206 52.364 46.7303ZM72.1168 51.578C72.5908 51.578 73.0289 51.481 73.4311 51.2871C73.8333 51.0932 74.1636 50.8275 74.4222 50.49C74.6807 50.1452 74.8279 49.7538 74.8639 49.3157H76.7599C76.7239 50.0052 76.4905 50.648 76.0596 51.244C75.6359 51.833 75.0793 52.3105 74.3899 52.6768C73.7004 53.0359 72.9427 53.2155 72.1168 53.2155C71.2406 53.2155 70.4758 53.061 69.8222 52.7522C69.1759 52.4434 68.6372 52.0197 68.2063 51.481C67.7826 50.9424 67.463 50.3248 67.2476 49.6281C67.0393 48.9243 66.9351 48.181 66.9351 47.3982V46.9457C66.9351 46.1629 67.0393 45.4232 67.2476 44.7266C67.463 44.0227 67.7826 43.4015 68.2063 42.8629C68.6372 42.3242 69.1759 41.9005 69.8222 41.5917C70.4758 41.2829 71.2406 41.1285 72.1168 41.1285C73.0289 41.1285 73.8261 41.3152 74.5084 41.6887C75.1906 42.0549 75.7257 42.5577 76.1135 43.1968C76.5085 43.8288 76.7239 44.547 76.7599 45.3514H74.8639C74.8279 44.8702 74.6915 44.4357 74.4545 44.0479C74.2247 43.6601 73.9087 43.3512 73.5065 43.1214C73.1115 42.8844 72.6483 42.7659 72.1168 42.7659C71.5064 42.7659 70.9929 42.888 70.5763 43.1322C70.167 43.3692 69.8402 43.6924 69.596 44.1017C69.359 44.5039 69.1866 44.9528 69.0789 45.4483C68.9784 45.9367 68.9281 46.4358 68.9281 46.9457V47.3982C68.9281 47.9081 68.9784 48.4108 69.0789 48.9064C69.1795 49.4019 69.3482 49.8508 69.5852 50.253C69.8294 50.6551 70.1562 50.9783 70.5655 51.2225C70.9821 51.4595 71.4992 51.578 72.1168 51.578ZM86.688 51.7935L89.9306 41.3439H92.0636L87.3882 54.799C87.2805 55.0863 87.1368 55.3951 86.9573 55.7255C86.7849 56.063 86.5623 56.3826 86.2894 56.6843C86.0165 56.9859 85.6861 57.2301 85.2983 57.4168C84.9177 57.6107 84.4616 57.7077 83.9302 57.7077C83.7722 57.7077 83.5711 57.6861 83.3269 57.643C83.0827 57.5999 82.9104 57.564 82.8098 57.5353L82.799 55.9194C82.8565 55.9266 82.9463 55.9338 83.0684 55.9409C83.1976 55.9553 83.2874 55.9625 83.3377 55.9625C83.7901 55.9625 84.1744 55.9014 84.4903 55.7794C84.8063 55.6644 85.0721 55.467 85.2875 55.1869C85.5102 54.914 85.7005 54.5369 85.8585 54.0557L86.688 51.7935ZM84.3072 41.3439L87.3343 50.393L87.8514 52.4937L86.4187 53.2262L82.1311 41.3439H84.3072Z" fill="#1E4FCD"/>
<rect x="59" y="8" width="3" height="26" fill="white"/>
</svg>
