<svg width="395" height="395" viewBox="0 0 395 395" fill="none" xmlns="http://www.w3.org/2000/svg">
<path d="M369.717 199.208L371.702 199.323L378.916 215.776L375.74 215.592L370.544 202.991L370.736 203.101L370.24 203.073L370.444 202.985L363.828 214.902L360.651 214.718L369.717 199.208Z" fill="#1E4FCD"/>
<path d="M384.819 222.57L384.088 226.176L361.662 230.457L361.602 230.75L380.593 243.424L379.862 247.03L354.915 241.975L355.487 239.149L374.442 242.99L374.491 242.746L357.116 231.109L357.669 228.38L378.203 224.425L378.253 224.182L359.299 220.341L359.871 217.515L384.819 222.57Z" fill="#1E4FCD"/>
<path d="M353.91 244.408L377.937 252.81L372.866 267.311L370.285 266.409L374.339 254.817L366.22 251.978L362.429 262.819L359.848 261.916L363.639 251.075L355.473 248.22L351.354 259.999L348.773 259.096L353.91 244.408Z" fill="#1E4FCD"/>
<path d="M369.227 269.209L371.691 270.395L363.412 287.597L360.948 286.411L364.419 279.199L343.946 269.346L345.283 266.569L365.756 276.422L369.227 269.209Z" fill="#1E4FCD"/>
<path d="M339.288 278.47L341.023 275.743L357.482 297.294L355.774 299.978L329.28 294.199L331.015 291.473L353.177 296.558L353.283 296.39L339.288 278.47ZM347.037 284.814L340.044 295.804L337.738 294.336L344.73 283.346L347.037 284.814Z" fill="#1E4FCD"/>
<path d="M329.768 332.196L311.001 314.998L313.017 312.799L337.123 316.076L337.291 315.892L322.556 302.39L324.638 300.117L343.405 317.315L341.39 319.514L317.213 316.24L317.045 316.424L331.817 329.96L329.768 332.196Z" fill="#1E4FCD"/>
<path d="M308.343 317.315L310.811 315.229L320.106 340.702L317.676 342.757L294.105 329.351L296.573 327.265L316.215 338.718L316.367 338.59L308.343 317.315ZM313.851 325.679L303.903 334.088L302.138 332L312.086 323.591L313.851 325.679Z" fill="#1E4FCD"/>
<path d="M307.993 350.755L304.874 352.707L286.331 339.387L286.078 339.546L289.957 362.045L286.838 363.997L273.332 342.422L275.776 340.891L286.038 357.284L286.248 357.152L282.729 336.539L285.089 335.062L302.093 347.233L302.304 347.101L292.042 330.709L294.486 329.179L307.993 350.755Z" fill="#1E4FCD"/>
<path d="M270.971 343.283L281.409 366.499L267.398 372.798L266.277 370.304L277.477 365.269L273.95 357.424L263.475 362.134L262.354 359.64L272.828 354.931L269.281 347.041L257.9 352.158L256.779 349.664L270.971 343.283Z" fill="#1E4FCD"/>
<path d="M258.262 362.18L259.081 364.737L244.498 369.409L243.679 366.852L258.262 362.18ZM256.017 355.173L256.836 357.73L242.254 362.402L241.434 359.845L256.017 355.173Z" fill="#1E4FCD"/>
<path d="M238.744 381.472L236.941 372.91L239.617 372.346L241.42 380.909L238.744 381.472ZM232.517 382.783L230.714 374.221L233.39 373.658L235.193 382.22L232.517 382.783Z" fill="#1E4FCD"/>
<path d="M225.928 384.015L216.107 363.526L215.81 363.559L210.606 385.676L207.393 386.024L213.943 359.71L217.106 359.368L229.141 383.667L225.928 384.015Z" fill="#1E4FCD"/>
<path d="M200.7 385.947L200.11 360.499L203.192 360.428L203.781 385.875L200.7 385.947Z" fill="#1E4FCD"/>
<path d="M195.165 360.653L193.692 386.064L178.356 385.176L178.514 382.446L190.773 383.156L191.271 374.57L179.806 373.906L179.964 371.176L191.429 371.84L191.929 363.204L179.471 362.482L179.63 359.752L195.165 360.653Z" fill="#1E4FCD"/>
<path d="M174.29 359.111L176.157 385.434L173.085 384.824L171.907 363.453L171.663 363.405L162.308 382.683L158.895 382.005L157.62 360.614L157.376 360.566L148.118 379.864L145.046 379.253L156.833 355.643L159.954 356.263L161.512 377.253L161.707 377.292L171.17 358.491L174.29 359.111Z" fill="#1E4FCD"/>
<path d="M150.498 353.85L141.914 377.814L133.817 374.913C131.937 374.24 130.522 373.35 129.572 372.244C128.611 371.143 128.047 369.916 127.88 368.562C127.714 367.209 127.884 365.826 128.389 364.414C128.895 363.002 129.643 361.822 130.634 360.875C131.617 359.924 132.828 359.319 134.268 359.06C135.704 358.809 137.355 359.017 139.219 359.685L145.023 361.764L144.101 364.338L138.391 362.293C137.103 361.832 135.99 361.684 135.051 361.849C134.112 362.015 133.331 362.413 132.709 363.044C132.076 363.68 131.588 364.477 131.244 365.437C130.901 366.396 130.773 367.319 130.861 368.204C130.941 369.086 131.298 369.883 131.932 370.594C132.563 371.313 133.53 371.906 134.833 372.373L139.935 374.2L147.596 352.81L150.498 353.85Z" fill="#1E4FCD"/>
<path d="M107.985 349.141C109.202 346.749 110.687 344.901 112.438 343.598C114.189 342.295 116.058 341.554 118.046 341.376C120.033 341.198 121.994 341.601 123.929 342.585C125.864 343.57 127.344 344.919 128.369 346.631C129.394 348.342 129.896 350.29 129.873 352.472C129.85 354.655 129.229 356.942 128.011 359.335C126.794 361.727 125.309 363.575 123.558 364.878C121.807 366.181 119.938 366.922 117.95 367.1C115.963 367.279 114.002 366.876 112.067 365.891C110.132 364.906 108.652 363.558 107.627 361.846C106.601 360.134 106.1 358.187 106.123 356.004C106.146 353.822 106.767 351.534 107.985 349.141ZM110.643 350.495C109.643 352.459 109.128 354.284 109.097 355.97C109.059 357.652 109.421 359.124 110.183 360.385C110.937 361.643 112.001 362.622 113.375 363.321C114.748 364.02 116.169 364.306 117.638 364.18C119.099 364.049 120.502 363.476 121.847 362.459C123.184 361.438 124.353 359.946 125.353 357.982C126.353 356.017 126.872 354.194 126.91 352.512C126.94 350.826 126.578 349.354 125.824 348.096C125.062 346.835 123.995 345.854 122.621 345.155C121.248 344.456 119.83 344.172 118.369 344.302C116.901 344.429 115.498 345.002 114.16 346.023C112.815 347.04 111.643 348.53 110.643 350.495Z" fill="#1E4FCD"/>
<path d="M112.813 337.004L98.5248 358.07L91.4068 353.242C89.761 352.126 88.6008 350.928 87.9261 349.65C87.2468 348.378 86.9837 347.083 87.1367 345.765C87.2897 344.447 87.7871 343.168 88.629 341.926C89.4708 340.685 90.471 339.757 91.6296 339.141C92.7883 338.525 94.0782 338.298 95.4995 338.461C96.9161 338.631 98.4405 339.27 100.073 340.377L105.833 344.284L104.27 346.588L98.592 342.737C97.4674 341.974 96.4506 341.525 95.5416 341.389C94.6258 341.248 93.8089 341.375 93.091 341.769C92.3616 342.165 91.7109 342.785 91.1388 343.629C90.5667 344.472 90.2244 345.316 90.112 346.161C89.9995 347.006 90.1733 347.835 90.6334 348.647C91.0887 349.467 91.8856 350.263 93.024 351.035L97.5087 354.076L110.262 335.273L112.813 337.004ZM96.4786 339.741L97.7129 326.762L100.675 328.771L99.3588 341.695L96.4786 339.741Z" fill="#1E4FCD"/>
<path d="M83.3619 344.279L81.574 346.348L67.1299 333.865L68.9178 331.796L74.9738 337.03L89.8302 319.84L92.1623 321.856L77.3059 339.046L83.3619 344.279Z" fill="#1E4FCD"/>
<path d="M62.6557 329.102L68.9763 323.051L70.8672 325.026L64.5466 331.077L62.6557 329.102ZM58.2551 324.505L64.5757 318.454L66.4666 320.429L60.146 326.48L58.2551 324.505Z" fill="#1E4FCD"/>
<path d="M43.6499 292.473L45.4265 294.992C44.807 295.652 44.3544 296.362 44.0686 297.121C43.778 297.874 43.6328 298.645 43.6329 299.436C43.6214 300.225 43.7454 301.004 44.0047 301.775C44.264 302.545 44.6372 303.275 45.1244 303.966C46.0127 305.225 47.1356 306.142 48.4933 306.715C49.8461 307.282 51.3546 307.43 53.0188 307.159C54.6782 306.88 56.4085 306.106 58.2097 304.836C60.0108 303.565 61.3208 302.195 62.1397 300.726C62.9538 299.249 63.3209 297.778 63.241 296.314C63.1564 294.842 62.6699 293.477 61.7816 292.217C61.2945 291.527 60.7317 290.93 60.0931 290.427C59.4546 289.925 58.7653 289.544 58.0251 289.285C57.2734 289.024 56.4944 288.905 55.688 288.926C54.8701 288.945 54.0498 289.133 53.227 289.49L51.4504 286.972C52.6472 286.411 53.8421 286.086 55.0351 285.995C56.2282 285.903 57.3819 286.023 58.4963 286.352C59.604 286.686 60.6373 287.209 61.5963 287.922C62.5505 288.628 63.3978 289.506 64.138 290.556C65.3892 292.33 66.0686 294.213 66.1762 296.206C66.2837 298.198 65.8179 300.154 64.7786 302.073C63.7394 303.993 62.1228 305.726 59.9289 307.273C57.735 308.821 55.5597 309.762 53.4029 310.097C51.2462 310.432 49.2473 310.214 47.4063 309.444C45.5653 308.674 44.0192 307.402 42.768 305.628C42.0277 304.578 41.4852 303.486 41.1404 302.35C40.7908 301.207 40.6479 300.056 40.7117 298.895C40.7687 297.74 41.0403 296.616 41.5265 295.522C42.006 294.434 42.7138 293.417 43.6499 292.473Z" fill="#1E4FCD"/>
<path d="M36.2819 268.291C38.6654 267.055 40.9483 266.418 43.1306 266.379C45.3128 266.339 47.2637 266.826 48.9832 267.839C50.7027 268.851 52.062 270.321 53.0611 272.249C54.0601 274.176 54.4778 276.134 54.3141 278.123C54.1503 280.112 53.4235 281.987 52.1335 283.747C50.8435 285.508 49.0068 287.006 46.6233 288.241C44.2399 289.477 41.957 290.114 39.7747 290.153C37.5925 290.193 35.6416 289.706 33.9221 288.693C32.2025 287.681 30.8433 286.211 29.8442 284.283C28.8451 282.356 28.4275 280.398 28.5912 278.409C28.7549 276.42 29.4818 274.545 30.7718 272.785C32.0617 271.024 33.8985 269.526 36.2819 268.291ZM37.6547 270.939C35.6979 271.953 34.2161 273.137 33.2092 274.489C32.1985 275.834 31.6353 277.242 31.5196 278.711C31.4001 280.173 31.695 281.588 32.4042 282.956C33.1135 284.324 34.1018 285.385 35.3691 286.137C36.6325 286.882 38.1071 287.233 39.7927 287.19C41.4745 287.14 43.2938 286.607 45.2506 285.593C47.2074 284.579 48.6911 283.399 49.7018 282.054C50.7087 280.701 51.2718 279.294 51.3914 277.832C51.5071 276.363 51.2103 274.944 50.501 273.576C49.7918 272.207 48.8054 271.151 47.5419 270.406C46.2746 269.653 44.8001 269.302 43.1183 269.353C41.4327 269.396 39.6115 269.925 37.6547 270.939Z" fill="#1E4FCD"/>
<path d="M16.5718 251.101L40.5676 242.608L41.5629 245.42L27.3505 265.164L27.4335 265.399L46.2739 258.73L47.3024 261.636L23.3066 270.129L22.3113 267.317L36.5539 247.509L36.471 247.275L17.5837 253.96L16.5718 251.101Z" fill="#1E4FCD"/>
<path d="M18.0389 246.241L15.3653 246.815L11.3598 228.149L14.0333 227.575L15.7127 235.402L37.9272 230.635L38.5739 233.648L16.3595 238.415L18.0389 246.241Z" fill="#1E4FCD"/>
<path d="M36.139 221.416L10.8122 223.964L9.2748 208.679L11.9954 208.405L13.2244 220.623L21.7821 219.762L20.6327 208.336L23.3534 208.062L24.5027 219.489L33.1099 218.623L31.861 206.207L34.5817 205.933L36.139 221.416Z" fill="#1E4FCD"/>
<path d="M9.39519 183.307L34.8429 183.896L34.7738 186.878L14.4722 200.283L14.4664 200.531L34.4469 200.994L34.3755 204.075L8.92777 203.486L8.99685 200.504L29.3493 187.051L29.3551 186.803L9.32496 186.339L9.39519 183.307Z" fill="#1E4FCD"/>
<path d="M12.4793 179.215L9.77566 178.806L12.6321 159.93L15.3357 160.339L14.1381 168.253L36.6025 171.652L36.1413 174.7L13.6769 171.3L12.4793 179.215Z" fill="#1E4FCD"/>
<path d="M26.3568 158.881L23.7683 158.169L27.8294 143.405L30.418 144.117L26.3568 158.881ZM33.4513 160.833L30.8627 160.121L34.9239 145.357L37.5124 146.069L33.4513 160.833Z" fill="#1E4FCD"/>
<path d="M20.9715 131.536L29.1286 134.702L28.1393 137.251L19.9821 134.085L20.9715 131.536ZM23.2739 125.603L31.4311 128.769L30.4418 131.318L22.2846 128.153L23.2739 125.603Z" fill="#1E4FCD"/>
<path d="M49.3341 128.941L23.6168 123.025L25.0992 120.266L45.8795 125.392L45.9971 125.173L30.2992 110.587L31.9463 107.522L52.7737 112.56L52.8913 112.341L37.1464 97.8429L38.6288 95.0838L57.7578 113.262L56.2519 116.065L35.7245 111.414L35.6304 111.589L50.84 126.138L49.3341 128.941Z" fill="#1E4FCD"/>
<path d="M43.2787 89.2724L64.1867 103.791L62.4286 106.323L41.5206 91.8042L43.2787 89.2724Z" fill="#1E4FCD"/>
<path d="M71.2652 94.4495L66.2159 100.467L46.7169 84.1045L51.9899 77.8206C53.5771 75.9291 55.3257 74.6381 57.2356 73.9476C59.1391 73.2518 61.1186 73.1551 63.174 73.6576C65.223 74.1547 67.2568 75.2502 69.2752 76.9439C71.3064 78.6483 72.7515 80.4775 73.6105 82.4315C74.4632 84.3801 74.7025 86.3765 74.3285 88.4207C73.9481 90.4595 72.927 92.4691 71.2652 94.4495ZM66.1026 96.3479L69.0427 92.8442C70.3956 91.232 71.2058 89.6349 71.4732 88.0529C71.7407 86.4709 71.5183 84.9377 70.8062 83.4531C70.0941 81.9686 68.9446 80.5605 67.3578 79.229C65.7837 77.9081 64.2128 77.028 62.6452 76.5887C61.0712 76.1441 59.5508 76.1771 58.084 76.6877C56.6108 77.193 55.235 78.2073 53.9567 79.7307L50.7929 83.501L66.1026 96.3479Z" fill="#1E4FCD"/>
<path d="M63.8864 68.2169L62.0245 66.2145L76.0053 53.2144L77.8672 55.2169L72.0055 60.6674L87.4769 77.306L85.2195 79.405L69.7482 62.7664L63.8864 68.2169Z" fill="#1E4FCD"/>
<path d="M94.1787 71.0998L79.2804 50.4607L81.7797 48.6566L88.4141 57.8475L99.4189 49.9036L92.7845 40.7128L95.2838 38.9087L110.182 59.5478L107.683 61.3519L101.019 52.1207L90.0145 60.0646L96.678 69.2957L94.1787 71.0998Z" fill="#1E4FCD"/>
<path d="M106.098 47.7161L104.81 45.3606L118.245 38.014L119.533 40.3695L106.098 47.7161ZM109.628 54.1719L108.34 51.8164L121.775 44.4698L123.063 46.8252L109.628 54.1719Z" fill="#1E4FCD"/>
<path d="M135.517 46.7059L128.205 49.5754L118.906 25.8801L126.542 22.8834C128.841 21.9814 130.994 21.6839 133.001 21.9909C135.006 22.2902 136.791 23.1521 138.355 24.5764C139.917 25.993 141.179 27.9277 142.142 30.3805C143.11 32.8488 143.505 35.1463 143.325 37.2732C143.142 39.3923 142.397 41.26 141.091 42.8763C139.782 44.485 137.924 45.7615 135.517 46.7059ZM130.075 45.904L134.333 44.2331C136.292 43.4643 137.768 42.4492 138.759 41.1877C139.751 39.9263 140.289 38.4735 140.373 36.8292C140.458 35.1848 140.122 33.3985 139.365 31.4702C138.614 29.5573 137.656 28.0331 136.489 26.8976C135.319 25.7544 133.968 25.0562 132.436 24.8031C130.901 24.5422 129.207 24.775 127.356 25.5015L122.774 27.2995L130.075 45.904Z" fill="#1E4FCD"/>
<path d="M148.83 41.7077L142.452 17.065L157.324 13.216L158.009 15.8631L146.121 18.9399L148.276 27.2664L159.394 24.389L160.079 27.0361L148.961 29.9136L151.128 38.2882L163.209 35.1616L163.894 37.8088L148.83 41.7077Z" fill="#1E4FCD"/>
<path d="M162.836 12.0546L173.282 32.2319L173.577 32.1906L178.1 9.92419L181.3 9.47749L175.562 35.9797L172.411 36.4195L159.635 12.5013L162.836 12.0546Z" fill="#1E4FCD"/>
<path d="M188.994 9.24755L190.27 34.6701L187.192 34.8246L185.915 9.40211L188.994 9.24755Z" fill="#1E4FCD"/>
<path d="M215.581 17.6117L212.501 17.4809C212.357 16.5873 212.071 15.7956 211.644 15.1057C211.226 14.4162 210.703 13.83 210.077 13.3473C209.459 12.8566 208.766 12.4788 207.998 12.214C207.229 11.9491 206.423 11.7988 205.579 11.7629C204.039 11.6975 202.627 12.0273 201.344 12.7524C200.069 13.4778 199.031 14.5824 198.23 16.0661C197.437 17.5501 196.994 19.3931 196.901 21.5952C196.807 23.7973 197.093 25.6713 197.757 27.2172C198.429 28.7635 199.37 29.9521 200.578 30.783C201.795 31.6143 203.174 32.0626 204.714 32.128C205.558 32.1639 206.374 32.0825 207.162 31.8837C207.95 31.685 208.673 31.3715 209.33 30.9433C209.995 30.5071 210.565 29.9632 211.041 29.3116C211.525 28.6521 211.877 27.8875 212.096 27.0177L215.176 27.1485C214.889 28.4384 214.417 29.5836 213.761 30.5841C213.105 31.5846 212.306 32.4257 211.365 33.1072C210.424 33.7805 209.379 34.2793 208.229 34.6037C207.087 34.9284 205.874 35.0635 204.591 35.009C202.422 34.9168 200.516 34.3051 198.872 33.1737C197.228 32.0423 195.964 30.4792 195.078 28.4843C194.192 26.4894 193.807 24.1509 193.92 21.4686C194.034 18.7864 194.617 16.489 195.669 14.5764C196.72 12.6638 198.113 11.2136 199.847 10.2256C201.581 9.23772 203.532 8.78983 205.701 8.88196C206.984 8.93647 208.181 9.1739 209.291 9.59425C210.409 10.015 211.408 10.6048 212.288 11.3637C213.169 12.1143 213.894 13.0159 214.463 14.0685C215.032 15.1127 215.405 16.2938 215.581 17.6117Z" fill="#1E4FCD"/>
<path d="M216.473 35.4112L220.57 10.2886L235.732 12.7616L235.292 15.4603L223.172 13.4835L221.788 21.9722L233.122 23.821L232.682 26.5197L221.348 24.6709L219.955 33.2087L232.271 35.2175L231.831 37.9162L216.473 35.4112Z" fill="#1E4FCD"/>
<path d="M246.679 29.1367L245.984 31.7812L235.213 28.95L235.908 26.3055L246.679 29.1367Z" fill="#1E4FCD"/>
<path d="M250.478 42.9814L253.69 16.7886L256.588 17.9763L253.649 39.1767L253.879 39.271L266.755 22.1427L269.975 23.4624L267.128 44.7005L267.358 44.7947L280.142 27.6288L283.04 28.8165L266.947 49.7306L264.003 48.524L266.497 27.6246L266.313 27.5491L253.422 44.188L250.478 42.9814Z" fill="#1E4FCD"/>
<path d="M288.537 32.4222L276.324 54.7558L273.62 53.2769L285.832 30.9434L288.537 32.4222Z" fill="#1E4FCD"/>
<path d="M286.496 60.8582L279.979 56.4728L294.19 35.3545L300.995 39.9342C303.044 41.3128 304.513 42.9152 305.401 44.7414C306.294 46.5608 306.599 48.519 306.317 50.616C306.039 52.7061 305.164 54.8442 303.693 57.0303C302.213 59.2301 300.547 60.8603 298.694 61.9209C296.847 62.9747 294.887 63.4236 292.814 63.2675C290.747 63.1046 288.641 62.3015 286.496 60.8582ZM284.063 55.9251L287.857 58.4786C289.603 59.6536 291.277 60.2905 292.879 60.3894C294.48 60.4882 295.981 60.1052 297.382 59.2402C298.783 58.3753 300.062 57.0835 301.218 55.3649C302.366 53.66 303.075 52.005 303.346 50.3998C303.622 48.7877 303.429 47.2793 302.766 45.8745C302.108 44.4629 300.954 43.202 299.304 42.0918L295.221 39.3439L284.063 55.9251Z" fill="#1E4FCD"/>
<path d="M311.892 50.7936L313.687 48.7313L328.086 61.267L326.29 63.3293L320.253 58.0734L305.335 75.2092L303.01 73.1853L317.929 56.0494L311.892 50.7936Z" fill="#1E4FCD"/>
<path d="M312.226 81.2148L331.179 64.2231L333.237 66.5182L324.797 74.0848L333.857 84.1906L342.297 76.624L344.354 78.9191L325.401 95.9108L323.344 93.6157L331.821 86.0159L322.761 75.9101L314.284 83.5099L312.226 81.2148Z" fill="#1E4FCD"/>
<path d="M348.522 84.638L341.446 89.7851L339.838 87.5739L346.914 82.4267L348.522 84.638ZM352.266 89.7841L345.19 94.9313L343.581 92.72L350.657 87.5729L352.266 89.7841Z" fill="#1E4FCD"/>
<path d="M349.719 116.991L334.593 107.299L337.338 105.69L348.65 113.296L348.428 113.311L348.857 113.059L348.736 113.246L347.634 99.6595L350.379 98.0513L351.435 115.985L349.719 116.991Z" fill="#1E4FCD"/>
</svg>
