<svg width="180" height="90" viewBox="0 0 180 90" fill="none" xmlns="http://www.w3.org/2000/svg">
<path d="M7.62962e-06 84.5455L7.86805e-06 90H5.45455V84.5455H7.62962e-06Z" fill="white"/>
<path d="M7.3912e-06 79.0909L7.62962e-06 84.5455H5.45455L5.45455 79.0909H7.3912e-06Z" fill="white"/>
<path d="M7.15277e-06 73.6364L7.3912e-06 79.0909H5.45455V73.6364H7.15277e-06Z" fill="white"/>
<path d="M6.91435e-06 68.1818L7.15277e-06 73.6364H5.45455L5.45455 68.1818H6.91435e-06Z" fill="white"/>
<path d="M6.67592e-06 62.7273L6.91435e-06 68.1818H5.45455V62.7273H6.67592e-06Z" fill="white"/>
<path d="M6.4375e-06 57.2727L6.67592e-06 62.7273H5.45455L5.45455 57.2727H6.4375e-06Z" fill="white"/>
<path d="M6.19907e-06 51.8182L6.4375e-06 57.2727H5.45455V51.8182H6.19907e-06Z" fill="white"/>
<path d="M5.48379e-06 35.4546L5.72222e-06 40.9091H5.45455L5.45455 35.4546H5.48379e-06Z" fill="white"/>
<path d="M5.00694e-06 24.5455L5.24537e-06 30H5.45455L5.45455 24.5455H5.00694e-06Z" fill="white"/>
<path d="M4.76852e-06 19.0909L5.00694e-06 24.5455H5.45455V19.0909H4.76852e-06Z" fill="white"/>
<path d="M3.81481e-06 -2.72726L4.05324e-06 2.72728H5.45455V-2.72726H3.81481e-06Z" fill="white"/>
<path d="M3.33796e-06 -13.6364L3.57639e-06 -8.18182H5.45455V-13.6364H3.33796e-06Z" fill="white"/>
<path d="M3.09954e-06 -19.0909L3.33796e-06 -13.6364H5.45455L5.45455 -19.0909H3.09954e-06Z" fill="white"/>
<path d="M2.86111e-06 -24.5454L3.09954e-06 -19.0909H5.45455V-24.5454H2.86111e-06Z" fill="white"/>
<path d="M2.38426e-06 -35.4545L2.62268e-06 -30H5.45455V-35.4545H2.38426e-06Z" fill="white"/>
<path d="M1.90741e-06 -46.3636L2.14583e-06 -40.9091H5.45455V-46.3636H1.90741e-06Z" fill="white"/>
<path d="M1.43055e-06 -57.2727L1.66898e-06 -51.8182H5.45455V-57.2727H1.43055e-06Z" fill="white"/>
<path d="M1.19213e-06 -62.7273L1.43055e-06 -57.2727H5.45455L5.45455 -62.7273H1.19213e-06Z" fill="white"/>
<path d="M9.53703e-07 -68.1818L1.19213e-06 -62.7273H5.45455V-68.1818H9.53703e-07Z" fill="white"/>
<path d="M7.15277e-07 -73.6364L9.53703e-07 -68.1818H5.45455L5.45455 -73.6364H7.15277e-07Z" fill="white"/>
<path d="M4.76852e-07 -79.0909L7.15277e-07 -73.6364H5.45455V-79.0909H4.76852e-07Z" fill="white"/>
<path d="M2.38425e-07 -84.5455L4.76852e-07 -79.0909H5.45455L5.45455 -84.5455L2.38425e-07 -84.5455Z" fill="white"/>
<path d="M0 -90L2.38425e-07 -84.5455L5.45455 -84.5455V-90L0 -90Z" fill="white"/>
<path d="M5.45455 84.5455V90H10.9091V84.5455H5.45455Z" fill="white"/>
<path d="M5.45455 51.8182V57.2727H10.9091V51.8182H5.45455Z" fill="white"/>
<path d="M5.45455 30V35.4546H10.9091V30H5.45455Z" fill="white"/>
<path d="M5.45455 24.5455L5.45455 30H10.9091L10.9091 24.5455H5.45455Z" fill="white"/>
<path d="M5.45455 13.6364L5.45455 19.0909H10.9091V13.6364H5.45455Z" fill="white"/>
<path d="M5.45455 8.18183L5.45455 13.6364H10.9091V8.18183H5.45455Z" fill="white"/>
<path d="M5.45455 2.72728V8.18183H10.9091L10.9091 2.72728H5.45455Z" fill="white"/>
<path d="M5.45455 -2.72726V2.72728H10.9091V-2.72726H5.45455Z" fill="white"/>
<path d="M5.45455 -8.18182L5.45455 -2.72726H10.9091V-8.18182H5.45455Z" fill="white"/>
<path d="M5.45455 -35.4545V-30L10.9091 -30V-35.4545L5.45455 -35.4545Z" fill="white"/>
<path d="M5.45455 -40.9091L5.45455 -35.4545L10.9091 -35.4545L10.9091 -40.9091L5.45455 -40.9091Z" fill="white"/>
<path d="M5.45455 -46.3636V-40.9091L10.9091 -40.9091V-46.3636L5.45455 -46.3636Z" fill="white"/>
<path d="M5.45455 -57.2727V-51.8182L10.9091 -51.8182V-57.2727L5.45455 -57.2727Z" fill="white"/>
<path d="M5.45455 -90V-84.5455H10.9091V-90L5.45455 -90Z" fill="white"/>
<path d="M10.9091 84.5455V90H16.3636V84.5455H10.9091Z" fill="white"/>
<path d="M10.9091 73.6364V79.0909H16.3636V73.6364H10.9091Z" fill="white"/>
<path d="M10.9091 68.1818L10.9091 73.6364H16.3636V68.1818H10.9091Z" fill="white"/>
<path d="M10.9091 62.7273V68.1818H16.3636V62.7273H10.9091Z" fill="white"/>
<path d="M10.9091 51.8182V57.2727H16.3636V51.8182H10.9091Z" fill="white"/>
<path d="M10.9091 30V35.4546H16.3636V30H10.9091Z" fill="white"/>
<path d="M10.9091 19.0909V24.5455H16.3636V19.0909H10.9091Z" fill="white"/>
<path d="M10.9091 -8.18182V-2.72726H16.3636L16.3636 -8.18182H10.9091Z" fill="white"/>
<path d="M10.9091 -19.0909L10.9091 -13.6364H16.3636V-19.0909H10.9091Z" fill="white"/>
<path d="M10.9091 -46.3636V-40.9091H16.3636V-46.3636H10.9091Z" fill="white"/>
<path d="M10.9091 -57.2727V-51.8182H16.3636V-57.2727H10.9091Z" fill="white"/>
<path d="M10.9091 -68.1818V-62.7273H16.3636V-68.1818H10.9091Z" fill="white"/>
<path d="M10.9091 -73.6364V-68.1818H16.3636V-73.6364H10.9091Z" fill="white"/>
<path d="M10.9091 -79.0909V-73.6364H16.3636V-79.0909H10.9091Z" fill="white"/>
<path d="M10.9091 -90V-84.5455L16.3636 -84.5455V-90L10.9091 -90Z" fill="white"/>
<path d="M16.3636 84.5455V90H21.8182V84.5455H16.3636Z" fill="white"/>
<path d="M16.3636 73.6364V79.0909H21.8182V73.6364H16.3636Z" fill="white"/>
<path d="M16.3636 68.1818V73.6364H21.8182V68.1818H16.3636Z" fill="white"/>
<path d="M16.3636 62.7273V68.1818H21.8182V62.7273H16.3636Z" fill="white"/>
<path d="M16.3636 51.8182V57.2727H21.8182V51.8182H16.3636Z" fill="white"/>
<path d="M16.3636 35.4546L16.3636 40.9091H21.8182L21.8182 35.4546H16.3636Z" fill="white"/>
<path d="M16.3636 13.6364V19.0909H21.8182V13.6364H16.3636Z" fill="white"/>
<path d="M16.3636 8.18183V13.6364H21.8182V8.18183H16.3636Z" fill="white"/>
<path d="M16.3636 2.72728V8.18183H21.8182V2.72728H16.3636Z" fill="white"/>
<path d="M16.3636 -2.72726V2.72728H21.8182V-2.72726H16.3636Z" fill="white"/>
<path d="M16.3636 -19.0909V-13.6364H21.8182V-19.0909H16.3636Z" fill="white"/>
<path d="M16.3636 -30V-24.5454H21.8182V-30H16.3636Z" fill="white"/>
<path d="M16.3636 -40.9091V-35.4545H21.8182V-40.9091H16.3636Z" fill="white"/>
<path d="M16.3636 -57.2727V-51.8182H21.8182V-57.2727H16.3636Z" fill="white"/>
<path d="M16.3636 -68.1818V-62.7273H21.8182V-68.1818H16.3636Z" fill="white"/>
<path d="M16.3636 -73.6364V-68.1818H21.8182V-73.6364H16.3636Z" fill="white"/>
<path d="M16.3636 -79.0909V-73.6364H21.8182V-79.0909L16.3636 -79.0909Z" fill="white"/>
<path d="M16.3636 -90V-84.5455H21.8182V-90L16.3636 -90Z" fill="white"/>
<path d="M21.8182 84.5455V90H27.2727V84.5455H21.8182Z" fill="white"/>
<path d="M21.8182 73.6364V79.0909H27.2727V73.6364H21.8182Z" fill="white"/>
<path d="M21.8182 68.1818V73.6364H27.2727V68.1818H21.8182Z" fill="white"/>
<path d="M21.8182 62.7273V68.1818H27.2727V62.7273H21.8182Z" fill="white"/>
<path d="M21.8182 51.8182V57.2727H27.2727V51.8182H21.8182Z" fill="white"/>
<path d="M21.8182 40.9091V46.3636H27.2727V40.9091H21.8182Z" fill="white"/>
<path d="M21.8182 30V35.4546H27.2727V30H21.8182Z" fill="white"/>
<path d="M21.8182 19.0909V24.5455H27.2727V19.0909H21.8182Z" fill="white"/>
<path d="M21.8182 -13.6364V-8.18182H27.2727V-13.6364H21.8182Z" fill="white"/>
<path d="M21.8182 -19.0909V-13.6364H27.2727V-19.0909H21.8182Z" fill="white"/>
<path d="M21.8182 -24.5454V-19.0909H27.2727V-24.5454H21.8182Z" fill="white"/>
<path d="M21.8182 -30V-24.5454H27.2727V-30H21.8182Z" fill="white"/>
<path d="M21.8182 -40.9091V-35.4545H27.2727V-40.9091H21.8182Z" fill="white"/>
<path d="M21.8182 -57.2727V-51.8182H27.2727V-57.2727H21.8182Z" fill="white"/>
<path d="M21.8182 -68.1818V-62.7273H27.2727V-68.1818H21.8182Z" fill="white"/>
<path d="M21.8182 -73.6364V-68.1818H27.2727V-73.6364H21.8182Z" fill="white"/>
<path d="M21.8182 -79.0909V-73.6364H27.2727V-79.0909H21.8182Z" fill="white"/>
<path d="M21.8182 -90V-84.5455L27.2727 -84.5455V-90L21.8182 -90Z" fill="white"/>
<path d="M27.2727 84.5455V90H32.7273V84.5455H27.2727Z" fill="white"/>
<path d="M27.2727 51.8182V57.2727H32.7273V51.8182H27.2727Z" fill="white"/>
<path d="M27.2727 35.4546L27.2727 40.9091H32.7273V35.4546H27.2727Z" fill="white"/>
<path d="M27.2727 19.0909V24.5455H32.7273V19.0909H27.2727Z" fill="white"/>
<path d="M27.2727 -2.72726V2.72728H32.7273V-2.72726H27.2727Z" fill="white"/>
<path d="M27.2727 -13.6364V-8.18182H32.7273V-13.6364H27.2727Z" fill="white"/>
<path d="M27.2727 -30V-24.5454H32.7273V-30H27.2727Z" fill="white"/>
<path d="M27.2727 -35.4545V-30H32.7273V-35.4545H27.2727Z" fill="white"/>
<path d="M27.2727 -46.3636V-40.9091H32.7273V-46.3636H27.2727Z" fill="white"/>
<path d="M27.2727 -57.2727V-51.8182H32.7273V-57.2727H27.2727Z" fill="white"/>
<path d="M27.2727 -90V-84.5455H32.7273V-90L27.2727 -90Z" fill="white"/>
<path d="M32.7273 84.5455V90H38.1818V84.5455H32.7273Z" fill="white"/>
<path d="M32.7273 79.0909V84.5455H38.1818V79.0909H32.7273Z" fill="white"/>
<path d="M32.7273 73.6364V79.0909H38.1818V73.6364H32.7273Z" fill="white"/>
<path d="M32.7273 68.1818V73.6364H38.1818V68.1818H32.7273Z" fill="white"/>
<path d="M32.7273 62.7273V68.1818H38.1818V62.7273H32.7273Z" fill="white"/>
<path d="M32.7273 57.2727V62.7273H38.1818V57.2727H32.7273Z" fill="white"/>
<path d="M32.7273 51.8182V57.2727H38.1818V51.8182H32.7273Z" fill="white"/>
<path d="M32.7273 40.9091V46.3636H38.1818V40.9091H32.7273Z" fill="white"/>
<path d="M32.7273 30V35.4546H38.1818V30H32.7273Z" fill="white"/>
<path d="M32.7273 19.0909V24.5455H38.1818V19.0909H32.7273Z" fill="white"/>
<path d="M32.7273 8.18183V13.6364H38.1818V8.18183H32.7273Z" fill="white"/>
<path d="M32.7273 -2.72726V2.72728H38.1818V-2.72726H32.7273Z" fill="white"/>
<path d="M32.7273 -13.6364V-8.18182H38.1818V-13.6364H32.7273Z" fill="white"/>
<path d="M32.7273 -24.5454V-19.0909H38.1818V-24.5454H32.7273Z" fill="white"/>
<path d="M32.7273 -35.4545V-30H38.1818V-35.4545H32.7273Z" fill="white"/>
<path d="M32.7273 -46.3636V-40.9091H38.1818V-46.3636H32.7273Z" fill="white"/>
<path d="M32.7273 -57.2727V-51.8182H38.1818V-57.2727H32.7273Z" fill="white"/>
<path d="M32.7273 -62.7273V-57.2727H38.1818V-62.7273H32.7273Z" fill="white"/>
<path d="M32.7273 -68.1818V-62.7273H38.1818V-68.1818H32.7273Z" fill="white"/>
<path d="M32.7273 -73.6364L32.7273 -68.1818H38.1818L38.1818 -73.6364H32.7273Z" fill="white"/>
<path d="M32.7273 -79.0909V-73.6364H38.1818V-79.0909H32.7273Z" fill="white"/>
<path d="M32.7273 -84.5455V-79.0909H38.1818V-84.5455L32.7273 -84.5455Z" fill="white"/>
<path d="M32.7273 -90V-84.5455L38.1818 -84.5455V-90L32.7273 -90Z" fill="white"/>
<path d="M38.1818 40.9091V46.3636H43.6364V40.9091H38.1818Z" fill="white"/>
<path d="M38.1818 8.18183V13.6364H43.6364V8.18183H38.1818Z" fill="white"/>
<path d="M38.1818 2.72728V8.18183H43.6364V2.72728H38.1818Z" fill="white"/>
<path d="M38.1818 -13.6364V-8.18182H43.6364V-13.6364H38.1818Z" fill="white"/>
<path d="M38.1818 -24.5454V-19.0909H43.6364V-24.5454H38.1818Z" fill="white"/>
<path d="M38.1818 -30V-24.5454H43.6364V-30H38.1818Z" fill="white"/>
<path d="M38.1818 -35.4545V-30H43.6364V-35.4545H38.1818Z" fill="white"/>
<path d="M38.1818 -40.9091V-35.4545H43.6364V-40.9091H38.1818Z" fill="white"/>
<path d="M38.1818 -46.3636V-40.9091H43.6364V-46.3636H38.1818Z" fill="white"/>
<path d="M43.6364 73.6364V79.0909H49.0909V73.6364H43.6364Z" fill="white"/>
<path d="M43.6364 68.1818V73.6364H49.0909V68.1818H43.6364Z" fill="white"/>
<path d="M43.6364 51.8182V57.2727H49.0909V51.8182H43.6364Z" fill="white"/>
<path d="M43.6364 46.3636V51.8182H49.0909V46.3636H43.6364Z" fill="white"/>
<path d="M43.6364 40.9091V46.3636H49.0909V40.9091H43.6364Z" fill="white"/>
<path d="M43.6364 35.4546V40.9091H49.0909V35.4546H43.6364Z" fill="white"/>
<path d="M43.6364 30V35.4546H49.0909V30H43.6364Z" fill="white"/>
<path d="M43.6364 24.5455V30H49.0909V24.5455H43.6364Z" fill="white"/>
<path d="M43.6364 2.72728V8.18183H49.0909V2.72728H43.6364Z" fill="white"/>
<path d="M43.6364 -2.72726V2.72728H49.0909V-2.72726H43.6364Z" fill="white"/>
<path d="M43.6364 -8.18182V-2.72726H49.0909V-8.18182H43.6364Z" fill="white"/>
<path d="M43.6364 -24.5454V-19.0909H49.0909V-24.5454H43.6364Z" fill="white"/>
<path d="M43.6364 -35.4545V-30H49.0909V-35.4545H43.6364Z" fill="white"/>
<path d="M43.6364 -40.9091V-35.4545H49.0909V-40.9091H43.6364Z" fill="white"/>
<path d="M43.6364 -51.8182V-46.3636H49.0909V-51.8182H43.6364Z" fill="white"/>
<path d="M43.6364 -57.2727V-51.8182H49.0909V-57.2727H43.6364Z" fill="white"/>
<path d="M43.6364 -68.1818V-62.7273H49.0909V-68.1818H43.6364Z" fill="white"/>
<path d="M49.0909 84.5455V90H54.5455V84.5455H49.0909Z" fill="white"/>
<path d="M49.0909 79.0909V84.5455H54.5455V79.0909L49.0909 79.0909Z" fill="white"/>
<path d="M49.0909 73.6364V79.0909L54.5455 79.0909V73.6364H49.0909Z" fill="white"/>
<path d="M49.0909 68.1818V73.6364H54.5455V68.1818H49.0909Z" fill="white"/>
<path d="M49.0909 57.2727V62.7273H54.5455V57.2727H49.0909Z" fill="white"/>
<path d="M49.0909 40.9091V46.3636H54.5455V40.9091H49.0909Z" fill="white"/>
<path d="M49.0909 13.6364L49.0909 19.0909L54.5455 19.0909L54.5455 13.6364L49.0909 13.6364Z" fill="white"/>
<path d="M49.0909 8.18183V13.6364L54.5455 13.6364V8.18182L49.0909 8.18183Z" fill="white"/>
<path d="M49.0909 -2.72726V2.72728L54.5455 2.72727V-2.72726L49.0909 -2.72726Z" fill="white"/>
<path d="M49.0909 -8.18182V-2.72726L54.5455 -2.72726V-8.18182L49.0909 -8.18182Z" fill="white"/>
<path d="M49.0909 -13.6364V-8.18182L54.5455 -8.18182V-13.6364L49.0909 -13.6364Z" fill="white"/>
<path d="M49.0909 -24.5454V-19.0909L54.5455 -19.0909V-24.5455L49.0909 -24.5454Z" fill="white"/>
<path d="M49.0909 -35.4545V-30H54.5455V-35.4545H49.0909Z" fill="white"/>
<path d="M49.0909 -46.3636V-40.9091H54.5455V-46.3636H49.0909Z" fill="white"/>
<path d="M49.0909 -51.8182V-46.3636H54.5455V-51.8182H49.0909Z" fill="white"/>
<path d="M49.0909 -57.2727V-51.8182H54.5455V-57.2727H49.0909Z" fill="white"/>
<path d="M49.0909 -62.7273V-57.2727H54.5455V-62.7273H49.0909Z" fill="white"/>
<path d="M49.0909 -68.1818V-62.7273H54.5455V-68.1818H49.0909Z" fill="white"/>
<path d="M54.5455 62.7273V68.1818H60V62.7273H54.5455Z" fill="white"/>
<path d="M54.5455 57.2727V62.7273H60V57.2727H54.5455Z" fill="white"/>
<path d="M54.5455 51.8182V57.2727H60V51.8182H54.5455Z" fill="white"/>
<path d="M54.5455 46.3636V51.8182H60V46.3636H54.5455Z" fill="white"/>
<path d="M54.5455 40.9091V46.3636H60V40.9091H54.5455Z" fill="white"/>
<path d="M54.5455 30V35.4546H60V30H54.5455Z" fill="white"/>
<path d="M54.5455 13.6364L54.5455 19.0909H60L60 13.6364H54.5455Z" fill="white"/>
<path d="M54.5455 2.72727V8.18182H60V2.72727H54.5455Z" fill="white"/>
<path d="M54.5455 -2.72726V2.72727H60V-2.72726H54.5455Z" fill="white"/>
<path d="M54.5455 -8.18182V-2.72726H60V-8.18182H54.5455Z" fill="white"/>
<path d="M54.5455 -40.9091V-35.4545H60V-40.9091H54.5455Z" fill="white"/>
<path d="M54.5455 -46.3636V-40.9091H60V-46.3636H54.5455Z" fill="white"/>
<path d="M54.5455 -51.8182V-46.3636H60V-51.8182H54.5455Z" fill="white"/>
<path d="M54.5455 -62.7273V-57.2727H60V-62.7273H54.5455Z" fill="white"/>
<path d="M54.5455 -68.1818V-62.7273H60V-68.1818H54.5455Z" fill="white"/>
<path d="M54.5454 -79.0909V-73.6364H60V-79.0909H54.5454Z" fill="white"/>
<path d="M60 84.5455V90H65.4545V84.5455H60Z" fill="white"/>
<path d="M60 79.0909V84.5455H65.4545V79.0909H60Z" fill="white"/>
<path d="M60 68.1818V73.6364H65.4545V68.1818H60Z" fill="white"/>
<path d="M60 40.9091V46.3636H65.4545V40.9091H60Z" fill="white"/>
<path d="M60 35.4546V40.9091H65.4545V35.4546H60Z" fill="white"/>
<path d="M60 30V35.4546H65.4545V30H60Z" fill="white"/>
<path d="M60 -2.72726V2.72727H65.4545V-2.72726H60Z" fill="white"/>
<path d="M60 -8.18182V-2.72726H65.4545V-8.18182H60Z" fill="white"/>
<path d="M60 -13.6364V-8.18182H65.4545V-13.6364H60Z" fill="white"/>
<path d="M60 -24.5455V-19.0909H65.4545V-24.5455H60Z" fill="white"/>
<path d="M60 -35.4545V-30H65.4545V-35.4545H60Z" fill="white"/>
<path d="M60 -46.3636V-40.9091H65.4545V-46.3636H60Z" fill="white"/>
<path d="M60 -79.0909V-73.6364H65.4545V-79.0909L60 -79.0909Z" fill="white"/>
<path d="M60 -84.5455V-79.0909L65.4545 -79.0909V-84.5455H60Z" fill="white"/>
<path d="M65.4545 84.5455V90H70.9091V84.5455H65.4545Z" fill="white"/>
<path d="M65.4545 73.6364V79.0909H70.9091V73.6364H65.4545Z" fill="white"/>
<path d="M65.4545 62.7273V68.1818H70.9091V62.7273H65.4545Z" fill="white"/>
<path d="M65.4545 57.2727V62.7273H70.9091V57.2727H65.4545Z" fill="white"/>
<path d="M65.4545 51.8182V57.2727H70.9091V51.8182H65.4545Z" fill="white"/>
<path d="M65.4545 40.9091V46.3636H70.9091V40.9091H65.4545Z" fill="white"/>
<path d="M65.4545 35.4546V40.9091H70.9091V35.4546H65.4545Z" fill="white"/>
<path d="M65.4545 13.6364V19.0909H70.9091V13.6364H65.4545Z" fill="white"/>
<path d="M65.4545 8.18182V13.6364H70.9091V8.18182H65.4545Z" fill="white"/>
<path d="M65.4545 2.72727V8.18182H70.9091V2.72727H65.4545Z" fill="white"/>
<path d="M65.4545 -2.72726V2.72727H70.9091V-2.72726H65.4545Z" fill="white"/>
<path d="M65.4545 -8.18182V-2.72726H70.9091V-8.18182H65.4545Z" fill="white"/>
<path d="M65.4545 -19.0909V-13.6364H70.9091V-19.0909H65.4545Z" fill="white"/>
<path d="M65.4545 -24.5455V-19.0909H70.9091V-24.5455H65.4545Z" fill="white"/>
<path d="M65.4545 -40.9091V-35.4545H70.9091V-40.9091H65.4545Z" fill="white"/>
<path d="M65.4545 -46.3636V-40.9091H70.9091V-46.3636H65.4545Z" fill="white"/>
<path d="M65.4545 -62.7273V-57.2727H70.9091V-62.7273H65.4545Z" fill="white"/>
<path d="M65.4545 -68.1818V-62.7273H70.9091V-68.1818H65.4545Z" fill="white"/>
<path d="M65.4545 -79.0909V-73.6364H70.9091V-79.0909H65.4545Z" fill="white"/>
<path d="M65.4545 -90V-84.5455L70.9091 -84.5455V-90L65.4545 -90Z" fill="white"/>
<path d="M70.9091 79.0909V84.5455H76.3636V79.0909H70.9091Z" fill="white"/>
<path d="M70.9091 73.6364V79.0909H76.3636V73.6364H70.9091Z" fill="white"/>
<path d="M70.9091 46.3636V51.8182H76.3636V46.3636H70.9091Z" fill="white"/>
<path d="M70.9091 24.5455V30H76.3636V24.5455H70.9091Z" fill="white"/>
<path d="M70.9091 19.0909V24.5455H76.3636V19.0909H70.9091Z" fill="white"/>
<path d="M70.9091 8.18182V13.6364H76.3636V8.18182H70.9091Z" fill="white"/>
<path d="M70.9091 2.72727V8.18182H76.3636V2.72727H70.9091Z" fill="white"/>
<path d="M70.9091 -8.18182V-2.72726H76.3636V-8.18182H70.9091Z" fill="white"/>
<path d="M70.9091 -13.6364V-8.18182H76.3636V-13.6364H70.9091Z" fill="white"/>
<path d="M70.9091 -19.0909V-13.6364H76.3636V-19.0909H70.9091Z" fill="white"/>
<path d="M70.9091 -24.5455V-19.0909H76.3636V-24.5455H70.9091Z" fill="white"/>
<path d="M70.9091 -30L70.9091 -24.5455H76.3636L76.3636 -30H70.9091Z" fill="white"/>
<path d="M70.9091 -40.9091V-35.4545H76.3636V-40.9091H70.9091Z" fill="white"/>
<path d="M70.9091 -57.2727V-51.8182H76.3636V-57.2727H70.9091Z" fill="white"/>
<path d="M70.9091 -73.6364V-68.1818L76.3636 -68.1818V-73.6364L70.9091 -73.6364Z" fill="white"/>
<path d="M70.9091 -90V-84.5455H76.3636V-90L70.9091 -90Z" fill="white"/>
<path d="M76.3636 84.5455V90H81.8182V84.5455H76.3636Z" fill="white"/>
<path d="M76.3636 79.0909V84.5455H81.8182V79.0909H76.3636Z" fill="white"/>
<path d="M76.3636 62.7273V68.1818H81.8182V62.7273H76.3636Z" fill="white"/>
<path d="M76.3636 51.8182V57.2727H81.8182V51.8182H76.3636Z" fill="white"/>
<path d="M76.3636 35.4546V40.9091H81.8182V35.4546H76.3636Z" fill="white"/>
<path d="M76.3636 19.0909V24.5455H81.8182V19.0909H76.3636Z" fill="white"/>
<path d="M76.3636 13.6364V19.0909H81.8182V13.6364H76.3636Z" fill="white"/>
<path d="M76.3636 2.72727V8.18182H81.8182V2.72727H76.3636Z" fill="white"/>
<path d="M76.3636 -8.18182V-2.72726H81.8182V-8.18182H76.3636Z" fill="white"/>
<path d="M76.3636 -13.6364V-8.18182H81.8182V-13.6364H76.3636Z" fill="white"/>
<path d="M76.3636 -19.0909V-13.6364H81.8182V-19.0909H76.3636Z" fill="white"/>
<path d="M76.3636 -35.4545V-30H81.8182V-35.4545H76.3636Z" fill="white"/>
<path d="M76.3636 -57.2727V-51.8182H81.8182V-57.2727H76.3636Z" fill="white"/>
<path d="M76.3636 -68.1818V-62.7273H81.8182V-68.1818H76.3636Z" fill="white"/>
<path d="M76.3636 -79.0909V-73.6364H81.8182V-79.0909H76.3636Z" fill="white"/>
<path d="M81.8182 84.5455V90H87.2727V84.5455H81.8182Z" fill="white"/>
<path d="M81.8182 79.0909V84.5455H87.2727V79.0909H81.8182Z" fill="white"/>
<path d="M81.8182 73.6364V79.0909H87.2727V73.6364H81.8182Z" fill="white"/>
<path d="M81.8182 68.1818V73.6364H87.2727V68.1818H81.8182Z" fill="white"/>
<path d="M81.8182 62.7273V68.1818H87.2727V62.7273H81.8182Z" fill="white"/>
<path d="M81.8182 40.9091V46.3636H87.2727V40.9091H81.8182Z" fill="white"/>
<path d="M81.8182 30V35.4546H87.2727V30H81.8182Z" fill="white"/>
<path d="M81.8182 24.5455V30H87.2727V24.5455H81.8182Z" fill="white"/>
<path d="M81.8182 19.0909V24.5455H87.2727V19.0909H81.8182Z" fill="white"/>
<path d="M81.8182 13.6364V19.0909H87.2727V13.6364H81.8182Z" fill="white"/>
<path d="M81.8182 -24.5455V-19.0909H87.2727V-24.5455H81.8182Z" fill="white"/>
<path d="M81.8182 -30L81.8182 -24.5455H87.2727L87.2727 -30H81.8182Z" fill="white"/>
<path d="M81.8182 -40.9091V-35.4545H87.2727V-40.9091H81.8182Z" fill="white"/>
<path d="M81.8182 -46.3636V-40.9091H87.2727V-46.3636H81.8182Z" fill="white"/>
<path d="M81.8182 -51.8182V-46.3636H87.2727V-51.8182H81.8182Z" fill="white"/>
<path d="M81.8182 -62.7273V-57.2727H87.2727V-62.7273H81.8182Z" fill="white"/>
<path d="M81.8182 -68.1818V-62.7273H87.2727V-68.1818H81.8182Z" fill="white"/>
<path d="M81.8182 -79.0909V-73.6364H87.2727V-79.0909L81.8182 -79.0909Z" fill="white"/>
<path d="M81.8182 -90V-84.5455H87.2727V-90L81.8182 -90Z" fill="white"/>
<path d="M87.2727 73.6364V79.0909H92.7273V73.6364H87.2727Z" fill="white"/>
<path d="M87.2727 68.1818V73.6364H92.7273V68.1818H87.2727Z" fill="white"/>
<path d="M87.2727 62.7273V68.1818H92.7273V62.7273H87.2727Z" fill="white"/>
<path d="M87.2727 51.8182V57.2727H92.7273V51.8182H87.2727Z" fill="white"/>
<path d="M87.2727 35.4546V40.9091H92.7273V35.4546H87.2727Z" fill="white"/>
<path d="M87.2727 24.5455V30H92.7273V24.5455H87.2727Z" fill="white"/>
<path d="M87.2727 13.6364V19.0909H92.7273V13.6364H87.2727Z" fill="white"/>
<path d="M87.2727 8.18182V13.6364H92.7273V8.18182H87.2727Z" fill="white"/>
<path d="M87.2727 2.72727V8.18182H92.7273V2.72727H87.2727Z" fill="white"/>
<path d="M87.2727 -2.72726V2.72727H92.7273V-2.72726H87.2727Z" fill="white"/>
<path d="M87.2727 -30L87.2727 -24.5455H92.7273L92.7273 -30H87.2727Z" fill="white"/>
<path d="M87.2727 -35.4545V-30H92.7273V-35.4545H87.2727Z" fill="white"/>
<path d="M87.2727 -40.9091V-35.4545H92.7273V-40.9091H87.2727Z" fill="white"/>
<path d="M87.2727 -46.3636V-40.9091H92.7273V-46.3636H87.2727Z" fill="white"/>
<path d="M87.2727 -57.2727V-51.8182H92.7273V-57.2727H87.2727Z" fill="white"/>
<path d="M87.2727 -62.7273V-57.2727H92.7273V-62.7273H87.2727Z" fill="white"/>
<path d="M87.2727 -68.1818V-62.7273H92.7273V-68.1818H87.2727Z" fill="white"/>
<path d="M87.2727 -73.6364V-68.1818H92.7273V-73.6364H87.2727Z" fill="white"/>
<path d="M92.7273 84.5455V90H98.1818V84.5455H92.7273Z" fill="white"/>
<path d="M92.7273 68.1818V73.6364H98.1818V68.1818H92.7273Z" fill="white"/>
<path d="M92.7273 62.7273V68.1818H98.1818V62.7273H92.7273Z" fill="white"/>
<path d="M92.7273 46.3636V51.8182H98.1818V46.3636H92.7273Z" fill="white"/>
<path d="M92.7273 40.9091V46.3636H98.1818V40.9091H92.7273Z" fill="white"/>
<path d="M92.7273 35.4546V40.9091H98.1818V35.4546H92.7273Z" fill="white"/>
<path d="M92.7273 19.0909V24.5455H98.1818V19.0909H92.7273Z" fill="white"/>
<path d="M92.7273 2.72727V8.18182H98.1818V2.72727H92.7273Z" fill="white"/>
<path d="M92.7273 -2.72726V2.72727H98.1818V-2.72726H92.7273Z" fill="white"/>
<path d="M92.7273 -8.18182V-2.72726H98.1818V-8.18182H92.7273Z" fill="white"/>
<path d="M92.7273 -19.0909V-13.6364H98.1818V-19.0909H92.7273Z" fill="white"/>
<path d="M92.7273 -24.5455V-19.0909H98.1818V-24.5455H92.7273Z" fill="white"/>
<path d="M92.7273 -30L92.7273 -24.5455H98.1818L98.1818 -30L92.7273 -30Z" fill="white"/>
<path d="M92.7273 -40.9091V-35.4545L98.1818 -35.4545V-40.9091L92.7273 -40.9091Z" fill="white"/>
<path d="M92.7273 -51.8182V-46.3636L98.1818 -46.3636V-51.8182L92.7273 -51.8182Z" fill="white"/>
<path d="M92.7273 -62.7273V-57.2727L98.1818 -57.2727V-62.7273H92.7273Z" fill="white"/>
<path d="M92.7273 -68.1818V-62.7273H98.1818V-68.1818H92.7273Z" fill="white"/>
<path d="M98.1818 73.6364V79.0909H103.636V73.6364H98.1818Z" fill="white"/>
<path d="M98.1818 57.2727V62.7273H103.636V57.2727H98.1818Z" fill="white"/>
<path d="M98.1818 51.8182V57.2727H103.636V51.8182H98.1818Z" fill="white"/>
<path d="M98.1818 46.3636V51.8182H103.636V46.3636H98.1818Z" fill="white"/>
<path d="M98.1818 40.9091V46.3636H103.636V40.9091H98.1818Z" fill="white"/>
<path d="M98.1818 30V35.4546H103.636V30H98.1818Z" fill="white"/>
<path d="M98.1818 24.5455V30H103.636V24.5455H98.1818Z" fill="white"/>
<path d="M98.1818 19.0909V24.5455H103.636V19.0909H98.1818Z" fill="white"/>
<path d="M98.1818 8.18182V13.6364H103.636V8.18182H98.1818Z" fill="white"/>
<path d="M98.1818 -8.18182V-2.72726H103.636V-8.18182H98.1818Z" fill="white"/>
<path d="M98.1818 -13.6364V-8.18182H103.636V-13.6364H98.1818Z" fill="white"/>
<path d="M98.1818 -46.3636V-40.9091H103.636V-46.3636H98.1818Z" fill="white"/>
<path d="M98.1818 -51.8182V-46.3636H103.636V-51.8182H98.1818Z" fill="white"/>
<path d="M98.1818 -57.2727V-51.8182H103.636V-57.2727H98.1818Z" fill="white"/>
<path d="M98.1818 -68.1818V-62.7273H103.636V-68.1818H98.1818Z" fill="white"/>
<path d="M98.1818 -84.5455V-79.0909H103.636V-84.5455L98.1818 -84.5455Z" fill="white"/>
<path d="M98.1818 -90V-84.5455L103.636 -84.5455V-90L98.1818 -90Z" fill="white"/>
<path d="M103.636 79.0909V84.5455H109.091V79.0909H103.636Z" fill="white"/>
<path d="M103.636 68.1818V73.6364H109.091V68.1818H103.636Z" fill="white"/>
<path d="M103.636 57.2727V62.7273H109.091V57.2727H103.636Z" fill="white"/>
<path d="M103.636 13.6364V19.0909H109.091V13.6364H103.636Z" fill="white"/>
<path d="M103.636 8.18182V13.6364H109.091V8.18182H103.636Z" fill="white"/>
<path d="M103.636 -13.6364V-8.18182H109.091V-13.6364H103.636Z" fill="white"/>
<path d="M103.636 -35.4545V-30H109.091V-35.4545H103.636Z" fill="white"/>
<path d="M103.636 -40.9091V-35.4545H109.091V-40.9091H103.636Z" fill="white"/>
<path d="M103.636 -51.8182V-46.3636H109.091V-51.8182H103.636Z" fill="white"/>
<path d="M103.636 -57.2727V-51.8182H109.091V-57.2727H103.636Z" fill="white"/>
<path d="M103.636 -68.1818V-62.7273H109.091V-68.1818H103.636Z" fill="white"/>
<path d="M103.636 -73.6364V-68.1818H109.091V-73.6364H103.636Z" fill="white"/>
<path d="M103.636 -84.5455V-79.0909L109.091 -79.0909V-84.5455H103.636Z" fill="white"/>
<path d="M109.091 79.0909V84.5455H114.545V79.0909H109.091Z" fill="white"/>
<path d="M109.091 68.1818V73.6364H114.545V68.1818H109.091Z" fill="white"/>
<path d="M109.091 51.8182V57.2727H114.545V51.8182H109.091Z" fill="white"/>
<path d="M109.091 40.9091V46.3636H114.545V40.9091H109.091Z" fill="white"/>
<path d="M109.091 35.4546V40.9091H114.545V35.4546H109.091Z" fill="white"/>
<path d="M109.091 30V35.4546H114.545V30H109.091Z" fill="white"/>
<path d="M109.091 24.5455V30H114.545V24.5455H109.091Z" fill="white"/>
<path d="M109.091 8.18182V13.6364H114.545V8.18182H109.091Z" fill="white"/>
<path d="M109.091 2.72727V8.18182H114.545V2.72727H109.091Z" fill="white"/>
<path d="M109.091 -13.6364V-8.18182H114.545V-13.6364H109.091Z" fill="white"/>
<path d="M109.091 -24.5455V-19.0909H114.545V-24.5455H109.091Z" fill="white"/>
<path d="M109.091 -40.9091V-35.4545H114.545V-40.9091H109.091Z" fill="white"/>
<path d="M109.091 -46.3636V-40.9091H114.545V-46.3636H109.091Z" fill="white"/>
<path d="M109.091 -51.8182V-46.3636H114.545V-51.8182H109.091Z" fill="white"/>
<path d="M109.091 -68.1818V-62.7273H114.545V-68.1818H109.091Z" fill="white"/>
<path d="M109.091 -84.5455V-79.0909H114.545V-84.5455L109.091 -84.5455Z" fill="white"/>
<path d="M109.091 -90V-84.5455L114.545 -84.5455V-90L109.091 -90Z" fill="white"/>
<path d="M114.545 84.5455V90H120V84.5455H114.545Z" fill="white"/>
<path d="M114.545 68.1818V73.6364H120V68.1818H114.545Z" fill="white"/>
<path d="M114.545 35.4546V40.9091H120V35.4546H114.545Z" fill="white"/>
<path d="M114.545 30V35.4546H120V30H114.545Z" fill="white"/>
<path d="M114.545 24.5455V30H120V24.5455H114.545Z" fill="white"/>
<path d="M114.545 19.0909V24.5455H120V19.0909H114.545Z" fill="white"/>
<path d="M114.545 8.18182V13.6364H120V8.18182H114.545Z" fill="white"/>
<path d="M114.545 2.72727V8.18182H120V2.72727H114.545Z" fill="white"/>
<path d="M114.545 -2.72726V2.72727H120V-2.72726H114.545Z" fill="white"/>
<path d="M114.545 -24.5455V-19.0909H120V-24.5455H114.545Z" fill="white"/>
<path d="M114.545 -40.9091V-35.4545H120V-40.9091H114.545Z" fill="white"/>
<path d="M114.545 -46.3636V-40.9091H120V-46.3636H114.545Z" fill="white"/>
<path d="M114.545 -51.8182V-46.3636H120V-51.8182H114.545Z" fill="white"/>
<path d="M114.545 -62.7273V-57.2727H120V-62.7273L114.545 -62.7273Z" fill="white"/>
<path d="M114.545 -68.1818V-62.7273L120 -62.7273V-68.1818L114.545 -68.1818Z" fill="white"/>
<path d="M114.545 -73.6364V-68.1818L120 -68.1818V-73.6364L114.545 -73.6364Z" fill="white"/>
<path d="M120 73.6364V79.0909H125.455V73.6364H120Z" fill="white"/>
<path d="M120 68.1818V73.6364H125.455V68.1818H120Z" fill="white"/>
<path d="M120 62.7273V68.1818H125.455V62.7273H120Z" fill="white"/>
<path d="M120 57.2727V62.7273H125.455V57.2727H120Z" fill="white"/>
<path d="M120 51.8182V57.2727H125.455V51.8182H120Z" fill="white"/>
<path d="M120 46.3636V51.8182H125.455V46.3636H120Z" fill="white"/>
<path d="M120 40.9091V46.3636H125.455V40.9091H120Z" fill="white"/>
<path d="M120 30V35.4546H125.455V30H120Z" fill="white"/>
<path d="M120 13.6364V19.0909H125.455V13.6364H120Z" fill="white"/>
<path d="M120 8.18182V13.6364H125.455V8.18182H120Z" fill="white"/>
<path d="M120 2.72727V8.18182H125.455V2.72727H120Z" fill="white"/>
<path d="M120 -8.18182V-2.72726H125.455V-8.18182H120Z" fill="white"/>
<path d="M120 -19.0909V-13.6364H125.455V-19.0909H120Z" fill="white"/>
<path d="M120 -35.4545V-30H125.455V-35.4545H120Z" fill="white"/>
<path d="M120 -40.9091V-35.4545H125.455V-40.9091H120Z" fill="white"/>
<path d="M120 -51.8182V-46.3636H125.455V-51.8182H120Z" fill="white"/>
<path d="M120 -62.7273V-57.2727H125.455V-62.7273H120Z" fill="white"/>
<path d="M120 -68.1818V-62.7273H125.455V-68.1818H120Z" fill="white"/>
<path d="M120 -90V-84.5455L125.455 -84.5455V-90L120 -90Z" fill="white"/>
<path d="M125.455 79.0909V84.5455H130.909V79.0909H125.455Z" fill="white"/>
<path d="M125.455 73.6364V79.0909H130.909V73.6364H125.455Z" fill="white"/>
<path d="M125.455 68.1818V73.6364H130.909V68.1818H125.455Z" fill="white"/>
<path d="M125.455 62.7273V68.1818H130.909V62.7273H125.455Z" fill="white"/>
<path d="M125.455 57.2727V62.7273H130.909L130.909 57.2727H125.455Z" fill="white"/>
<path d="M125.455 46.3636V51.8182H130.909V46.3636H125.455Z" fill="white"/>
<path d="M125.455 40.9091V46.3636H130.909V40.9091H125.455Z" fill="white"/>
<path d="M125.455 24.5455V30H130.909V24.5455H125.455Z" fill="white"/>
<path d="M125.455 2.72727V8.18182H130.909V2.72727H125.455Z" fill="white"/>
<path d="M125.455 -8.18182V-2.72726H130.909V-8.18182H125.455Z" fill="white"/>
<path d="M125.455 -13.6364V-8.18182H130.909V-13.6364H125.455Z" fill="white"/>
<path d="M125.455 -24.5455V-19.0909H130.909V-24.5455H125.455Z" fill="white"/>
<path d="M130.909 84.5455V90H136.364V84.5455H130.909Z" fill="white"/>
<path d="M130.909 73.6364V79.0909H136.364V73.6364H130.909Z" fill="white"/>
<path d="M130.909 68.1818V73.6364H136.364V68.1818H130.909Z" fill="white"/>
<path d="M130.909 62.7273V68.1818H136.364V62.7273H130.909Z" fill="white"/>
<path d="M130.909 51.8182V57.2727H136.364V51.8182H130.909Z" fill="white"/>
<path d="M130.909 46.3636V51.8182H136.364V46.3636H130.909Z" fill="white"/>
<path d="M130.909 35.4546V40.9091H136.364V35.4546H130.909Z" fill="white"/>
<path d="M130.909 30V35.4546H136.364V30H130.909Z" fill="white"/>
<path d="M130.909 -8.18182V-2.72726H136.364V-8.18182H130.909Z" fill="white"/>
<path d="M130.909 -13.6364V-8.18182H136.364V-13.6364H130.909Z" fill="white"/>
<path d="M130.909 -24.5455V-19.0909H136.364V-24.5455H130.909Z" fill="white"/>
<path d="M130.909 -30V-24.5455H136.364V-30H130.909Z" fill="white"/>
<path d="M130.909 -40.9091V-35.4545H136.364V-40.9091H130.909Z" fill="white"/>
<path d="M130.909 -46.3636V-40.9091H136.364V-46.3636H130.909Z" fill="white"/>
<path d="M130.909 -51.8182V-46.3636H136.364V-51.8182H130.909Z" fill="white"/>
<path d="M130.909 -57.2727V-51.8182H136.364V-57.2727H130.909Z" fill="white"/>
<path d="M130.909 -62.7273V-57.2727H136.364V-62.7273H130.909Z" fill="white"/>
<path d="M130.909 -68.1818V-62.7273H136.364V-68.1818H130.909Z" fill="white"/>
<path d="M130.909 -79.0909V-73.6364H136.364V-79.0909H130.909Z" fill="white"/>
<path d="M130.909 -84.5455V-79.0909H136.364V-84.5455L130.909 -84.5455Z" fill="white"/>
<path d="M130.909 -90V-84.5455L136.364 -84.5455V-90L130.909 -90Z" fill="white"/>
<path d="M136.364 40.9091V46.3636H141.818V40.9091H136.364Z" fill="white"/>
<path d="M136.364 30V35.4546L141.818 35.4546V30H136.364Z" fill="white"/>
<path d="M136.364 13.6364V19.0909H141.818V13.6364H136.364Z" fill="white"/>
<path d="M136.364 8.18182V13.6364H141.818V8.18182H136.364Z" fill="white"/>
<path d="M136.364 2.72727V8.18182H141.818V2.72727H136.364Z" fill="white"/>
<path d="M136.364 -2.72726V2.72727H141.818V-2.72726H136.364Z" fill="white"/>
<path d="M136.364 -8.18182V-2.72726H141.818V-8.18182H136.364Z" fill="white"/>
<path d="M136.364 -19.0909V-13.6364H141.818V-19.0909H136.364Z" fill="white"/>
<path d="M136.364 -40.9091V-35.4545H141.818V-40.9091H136.364Z" fill="white"/>
<path d="M136.364 -46.3636V-40.9091H141.818V-46.3636H136.364Z" fill="white"/>
<path d="M136.364 -68.1818V-62.7273H141.818V-68.1818H136.364Z" fill="white"/>
<path d="M136.364 -79.0909V-73.6364H141.818V-79.0909H136.364Z" fill="white"/>
<path d="M136.364 -84.5455V-79.0909H141.818V-84.5455H136.364Z" fill="white"/>
<path d="M136.364 -90V-84.5455H141.818V-90L136.364 -90Z" fill="white"/>
<path d="M141.818 84.5455V90H147.273V84.5455H141.818Z" fill="white"/>
<path d="M141.818 79.0909V84.5455H147.273V79.0909H141.818Z" fill="white"/>
<path d="M141.818 73.6364V79.0909H147.273V73.6364H141.818Z" fill="white"/>
<path d="M141.818 68.1818V73.6364H147.273V68.1818L141.818 68.1818Z" fill="white"/>
<path d="M141.818 62.7273V68.1818L147.273 68.1818V62.7273H141.818Z" fill="white"/>
<path d="M141.818 57.2727L141.818 62.7273H147.273L147.273 57.2727H141.818Z" fill="white"/>
<path d="M141.818 51.8182V57.2727H147.273V51.8182H141.818Z" fill="white"/>
<path d="M141.818 40.9091V46.3636H147.273V40.9091L141.818 40.9091Z" fill="white"/>
<path d="M141.818 35.4546V40.9091L147.273 40.9091V35.4546H141.818Z" fill="white"/>
<path d="M141.818 30V35.4546H147.273V30L141.818 30Z" fill="white"/>
<path d="M141.818 13.6364V19.0909H147.273V13.6364H141.818Z" fill="white"/>
<path d="M141.818 -2.72726V2.72727H147.273V-2.72726H141.818Z" fill="white"/>
<path d="M141.818 -8.18182V-2.72726H147.273V-8.18182H141.818Z" fill="white"/>
<path d="M141.818 -13.6364V-8.18182H147.273V-13.6364H141.818Z" fill="white"/>
<path d="M141.818 -19.0909V-13.6364H147.273V-19.0909H141.818Z" fill="white"/>
<path d="M141.818 -24.5455V-19.0909H147.273V-24.5455H141.818Z" fill="white"/>
<path d="M141.818 -35.4545V-30H147.273V-35.4545H141.818Z" fill="white"/>
<path d="M141.818 -46.3636V-40.9091H147.273V-46.3636H141.818Z" fill="white"/>
<path d="M141.818 -57.2727V-51.8182H147.273V-57.2727H141.818Z" fill="white"/>
<path d="M141.818 -68.1818V-62.7273H147.273V-68.1818H141.818Z" fill="white"/>
<path d="M141.818 -73.6364V-68.1818H147.273V-73.6364H141.818Z" fill="white"/>
<path d="M141.818 -84.5455V-79.0909H147.273V-84.5455H141.818Z" fill="white"/>
<path d="M147.273 84.5455V90H152.727V84.5455H147.273Z" fill="white"/>
<path d="M147.273 51.8182V57.2727H152.727V51.8182H147.273Z" fill="white"/>
<path d="M147.273 35.4546V40.9091H152.727V35.4546H147.273Z" fill="white"/>
<path d="M147.273 24.5455V30H152.727V24.5455H147.273Z" fill="white"/>
<path d="M147.273 19.0909V24.5455H152.727V19.0909H147.273Z" fill="white"/>
<path d="M147.273 13.6364V19.0909H152.727V13.6364H147.273Z" fill="white"/>
<path d="M147.273 8.18182V13.6364H152.727V8.18182H147.273Z" fill="white"/>
<path d="M147.273 2.72727V8.18182H152.727V2.72727H147.273Z" fill="white"/>
<path d="M147.273 -2.72726V2.72727H152.727V-2.72726H147.273Z" fill="white"/>
<path d="M147.273 -19.0909V-13.6364H152.727V-19.0909H147.273Z" fill="white"/>
<path d="M147.273 -30V-24.5455H152.727V-30H147.273Z" fill="white"/>
<path d="M147.273 -46.3636V-40.9091H152.727V-46.3636H147.273Z" fill="white"/>
<path d="M147.273 -68.1818V-62.7273H152.727V-68.1818H147.273Z" fill="white"/>
<path d="M147.273 -79.0909V-73.6364H152.727V-79.0909H147.273Z" fill="white"/>
<path d="M147.273 -84.5455V-79.0909H152.727V-84.5455L147.273 -84.5455Z" fill="white"/>
<path d="M152.727 84.5455V90H158.182V84.5455H152.727Z" fill="white"/>
<path d="M152.727 73.6364V79.0909H158.182V73.6364H152.727Z" fill="white"/>
<path d="M152.727 68.1818V73.6364H158.182V68.1818H152.727Z" fill="white"/>
<path d="M152.727 62.7273V68.1818H158.182V62.7273H152.727Z" fill="white"/>
<path d="M152.727 51.8182V57.2727H158.182V51.8182H152.727Z" fill="white"/>
<path d="M152.727 35.4546V40.9091H158.182V35.4546H152.727Z" fill="white"/>
<path d="M152.727 30V35.4546H158.182V30H152.727Z" fill="white"/>
<path d="M152.727 24.5455V30H158.182V24.5455H152.727Z" fill="white"/>
<path d="M152.727 19.0909V24.5455H158.182V19.0909H152.727Z" fill="white"/>
<path d="M152.727 8.18182V13.6364H158.182V8.18182H152.727Z" fill="white"/>
<path d="M152.727 -2.72726V2.72727H158.182V-2.72726H152.727Z" fill="white"/>
<path d="M152.727 -40.9091V-35.4545H158.182V-40.9091H152.727Z" fill="white"/>
<path d="M152.727 -46.3636V-40.9091H158.182V-46.3636H152.727Z" fill="white"/>
<path d="M152.727 -51.8182V-46.3636H158.182V-51.8182H152.727Z" fill="white"/>
<path d="M152.727 -57.2727V-51.8182H158.182V-57.2727H152.727Z" fill="white"/>
<path d="M152.727 -62.7273V-57.2727H158.182V-62.7273H152.727Z" fill="white"/>
<path d="M152.727 -68.1818V-62.7273H158.182V-68.1818H152.727Z" fill="white"/>
<path d="M152.727 -73.6364V-68.1818H158.182V-73.6364H152.727Z" fill="white"/>
<path d="M152.727 -84.5455V-79.0909L158.182 -79.0909V-84.5455H152.727Z" fill="white"/>
<path d="M158.182 84.5455V90H163.636V84.5455H158.182Z" fill="white"/>
<path d="M158.182 73.6364V79.0909H163.636V73.6364H158.182Z" fill="white"/>
<path d="M158.182 68.1818V73.6364H163.636V68.1818H158.182Z" fill="white"/>
<path d="M158.182 62.7273V68.1818H163.636V62.7273H158.182Z" fill="white"/>
<path d="M158.182 51.8182V57.2727H163.636V51.8182H158.182Z" fill="white"/>
<path d="M158.182 40.9091V46.3636H163.636V40.9091H158.182Z" fill="white"/>
<path d="M158.182 24.5455V30H163.636V24.5455H158.182Z" fill="white"/>
<path d="M158.182 19.0909V24.5455H163.636V19.0909H158.182Z" fill="white"/>
<path d="M158.182 13.6364V19.0909H163.636V13.6364H158.182Z" fill="white"/>
<path d="M158.182 2.72727V8.18182H163.636V2.72727H158.182Z" fill="white"/>
<path d="M158.182 -13.6364V-8.18182H163.636V-13.6364H158.182Z" fill="white"/>
<path d="M158.182 -19.0909V-13.6364H163.636V-19.0909H158.182Z" fill="white"/>
<path d="M158.182 -24.5455V-19.0909H163.636V-24.5455H158.182Z" fill="white"/>
<path d="M158.182 -35.4545V-30H163.636V-35.4545H158.182Z" fill="white"/>
<path d="M158.182 -40.9091V-35.4545H163.636V-40.9091H158.182Z" fill="white"/>
<path d="M158.182 -46.3636V-40.9091H163.636V-46.3636H158.182Z" fill="white"/>
<path d="M158.182 -51.8182V-46.3636H163.636V-51.8182H158.182Z" fill="white"/>
<path d="M158.182 -68.1818V-62.7273H163.636V-68.1818H158.182Z" fill="white"/>
<path d="M158.182 -73.6364V-68.1818H163.636V-73.6364H158.182Z" fill="white"/>
<path d="M158.182 -79.0909V-73.6364H163.636V-79.0909H158.182Z" fill="white"/>
<path d="M163.636 84.5455V90H169.091V84.5455H163.636Z" fill="white"/>
<path d="M163.636 73.6364V79.0909H169.091V73.6364H163.636Z" fill="white"/>
<path d="M163.636 68.1818V73.6364H169.091V68.1818H163.636Z" fill="white"/>
<path d="M163.636 62.7273V68.1818H169.091V62.7273H163.636Z" fill="white"/>
<path d="M163.636 51.8182V57.2727H169.091V51.8182H163.636Z" fill="white"/>
<path d="M163.636 40.9091V46.3636H169.091V40.9091H163.636Z" fill="white"/>
<path d="M163.636 30V35.4546H169.091V30H163.636Z" fill="white"/>
<path d="M163.636 24.5455V30H169.091V24.5455H163.636Z" fill="white"/>
<path d="M163.636 2.72727V8.18182H169.091V2.72727H163.636Z" fill="white"/>
<path d="M163.636 -2.72726V2.72727H169.091V-2.72726H163.636Z" fill="white"/>
<path d="M163.636 -24.5455V-19.0909H169.091V-24.5455H163.636Z" fill="white"/>
<path d="M163.636 -30V-24.5455H169.091V-30H163.636Z" fill="white"/>
<path d="M163.636 -35.4545V-30H169.091V-35.4545H163.636Z" fill="white"/>
<path d="M163.636 -51.8182V-46.3636H169.091V-51.8182H163.636Z" fill="white"/>
<path d="M163.636 -62.7273V-57.2727H169.091V-62.7273L163.636 -62.7273Z" fill="white"/>
<path d="M163.636 -73.6364V-68.1818L169.091 -68.1818V-73.6364L163.636 -73.6364Z" fill="white"/>
<path d="M163.636 -79.0909V-73.6364L169.091 -73.6364V-79.0909H163.636Z" fill="white"/>
<path d="M169.091 84.5455V90H174.545V84.5455H169.091Z" fill="white"/>
<path d="M169.091 51.8182V57.2727H174.545V51.8182H169.091Z" fill="white"/>
<path d="M169.091 35.4546V40.9091H174.545V35.4546H169.091Z" fill="white"/>
<path d="M169.091 30V35.4546H174.545V30H169.091Z" fill="white"/>
<path d="M169.091 24.5455V30H174.545V24.5455H169.091Z" fill="white"/>
<path d="M169.091 19.0909V24.5455H174.545V19.0909H169.091Z" fill="white"/>
<path d="M169.091 -2.72726V2.72727H174.545V-2.72726H169.091Z" fill="white"/>
<path d="M169.091 -13.6364V-8.18182H174.545V-13.6364H169.091Z" fill="white"/>
<path d="M169.091 -19.0909V-13.6364H174.545V-19.0909H169.091Z" fill="white"/>
<path d="M169.091 -24.5455V-19.0909H174.545V-24.5455H169.091Z" fill="white"/>
<path d="M169.091 -35.4545V-30H174.545V-35.4545H169.091Z" fill="white"/>
<path d="M169.091 -62.7273V-57.2727H174.545V-62.7273H169.091Z" fill="white"/>
<path d="M169.091 -73.6364V-68.1818H174.545V-73.6364H169.091Z" fill="white"/>
<path d="M169.091 -84.5455V-79.0909H174.545V-84.5455L169.091 -84.5455Z" fill="white"/>
<path d="M174.545 84.5455V90H180V84.5455H174.545Z" fill="white"/>
<path d="M174.545 79.0909V84.5455H180V79.0909H174.545Z" fill="white"/>
<path d="M174.545 73.6364V79.0909H180V73.6364H174.545Z" fill="white"/>
<path d="M174.545 68.1818V73.6364H180V68.1818H174.545Z" fill="white"/>
<path d="M174.545 62.7273V68.1818H180V62.7273H174.545Z" fill="white"/>
<path d="M174.545 57.2727L174.545 62.7273H180L180 57.2727H174.545Z" fill="white"/>
<path d="M174.545 51.8182V57.2727H180V51.8182H174.545Z" fill="white"/>
<path d="M174.545 24.5455V30H180V24.5455H174.545Z" fill="white"/>
<path d="M174.545 2.72727V8.18182H180V2.72727H174.545Z" fill="white"/>
<path d="M174.545 -13.6364V-8.18182H180V-13.6364H174.545Z" fill="white"/>
<path d="M174.545 -19.0909V-13.6364H180V-19.0909H174.545Z" fill="white"/>
<path d="M174.545 -30V-24.5455H180V-30H174.545Z" fill="white"/>
<path d="M174.545 -46.3636V-40.9091H180V-46.3636H174.545Z" fill="white"/>
<path d="M174.545 -57.2727V-51.8182H180V-57.2727H174.545Z" fill="white"/>
<path d="M174.545 -62.7273V-57.2727H180V-62.7273H174.545Z" fill="white"/>
<path d="M174.545 -73.6364V-68.1818H180V-73.6364H174.545Z" fill="white"/>
</svg>
