<svg width="138" height="123" viewBox="0 0 138 123" fill="none" xmlns="http://www.w3.org/2000/svg">
<mask id="mask0_593_14461" style="mask-type:alpha" maskUnits="userSpaceOnUse" x="0" y="0" width="138" height="123">
<rect width="138" height="123" fill="#1A1A1A"/>
</mask>
<g mask="url(#mask0_593_14461)">
<path d="M0.846197 112.908L0.846197 117.033H4.97065V112.908H0.846197Z" fill="white"/>
<path d="M0.846197 108.784L0.846197 112.908H4.97065L4.97065 108.784H0.846197Z" fill="white"/>
<path d="M0.846197 104.659L0.846197 108.784H4.97065V104.659H0.846197Z" fill="white"/>
<path d="M0.846197 100.535L0.846197 104.659H4.97065V100.535H0.846197Z" fill="white"/>
<path d="M0.846196 96.4105L0.846197 100.535H4.97065V96.4105H0.846196Z" fill="white"/>
<path d="M0.846196 92.2861L0.846196 96.4105H4.97065L4.97065 92.2861H0.846196Z" fill="white"/>
<path d="M0.846196 88.1616L0.846196 92.2861H4.97065V88.1616H0.846196Z" fill="white"/>
<path d="M0.846196 75.7882L0.846196 79.9127H4.97065L4.97065 75.7882H0.846196Z" fill="white"/>
<path d="M0.846195 67.5393L0.846195 71.6638H4.97065V67.5393H0.846195Z" fill="white"/>
<path d="M0.846195 63.4149L0.846195 67.5393H4.97065V63.4149H0.846195Z" fill="white"/>
<path d="M0.846194 46.9171L0.846194 51.0415H4.97065V46.9171H0.846194Z" fill="white"/>
<path d="M0.846194 38.6682L0.846194 42.7926H4.97065V38.6682H0.846194Z" fill="white"/>
<path d="M0.846194 34.5437L0.846194 38.6682H4.97065L4.97065 34.5437H0.846194Z" fill="white"/>
<path d="M0.846194 30.4192L0.846194 34.5437H4.97065V30.4192H0.846194Z" fill="white"/>
<path d="M0.846193 22.1703L0.846193 26.2948H4.97065V22.1703H0.846193Z" fill="white"/>
<path d="M0.846193 13.9214L0.846193 18.0459H4.97065V13.9214H0.846193Z" fill="white"/>
<path d="M0.846192 5.67251L0.846193 9.79697H4.97065V5.67251H0.846192Z" fill="white"/>
<path d="M0.846192 1.54806L0.846192 5.67251H4.97065L4.97065 1.54806H0.846192Z" fill="white"/>
<path d="M0.846192 -2.5764L0.846192 1.54806H4.97065V-2.5764H0.846192Z" fill="white"/>
<path d="M0.846192 -6.70085L0.846192 -2.5764H4.97065V-6.70085H0.846192Z" fill="white"/>
<path d="M0.846192 -10.8253L0.846192 -6.70085H4.97065V-10.8253H0.846192Z" fill="white"/>
<path d="M0.846192 -14.9498L0.846192 -10.8253H4.97065L4.97065 -14.9498L0.846192 -14.9498Z" fill="white"/>
<path d="M0.846191 -19.0742L0.846192 -14.9498L4.97065 -14.9498V-19.0742L0.846191 -19.0742Z" fill="white"/>
<path d="M4.97065 112.908V117.033H9.09511V112.908H4.97065Z" fill="white"/>
<path d="M4.97065 88.1616V92.2861H9.09511V88.1616H4.97065Z" fill="white"/>
<path d="M4.97065 71.6638V75.7882H9.09511V71.6638H4.97065Z" fill="white"/>
<path d="M4.97065 67.5393V71.6638H9.09511L9.0951 67.5393H4.97065Z" fill="white"/>
<path d="M4.97065 59.2904L4.97065 63.4149H9.0951V59.2904H4.97065Z" fill="white"/>
<path d="M4.97065 55.166L4.97065 59.2904H9.0951V55.166H4.97065Z" fill="white"/>
<path d="M4.97065 51.0415V55.166H9.0951L9.0951 51.0415H4.97065Z" fill="white"/>
<path d="M4.97065 46.9171V51.0415H9.0951V46.9171H4.97065Z" fill="white"/>
<path d="M4.97065 42.7926L4.97065 46.9171H9.0951V42.7926H4.97065Z" fill="white"/>
<path d="M4.97065 22.1703V26.2948L9.0951 26.2948V22.1703H4.97065Z" fill="white"/>
<path d="M4.97065 18.0459L4.97065 22.1703H9.0951V18.0459H4.97065Z" fill="white"/>
<path d="M4.97065 13.9214V18.0459H9.0951V13.9214L4.97065 13.9214Z" fill="white"/>
<path d="M4.97065 5.67251V9.79697L9.0951 9.79697V5.67251L4.97065 5.67251Z" fill="white"/>
<path d="M4.97065 -19.0742V-14.9498H9.0951V-19.0742L4.97065 -19.0742Z" fill="white"/>
<path d="M9.09511 112.908V117.033H13.2196V112.908H9.09511Z" fill="white"/>
<path d="M9.09511 104.659V108.784H13.2196V104.659H9.09511Z" fill="white"/>
<path d="M9.09511 100.535L9.09511 104.659H13.2196V100.535H9.09511Z" fill="white"/>
<path d="M9.09511 96.4105V100.535H13.2196V96.4105H9.09511Z" fill="white"/>
<path d="M9.09511 88.1616V92.2861H13.2196V88.1616H9.09511Z" fill="white"/>
<path d="M9.09511 71.6638V75.7882H13.2196V71.6638H9.09511Z" fill="white"/>
<path d="M9.0951 63.4149V67.5393H13.2196V63.4149H9.0951Z" fill="white"/>
<path d="M9.0951 42.7926V46.9171H13.2196L13.2196 42.7926H9.0951Z" fill="white"/>
<path d="M9.0951 34.5437L9.0951 38.6682H13.2196V34.5437H9.0951Z" fill="white"/>
<path d="M9.0951 13.9214V18.0459H13.2196V13.9214H9.0951Z" fill="white"/>
<path d="M9.0951 5.67251V9.79697H13.2196V5.67251H9.0951Z" fill="white"/>
<path d="M9.0951 -2.5764V1.54806H13.2196V-2.5764H9.0951Z" fill="white"/>
<path d="M9.0951 -6.70085V-2.5764H13.2196V-6.70085H9.0951Z" fill="white"/>
<path d="M9.0951 -10.8253V-6.70085H13.2196V-10.8253H9.0951Z" fill="white"/>
<path d="M9.0951 -19.0742V-14.9498L13.2196 -14.9498V-19.0742L9.0951 -19.0742Z" fill="white"/>
<path d="M13.2196 112.908V117.033H17.344V112.908H13.2196Z" fill="white"/>
<path d="M13.2196 104.659V108.784H17.344V104.659H13.2196Z" fill="white"/>
<path d="M13.2196 100.535V104.659H17.344V100.535H13.2196Z" fill="white"/>
<path d="M13.2196 96.4105V100.535H17.344V96.4105H13.2196Z" fill="white"/>
<path d="M13.2196 88.1616V92.2861H17.344V88.1616H13.2196Z" fill="white"/>
<path d="M13.2196 75.7882L13.2196 79.9127H17.344V75.7882H13.2196Z" fill="white"/>
<path d="M13.2196 59.2904V63.4149H17.344V59.2904H13.2196Z" fill="white"/>
<path d="M13.2196 55.166V59.2904H17.344V55.166H13.2196Z" fill="white"/>
<path d="M13.2196 51.0415V55.166H17.344V51.0415H13.2196Z" fill="white"/>
<path d="M13.2196 46.9171V51.0415H17.344V46.9171H13.2196Z" fill="white"/>
<path d="M13.2196 34.5437V38.6682H17.344V34.5437H13.2196Z" fill="white"/>
<path d="M13.2196 26.2948V30.4192H17.344V26.2948H13.2196Z" fill="white"/>
<path d="M13.2196 18.0459V22.1703H17.344V18.0459H13.2196Z" fill="white"/>
<path d="M13.2196 5.67251V9.79697H17.344V5.67251H13.2196Z" fill="white"/>
<path d="M13.2196 -2.5764V1.54806H17.344V-2.5764H13.2196Z" fill="white"/>
<path d="M13.2196 -6.70085V-2.5764H17.344V-6.70085H13.2196Z" fill="white"/>
<path d="M13.2196 -10.8253V-6.70085H17.344V-10.8253L13.2196 -10.8253Z" fill="white"/>
<path d="M13.2196 -19.0742V-14.9498H17.344V-19.0742L13.2196 -19.0742Z" fill="white"/>
<path d="M17.344 112.908V117.033H21.4685V112.908H17.344Z" fill="white"/>
<path d="M17.344 104.659V108.784H21.4685V104.659H17.344Z" fill="white"/>
<path d="M17.344 100.535V104.659H21.4685V100.535H17.344Z" fill="white"/>
<path d="M17.344 96.4105V100.535H21.4685V96.4105H17.344Z" fill="white"/>
<path d="M17.344 88.1616V92.2861H21.4685V88.1616H17.344Z" fill="white"/>
<path d="M17.344 79.9127V84.0371H21.4685V79.9127H17.344Z" fill="white"/>
<path d="M17.344 71.6638V75.7882H21.4685V71.6638H17.344Z" fill="white"/>
<path d="M17.344 63.4149V67.5393H21.4685V63.4149H17.344Z" fill="white"/>
<path d="M17.344 38.6682V42.7926H21.4685V38.6682H17.344Z" fill="white"/>
<path d="M17.344 34.5437V38.6682H21.4685V34.5437H17.344Z" fill="white"/>
<path d="M17.344 30.4192V34.5437H21.4685V30.4192H17.344Z" fill="white"/>
<path d="M17.344 26.2948V30.4192H21.4685V26.2948H17.344Z" fill="white"/>
<path d="M17.344 18.0459V22.1703H21.4685V18.0459H17.344Z" fill="white"/>
<path d="M17.344 5.67251V9.79697H21.4685V5.67251H17.344Z" fill="white"/>
<path d="M17.344 -2.5764V1.54806H21.4685V-2.5764H17.344Z" fill="white"/>
<path d="M17.344 -6.70085V-2.5764H21.4685V-6.70085H17.344Z" fill="white"/>
<path d="M17.344 -10.8253V-6.70085H21.4685V-10.8253H17.344Z" fill="white"/>
<path d="M17.344 -19.0742V-14.9498L21.4685 -14.9498V-19.0742L17.344 -19.0742Z" fill="white"/>
<path d="M21.4685 112.908V117.033H25.5929V112.908H21.4685Z" fill="white"/>
<path d="M21.4685 88.1616V92.2861H25.5929V88.1616H21.4685Z" fill="white"/>
<path d="M21.4685 75.7882L21.4685 79.9127H25.5929V75.7882H21.4685Z" fill="white"/>
<path d="M21.4685 63.4149V67.5393H25.5929V63.4149H21.4685Z" fill="white"/>
<path d="M21.4685 46.9171V51.0415H25.5929V46.9171H21.4685Z" fill="white"/>
<path d="M21.4685 38.6682V42.7926H25.5929V38.6682H21.4685Z" fill="white"/>
<path d="M21.4685 26.2948V30.4192H25.5929V26.2948H21.4685Z" fill="white"/>
<path d="M21.4685 22.1703V26.2948H25.5929V22.1703H21.4685Z" fill="white"/>
<path d="M21.4685 13.9214V18.0459H25.5929V13.9214H21.4685Z" fill="white"/>
<path d="M21.4685 5.67251V9.79697H25.5929V5.67251H21.4685Z" fill="white"/>
<path d="M21.4685 -19.0742V-14.9498H25.5929V-19.0742L21.4685 -19.0742Z" fill="white"/>
<path d="M25.5929 112.908V117.033H29.7174V112.908H25.5929Z" fill="white"/>
<path d="M25.5929 108.784V112.908H29.7174V108.784H25.5929Z" fill="white"/>
<path d="M25.5929 104.659V108.784H29.7174V104.659H25.5929Z" fill="white"/>
<path d="M25.5929 100.535V104.659H29.7174V100.535H25.5929Z" fill="white"/>
<path d="M25.5929 96.4105V100.535H29.7174V96.4105H25.5929Z" fill="white"/>
<path d="M25.5929 92.2861V96.4105H29.7174V92.2861H25.5929Z" fill="white"/>
<path d="M25.5929 88.1616V92.2861H29.7174V88.1616H25.5929Z" fill="white"/>
<path d="M25.5929 79.9127V84.0371H29.7174V79.9127H25.5929Z" fill="white"/>
<path d="M25.5929 71.6638V75.7882H29.7174V71.6638H25.5929Z" fill="white"/>
<path d="M25.5929 63.4149V67.5393H29.7174V63.4149H25.5929Z" fill="white"/>
<path d="M25.5929 55.166V59.2904H29.7174V55.166H25.5929Z" fill="white"/>
<path d="M25.5929 46.9171V51.0415H29.7174V46.9171H25.5929Z" fill="white"/>
<path d="M25.5929 38.6682V42.7926H29.7174V38.6682H25.5929Z" fill="white"/>
<path d="M25.5929 30.4192V34.5437H29.7174V30.4192H25.5929Z" fill="white"/>
<path d="M25.5929 22.1703V26.2948H29.7174V22.1703H25.5929Z" fill="white"/>
<path d="M25.5929 13.9214V18.0459H29.7174V13.9214H25.5929Z" fill="white"/>
<path d="M25.5929 5.67251V9.79697H29.7174V5.67251H25.5929Z" fill="white"/>
<path d="M25.5929 1.54806V5.67251H29.7174V1.54806H25.5929Z" fill="white"/>
<path d="M25.5929 -2.5764V1.54806H29.7174V-2.5764H25.5929Z" fill="white"/>
<path d="M25.5929 -6.70085L25.5929 -2.5764H29.7174L29.7174 -6.70085H25.5929Z" fill="white"/>
<path d="M25.5929 -10.8253V-6.70085H29.7174V-10.8253H25.5929Z" fill="white"/>
<path d="M25.5929 -14.9498V-10.8253H29.7174V-14.9498H25.5929Z" fill="white"/>
<path d="M25.5929 -19.0742V-14.9498H29.7174V-19.0742L25.5929 -19.0742Z" fill="white"/>
<path d="M29.7174 79.9127V84.0371H33.8418V79.9127H29.7174Z" fill="white"/>
<path d="M29.7174 55.166V59.2904H33.8418V55.166H29.7174Z" fill="white"/>
<path d="M29.7174 51.0415V55.166H33.8418V51.0415H29.7174Z" fill="white"/>
<path d="M29.7174 38.6682V42.7926H33.8418V38.6682H29.7174Z" fill="white"/>
<path d="M29.7174 30.4192V34.5437H33.8418V30.4192H29.7174Z" fill="white"/>
<path d="M29.7174 26.2948V30.4192H33.8418V26.2948H29.7174Z" fill="white"/>
<path d="M29.7174 22.1703V26.2948H33.8418V22.1703H29.7174Z" fill="white"/>
<path d="M29.7174 18.0459V22.1703H33.8418V18.0459H29.7174Z" fill="white"/>
<path d="M29.7174 13.9214V18.0459H33.8418V13.9214H29.7174Z" fill="white"/>
<path d="M33.8418 104.659V108.784H37.9663V104.659H33.8418Z" fill="white"/>
<path d="M33.8418 100.535V104.659H37.9663V100.535H33.8418Z" fill="white"/>
<path d="M33.8418 88.1616V92.2861H37.9663V88.1616H33.8418Z" fill="white"/>
<path d="M33.8418 84.0371V88.1616H37.9663V84.0371H33.8418Z" fill="white"/>
<path d="M33.8418 79.9127V84.0371H37.9663V79.9127H33.8418Z" fill="white"/>
<path d="M33.8418 75.7882V79.9127H37.9663V75.7882H33.8418Z" fill="white"/>
<path d="M33.8418 71.6638V75.7882H37.9663V71.6638H33.8418Z" fill="white"/>
<path d="M33.8418 67.5393V71.6638H37.9663V67.5393H33.8418Z" fill="white"/>
<path d="M33.8418 51.0415V55.166H37.9663V51.0415H33.8418Z" fill="white"/>
<path d="M33.8418 46.9171V51.0415H37.9663V46.9171H33.8418Z" fill="white"/>
<path d="M33.8418 42.7926V46.9171H37.9663V42.7926H33.8418Z" fill="white"/>
<path d="M33.8418 30.4192V34.5437H37.9663V30.4192H33.8418Z" fill="white"/>
<path d="M33.8418 22.1703V26.2948H37.9663V22.1703H33.8418Z" fill="white"/>
<path d="M33.8418 18.0459V22.1703H37.9663V18.0459H33.8418Z" fill="white"/>
<path d="M33.8418 9.79697V13.9214H37.9663V9.79697H33.8418Z" fill="white"/>
<path d="M33.8418 5.67251V9.79697H37.9663V5.67251H33.8418Z" fill="white"/>
<path d="M33.8418 -2.5764V1.54806H37.9663V-2.5764H33.8418Z" fill="white"/>
<path d="M37.9663 112.908V117.033H42.0907V112.908H37.9663Z" fill="white"/>
<path d="M37.9663 108.784V112.908H42.0907V108.784L37.9663 108.784Z" fill="white"/>
<path d="M37.9663 104.659V108.784L42.0907 108.784V104.659H37.9663Z" fill="white"/>
<path d="M37.9663 100.535V104.659H42.0907V100.535H37.9663Z" fill="white"/>
<path d="M37.9663 92.2861V96.4105H42.0907V92.2861H37.9663Z" fill="white"/>
<path d="M37.9663 79.9127V84.0371H42.0907V79.9127H37.9663Z" fill="white"/>
<path d="M37.9663 59.2904L37.9663 63.4149L42.0907 63.4149L42.0907 59.2904L37.9663 59.2904Z" fill="white"/>
<path d="M37.9663 55.166V59.2904L42.0907 59.2904V55.166L37.9663 55.166Z" fill="white"/>
<path d="M37.9663 46.9171V51.0415H42.0907V46.9171L37.9663 46.9171Z" fill="white"/>
<path d="M37.9663 42.7926V46.9171L42.0907 46.9171V42.7926L37.9663 42.7926Z" fill="white"/>
<path d="M37.9663 38.6682V42.7926L42.0907 42.7926V38.6681L37.9663 38.6682Z" fill="white"/>
<path d="M37.9663 30.4192V34.5437L42.0907 34.5437V30.4192L37.9663 30.4192Z" fill="white"/>
<path d="M37.9663 22.1703V26.2948H42.0907V22.1703H37.9663Z" fill="white"/>
<path d="M37.9663 13.9214V18.0459H42.0907V13.9214H37.9663Z" fill="white"/>
<path d="M37.9663 9.79697V13.9214H42.0907V9.79697H37.9663Z" fill="white"/>
<path d="M37.9663 5.67251V9.79697H42.0907V5.67251H37.9663Z" fill="white"/>
<path d="M37.9663 1.54806V5.67251H42.0907V1.54806H37.9663Z" fill="white"/>
<path d="M37.9663 -2.5764V1.54806H42.0907V-2.5764H37.9663Z" fill="white"/>
<path d="M42.0907 96.4105V100.535H46.2152V96.4105H42.0907Z" fill="white"/>
<path d="M42.0907 92.2861V96.4105H46.2152V92.2861H42.0907Z" fill="white"/>
<path d="M42.0907 88.1616V92.2861H46.2152V88.1616H42.0907Z" fill="white"/>
<path d="M42.0907 84.0371V88.1616H46.2152V84.0371H42.0907Z" fill="white"/>
<path d="M42.0907 79.9127V84.0371H46.2152V79.9127H42.0907Z" fill="white"/>
<path d="M42.0907 71.6638V75.7882H46.2152V71.6638H42.0907Z" fill="white"/>
<path d="M42.0907 59.2904L42.0907 63.4149H46.2152L46.2152 59.2904H42.0907Z" fill="white"/>
<path d="M42.0907 51.0415V55.166H46.2152V51.0415H42.0907Z" fill="white"/>
<path d="M42.0907 46.9171V51.0415H46.2152V46.9171H42.0907Z" fill="white"/>
<path d="M42.0907 42.7926V46.9171H46.2152V42.7926H42.0907Z" fill="white"/>
<path d="M42.0907 18.0459V22.1703H46.2152V18.0459H42.0907Z" fill="white"/>
<path d="M42.0907 13.9214V18.0459H46.2152V13.9214H42.0907Z" fill="white"/>
<path d="M42.0907 9.79697V13.9214H46.2152V9.79697H42.0907Z" fill="white"/>
<path d="M42.0907 1.54806V5.67251H46.2152V1.54806H42.0907Z" fill="white"/>
<path d="M42.0907 -2.5764V1.54806H46.2152V-2.5764H42.0907Z" fill="white"/>
<path d="M42.0907 -10.8253V-6.70085H46.2152V-10.8253H42.0907Z" fill="white"/>
<path d="M46.2152 112.908V117.033H50.3396V112.908H46.2152Z" fill="white"/>
<path d="M46.2152 108.784V112.908H50.3396V108.784H46.2152Z" fill="white"/>
<path d="M46.2152 100.535V104.659H50.3396V100.535H46.2152Z" fill="white"/>
<path d="M46.2152 79.9127V84.0371H50.3396V79.9127H46.2152Z" fill="white"/>
<path d="M46.2152 75.7882V79.9127H50.3396V75.7882H46.2152Z" fill="white"/>
<path d="M46.2152 71.6638V75.7882H50.3396V71.6638H46.2152Z" fill="white"/>
<path d="M46.2152 46.9171V51.0415H50.3396V46.9171H46.2152Z" fill="white"/>
<path d="M46.2152 42.7926V46.9171H50.3396V42.7926H46.2152Z" fill="white"/>
<path d="M46.2152 38.6681V42.7926H50.3396V38.6681H46.2152Z" fill="white"/>
<path d="M46.2152 30.4192V34.5437H50.3396V30.4192H46.2152Z" fill="white"/>
<path d="M46.2152 22.1703V26.2948H50.3396V22.1703H46.2152Z" fill="white"/>
<path d="M46.2152 13.9214V18.0459H50.3396V13.9214H46.2152Z" fill="white"/>
<path d="M46.2152 -10.8253V-6.70085H50.3396V-10.8253L46.2152 -10.8253Z" fill="white"/>
<path d="M46.2152 -14.9498V-10.8253L50.3396 -10.8253V-14.9498H46.2152Z" fill="white"/>
<path d="M50.3396 112.908V117.033H54.4641V112.908H50.3396Z" fill="white"/>
<path d="M50.3396 104.659V108.784H54.4641V104.659H50.3396Z" fill="white"/>
<path d="M50.3396 96.4105V100.535H54.4641V96.4105H50.3396Z" fill="white"/>
<path d="M50.3396 92.2861V96.4105H54.4641V92.2861H50.3396Z" fill="white"/>
<path d="M50.3396 88.1616V92.2861H54.4641V88.1616H50.3396Z" fill="white"/>
<path d="M50.3396 79.9127V84.0371H54.4641V79.9127H50.3396Z" fill="white"/>
<path d="M50.3396 75.7882V79.9127H54.4641V75.7882H50.3396Z" fill="white"/>
<path d="M50.3396 59.2904V63.4149H54.4641V59.2904H50.3396Z" fill="white"/>
<path d="M50.3396 55.166V59.2904H54.4641V55.166H50.3396Z" fill="white"/>
<path d="M50.3396 51.0415V55.166H54.4641V51.0415H50.3396Z" fill="white"/>
<path d="M50.3396 46.9171V51.0415H54.4641V46.9171H50.3396Z" fill="white"/>
<path d="M50.3396 42.7926V46.9171H54.4641V42.7926H50.3396Z" fill="white"/>
<path d="M50.3396 34.5437V38.6681H54.4641V34.5437H50.3396Z" fill="white"/>
<path d="M50.3396 30.4192V34.5437H54.4641V30.4192H50.3396Z" fill="white"/>
<path d="M50.3396 18.0459V22.1703H54.4641V18.0459H50.3396Z" fill="white"/>
<path d="M50.3396 13.9214V18.0459H54.4641V13.9214H50.3396Z" fill="white"/>
<path d="M50.3396 1.54806V5.67251H54.4641V1.54806H50.3396Z" fill="white"/>
<path d="M50.3396 -2.5764V1.54806H54.4641V-2.5764H50.3396Z" fill="white"/>
<path d="M50.3396 -10.8253V-6.70085H54.4641V-10.8253H50.3396Z" fill="white"/>
<path d="M50.3396 -19.0742V-14.9498L54.4641 -14.9498V-19.0742L50.3396 -19.0742Z" fill="white"/>
<path d="M54.4641 108.784V112.908H58.5886V108.784H54.4641Z" fill="white"/>
<path d="M54.4641 104.659V108.784H58.5886V104.659H54.4641Z" fill="white"/>
<path d="M54.4641 84.0371V88.1616H58.5886V84.0371H54.4641Z" fill="white"/>
<path d="M54.4641 67.5393V71.6638H58.5886V67.5393H54.4641Z" fill="white"/>
<path d="M54.4641 63.4149V67.5393H58.5886V63.4149H54.4641Z" fill="white"/>
<path d="M54.4641 55.166V59.2904H58.5886V55.166H54.4641Z" fill="white"/>
<path d="M54.4641 51.0415V55.166H58.5886V51.0415H54.4641Z" fill="white"/>
<path d="M54.4641 42.7926V46.9171H58.5886V42.7926H54.4641Z" fill="white"/>
<path d="M54.4641 38.6681V42.7926H58.5886V38.6681H54.4641Z" fill="white"/>
<path d="M54.4641 34.5437V38.6681H58.5886V34.5437H54.4641Z" fill="white"/>
<path d="M54.4641 30.4192V34.5437H58.5886V30.4192H54.4641Z" fill="white"/>
<path d="M54.4641 26.2948L54.4641 30.4192H58.5886L58.5886 26.2948H54.4641Z" fill="white"/>
<path d="M54.4641 18.0459V22.1703H58.5886V18.0459H54.4641Z" fill="white"/>
<path d="M54.4641 5.67251V9.79697H58.5886V5.67251H54.4641Z" fill="white"/>
<path d="M54.4641 -6.70085V-2.5764H58.5886V-6.70086L54.4641 -6.70085Z" fill="white"/>
<path d="M54.4641 -19.0742V-14.9498H58.5886V-19.0742L54.4641 -19.0742Z" fill="white"/>
<path d="M58.5886 112.908V117.033H62.713V112.908H58.5886Z" fill="white"/>
<path d="M58.5886 108.784V112.908H62.713V108.784H58.5886Z" fill="white"/>
<path d="M58.5886 96.4105V100.535H62.713V96.4105H58.5886Z" fill="white"/>
<path d="M58.5886 88.1616V92.2861H62.713V88.1616H58.5886Z" fill="white"/>
<path d="M58.5886 75.7882V79.9127H62.713V75.7882H58.5886Z" fill="white"/>
<path d="M58.5886 63.4149V67.5393H62.713V63.4149H58.5886Z" fill="white"/>
<path d="M58.5886 59.2904V63.4149H62.713V59.2904H58.5886Z" fill="white"/>
<path d="M58.5886 51.0415V55.166H62.713V51.0415H58.5886Z" fill="white"/>
<path d="M58.5886 42.7926V46.9171H62.713V42.7926H58.5886Z" fill="white"/>
<path d="M58.5886 38.6681V42.7926H62.713V38.6681H58.5886Z" fill="white"/>
<path d="M58.5886 34.5437V38.6681H62.713V34.5437H58.5886Z" fill="white"/>
<path d="M58.5886 22.1703V26.2948H62.713V22.1703H58.5886Z" fill="white"/>
<path d="M58.5886 5.67251V9.79697H62.713V5.67251H58.5886Z" fill="white"/>
<path d="M58.5886 -2.5764V1.54806H62.713V-2.5764H58.5886Z" fill="white"/>
<path d="M58.5886 -10.8253V-6.70086H62.713V-10.8253H58.5886Z" fill="white"/>
<path d="M62.713 112.908V117.033H66.8375V112.908H62.713Z" fill="white"/>
<path d="M62.713 108.784V112.908H66.8375V108.784H62.713Z" fill="white"/>
<path d="M62.713 104.659V108.784H66.8375V104.659H62.713Z" fill="white"/>
<path d="M62.713 100.535V104.659H66.8375V100.535H62.713Z" fill="white"/>
<path d="M62.713 96.4105V100.535H66.8375V96.4105H62.713Z" fill="white"/>
<path d="M62.713 79.9127V84.0371H66.8375V79.9127H62.713Z" fill="white"/>
<path d="M62.713 71.6638V75.7882H66.8375V71.6638H62.713Z" fill="white"/>
<path d="M62.713 67.5393V71.6638H66.8375V67.5393H62.713Z" fill="white"/>
<path d="M62.713 63.4149V67.5393H66.8375V63.4149H62.713Z" fill="white"/>
<path d="M62.713 59.2904V63.4149H66.8375V59.2904H62.713Z" fill="white"/>
<path d="M62.713 30.4192V34.5437H66.8375V30.4192H62.713Z" fill="white"/>
<path d="M62.713 26.2948L62.713 30.4192H66.8375L66.8375 26.2948H62.713Z" fill="white"/>
<path d="M62.713 18.0459V22.1703H66.8375V18.0459H62.713Z" fill="white"/>
<path d="M62.713 13.9214V18.0459H66.8375V13.9214H62.713Z" fill="white"/>
<path d="M62.713 9.79697V13.9214H66.8375V9.79697H62.713Z" fill="white"/>
<path d="M62.713 1.54806V5.67251H66.8375V1.54806H62.713Z" fill="white"/>
<path d="M62.713 -2.5764V1.54806H66.8375V-2.5764H62.713Z" fill="white"/>
<path d="M62.713 -10.8253V-6.70086H66.8375V-10.8253H62.713Z" fill="white"/>
<path d="M62.713 -19.0742V-14.9498H66.8375V-19.0742L62.713 -19.0742Z" fill="white"/>
<path d="M66.8375 104.659V108.784H70.9619V104.659H66.8375Z" fill="white"/>
<path d="M66.8375 100.535V104.659H70.9619V100.535H66.8375Z" fill="white"/>
<path d="M66.8375 96.4105V100.535H70.9619V96.4105H66.8375Z" fill="white"/>
<path d="M66.8375 88.1616V92.2861H70.9619V88.1616H66.8375Z" fill="white"/>
<path d="M66.8375 75.7882V79.9127H70.9619V75.7882H66.8375Z" fill="white"/>
<path d="M66.8375 67.5393V71.6638H70.9619V67.5393H66.8375Z" fill="white"/>
<path d="M66.8375 59.2904V63.4149H70.9619V59.2904H66.8375Z" fill="white"/>
<path d="M66.8375 55.166V59.2904H70.9619V55.166H66.8375Z" fill="white"/>
<path d="M66.8375 51.0415V55.166H70.9619V51.0415H66.8375Z" fill="white"/>
<path d="M66.8375 46.9171V51.0415H70.9619V46.9171H66.8375Z" fill="white"/>
<path d="M66.8375 26.2948L66.8375 30.4192H70.9619L70.9619 26.2948H66.8375Z" fill="white"/>
<path d="M66.8375 22.1703V26.2948H70.9619V22.1703H66.8375Z" fill="white"/>
<path d="M66.8375 18.0459V22.1703H70.9619V18.0459H66.8375Z" fill="white"/>
<path d="M66.8375 13.9214V18.0459H70.9619V13.9214H66.8375Z" fill="white"/>
<path d="M66.8375 5.67251V9.79697H70.9619V5.67251H66.8375Z" fill="white"/>
<path d="M66.8375 1.54806V5.67251H70.9619V1.54806H66.8375Z" fill="white"/>
<path d="M66.8375 -2.5764V1.54806H70.9619V-2.5764H66.8375Z" fill="white"/>
<path d="M66.8375 -6.70086V-2.5764H70.9619V-6.70086H66.8375Z" fill="white"/>
<path d="M70.9619 112.908V117.033H75.0864V112.908H70.9619Z" fill="white"/>
<path d="M70.9619 100.535V104.659H75.0864V100.535H70.9619Z" fill="white"/>
<path d="M70.9619 96.4105V100.535H75.0864V96.4105H70.9619Z" fill="white"/>
<path d="M70.9619 84.0371V88.1616H75.0864V84.0371H70.9619Z" fill="white"/>
<path d="M70.9619 79.9127V84.0371H75.0864V79.9127H70.9619Z" fill="white"/>
<path d="M70.9619 75.7882V79.9127H75.0864V75.7882H70.9619Z" fill="white"/>
<path d="M70.9619 63.4149V67.5393H75.0864V63.4149H70.9619Z" fill="white"/>
<path d="M70.9619 51.0415V55.166H75.0864V51.0415H70.9619Z" fill="white"/>
<path d="M70.9619 46.9171V51.0415H75.0864V46.9171H70.9619Z" fill="white"/>
<path d="M70.9619 42.7926V46.9171H75.0864V42.7926H70.9619Z" fill="white"/>
<path d="M70.9619 34.5437V38.6681H75.0864V34.5437H70.9619Z" fill="white"/>
<path d="M70.9619 30.4192V34.5437H75.0864V30.4192H70.9619Z" fill="white"/>
<path d="M70.9619 26.2948L70.9619 30.4192H75.0864L75.0864 26.2948L70.9619 26.2948Z" fill="white"/>
<path d="M70.9619 18.0459V22.1703L75.0864 22.1703V18.0459L70.9619 18.0459Z" fill="white"/>
<path d="M70.9619 9.79697V13.9214L75.0864 13.9214V9.79697L70.9619 9.79697Z" fill="white"/>
<path d="M70.9619 1.54806V5.67251L75.0864 5.6725V1.54806H70.9619Z" fill="white"/>
<path d="M70.9619 -2.5764V1.54806H75.0864V-2.5764H70.9619Z" fill="white"/>
<path d="M75.0864 104.659V108.784H79.2108V104.659H75.0864Z" fill="white"/>
<path d="M75.0864 92.2861V96.4105H79.2108V92.2861H75.0864Z" fill="white"/>
<path d="M75.0864 88.1616V92.2861H79.2108V88.1616H75.0864Z" fill="white"/>
<path d="M75.0864 84.0371V88.1616H79.2108V84.0371H75.0864Z" fill="white"/>
<path d="M75.0864 79.9127V84.0371H79.2108V79.9127H75.0864Z" fill="white"/>
<path d="M75.0864 71.6638V75.7882H79.2108V71.6638H75.0864Z" fill="white"/>
<path d="M75.0864 67.5393V71.6638H79.2108V67.5393H75.0864Z" fill="white"/>
<path d="M75.0864 63.4149V67.5393H79.2108V63.4149H75.0864Z" fill="white"/>
<path d="M75.0864 55.166V59.2904H79.2108V55.166H75.0864Z" fill="white"/>
<path d="M75.0864 42.7926V46.9171H79.2108V42.7926H75.0864Z" fill="white"/>
<path d="M75.0864 38.6681V42.7926H79.2108V38.6681H75.0864Z" fill="white"/>
<path d="M75.0864 13.9214V18.0459H79.2108V13.9214H75.0864Z" fill="white"/>
<path d="M75.0864 9.79697V13.9214H79.2108V9.79697H75.0864Z" fill="white"/>
<path d="M75.0864 5.6725V9.79697H79.2108V5.6725H75.0864Z" fill="white"/>
<path d="M75.0864 -2.5764V1.54806H79.2108V-2.5764H75.0864Z" fill="white"/>
<path d="M75.0864 -14.9498V-10.8253H79.2108V-14.9498L75.0864 -14.9498Z" fill="white"/>
<path d="M75.0864 -19.0742V-14.9498L79.2108 -14.9498V-19.0742L75.0864 -19.0742Z" fill="white"/>
<path d="M79.2108 108.784V112.908H83.3353V108.784H79.2108Z" fill="white"/>
<path d="M79.2108 100.535V104.659H83.3353V100.535H79.2108Z" fill="white"/>
<path d="M79.2108 92.2861V96.4105H83.3353V92.2861H79.2108Z" fill="white"/>
<path d="M79.2108 59.2904V63.4149H83.3353V59.2904H79.2108Z" fill="white"/>
<path d="M79.2108 55.166V59.2904H83.3353V55.166H79.2108Z" fill="white"/>
<path d="M79.2108 38.6681V42.7926H83.3353V38.6681H79.2108Z" fill="white"/>
<path d="M79.2108 22.1703V26.2948H83.3353V22.1703H79.2108Z" fill="white"/>
<path d="M79.2108 18.0459V22.1703H83.3353V18.0459H79.2108Z" fill="white"/>
<path d="M79.2108 9.79697V13.9214H83.3353V9.79697H79.2108Z" fill="white"/>
<path d="M79.2108 5.6725V9.79697H83.3353V5.6725H79.2108Z" fill="white"/>
<path d="M79.2108 -2.5764V1.54806H83.3353V-2.5764H79.2108Z" fill="white"/>
<path d="M79.2108 -6.70086V-2.5764H83.3353V-6.70086H79.2108Z" fill="white"/>
<path d="M79.2108 -14.9498V-10.8253L83.3353 -10.8253V-14.9498H79.2108Z" fill="white"/>
<path d="M83.3353 108.784V112.908H87.4597V108.784H83.3353Z" fill="white"/>
<path d="M83.3353 100.535V104.659H87.4597V100.535H83.3353Z" fill="white"/>
<path d="M83.3353 88.1616V92.2861H87.4597V88.1616H83.3353Z" fill="white"/>
<path d="M83.3353 79.9127V84.0371H87.4597V79.9127H83.3353Z" fill="white"/>
<path d="M83.3353 75.7882V79.9127H87.4597V75.7882H83.3353Z" fill="white"/>
<path d="M83.3353 71.6638V75.7882H87.4597V71.6638H83.3353Z" fill="white"/>
<path d="M83.3353 67.5393V71.6638H87.4597V67.5393H83.3353Z" fill="white"/>
<path d="M83.3353 55.166V59.2904H87.4597V55.166H83.3353Z" fill="white"/>
<path d="M83.3353 51.0415V55.166H87.4597V51.0415H83.3353Z" fill="white"/>
<path d="M83.3353 38.6681V42.7926H87.4597V38.6681H83.3353Z" fill="white"/>
<path d="M83.3353 30.4192V34.5437H87.4597V30.4192H83.3353Z" fill="white"/>
<path d="M83.3353 18.0459V22.1703H87.4597V18.0459H83.3353Z" fill="white"/>
<path d="M83.3353 13.9214V18.0459H87.4597V13.9214H83.3353Z" fill="white"/>
<path d="M83.3353 9.79697V13.9214H87.4597V9.79697H83.3353Z" fill="white"/>
<path d="M83.3353 -2.5764V1.54806H87.4597V-2.5764H83.3353Z" fill="white"/>
<path d="M83.3353 -14.9498V-10.8253H87.4597V-14.9498L83.3353 -14.9498Z" fill="white"/>
<path d="M83.3353 -19.0742V-14.9498L87.4597 -14.9498V-19.0742L83.3353 -19.0742Z" fill="white"/>
<path d="M87.4597 112.908V117.033H91.5842V112.908H87.4597Z" fill="white"/>
<path d="M87.4597 100.535V104.659H91.5842V100.535H87.4597Z" fill="white"/>
<path d="M87.4597 75.7882V79.9127H91.5842V75.7882H87.4597Z" fill="white"/>
<path d="M87.4597 71.6638V75.7882H91.5842V71.6638H87.4597Z" fill="white"/>
<path d="M87.4597 67.5393V71.6638H91.5842V67.5393H87.4597Z" fill="white"/>
<path d="M87.4597 63.4149V67.5393H91.5842V63.4149H87.4597Z" fill="white"/>
<path d="M87.4597 55.166V59.2904H91.5842V55.166H87.4597Z" fill="white"/>
<path d="M87.4597 51.0415V55.166H91.5842V51.0415H87.4597Z" fill="white"/>
<path d="M87.4597 46.9171V51.0415H91.5842V46.9171H87.4597Z" fill="white"/>
<path d="M87.4597 30.4192V34.5437H91.5842V30.4192H87.4597Z" fill="white"/>
<path d="M87.4597 18.0459V22.1703H91.5842V18.0459H87.4597Z" fill="white"/>
<path d="M87.4597 13.9214V18.0459H91.5842V13.9214H87.4597Z" fill="white"/>
<path d="M87.4597 9.79697V13.9214H91.5842V9.79697H87.4597Z" fill="white"/>
<path d="M87.4597 1.54806V5.6725H91.5842V1.54806L87.4597 1.54806Z" fill="white"/>
<path d="M87.4597 -2.5764V1.54806L91.5842 1.54806V-2.57641L87.4597 -2.5764Z" fill="white"/>
<path d="M87.4597 -6.70086V-2.5764L91.5842 -2.57641V-6.70086L87.4597 -6.70086Z" fill="white"/>
<path d="M91.5842 104.659V108.784H95.7086V104.659H91.5842Z" fill="white"/>
<path d="M91.5842 100.535V104.659H95.7086V100.535H91.5842Z" fill="white"/>
<path d="M91.5842 96.4105V100.535H95.7086V96.4105H91.5842Z" fill="white"/>
<path d="M91.5842 92.2861V96.4105H95.7086V92.2861H91.5842Z" fill="white"/>
<path d="M91.5842 88.1616V92.2861H95.7086V88.1616H91.5842Z" fill="white"/>
<path d="M91.5842 84.0371V88.1616H95.7086V84.0371H91.5842Z" fill="white"/>
<path d="M91.5842 79.9127V84.0371H95.7086V79.9127H91.5842Z" fill="white"/>
<path d="M91.5842 71.6638V75.7882H95.7086V71.6638H91.5842Z" fill="white"/>
<path d="M91.5842 59.2904V63.4149H95.7086V59.2904H91.5842Z" fill="white"/>
<path d="M91.5842 55.166V59.2904H95.7086V55.166H91.5842Z" fill="white"/>
<path d="M91.5842 51.0415V55.166H95.7086V51.0415H91.5842Z" fill="white"/>
<path d="M91.5842 42.7926V46.9171H95.7086V42.7926H91.5842Z" fill="white"/>
<path d="M91.5842 34.5437V38.6681H95.7086V34.5437H91.5842Z" fill="white"/>
<path d="M91.5842 22.1703V26.2948H95.7086V22.1703H91.5842Z" fill="white"/>
<path d="M91.5842 18.0459V22.1703H95.7086V18.0459H91.5842Z" fill="white"/>
<path d="M91.5842 9.79697V13.9214H95.7086V9.79697H91.5842Z" fill="white"/>
<path d="M91.5842 1.54806V5.6725H95.7086V1.54806H91.5842Z" fill="white"/>
<path d="M91.5842 -2.57641V1.54806H95.7086V-2.57641H91.5842Z" fill="white"/>
<path d="M91.5842 -19.0742V-14.9498H95.7086V-19.0742L91.5842 -19.0742Z" fill="white"/>
<path d="M95.7086 108.784V112.908H99.8331V108.784H95.7086Z" fill="white"/>
<path d="M95.7086 104.659V108.784H99.8331V104.659H95.7086Z" fill="white"/>
<path d="M95.7086 100.535V104.659H99.8331V100.535H95.7086Z" fill="white"/>
<path d="M95.7086 96.4105V100.535H99.8331V96.4105H95.7086Z" fill="white"/>
<path d="M95.7086 92.2861V96.4105H99.8331L99.8331 92.2861H95.7086Z" fill="white"/>
<path d="M95.7086 84.0371V88.1616H99.8331V84.0371H95.7086Z" fill="white"/>
<path d="M95.7086 79.9127V84.0371H99.8331V79.9127H95.7086Z" fill="white"/>
<path d="M95.7086 67.5393V71.6638H99.8331V67.5393H95.7086Z" fill="white"/>
<path d="M95.7086 51.0415V55.166H99.8331V51.0415H95.7086Z" fill="white"/>
<path d="M95.7086 42.7926V46.9171H99.8331V42.7926H95.7086Z" fill="white"/>
<path d="M95.7086 38.6681V42.7926H99.8331V38.6681H95.7086Z" fill="white"/>
<path d="M95.7086 30.4192V34.5437H99.8331V30.4192H95.7086Z" fill="white"/>
<path d="M99.8331 112.908V117.033H103.958V112.908H99.8331Z" fill="white"/>
<path d="M99.8331 104.659V108.784H103.958V104.659H99.8331Z" fill="white"/>
<path d="M99.8331 100.535V104.659H103.958V100.535H99.8331Z" fill="white"/>
<path d="M99.8331 96.4105V100.535H103.958V96.4105H99.8331Z" fill="white"/>
<path d="M99.8331 88.1616V92.2861H103.958V88.1616H99.8331Z" fill="white"/>
<path d="M99.8331 84.0371V88.1616H103.958V84.0371H99.8331Z" fill="white"/>
<path d="M99.8331 75.7882V79.9127H103.958V75.7882H99.8331Z" fill="white"/>
<path d="M99.8331 71.6638V75.7882H103.958V71.6638H99.8331Z" fill="white"/>
<path d="M99.8331 42.7926V46.9171H103.958V42.7926H99.8331Z" fill="white"/>
<path d="M99.8331 38.6681V42.7926H103.958V38.6681H99.8331Z" fill="white"/>
<path d="M99.8331 30.4192V34.5437H103.958V30.4192H99.8331Z" fill="white"/>
<path d="M99.8331 26.2948V30.4192H103.958V26.2948H99.8331Z" fill="white"/>
<path d="M99.8331 18.0459V22.1703H103.958V18.0459H99.8331Z" fill="white"/>
<path d="M99.8331 13.9214V18.0459H103.958V13.9214H99.8331Z" fill="white"/>
<path d="M99.8331 9.79697V13.9214H103.958V9.79697H99.8331Z" fill="white"/>
<path d="M99.8331 5.6725V9.79697H103.958V5.6725H99.8331Z" fill="white"/>
<path d="M99.8331 1.54806V5.6725H103.958V1.54806H99.8331Z" fill="white"/>
<path d="M99.8331 -2.57641V1.54806H103.958V-2.57641H99.8331Z" fill="white"/>
<path d="M99.8331 -10.8253V-6.70086H103.958V-10.8253H99.8331Z" fill="white"/>
<path d="M99.8331 -14.9498V-10.8253H103.958V-14.9498L99.8331 -14.9498Z" fill="white"/>
<path d="M99.8331 -19.0742V-14.9498L103.958 -14.9498V-19.0742L99.8331 -19.0742Z" fill="white"/>
<path d="M103.958 79.9127V84.0371H108.082V79.9127H103.958Z" fill="white"/>
<path d="M103.958 71.6638V75.7882L108.082 75.7882V71.6638H103.958Z" fill="white"/>
<path d="M103.958 59.2904V63.4149H108.082V59.2904H103.958Z" fill="white"/>
<path d="M103.958 55.166V59.2904H108.082V55.166H103.958Z" fill="white"/>
<path d="M103.958 51.0415V55.166H108.082V51.0415H103.958Z" fill="white"/>
<path d="M103.958 46.9171V51.0415H108.082V46.9171H103.958Z" fill="white"/>
<path d="M103.958 42.7926V46.9171H108.082V42.7926H103.958Z" fill="white"/>
<path d="M103.958 34.5437V38.6681H108.082V34.5437H103.958Z" fill="white"/>
<path d="M103.958 18.0459V22.1703H108.082V18.0459H103.958Z" fill="white"/>
<path d="M103.958 13.9214V18.0459H108.082V13.9214H103.958Z" fill="white"/>
<path d="M103.958 -2.57641V1.54806H108.082V-2.57641H103.958Z" fill="white"/>
<path d="M103.958 -10.8253V-6.70086H108.082V-10.8253H103.958Z" fill="white"/>
<path d="M103.958 -14.9498V-10.8253H108.082V-14.9498H103.958Z" fill="white"/>
<path d="M103.958 -19.0742V-14.9498H108.082V-19.0742L103.958 -19.0742Z" fill="white"/>
<path d="M108.082 112.908V117.033H112.206V112.908H108.082Z" fill="white"/>
<path d="M108.082 108.784V112.908H112.206V108.784H108.082Z" fill="white"/>
<path d="M108.082 104.659V108.784H112.206V104.659H108.082Z" fill="white"/>
<path d="M108.082 100.535V104.659H112.206V100.535L108.082 100.535Z" fill="white"/>
<path d="M108.082 96.4105V100.535L112.206 100.535V96.4105H108.082Z" fill="white"/>
<path d="M108.082 92.2861L108.082 96.4105H112.206L112.206 92.2861H108.082Z" fill="white"/>
<path d="M108.082 88.1616V92.2861H112.206V88.1616H108.082Z" fill="white"/>
<path d="M108.082 79.9127V84.0371H112.206V79.9127L108.082 79.9127Z" fill="white"/>
<path d="M108.082 75.7882V79.9127L112.206 79.9127V75.7882H108.082Z" fill="white"/>
<path d="M108.082 71.6638V75.7882H112.206V71.6638L108.082 71.6638Z" fill="white"/>
<path d="M108.082 59.2904V63.4149H112.206V59.2904H108.082Z" fill="white"/>
<path d="M108.082 46.9171V51.0415H112.206V46.9171H108.082Z" fill="white"/>
<path d="M108.082 42.7926V46.9171H112.206V42.7926H108.082Z" fill="white"/>
<path d="M108.082 38.6681V42.7926H112.206V38.6681H108.082Z" fill="white"/>
<path d="M108.082 34.5437V38.6681H112.206V34.5437H108.082Z" fill="white"/>
<path d="M108.082 30.4192V34.5437H112.206V30.4192H108.082Z" fill="white"/>
<path d="M108.082 22.1703V26.2948H112.206V22.1703H108.082Z" fill="white"/>
<path d="M108.082 13.9214V18.0459H112.206V13.9214H108.082Z" fill="white"/>
<path d="M108.082 5.6725V9.79697H112.206V5.6725H108.082Z" fill="white"/>
<path d="M108.082 -2.57641V1.54806H112.206V-2.57641H108.082Z" fill="white"/>
<path d="M108.082 -6.70086V-2.57641H112.206V-6.70086H108.082Z" fill="white"/>
<path d="M108.082 -14.9498V-10.8253H112.206V-14.9498H108.082Z" fill="white"/>
<path d="M112.206 112.908V117.033H116.331V112.908H112.206Z" fill="white"/>
<path d="M112.206 88.1616V92.2861H116.331V88.1616H112.206Z" fill="white"/>
<path d="M112.206 75.7882V79.9127H116.331V75.7882H112.206Z" fill="white"/>
<path d="M112.206 67.5393V71.6638H116.331V67.5393H112.206Z" fill="white"/>
<path d="M112.206 63.4149V67.5393H116.331V63.4149H112.206Z" fill="white"/>
<path d="M112.206 59.2904V63.4149H116.331V59.2904H112.206Z" fill="white"/>
<path d="M112.206 55.166V59.2904H116.331V55.166H112.206Z" fill="white"/>
<path d="M112.206 51.0415V55.166H116.331V51.0415H112.206Z" fill="white"/>
<path d="M112.206 46.9171V51.0415H116.331V46.9171H112.206Z" fill="white"/>
<path d="M112.206 34.5437V38.6681H116.331V34.5437H112.206Z" fill="white"/>
<path d="M112.206 26.2948V30.4192H116.331V26.2948H112.206Z" fill="white"/>
<path d="M112.206 13.9214V18.0459H116.331V13.9214H112.206Z" fill="white"/>
<path d="M112.206 -2.57641V1.54806H116.331V-2.57641H112.206Z" fill="white"/>
<path d="M112.206 -10.8253V-6.70086H116.331V-10.8253H112.206Z" fill="white"/>
<path d="M112.206 -14.9498V-10.8253H116.331V-14.9498L112.206 -14.9498Z" fill="white"/>
<path d="M116.331 112.908V117.033H120.455V112.908H116.331Z" fill="white"/>
<path d="M116.331 104.659V108.784H120.455V104.659H116.331Z" fill="white"/>
<path d="M116.331 100.535V104.659H120.455V100.535H116.331Z" fill="white"/>
<path d="M116.331 96.4105V100.535H120.455V96.4105H116.331Z" fill="white"/>
<path d="M116.331 88.1616V92.2861H120.455V88.1616H116.331Z" fill="white"/>
<path d="M116.331 75.7882V79.9127H120.455V75.7882H116.331Z" fill="white"/>
<path d="M116.331 71.6638V75.7882H120.455V71.6638H116.331Z" fill="white"/>
<path d="M116.331 67.5393V71.6638H120.455V67.5393H116.331Z" fill="white"/>
<path d="M116.331 63.4149V67.5393H120.455V63.4149H116.331Z" fill="white"/>
<path d="M116.331 55.166V59.2904H120.455V55.166H116.331Z" fill="white"/>
<path d="M116.331 46.9171V51.0415H120.455V46.9171H116.331Z" fill="white"/>
<path d="M116.331 18.0459V22.1703H120.455V18.0459H116.331Z" fill="white"/>
<path d="M116.331 13.9214V18.0459H120.455V13.9214H116.331Z" fill="white"/>
<path d="M116.331 9.79697V13.9214H120.455V9.79697H116.331Z" fill="white"/>
<path d="M116.331 5.6725V9.79697H120.455V5.6725H116.331Z" fill="white"/>
<path d="M116.331 1.54806V5.6725H120.455V1.54806H116.331Z" fill="white"/>
<path d="M116.331 -2.57641V1.54806H120.455V-2.57641H116.331Z" fill="white"/>
<path d="M116.331 -6.70086V-2.57641H120.455V-6.70086H116.331Z" fill="white"/>
<path d="M116.331 -14.9498V-10.8253L120.455 -10.8253V-14.9498H116.331Z" fill="white"/>
<path d="M120.455 112.908V117.033H124.58V112.908H120.455Z" fill="white"/>
<path d="M120.455 104.659V108.784H124.58V104.659H120.455Z" fill="white"/>
<path d="M120.455 100.535V104.659H124.58V100.535H120.455Z" fill="white"/>
<path d="M120.455 96.4105V100.535H124.58V96.4105H120.455Z" fill="white"/>
<path d="M120.455 88.1616V92.2861H124.58V88.1616H120.455Z" fill="white"/>
<path d="M120.455 79.9127V84.0371H124.58V79.9127H120.455Z" fill="white"/>
<path d="M120.455 67.5393V71.6638H124.58V67.5393H120.455Z" fill="white"/>
<path d="M120.455 63.4149V67.5393H124.58V63.4149H120.455Z" fill="white"/>
<path d="M120.455 59.2904V63.4149H124.58V59.2904H120.455Z" fill="white"/>
<path d="M120.455 51.0415V55.166H124.58V51.0415H120.455Z" fill="white"/>
<path d="M120.455 38.6681V42.7926H124.58V38.6681H120.455Z" fill="white"/>
<path d="M120.455 34.5437V38.6681H124.58V34.5437H120.455Z" fill="white"/>
<path d="M120.455 30.4192V34.5437H124.58V30.4192H120.455Z" fill="white"/>
<path d="M120.455 22.1703V26.2948H124.58V22.1703H120.455Z" fill="white"/>
<path d="M120.455 18.0459V22.1703H124.58V18.0459H120.455Z" fill="white"/>
<path d="M120.455 13.9214V18.0459H124.58V13.9214H120.455Z" fill="white"/>
<path d="M120.455 9.79697V13.9214H124.58V9.79697H120.455Z" fill="white"/>
<path d="M120.455 -2.57641V1.54806H124.58V-2.57641H120.455Z" fill="white"/>
<path d="M120.455 -6.70086V-2.57641H124.58V-6.70086H120.455Z" fill="white"/>
<path d="M120.455 -10.8253V-6.70086H124.58V-10.8253H120.455Z" fill="white"/>
<path d="M124.58 112.908V117.033H128.704V112.908H124.58Z" fill="white"/>
<path d="M124.58 104.659V108.784H128.704V104.659H124.58Z" fill="white"/>
<path d="M124.58 100.535V104.659H128.704V100.535H124.58Z" fill="white"/>
<path d="M124.58 96.4105V100.535H128.704V96.4105H124.58Z" fill="white"/>
<path d="M124.58 88.1616V92.2861H128.704V88.1616H124.58Z" fill="white"/>
<path d="M124.58 79.9127V84.0371H128.704V79.9127H124.58Z" fill="white"/>
<path d="M124.58 71.6638V75.7882H128.704V71.6638H124.58Z" fill="white"/>
<path d="M124.58 67.5393V71.6638H128.704V67.5393H124.58Z" fill="white"/>
<path d="M124.58 51.0415V55.166H128.704V51.0415H124.58Z" fill="white"/>
<path d="M124.58 46.9171V51.0415H128.704V46.9171H124.58Z" fill="white"/>
<path d="M124.58 30.4192V34.5437H128.704V30.4192H124.58Z" fill="white"/>
<path d="M124.58 26.2948V30.4192H128.704V26.2948H124.58Z" fill="white"/>
<path d="M124.58 22.1703V26.2948H128.704V22.1703H124.58Z" fill="white"/>
<path d="M124.58 9.79697V13.9214H128.704V9.79697H124.58Z" fill="white"/>
<path d="M124.58 1.54806V5.6725H128.704V1.54805L124.58 1.54806Z" fill="white"/>
<path d="M124.58 -6.70086V-2.57641L128.704 -2.57641V-6.70086L124.58 -6.70086Z" fill="white"/>
<path d="M124.58 -10.8253V-6.70086L128.704 -6.70086V-10.8253H124.58Z" fill="white"/>
<path d="M128.704 112.908V117.033H132.829V112.908H128.704Z" fill="white"/>
<path d="M128.704 88.1616V92.2861H132.829V88.1616H128.704Z" fill="white"/>
<path d="M128.704 75.7882V79.9127H132.829V75.7882H128.704Z" fill="white"/>
<path d="M128.704 71.6638V75.7882H132.829V71.6638H128.704Z" fill="white"/>
<path d="M128.704 67.5393V71.6638H132.829V67.5393H128.704Z" fill="white"/>
<path d="M128.704 63.4149V67.5393H132.829V63.4149H128.704Z" fill="white"/>
<path d="M128.704 46.9171V51.0415H132.829V46.9171H128.704Z" fill="white"/>
<path d="M128.704 38.6681V42.7926H132.829V38.6681H128.704Z" fill="white"/>
<path d="M128.704 34.5437V38.6681H132.829V34.5437H128.704Z" fill="white"/>
<path d="M128.704 30.4192V34.5437H132.829V30.4192H128.704Z" fill="white"/>
<path d="M128.704 22.1703V26.2948H132.829V22.1703H128.704Z" fill="white"/>
<path d="M128.704 1.54805V5.6725H132.829V1.54805H128.704Z" fill="white"/>
<path d="M128.704 -6.70086V-2.57641H132.829V-6.70086H128.704Z" fill="white"/>
<path d="M128.704 -14.9498V-10.8253H132.829V-14.9498H128.704Z" fill="white"/>
<path d="M132.829 112.908V117.033H136.953V112.908H132.829Z" fill="white"/>
<path d="M132.829 108.784V112.908H136.953V108.784H132.829Z" fill="white"/>
<path d="M132.829 104.659V108.784H136.953V104.659H132.829Z" fill="white"/>
<path d="M132.829 100.535V104.659H136.953V100.535H132.829Z" fill="white"/>
<path d="M132.829 96.4105V100.535H136.953V96.4105H132.829Z" fill="white"/>
<path d="M132.829 92.2861L132.829 96.4105H136.953L136.953 92.2861H132.829Z" fill="white"/>
<path d="M132.829 88.1616V92.2861H136.953V88.1616H132.829Z" fill="white"/>
<path d="M132.829 67.5393V71.6638H136.953V67.5393H132.829Z" fill="white"/>
<path d="M132.829 51.0415V55.166H136.953V51.0415H132.829Z" fill="white"/>
<path d="M132.829 38.6681V42.7926H136.953V38.6681H132.829Z" fill="white"/>
<path d="M132.829 34.5437V38.6681H136.953V34.5437H132.829Z" fill="white"/>
<path d="M132.829 26.2948V30.4192H136.953V26.2948H132.829Z" fill="white"/>
<path d="M132.829 13.9214V18.0459H136.953V13.9214H132.829Z" fill="white"/>
<path d="M132.829 5.6725V9.79697H136.953V5.6725H132.829Z" fill="white"/>
<path d="M132.829 1.54805V5.6725H136.953V1.54805H132.829Z" fill="white"/>
<path d="M132.829 -6.70086V-2.57641H136.953V-6.70086H132.829Z" fill="white"/>
</g>
</svg>
