<svg width="300" height="118" viewBox="0 0 300 118" fill="none" xmlns="http://www.w3.org/2000/svg">
<mask id="mask0_1105_7810" style="mask-type:alpha" maskUnits="userSpaceOnUse" x="0" y="0" width="300" height="118">
<rect width="300" height="118" fill="#1A1A1A"/>
</mask>
<g mask="url(#mask0_1105_7810)">
<g clip-path="url(#clip0_1105_7810)">
<path d="M81.19 52.9301C86.5233 54.7768 90.9833 53.4034 94.57 48.8101C95.0836 48.1405 95.5386 47.4278 95.93 46.6801L97.37 47.8001C96.3298 50.2891 94.9863 52.6402 93.37 54.8001C88.47 61.0934 82.2733 63.2068 74.78 61.1401C72.3443 63.2609 69.4313 64.7603 66.29 65.5101C63.2833 66.2081 60.1567 66.2081 57.15 65.5101C53.9313 64.7303 50.9236 63.252 48.34 61.1801C45.2399 58.864 42.8217 55.7549 41.34 52.1801C39.9688 48.8472 39.5064 45.2101 40 41.6401C40.5965 37.7984 42.2049 34.1846 44.66 31.1701C46.3138 28.8744 48.4227 26.944 50.8554 25.4992C53.288 24.0544 55.9922 23.1262 58.7994 22.7724C61.6065 22.4187 64.4565 22.6471 67.1715 23.4433C69.8865 24.2395 72.4084 25.5864 74.58 27.4001C78.5274 30.3799 81.3476 34.6103 82.58 39.4001C83.8932 43.9193 83.3947 48.7723 81.19 52.9301ZM46.46 32.6101C42.0867 38.2034 44.9333 44.9268 55 52.7801C65.0667 60.6334 72.2733 61.7301 76.62 56.0701C81 50.4368 78.3333 43.8501 68.62 36.3101C58.2067 28.2101 50.82 26.9768 46.46 32.6101Z" fill="white"/>
<path d="M130.71 52.8201L130 53.3401C129.773 53.0358 129.484 52.7843 129.15 52.603C128.817 52.4217 128.449 52.315 128.07 52.2901C126.421 52.4376 124.793 52.7731 123.22 53.2901L96.1 60.9101L95.57 60.1901L107.57 41.7101L85.89 47.0001L85.38 46.3001L102.38 19.2301C102.687 18.6852 102.848 18.0704 102.848 17.4451C102.848 16.8198 102.687 16.2051 102.38 15.6601L103.09 15.1401L111.15 26.1401L110.44 26.6601C109.32 25.2135 108.337 24.7968 107.49 25.4101C106.544 26.3455 105.739 27.4133 105.1 28.5801L96.24 42.7201L109 39.5501L111 36.5001C111.99 35.1471 112.766 33.6495 113.3 32.0601C113.355 31.5178 113.294 30.9701 113.121 30.453C112.949 29.9359 112.669 29.4612 112.3 29.0601L113.01 28.5401L122.01 40.8501L121.3 41.3701C119.967 39.5901 118.853 39.0235 117.96 39.6701C117.166 40.5217 116.471 41.4611 115.89 42.4701L107 56.0801L121.09 52.1301C122.562 51.8042 123.977 51.2616 125.29 50.5201C126.397 49.7134 126.35 48.4534 125.15 46.7401L125.86 46.2201L130.71 52.8201Z" fill="white"/>
<path d="M94.8 21.8401L84.4 15.0601L84.08 15.55C82.2334 18.3767 83.19 21.3034 86.95 24.33L86.49 25.0301L73.13 16.3201L73.59 15.6201C75.95 16.8401 77.8267 17.3267 79.22 17.08C80.0181 16.8785 80.7654 16.513 81.4145 16.0068C82.0635 15.5007 82.6001 14.8649 82.99 14.1401L75.8 9.45006C74.0534 8.31006 72.8834 7.82006 72.29 7.98006C71.6967 8.14006 70.8034 9.14006 69.61 10.9801C66.63 15.5467 66.9634 19.9001 70.61 24.0401L70.16 24.7301L62.79 18.3L77 -3.43994L77.7 -2.97993L77.15 -2.13994C76.43 -1.03327 76.2034 -0.146601 76.47 0.520065C77.0952 1.54791 77.9866 2.38755 79.05 2.95006L95.84 13.9501C96.5597 14.4403 97.3077 14.8878 98.08 15.2901C98.3248 15.3903 98.5885 15.4359 98.8528 15.4238C99.117 15.4117 99.3754 15.3422 99.61 15.2201C100.301 14.8677 100.874 14.3222 101.26 13.6501L101.81 12.8101L102.51 13.2701L88.79 34.2701L81.25 29.3501L81.71 28.6501C84.0434 29.6101 85.87 29.9434 87.19 29.6501C88.3635 29.4204 89.4504 28.87 90.33 28.0601C91.3795 26.9601 92.3112 25.7535 93.11 24.4601L94.8 21.8401Z" fill="white"/>
<path d="M106.69 23.1601L124.14 23.0101L146.53 53.8501C148.16 53.7601 149.53 53.7201 150.53 53.7101C151.06 53.7101 152.02 53.7101 153.38 53.7901L153.22 34.5201C153.18 30.1201 152.553 27.3701 151.34 26.2701C149.941 25.1122 148.152 24.5327 146.34 24.6501H143.78V22.8301L171.78 22.5901V24.4101H169.3C166.6 24.4101 164.773 25.1368 163.82 26.5901C162.867 28.0434 162.407 30.6468 162.44 34.4001L162.8 77.2501C162.84 81.6501 163.473 84.4001 164.7 85.5001C166.141 86.6735 167.976 87.2528 169.83 87.1201H172.31V89.0001L148.5 89.2001C143.782 89.3473 139.06 89.0123 134.41 88.2001C130.806 87.4317 127.551 85.5076 125.14 82.7201C122.547 79.8995 121.118 76.2016 121.14 72.3701C121.067 63.4768 126.4 57.7734 137.14 55.2601L123.47 36.3601C120.07 31.6934 117.19 28.6934 114.83 27.3601C112.331 26.0296 109.583 25.2328 106.76 25.0201L106.69 23.1601ZM153.62 84.4901L153.39 56.8701H150.69C144.897 56.9568 140.333 58.2701 137 60.8101C135.346 62.0567 134.025 63.6914 133.153 65.5697C132.281 67.4481 131.885 69.5123 132 71.5801C132.04 76.3467 133.49 79.8634 136.35 82.1301C139.108 84.3597 142.564 85.5459 146.11 85.4801C148.649 85.522 151.18 85.1849 153.62 84.4801V84.4901Z" fill="white"/>
<path d="M161.72 25.0002L170.06 23.7202L170.18 24.5202C168.736 25.0744 167.407 25.8916 166.26 26.9302C165.47 27.5925 164.899 28.4778 164.62 29.4702C164.477 30.4668 164.497 31.4801 164.68 32.4702L165.03 34.7302L188.82 31.0902C189.684 30.9815 190.54 30.811 191.38 30.5802C191.641 30.4809 191.878 30.3281 192.076 30.1318C192.274 29.9355 192.428 29.6999 192.53 29.4402C192.831 28.7018 192.904 27.8904 192.74 27.1102L192.58 26.1102L193.42 25.9802L195.85 41.8802L195 42.0002L194.85 41.0002C194.798 40.2769 194.541 39.5834 194.11 39.0002C193.8 38.6392 193.4 38.3667 192.95 38.2102C191.948 38.0902 190.933 38.1443 189.95 38.3702L166.16 42.0102L166.5 44.2002C166.635 45.3227 166.992 46.4071 167.55 47.3902C168.153 48.2989 169.023 48.9977 170.04 49.3902C171.333 49.9227 172.723 50.1782 174.12 50.1402L174.25 50.9902L165.91 52.2702L161.72 25.0002Z" fill="white"/>
<path d="M125.63 54.6001L126 55.9301C124.864 56.365 123.839 57.0483 123 57.9301C122.213 58.7968 121.047 62.1701 119.5 68.0501L114.09 88.5001L117.38 100.22C117.727 101.582 118.168 102.919 118.7 104.22C118.903 104.617 119.186 104.968 119.53 105.252C119.873 105.536 120.272 105.746 120.7 105.87C121.878 106.223 123.137 106.199 124.3 105.8L126.99 105.04L127.36 106.37L100.57 113.91L100.2 112.58L102.71 111.87C103.862 111.64 104.924 111.085 105.77 110.27C106.268 109.699 106.612 109.011 106.77 108.27C106.903 107.603 106.617 106.007 105.91 103.48L103.18 93.7701L86.12 76.1701C84.2513 74.0873 82.1624 72.213 79.89 70.5801C79.2089 70.21 78.4599 69.982 77.6881 69.9098C76.9163 69.8376 76.1379 69.9228 75.4 70.1601L75.03 68.8301L97.9 62.4001L98.27 63.7301L97.27 64.0101C94.7834 64.7101 93.7167 65.6901 94.07 66.9501C94.31 67.8034 95.85 69.6968 98.69 72.6301L111.83 86.2201L116.31 69.2201C117.423 64.9934 117.823 62.3268 117.51 61.2201C117.063 59.6334 115.037 59.2401 111.43 60.0401L111 58.7001L125.63 54.6001Z" fill="white"/>
<path d="M134.9 115.58C133.97 116.86 132.54 115.02 133.29 113.86C136.397 109.06 136.653 104.27 134.06 99.4901C133.347 98.1567 132.633 97.6967 131.92 98.1101C131.226 98.7337 130.638 99.4667 130.18 100.28C129.777 100.881 129.23 101.373 128.59 101.71C125.223 103.537 122.593 102.703 120.7 99.2101C120.268 98.4471 120.008 97.5987 119.939 96.7245C119.869 95.8502 119.993 94.9715 120.3 94.1501C120.872 92.4262 122.091 90.9918 123.7 90.1501C124.85 89.4896 126.152 89.1378 127.478 89.1291C128.805 89.1203 130.111 89.4548 131.27 90.1001C133.791 91.3685 135.856 93.3881 137.18 95.8801C140.587 102.187 139.827 108.753 134.9 115.58Z" fill="white"/>
<path d="M157.82 129.2V130.28H137.51V129.2H138.81C140.517 129.2 141.637 128.817 142.17 128.05C142.703 127.283 142.97 125.777 142.97 123.53V97.5301C142.997 96.4343 142.943 95.338 142.81 94.2501C142.735 93.9082 142.592 93.585 142.389 93.2997C142.187 93.0145 141.928 92.7731 141.63 92.5901C140.785 92.0705 139.801 91.8227 138.81 91.8801H137.51V90.8H157.82V91.8801H156.54C154.807 91.8801 153.67 92.2667 153.13 93.0401C152.59 93.8134 152.323 95.3167 152.33 97.55V123.55C152.304 124.649 152.354 125.748 152.48 126.84C152.554 127.182 152.698 127.505 152.903 127.789C153.107 128.073 153.369 128.312 153.67 128.49C154.532 129.014 155.533 129.265 156.54 129.21L157.82 129.2Z" fill="white"/>
<path d="M171.79 93.5901L177 82.2701L174.45 79.4601C173.809 78.6927 173.024 78.0575 172.14 77.5901C171.832 77.4366 171.497 77.3461 171.153 77.3238C170.81 77.3015 170.465 77.3478 170.14 77.4601C169.473 77.6867 168.637 78.7401 167.63 80.6201L166.74 80.2101L171.66 69.5801L172.55 69.9901C172.193 71.174 172.268 72.4459 172.76 73.5801C173.709 75.3798 174.907 77.0363 176.32 78.5001L196.94 101.93L196.73 102.38L164.73 101.58C162.879 101.452 161.02 101.57 159.2 101.93C158.684 102.084 158.205 102.341 157.791 102.684C157.377 103.028 157.037 103.452 156.79 103.93L155.9 103.52L163.06 88.0401L163.95 88.4501L163.65 89.0901C162.69 91.1768 162.753 92.4701 163.84 92.9701C164.835 93.2537 165.866 93.3852 166.9 93.3601L171.79 93.5901ZM173.92 93.5901L187.33 94.0001L178.4 83.9201L173.92 93.5901Z" fill="white"/>
<path d="M191.19 58.2401C197.323 54.2401 202.17 54.0035 205.73 57.5301C206.842 58.5931 207.663 59.9233 208.115 61.3939C208.567 62.8644 208.634 64.4262 208.31 65.9301C207.743 69.2635 205.703 72.7035 202.19 76.2501L188.56 90.0001L187.81 89.2602C188.575 88.5328 189.219 87.689 189.72 86.7602C190.065 86.1543 190.182 85.4448 190.05 84.7602C189.89 84.1535 189.03 83.0735 187.47 81.5201L169.66 63.8501C168.856 62.997 167.972 62.2234 167.02 61.5402C166.72 61.3675 166.389 61.2564 166.045 61.2135C165.702 61.1705 165.353 61.1966 165.02 61.2902C163.795 61.7739 162.712 62.558 161.87 63.5702L161.12 62.8202L173.97 49.8201C175.739 47.9599 177.692 46.2846 179.8 44.8201C181.576 43.6641 183.689 43.1393 185.8 43.3301C187.959 43.4423 189.998 44.3551 191.52 45.8902C194.427 48.7835 194.317 52.9001 191.19 58.2401ZM183.43 65.0001C188.03 60.3335 188.513 56.2101 184.88 52.6301C183.53 51.22 181.707 50.3582 179.76 50.2101C177.833 50.0768 175.457 51.4368 172.63 54.2902L183.43 65.0001ZM185.01 66.5702L194.81 76.2602C196.283 77.7602 197.737 77.7868 199.17 76.3401C199.989 75.6047 200.638 74.6993 201.072 73.6872C201.505 72.6752 201.713 71.5807 201.68 70.4802C201.541 68.3237 200.582 66.3021 199 64.8301C196.907 62.7568 194.777 61.7935 192.61 61.9401C190.443 62.0868 187.907 63.6135 185 66.5201L185.01 66.5702Z" fill="white"/>
<path d="M225.24 58.56L239.43 79.91C240.768 82.0475 242.301 84.0561 244.01 85.91C245.105 86.9382 246.514 87.5686 248.01 87.7V89.13H222.92V87.7C226.08 87.47 227.66 86.59 227.66 85.08C227.66 84.24 226.693 82.3933 224.76 79.54L217.23 68.28L209.38 78C207.027 80.92 205.847 82.92 205.84 84C205.84 86.4667 208.13 87.7 212.71 87.7V89.13H192.94V87.7C194.766 87.4604 196.529 86.8695 198.13 85.96C199.617 85.1 202.027 82.5967 205.36 78.45L215.56 65.82L202.49 46.3C201.223 44.4333 200.04 42.7167 198.94 41.15C198.373 40.3642 197.646 39.7075 196.806 39.2231C195.967 38.7388 195.034 38.4378 194.07 38.34V37H219.58V38.43H218.29C215.53 38.43 214.15 39.3067 214.15 41.06C214.15 41.4867 214.983 42.9833 216.65 45.55L223.65 56.26L229.08 49.52C231.86 46.08 233.25 43.6567 233.25 42.25C233.25 39.7033 231.353 38.43 227.56 38.43V37H246.49V38.43C244.727 38.3904 242.99 38.8628 241.49 39.79C240.163 40.5967 238 42.87 235 46.61L225.24 58.56Z" fill="white"/>
<path d="M258.77 61.91C258.428 64.3977 257.488 66.7653 256.03 68.81C254.63 70.6459 252.746 72.0553 250.59 72.88C248.208 73.7949 245.618 74.0303 243.11 73.56C239.498 73.0408 236.224 71.1498 233.97 68.28C231.677 65.3867 230.877 61.8467 231.57 57.66C232.33 53.0867 234.31 49.8833 237.51 48.05C240.551 46.2452 244.135 45.5823 247.62 46.18C249.862 46.5292 251.99 47.403 253.83 48.73C255.686 50.0988 257.137 51.9439 258.03 54.07C259.042 56.5537 259.3 59.2807 258.77 61.91V61.91ZM257.5 61.91C258.26 57.3167 254.53 54.34 246.31 52.98C238.217 51.6467 233.793 53.2567 233.04 57.81C232.287 62.3633 235.907 65.2966 243.9 66.61C252.22 68.01 256.753 66.4533 257.5 61.94V61.91Z" fill="white"/>
<path d="M246.08 48.4702L254.2 36.1702L283.14 51.5501L282.61 52.5501L281.52 51.9702C280.087 51.2102 278.957 51.0668 278.13 51.5402C277.303 52.0135 276.33 53.3035 275.21 55.4102L262.29 79.7101C261.721 80.7259 261.22 81.7782 260.79 82.8601C260.573 83.5491 260.634 84.2955 260.96 84.9402C261.392 85.7895 262.096 86.4691 262.96 86.8701L264.05 87.4502L263.51 88.4502L246.12 79.2101L246.66 78.2101L248.08 78.9601C249.54 79.7335 250.687 79.8801 251.52 79.4001C252.353 78.9201 253.327 77.6335 254.44 75.5402L266.94 52.0002C267.55 50.9311 268.011 49.7839 268.31 48.5901C268.418 48.2621 268.458 47.9155 268.427 47.5715C268.396 47.2276 268.295 46.8936 268.13 46.5901C267.823 46.1701 265.97 45.0568 262.57 43.2502C261.483 42.6043 260.268 42.205 259.01 42.0806C257.752 41.9562 256.482 42.1097 255.29 42.5302C252.95 43.3835 250.203 45.5302 247.05 48.9702L246.08 48.4702Z" fill="white"/>
<path d="M172.71 18.3001L129.6 21.5201L133.88 27.4601C135.3 29.5096 136.947 31.3916 138.79 33.0702C140.53 34.4793 142.665 35.3112 144.9 35.4502C147.751 35.6583 150.605 35.0916 153.16 33.8102L153.81 34.7202L141.45 41.7202L120.87 13.1602L164 9.91016L160.67 5.29015C159.531 3.625 158.187 2.10977 156.67 0.780151C155.344 -0.239125 153.74 -0.831922 152.07 -0.919846C149.849 -1.03222 147.635 -0.599651 145.62 0.340149L145 -0.509842L154.89 -6.33984L172.71 18.3001Z" fill="white"/>
<path d="M223.67 1.60013V12.7101H222.82C222.013 10.0689 220.474 7.71091 218.38 5.91013C216.465 4.27964 214.025 3.39543 211.51 3.42012C207.917 3.42012 205.347 4.84012 203.8 7.68012C202.16 10.9518 201.366 14.5824 201.49 18.2401C201.49 27.9534 204.823 32.8101 211.49 32.8101C213.104 32.7781 214.7 32.4563 216.2 31.8601V25.3101C216.2 22.7501 215.13 21.4701 212.99 21.4701H212.19V20.6101H227.27V21.4701C226.75 21.3562 226.21 21.3786 225.701 21.5349C225.192 21.6913 224.732 21.9765 224.366 22.3628C224 22.749 223.74 23.2233 223.611 23.7397C223.482 24.2561 223.489 24.797 223.63 25.3101V31.8601C219.588 33.676 215.202 34.6003 210.77 34.5701C207.59 34.6431 204.441 33.9213 201.61 32.4701C199.09 31.1604 196.964 29.2034 195.45 26.8001C193.926 24.3077 193.149 21.4308 193.21 18.5101C193.146 15.4602 193.928 12.4522 195.47 9.82013C196.963 7.32623 199.075 5.25967 201.6 3.82013C204.317 2.29145 207.393 1.51801 210.51 1.58013C213.032 1.62177 215.528 2.10928 217.88 3.02013C218.755 3.39524 219.667 3.68004 220.6 3.87012C221.533 3.87012 222.263 3.11347 222.79 1.60013H223.67Z" fill="white"/>
<path d="M200.31 -12.5598L200.53 -11.4798C199.155 -10.9689 198.023 -9.95836 197.36 -8.64981C196.315 -6.14594 195.554 -3.53302 195.09 -0.859818L188.09 31.9202L187.09 32.1202L164.09 -0.879822C163.519 -1.5668 162.789 -2.10302 161.962 -2.4413C161.136 -2.77958 160.239 -2.90958 159.35 -2.81982L159.12 -3.88982L177.65 -7.77982L177.87 -6.70982L177.24 -6.57982C174.52 -6.00649 173.293 -5.08649 173.56 -3.81982C174.311 -2.15445 175.261 -0.586318 176.39 0.850189L188.74 18.6602L192.74 -0.339813C193.407 -3.67315 193.653 -5.82981 193.48 -6.80981C193.053 -8.80981 191.157 -9.47648 187.79 -8.80981L187.56 -9.87982L200.31 -12.5598Z" fill="white"/>
<path d="M211.47 -2.80992L201.96 0.190077L201.71 -0.579927C203.736 -1.71779 205.35 -3.46815 206.32 -5.57993C207.2 -7.53498 207.303 -9.7513 206.61 -11.7799C206.232 -13.0406 205.558 -14.1927 204.645 -15.1406C203.732 -16.0885 202.606 -16.8048 201.36 -17.2299C198.693 -18.2233 195.44 -18.1066 191.6 -16.8799C183.053 -14.1399 179.72 -9.8066 181.6 -3.87993C182.64 -0.633264 185.307 1.87673 189.6 3.65007L187.23 4.41008C185.347 3.55755 183.667 2.31414 182.302 0.762419C180.936 -0.789303 179.916 -2.61382 179.31 -4.58992C177.763 -9.42992 177.99 -13.5366 179.99 -16.9099C181.847 -20.1623 184.866 -22.5916 188.44 -23.7099C190.379 -24.3526 192.427 -24.5954 194.463 -24.4235C196.498 -24.2516 198.477 -23.6687 200.28 -22.7099C202.12 -21.8232 203.757 -20.5662 205.089 -19.0175C206.421 -17.4689 207.419 -15.662 208.02 -13.7099C208.645 -11.6312 208.873 -9.45301 208.69 -7.28992C208.575 -6.44381 208.575 -5.58604 208.69 -4.73993C209 -3.73993 209.84 -3.40992 211.22 -3.64992L211.47 -2.80992Z" fill="white"/>
<path d="M139 -10.5899L151 2.04008C152.093 3.23755 153.317 4.30768 154.65 5.23009C155.594 5.87406 156.732 6.17092 157.87 6.0701L157.95 6.92009L142.05 8.42009L141.97 7.5701C143.55 7.28343 144.303 6.77009 144.23 6.03009C144.157 5.29009 143.353 4.15009 141.82 2.61009L134 -5.65991L133 -4.59991L133.8 3.87009C133.859 4.73936 133.989 5.60229 134.19 6.45009C134.286 6.72854 134.443 6.98229 134.649 7.19319C134.854 7.40409 135.104 7.56694 135.38 7.67009C136.209 7.99768 137.109 8.10115 137.99 7.97009L138.07 8.8201L122.67 10.2701L122.59 9.42009L123.59 9.33009C124.071 9.34586 124.549 9.2513 124.987 9.0537C125.426 8.85609 125.813 8.56067 126.12 8.19009C126.582 7.04195 126.7 5.7842 126.46 4.5701L124.54 -15.8299C124.481 -16.6979 124.357 -17.5602 124.17 -18.4099C124.087 -18.674 123.949 -18.9179 123.767 -19.1262C123.585 -19.3345 123.361 -19.5026 123.11 -19.6199C122.403 -19.965 121.608 -20.0871 120.83 -19.9699L119.83 -19.8799L119.75 -20.7299L134.95 -22.1599L135.03 -21.3099C134.334 -21.2653 133.654 -21.0817 133.03 -20.7699C132.557 -20.5276 132.181 -20.133 131.96 -19.6499C131.729 -18.6216 131.705 -17.5575 131.89 -16.5199L132.8 -6.87991L143.25 -17.2499C144.71 -18.6899 145.403 -19.7966 145.33 -20.5699C145.306 -20.7899 145.234 -21.0021 145.12 -21.1919C145.006 -21.3817 144.853 -21.5448 144.67 -21.6699C144.27 -21.9766 143.293 -22.0666 141.74 -21.9399L141.66 -22.7899L153.57 -23.9099L153.65 -23.0599C152.782 -22.9364 151.948 -22.637 151.2 -22.1799C149.812 -21.1153 148.508 -19.9452 147.3 -18.6799L139 -10.5899Z" fill="white"/>
<path d="M242.36 28.39L250.43 29.28C251.301 29.407 252.181 29.4505 253.06 29.41C253.581 29.3357 254.052 29.059 254.37 28.64C254.871 27.7718 255.146 26.7919 255.17 25.79L255.97 25.88L254.36 40.42L253.56 40.33C253.685 39.5416 253.685 38.7384 253.56 37.95C253.479 37.4148 253.205 36.9275 252.79 36.58C251.827 36.1451 250.787 35.9071 249.73 35.88L230.86 33.8C229.983 33.6734 229.095 33.6332 228.21 33.68C227.691 33.7593 227.224 34.0395 226.91 34.46C226.41 35.3212 226.135 36.2945 226.11 37.29L225.32 37.2L226.7 24.72C227.553 17.0267 230.583 13.47 235.79 14.05C237.535 14.1683 239.181 14.906 240.43 16.13C241.594 17.3598 242.333 18.9297 242.54 20.61C242.794 23.2011 242.734 25.8134 242.36 28.39V28.39ZM228.13 26.82L240.7 28.21C241.04 25.1033 240.54 23.18 239.2 22.44C237.93 21.7212 236.529 21.2622 235.08 21.09C230.92 20.63 228.637 22.25 228.23 25.95L228.13 26.82Z" fill="white"/>
<path d="M121.65 -8.17978C122.899 -5.53677 123.489 -2.6306 123.37 0.290203C123.169 2.96801 122.228 5.53718 120.65 7.71022C118.907 10.1165 116.528 11.9898 113.78 13.1202C109.926 14.9064 105.531 15.1392 101.51 13.7702C97.4367 12.4369 94.41 9.4902 92.43 4.9302C90.2633 -0.00979757 90.16 -4.39312 92.12 -8.21979C93.9398 -11.9089 97.0132 -14.8298 100.79 -16.4598C103.2 -17.5416 105.832 -18.0385 108.47 -17.9098C111.15 -17.7538 113.738 -16.8762 115.96 -15.3698C118.522 -13.5843 120.501 -11.0835 121.65 -8.17978V-8.17978ZM120.43 -7.3498C118.257 -12.3165 112.727 -12.8531 103.84 -8.9598C95.0933 -5.12646 91.8 -0.746464 93.96 4.1802C96.12 9.10687 101.517 9.6702 110.15 5.8702C119.143 1.95687 122.57 -2.4498 120.43 -7.3498Z" fill="white"/>
<path d="M72.86 -17.6798L69.68 -8.2498C69.3784 -7.42265 69.141 -6.57347 68.97 -5.70981C68.9357 -5.41978 68.9605 -5.12579 69.043 -4.84563C69.1255 -4.56546 69.2639 -4.30493 69.45 -4.0798C69.9703 -3.45684 70.6679 -3.00691 71.45 -2.78979L72.45 -2.4498L72.17 -1.6198L56.5 -6.90981L56.78 -7.73981L57.78 -7.40981C58.2254 -7.19242 58.7144 -7.07942 59.21 -7.07942C59.7056 -7.07942 60.1946 -7.19242 60.64 -7.40981C61.5604 -8.29756 62.2031 -9.43359 62.49 -10.6798L69.25 -30.6798C69.5569 -31.5205 69.8009 -32.3829 69.98 -33.2598C70.0096 -33.5426 69.9814 -33.8285 69.8971 -34.1001C69.8129 -34.3717 69.6744 -34.6233 69.49 -34.8398C68.9697 -35.4628 68.2721 -35.9127 67.49 -36.1298L66.49 -36.4598L66.77 -37.2898L82.44 -31.9998L82.16 -31.1698L81.16 -31.5098C80.7144 -31.7265 80.2255 -31.8391 79.73 -31.8391C79.2345 -31.8391 78.7456 -31.7265 78.3 -31.5098C77.6333 -31.0765 77.0133 -29.9898 76.44 -28.2498L73.53 -19.6398L84.12 -16.0598L87.03 -24.6698C87.3359 -25.5117 87.5831 -26.3738 87.77 -27.2498C87.802 -27.535 87.7741 -27.8238 87.688 -28.0976C87.6019 -28.3714 87.4595 -28.6242 87.27 -28.8398C86.7465 -29.4613 86.0505 -29.9137 85.27 -30.1398L84.27 -30.4698L84.55 -31.2998L100.2 -25.9998L99.92 -25.1698L98.92 -25.4998C97.5867 -25.9531 96.61 -25.9531 95.99 -25.4998C95.1103 -24.5944 94.4918 -23.468 94.2 -22.2398L87.44 -2.23981C87.1345 -1.39439 86.8872 -0.529016 86.7 0.350204C86.6629 0.632557 86.6865 0.919566 86.7693 1.19205C86.8521 1.46453 86.9921 1.71619 87.18 1.93019C87.7048 2.54802 88.4007 2.99685 89.18 3.2202L90.18 3.5502L89.9 4.3902L74.25 -0.889801L74.53 -1.7298L75.53 -1.3998C76.8633 -0.946462 77.8433 -0.946462 78.47 -1.3998C79.3481 -2.3024 79.9665 -3.42517 80.26 -4.6498L83.44 -14.0798L72.86 -17.6798Z" fill="white"/>
<path d="M120.94 126.64L116.94 135.09C116.481 135.99 116.106 136.931 115.82 137.9C115.762 138.194 115.762 138.497 115.822 138.79C115.883 139.084 116.001 139.363 116.17 139.61C116.922 140.488 117.886 141.159 118.97 141.56L118.58 142.39L103.35 135.2L103.74 134.37C104.558 134.784 105.435 135.067 106.34 135.21C106.951 135.322 107.581 135.204 108.11 134.88C108.942 133.997 109.588 132.957 110.01 131.82L119.34 112.07C119.809 111.163 120.187 110.211 120.47 109.23C120.526 108.937 120.523 108.636 120.461 108.344C120.399 108.052 120.28 107.775 120.11 107.53C119.358 106.662 118.398 105.998 117.32 105.6L117.71 104.77L130.77 110.94C138.817 114.74 141.553 119.367 138.98 124.82C138.198 126.674 136.779 128.188 134.98 129.09C133.205 129.899 131.218 130.116 129.31 129.71C126.407 129.027 123.596 127.996 120.94 126.64ZM127.94 111.75L121.73 124.91C124.977 126.443 127.257 126.617 128.57 125.43C129.827 124.31 130.847 122.95 131.57 121.43C133.623 117.077 132.713 113.987 128.84 112.16L127.94 111.75Z" fill="white"/>
<path d="M200.64 -43.27L236.15 -33.68L224.15 -49.74C222.243 -52.2867 220.577 -53.62 219.15 -53.74C217.363 -53.7201 215.642 -53.0602 214.3 -51.88L213.53 -52.88L225.69 -61.98L226.45 -60.98C224.637 -59.34 223.703 -57.8933 223.65 -56.64C223.597 -55.3867 224.44 -53.5933 226.18 -51.26L249.46 -20.14L248.54 -19.45L200.36 -31.95L218.12 -8.19998C220.86 -4.53998 223.82 -3.89998 227 -6.27998L227.86 -6.92998L228.63 -5.92998L215.56 3.84001L214.79 2.84001C216.79 1.34001 217.883 -0.123321 218.07 -1.54999C218.257 -2.97665 217.59 -4.69666 216.07 -6.70999L196.34 -33.09L194.82 -33.49C193.73 -33.8289 192.578 -33.915 191.45 -33.7417C190.322 -33.5684 189.248 -33.1404 188.31 -32.49L187.54 -33.49L200.64 -43.27Z" fill="white"/>
<path d="M254.16 -15.7599L253.93 -14.9199C253.161 -15.0538 252.371 -15.0128 251.62 -14.7999C250.913 -14.5866 249.167 -13.1366 246.38 -10.4499L236.71 -1.1199L234.64 6.33009C234.385 7.1826 234.188 8.0512 234.05 8.93008C234.03 9.21156 234.068 9.49414 234.161 9.7606C234.253 10.0271 234.4 10.2719 234.59 10.4801C235.119 11.0646 235.819 11.4671 236.59 11.6301L238.3 12.1101L238 13.0001L221 8.2701L221.23 7.43008L222.82 7.87009C223.519 8.12014 224.276 8.16525 225 8.00009C225.462 7.85609 225.879 7.59417 226.21 7.2401C226.741 6.34638 227.116 5.36922 227.32 4.3501L229.03 -1.82991L225.56 -17.0099C225.233 -18.7573 224.716 -20.464 224.02 -22.0999C223.772 -22.5258 223.441 -22.8969 223.045 -23.1908C222.65 -23.4847 222.199 -23.6954 221.72 -23.8099L221.95 -24.6499L236.5 -20.6499L236.27 -19.8099L235.62 -19.9899C234.04 -20.4299 233.14 -20.2499 232.91 -19.4399C232.763 -18.8999 232.977 -17.3632 233.55 -14.8299L236.22 -3.10991L244.22 -10.8699C246.22 -12.8032 247.317 -14.1366 247.51 -14.8699C247.79 -15.8766 246.817 -16.7599 244.59 -17.5199L244.82 -18.3599L254.16 -15.7599Z" fill="white"/>
<path d="M254.47 -12.5598L261.47 -4.68982L260.83 -4.11981C258.881 -5.58692 256.519 -6.40223 254.08 -6.44981C251.816 -6.46371 249.632 -5.61648 247.97 -4.07982C246.918 -3.17337 246.097 -2.02933 245.576 -0.742447C245.054 0.544432 244.846 1.93711 244.97 3.32019C245.15 6.30686 246.657 9.39352 249.49 12.5802C255.79 19.6535 261.38 21.0169 266.26 16.6702C268.927 14.2769 270.21 10.6402 270.11 5.76018L271.86 7.76018C271.843 9.9434 271.362 12.0981 270.448 14.0809C269.535 16.0638 268.209 17.8293 266.56 19.2602C262.56 22.8269 258.503 24.3635 254.39 23.8702C250.462 23.4722 246.829 21.6041 244.22 18.6402C242.767 17.0484 241.652 15.1784 240.942 13.1434C240.232 11.1083 239.942 8.95042 240.09 6.80019C240.161 4.64061 240.679 2.51915 241.61 0.569275C242.541 -1.3806 243.865 -3.1167 245.5 -4.52982C247.238 -6.02533 249.243 -7.1789 251.41 -7.92981C252.272 -8.19351 253.096 -8.57012 253.86 -9.04982C254.66 -9.76315 254.66 -10.7298 253.86 -11.9498L254.47 -12.5598Z" fill="white"/>
<path d="M276.81 32.0002L264.7 27.8302L262.1 30.7302C261.384 31.464 260.816 32.3301 260.43 33.2802C260.304 33.6147 260.246 33.971 260.26 34.3283C260.274 34.6855 260.359 35.0363 260.51 35.3602C260.817 36.0268 261.98 36.7702 264 37.5902L263.67 38.5902L252.29 34.6702L252.62 33.6702C253.868 33.9135 255.162 33.7043 256.27 33.0802C258.012 31.9244 259.581 30.5271 260.93 28.9302L282.73 5.42017L283.21 5.59016L285.73 38.3502C285.792 40.2537 286.108 42.1405 286.67 43.9602C286.887 44.4726 287.206 44.9359 287.606 45.3225C288.006 45.7091 288.48 46.011 289 46.2102L288.67 47.2102L272.1 41.5002L272.43 40.5002L273.12 40.7402C275.353 41.5068 276.67 41.3102 277.07 40.1502C277.26 39.1041 277.291 38.0353 277.16 36.9802L276.81 32.0002ZM276.6 29.8202L275.6 16.0802L266.23 26.2602L276.6 29.8202Z" fill="white"/>
<path d="M258.65 -23.1499H273.36V-22.3599H272.63C271.19 -22.3599 270.26 -22.0999 269.84 -21.5799C269.42 -21.0599 269.21 -19.8466 269.21 -17.9399V-3.76991C269.179 -2.31678 269.283 -0.863902 269.52 0.570099C269.738 1.63661 270.348 2.58245 271.23 3.22009C272.345 3.99379 273.685 4.37383 275.04 4.30009C276.351 4.34101 277.649 4.03025 278.8 3.40009C279.888 2.73548 280.752 1.76024 281.28 0.600098C281.907 -0.666569 282.22 -2.91657 282.22 -6.1499V-17.9499C282.305 -19.1148 282.048 -20.2791 281.48 -21.2999C280.993 -22.0132 279.88 -22.3699 278.14 -22.3699V-23.1599H288V-22.3699H287.41C286.551 -22.3873 285.71 -22.1278 285.01 -21.6299C284.343 -21.1366 284.01 -19.9099 284.01 -17.9499V-6.94991C284.03 -5.12331 283.947 -3.29703 283.76 -1.4799C283.585 -0.0557876 283.093 1.31099 282.32 2.5201C281.475 3.83504 280.246 4.85804 278.8 5.45009C276.995 6.16983 275.062 6.51023 273.12 6.45009C265.967 6.45009 262.39 3.04009 262.39 -3.77991V-17.9499C262.426 -18.9006 262.362 -19.8524 262.2 -20.7899C262.138 -21.0349 262.026 -21.2645 261.871 -21.4641C261.717 -21.6638 261.522 -21.8292 261.3 -21.9499C260.471 -22.2896 259.573 -22.43 258.68 -22.3599L258.65 -23.1499Z" fill="white"/>
<path d="M333.86 -14.39L326.48 -2.00001L325.53 -2.56C326.383 -6.04761 326.231 -9.70555 325.09 -13.11C324.039 -16.2017 321.909 -18.8111 319.09 -20.46C315.09 -22.8467 311.273 -22.9667 307.64 -20.82C304.007 -18.6733 300.793 -15.24 298 -10.52C291.547 0.33999 292.053 8.00666 299.52 12.48C301.347 13.5172 303.345 14.2183 305.42 14.55L309.77 7.22999C311.47 4.36999 311.137 2.22999 308.77 0.809992L307.88 0.279993L308.45 -0.720007L325.32 9.27999L324.75 10.28C323.037 9.39999 321.743 9.09333 320.87 9.36C319.997 9.62666 319.083 10.5567 318.13 12.15L313.78 19.47C308.049 18.8152 302.527 16.9324 297.59 13.95C293.984 11.9165 290.942 9.01554 288.74 5.50999C286.775 2.3493 285.691 -1.27936 285.6 -5.00001C285.552 -8.79953 286.593 -12.5333 288.6 -15.76C290.556 -19.2101 293.429 -22.0517 296.9 -23.97C300.224 -25.7617 303.954 -26.6674 307.73 -26.6C311.783 -26.5007 315.736 -25.3199 319.18 -23.18C321.971 -21.4561 324.436 -19.2522 326.46 -16.67C327.19 -15.6705 328.021 -14.749 328.94 -13.92C329.987 -13.3 331.32 -13.6633 332.94 -15.01L333.86 -14.39Z" fill="white"/>
<path d="M292.55 12.3901L312.93 36.2901L314.58 31.2301C315.174 29.5206 315.574 27.7494 315.77 25.9501C315.849 24.323 315.419 22.7117 314.54 21.3401C313.439 19.5777 311.88 18.1469 310.03 17.2001L310.28 16.4301L319.67 20.6801L311.77 45.0001L291.36 21.0801L290.08 25.0001C289.59 26.3755 289.275 27.8065 289.14 29.2601C289.117 30.4785 289.466 31.6749 290.14 32.6901C291.026 34.039 292.227 35.1512 293.64 35.9301L293.4 36.6601L285.74 33.3601L292.55 12.3901Z" fill="white"/>
<path d="M302.46 42.1502L294.04 51.4502L294.69 52.0402C297.563 54.6402 300.647 54.4835 303.94 51.5702L304.51 52.0902L294.22 63.4702L293.65 62.9502C296.497 59.1235 296.473 55.9002 293.58 53.2802L292.93 52.6902L286.65 59.6302C286.069 60.255 285.538 60.9237 285.06 61.6302C284.92 61.8695 284.83 62.1347 284.796 62.4097C284.762 62.6847 284.783 62.9638 284.86 63.2302C285.077 63.9742 285.517 64.6338 286.12 65.1202L286.87 65.8002L286.31 66.4202L274.64 55.8602L275.2 55.2402L275.94 55.9102C276.248 56.2674 276.633 56.5495 277.066 56.735C277.499 56.9204 277.969 57.0043 278.44 56.9802C279.579 56.5553 280.569 55.8083 281.29 54.8302L294.78 39.9202C295.37 39.2958 295.912 38.6271 296.4 37.9202C296.533 37.6837 296.617 37.4226 296.647 37.1527C296.676 36.8828 296.65 36.6097 296.57 36.3502C296.35 35.6104 295.911 34.9548 295.31 34.4702L294.57 33.8102L295.13 33.1902L313.96 50.1902L308.07 56.7002L307.4 56.0902C308.353 54.8889 308.962 53.4509 309.16 51.9302C309.309 50.65 309.032 49.3563 308.37 48.2502C307.29 46.6801 306.001 45.2638 304.54 44.0402L302.46 42.1502Z" fill="white"/>
<path d="M284.25 81.61L293.25 64.61L304.05 65.6801L303.98 66.4201L303.12 66.33C302.562 66.2582 301.996 66.3095 301.46 66.4801C301.052 66.6221 300.702 66.8922 300.46 67.2501C300.111 68.0841 299.921 68.9761 299.9 69.8801L298.14 87.6301C298.046 88.3795 298.009 89.135 298.03 89.8901C298.103 90.3564 298.349 90.7779 298.72 91.0701C299.264 91.506 299.934 91.755 300.63 91.7801L301.49 91.86L301.42 92.6001L287.57 91.2301L287.64 90.4901L288.5 90.58C288.917 90.6847 289.354 90.6885 289.773 90.5912C290.192 90.4938 290.582 90.298 290.91 90.0201C291.453 89.1124 291.746 88.0775 291.76 87.0201L293.76 67.0201L281.16 90.5701H280.69L272.78 65.1701L270.9 84.1701C270.787 85.0653 270.747 85.9683 270.78 86.8701C270.831 87.1767 270.946 87.4691 271.119 87.7277C271.291 87.9864 271.516 88.2053 271.78 88.3701C272.54 88.8907 273.43 89.1886 274.35 89.2301L274.28 89.9701L265.2 89.0701L265.27 88.33H265.55C266.321 88.4536 267.112 88.3312 267.81 87.9801C268.311 87.7093 268.708 87.2803 268.94 86.7601C269.221 85.8919 269.389 84.9911 269.44 84.08L271 67.0001C271.091 66.2536 271.131 65.5019 271.12 64.7501C271.091 64.5131 271.013 64.2849 270.891 64.0799C270.769 63.875 270.605 63.6979 270.41 63.5601C269.855 63.1508 269.189 62.9174 268.5 62.8901L267.66 62.8101L267.73 62.0701L278.56 63.1501L284.25 81.61Z" fill="white"/>
<path d="M290 135.54L289 135.27L289.31 134.03C289.539 133.241 289.59 132.411 289.46 131.6C289.363 130.971 289.056 130.393 288.59 129.96C287.439 129.286 286.175 128.825 284.86 128.6L259.75 122.26C258.691 121.964 257.611 121.747 256.52 121.61C256.17 121.599 255.822 121.661 255.497 121.79C255.172 121.918 254.877 122.113 254.63 122.36C253.916 123.056 253.431 123.952 253.24 124.93L252.93 126.17L251.93 125.91L256.17 109.09C257.963 101.99 261.02 97.1435 265.34 94.5502C269.66 91.9569 274.77 91.4035 280.67 92.8902C286.823 94.4502 291.057 97.4902 293.37 102.01C295.683 106.53 296.017 112.1 294.37 118.72L290 135.54ZM257.63 112.13L287.39 119.64C288.474 120.003 289.629 120.106 290.76 119.94C291.427 119.747 291.947 118.95 292.32 117.55C294.067 110.624 289.4 105.757 278.32 102.95C274.85 101.935 271.218 101.595 267.62 101.95C265.243 102.161 262.988 103.096 261.16 104.63C259.72 106.01 258.55 108.51 257.65 112.13H257.63Z" fill="white"/>
<path d="M33.85 -14.39L26.47 -2.00001L25.52 -2.56C26.3731 -6.04761 26.2206 -9.70555 25.08 -13.11C24.0288 -16.2017 21.8987 -18.8111 19.08 -20.46C15.08 -22.8467 11.2633 -22.9667 7.63002 -20.82C3.99668 -18.6733 0.786682 -15.24 -1.99998 -10.52C-8.45332 0.33999 -7.94665 8.00666 -0.479984 12.48C1.3471 13.5172 3.3454 14.2183 5.42001 14.55L9.77002 7.22999C11.47 4.36999 11.1367 2.22999 8.77002 0.809992L7.88002 0.279993L8.45002 -0.720007L25.32 9.27999L24.75 10.28C23.0367 9.39999 21.7434 9.09333 20.87 9.36C19.9967 9.62666 19.0833 10.5567 18.13 12.15L13.78 19.47C8.04929 18.8152 2.52713 16.9324 -2.40998 13.95C-6.01623 11.9168 -9.05812 9.01581 -11.26 5.50999C-13.2286 2.35031 -14.3162 -1.27843 -14.41 -5.00001C-14.4578 -8.79953 -13.4168 -12.5333 -11.41 -15.76C-9.45392 -19.2101 -6.58124 -22.0517 -3.10999 -23.97C0.214447 -25.7617 3.94412 -26.6674 7.72002 -26.6C11.7732 -26.5007 15.7263 -25.3199 19.17 -23.18C21.9613 -21.4559 24.4259 -19.252 26.45 -16.67C27.1986 -15.6461 28.0534 -14.7042 29 -13.86C30.0467 -13.24 31.38 -13.6033 33 -14.95L33.85 -14.39Z" fill="white"/>
<path d="M-7.44996 12.3901L12.93 36.2901L14.58 31.2301C15.1745 29.5206 15.5737 27.7494 15.77 25.9501C15.8489 24.323 15.419 22.7117 14.54 21.3401C13.432 19.5699 11.8624 18.1352 10 17.1901L10.25 16.4202L19.64 20.6702L11.76 45.0001L-8.64996 21.0801L-9.92996 25.0001C-10.4194 26.3755 -10.7352 27.8065 -10.87 29.2601C-10.8927 30.4785 -10.5439 31.6749 -9.86996 32.6901C-8.98445 34.039 -7.78299 35.1512 -6.36996 35.9301L-6.60996 36.6601L-14.27 33.3601L-7.44996 12.3901Z" fill="white"/>
<path d="M2.45 42.1501L-6.00001 51.4601L-5.35 52.0501C-2.47667 54.6501 0.606663 54.4934 3.9 51.5801L4.47 52.1001L-5.79001 63.4701L-6.36001 62.9501C-3.51334 59.1235 -3.53667 55.9001 -6.43001 53.2801L-7.08001 52.6901L-13.36 59.6301C-13.9406 60.2549 -14.4722 60.9236 -14.95 61.6301C-15.0898 61.8695 -15.1795 62.1346 -15.2139 62.4096C-15.2483 62.6846 -15.2266 62.9638 -15.15 63.2301C-14.9331 63.9741 -14.4934 64.6338 -13.89 65.1201L-13.14 65.8001L-13.7 66.4201L-25.38 55.8101L-24.82 55.1901L-24.08 55.8601C-23.7725 56.2173 -23.3874 56.4994 -22.954 56.6849C-22.5207 56.8704 -22.0507 56.9542 -21.58 56.9301C-20.4415 56.5053 -19.4512 55.7582 -18.73 54.7801L-5.24001 39.8701C-4.64987 39.2457 -4.10829 38.5771 -3.62 37.8701C-3.48659 37.6337 -3.40271 37.3725 -3.37349 37.1026C-3.34426 36.8327 -3.3703 36.5596 -3.45001 36.3001C-3.66989 35.5603 -4.10928 34.9047 -4.71 34.4201L-5.45001 33.7601L-4.89001 33.1401L13.94 50.1401L8.05 56.6501L7.38 56.0401C8.33329 54.8389 8.94169 53.4008 9.13999 51.8801C9.28924 50.5999 9.01152 49.3063 8.34999 48.2001C7.27197 46.6342 5.98698 45.2214 4.52999 44.0001L2.45 42.1501Z" fill="white"/>
<path d="M-15.76 81.61L-6.75995 64.61L4.00005 65.6501L3.93005 66.3901L3.07005 66.3C2.5124 66.2282 1.94579 66.2795 1.41005 66.4501C1.00234 66.5921 0.651534 66.8622 0.410046 67.2201C0.06079 68.0541 -0.129153 68.9461 -0.149956 69.8501L-1.93995 87.6001C-2.034 88.3495 -2.07078 89.105 -2.04995 89.86C-1.97711 90.3264 -1.73062 90.7479 -1.35995 91.0401C-0.816216 91.476 -0.146411 91.725 0.550045 91.7501L1.41005 91.83L1.34005 92.5701L-12.52 91.2001L-12.45 90.4601L-11.59 90.55C-11.1726 90.6547 -10.7364 90.6585 -10.3173 90.5612C-9.89824 90.4638 -9.50837 90.268 -9.17995 89.9901C-8.63719 89.0824 -8.34396 88.0475 -8.32996 86.9901L-6.32996 66.9901L-18.93 90.5401H-19.4L-27.31 65.1401L-29.19 84.1401C-29.3032 85.0353 -29.3433 85.9383 -29.31 86.8401C-29.2593 87.1467 -29.1439 87.4391 -28.9715 87.6977C-28.799 87.9564 -28.5735 88.1753 -28.31 88.3401C-27.5502 88.8607 -26.66 89.1586 -25.74 89.2001L-25.81 89.9401L-34.89 89.0401L-34.82 88.3H-34.54C-33.7686 88.4236 -32.9778 88.3012 -32.28 87.9501C-31.779 87.6793 -31.3816 87.2503 -31.15 86.7301C-30.8691 85.8619 -30.701 84.9611 -30.65 84.05L-29 67.0001C-28.909 66.2536 -28.8689 65.5019 -28.88 64.7501C-28.9087 64.5131 -28.9867 64.2849 -29.109 64.0799C-29.2313 63.875 -29.3951 63.6979 -29.59 63.5601C-30.1453 63.1508 -30.8106 62.9174 -31.5 62.8901L-32.34 62.8101L-32.27 62.0701L-21.44 63.1501L-15.76 81.61Z" fill="white"/>
<path d="M46.5 -27.1099L47.32 -26.5999C47.1023 -26.244 46.9645 -25.845 46.9162 -25.4306C46.8678 -25.0163 46.9101 -24.5963 47.04 -24.1999C47.8643 -22.5806 48.8708 -21.0607 50.04 -19.6699L69 4.88014L68.48 5.72014L44.66 1.06013L58.96 21.0601L58.46 21.8701L23.82 15.6702C23.1383 15.5775 22.4442 15.6623 21.8048 15.9163C21.1654 16.1703 20.6024 16.5849 20.17 17.1201L19.35 16.6101L27.27 3.84013L28.09 4.35014C27.07 6.09014 27.05 7.26347 28.03 7.87013C29.3871 8.45326 30.8224 8.83399 32.29 9.00014L50.38 12.2201L41.92 0.570145L38 -0.179855C36.2105 -0.630864 34.3621 -0.8029 32.52 -0.689865C31.952 -0.524805 31.4247 -0.242978 30.9718 0.137573C30.5189 0.518125 30.1505 0.989026 29.89 1.52014L29.07 1.01013L37.92 -13.2599L38.74 -12.7499C37.48 -10.6432 37.3634 -9.2732 38.39 -8.63986C39.5844 -8.16591 40.8292 -7.83038 42.1 -7.63986L59.6 -4.21986L49.76 -16.9999C48.8182 -18.3667 47.6792 -19.5866 46.38 -20.6199C45.1 -21.4132 43.8334 -20.8465 42.58 -18.9199L41.76 -19.4299L46.5 -27.1099Z" fill="white"/>
<path d="M32.45 36.1802L36.23 43.3602C36.6134 44.1472 37.0686 44.897 37.59 45.6002C37.9437 45.9883 38.4358 46.2218 38.96 46.2502C39.9604 46.1836 40.9274 45.8635 41.77 45.3202L42.14 46.0302L29.21 52.8302L28.84 52.1202C29.5541 51.7715 30.2088 51.3126 30.78 50.7602C31.1771 50.3951 31.4262 49.8969 31.48 49.3602C31.303 48.3209 30.9187 47.3279 30.35 46.4402L21.52 29.6702C21.1343 28.874 20.6721 28.1171 20.14 27.4102C19.7831 27.0295 19.2914 26.8034 18.77 26.7802C17.7776 26.848 16.8182 27.1644 15.98 27.7002L15.61 26.9902L26.7 21.1502C33.5334 17.5502 38.17 18.0669 40.61 22.7002C41.4853 24.2104 41.7938 25.9831 41.48 27.7002C41.1349 29.362 40.2656 30.8692 39 32.0002C36.9937 33.6531 34.7943 35.0567 32.45 36.1802V36.1802ZM25.8 23.5402L31.68 34.7102C34.44 33.2569 35.75 31.7669 35.61 30.2402C35.4943 28.7881 35.0897 27.3738 34.42 26.0802C32.4734 22.3868 29.8567 21.4035 26.57 23.1302L25.8 23.5402Z" fill="white"/>
<path d="M14.86 37.84L15.08 37L29.08 40.73L28.86 41.57L28.01 41.34C27.5953 41.1598 27.1405 41.0917 26.6912 41.1426C26.2419 41.1935 25.8139 41.3616 25.45 41.63C24.7099 42.6246 24.2133 43.7788 24 45L20 60C19.5348 61.9133 18.8642 63.7708 18 65.54C17.2524 66.9837 16.0255 68.1222 14.53 68.76C12.7541 69.4652 10.7878 69.5289 8.97 68.94C7.15646 68.4397 5.55336 67.3663 4.4 65.88C3.77323 65.1353 3.34395 64.2449 3.15172 63.2907C2.95948 62.3365 3.01047 61.3493 3.29999 60.42C3.52418 59.5487 4.00496 58.7648 4.67999 58.17C5.0025 57.8721 5.39831 57.6651 5.82701 57.5702C6.2557 57.4753 6.70189 57.496 7.11999 57.63C7.83031 57.8335 8.43751 58.2978 8.81999 58.93C9.04486 59.3016 9.18635 59.7176 9.23469 60.1492C9.28304 60.5809 9.23708 61.0179 9.09999 61.43C8.89005 62.196 8.47109 62.8885 7.88999 63.43C7.47371 63.7809 7.13343 64.213 6.88999 64.7C6.59666 65.7933 7.26333 66.5567 8.88999 66.99C9.30365 67.1438 9.75809 67.148 10.1745 67.0019C10.591 66.8558 10.9431 66.5686 11.17 66.19C12.1461 64.1246 12.881 61.9536 13.36 59.72L17.72 43.32C17.9646 42.469 18.1583 41.6041 18.3 40.73C18.3478 40.1875 18.1788 39.6482 17.83 39.23C17.3655 38.6628 16.7188 38.274 16 38.13L14.86 37.84Z" fill="white"/>
<path d="M93.69 107.74L104.62 121.74C105.607 123.064 106.741 124.271 108 125.34C108.892 126.088 110.016 126.502 111.18 126.51V127.38L94.93 127.31V126.44C96.5567 126.307 97.3733 125.863 97.38 125.11C97.3867 124.357 96.69 123.12 95.29 121.4L88.16 112.23L87.01 113.23V121.89C86.9838 122.776 87.0307 123.662 87.15 124.54C87.2208 124.83 87.3542 125.101 87.5407 125.334C87.7273 125.568 87.9625 125.757 88.23 125.89C89.035 126.305 89.9351 126.502 90.84 126.46V127.33L75 127.22V126.35H76C76.4842 126.413 76.9763 126.365 77.439 126.209C77.9017 126.053 78.3227 125.793 78.67 125.45C79.2532 124.334 79.4999 123.073 79.38 121.82L79.47 100.96C79.4952 100.075 79.4551 99.1892 79.35 98.31C79.2844 98.0312 79.1617 97.7691 78.9895 97.5401C78.8174 97.3112 78.5996 97.1205 78.35 96.98C77.6708 96.5575 76.879 96.3517 76.08 96.39H75.08V95.52L90.62 95.59V96.46C89.9108 96.4316 89.2032 96.5473 88.54 96.8C88.0397 96.9902 87.6173 97.3422 87.34 97.8C87.0135 98.8332 86.8979 99.9214 87 101V110.86L98.62 101.4C100.24 100.067 101.053 99.0134 101.06 98.24C101.057 98.0145 101.006 97.7923 100.909 97.5886C100.813 97.3849 100.673 97.2046 100.5 97.06C100.127 96.7067 99.1467 96.5167 97.56 96.49V95.62L109.73 95.67V96.54C108.839 96.5775 107.965 96.7952 107.16 97.18C105.648 98.1176 104.21 99.1707 102.86 100.33L93.69 107.74Z" fill="white"/>
<path d="M50 64.6702L42.28 74.0702L41.46 73.3601C42.9319 71.0284 43.6317 68.2922 43.46 65.5402C43.4168 64.2943 43.1174 63.0706 42.5807 61.9454C42.0439 60.8203 41.2812 59.8177 40.34 59.0002C39.2581 58.0589 37.9152 57.4694 36.49 57.3101C35.7849 57.2178 35.068 57.3113 34.4102 57.5815C33.7524 57.8516 33.1767 58.2889 32.74 58.8502C32.317 59.3686 32.0092 59.9711 31.8368 60.6176C31.6643 61.2641 31.6314 61.9399 31.74 62.6002C32.2845 65.3211 33.1541 67.9668 34.33 70.4802C36.2633 75.0602 37.1167 78.5068 36.89 80.8202C36.7103 83.0338 35.8352 85.1338 34.39 86.8202C33.42 87.9973 32.1968 88.9405 30.8117 89.5794C29.4266 90.2183 27.9152 90.5364 26.39 90.5102C23.1713 90.5179 20.0642 89.3314 17.67 87.1801C15.9004 85.5357 14.473 83.5578 13.47 81.3601C13.1735 80.6909 12.7488 80.0862 12.22 79.5801C11.34 78.8201 10.1867 78.7868 8.76001 79.4802L8.01001 78.8401L17.01 68.4001L17.76 69.0402C16.0969 71.8335 15.2579 75.0403 15.34 78.2902C15.3622 79.6994 15.685 81.0877 16.2869 82.3621C16.8887 83.6365 17.7558 84.7678 18.83 85.6801C20.0378 86.7371 21.551 87.3816 23.15 87.5201C23.9333 87.6029 24.7247 87.4858 25.4505 87.1798C26.1762 86.8738 26.8125 86.3888 27.3 85.7701C27.7609 85.2321 28.109 84.6071 28.3237 83.932C28.5385 83.2569 28.6154 82.5455 28.55 81.8401C28.2339 79.4784 27.5595 77.1786 26.55 75.0201C24.7633 70.7401 23.8033 67.3268 23.67 64.7802C23.5809 63.5283 23.7409 62.2713 24.1409 61.0818C24.5408 59.8922 25.1727 58.7938 26 57.8502C26.8921 56.7652 28.0058 55.8835 29.2666 55.2643C30.5274 54.6451 31.906 54.3028 33.31 54.2602C36.2346 54.1321 39.0916 55.1635 41.26 57.1302C42.6134 58.3853 43.7074 59.8938 44.48 61.5702C44.9885 62.7364 45.6294 63.8403 46.39 64.8601C47.0567 65.4268 48.0567 65.1901 49.39 64.1501L50 64.6702Z" fill="white"/>
<path d="M14.1201 101.55L1.80006 105.17L1.36006 109.05C1.20112 110.068 1.24187 111.107 1.48006 112.11C1.57096 112.456 1.73015 112.78 1.94827 113.063C2.16638 113.347 2.43899 113.584 2.75006 113.76C3.37672 114.113 4.76006 114.047 6.90006 113.56L7.18006 114.56L-4.39994 117.96L-4.68994 116.96C-3.53034 116.433 -2.59504 115.511 -2.04994 114.36C-1.29756 112.403 -0.826214 110.349 -0.649944 108.26L3.50006 76.4L3.99006 76.26L25.0701 101.56C26.2204 103.065 27.5655 104.41 29.0701 105.56C29.5452 105.852 30.0744 106.045 30.6261 106.128C31.1777 106.21 31.7403 106.18 32.2801 106.04L32.5601 107.04L15.7101 112.04L15.4201 111.04L16.1201 110.83C18.3867 110.163 19.3467 109.237 19.0001 108.05C18.5476 107.085 17.9507 106.195 17.2301 105.41L14.1201 101.55ZM12.6801 99.89L3.90006 89.23L2.16006 103L12.6801 99.89Z" fill="white"/>
<path d="M67.57 84.3801L61.89 90.1801C61.2557 90.7889 60.6829 91.4588 60.18 92.1801C60.0526 92.4041 59.971 92.6512 59.9401 92.907C59.9092 93.1628 59.9296 93.4223 60 93.6701C60.3669 94.5855 60.9584 95.3937 61.72 96.0201L61.16 96.5901L50.73 86.3601L51.29 85.7901C51.8388 86.3587 52.4731 86.8378 53.17 87.2101C53.6303 87.473 54.1698 87.5618 54.69 87.4601C55.6275 86.9655 56.4543 86.285 57.12 85.4601L70.28 72.0401C70.9113 71.4284 71.4838 70.7588 71.99 70.0401C72.1224 69.8182 72.2084 69.5717 72.2428 69.3156C72.2772 69.0595 72.2592 68.7991 72.19 68.5501C71.8218 67.6272 71.2268 66.8121 70.46 66.1801L71.01 65.6101L80.48 74.8901C84.5267 78.8901 86.5267 81.9701 86.48 84.1301C86.4746 86.2188 85.6444 88.2207 84.17 89.7001C81.5034 92.4001 78.2967 92.6534 74.55 90.4601L72.55 102.27C72.3454 103.29 72.2516 104.33 72.27 105.37C72.3564 106.069 72.6772 106.717 73.18 107.21L72.62 107.78L66.2 101.49L68.89 85.6401L67.57 84.3801ZM77.51 74.2401L68.63 83.3001L69.48 84.1401C71.3334 85.9535 73 86.9535 74.48 87.1401C75.96 87.3268 77.5134 86.6001 79.14 84.9601C82.16 81.8801 82.1367 78.8368 79.07 75.8301L77.51 74.2401Z" fill="white"/>
<path d="M65.5801 96.7401L60.1501 107L33.4401 96.3501L33.7701 95.5101L34.7701 95.9101C36.1034 96.4367 37.1034 96.4867 37.7701 96.0601C38.7165 95.176 39.4074 94.0534 39.7701 92.8101L47.7701 72.7101C48.13 71.8698 48.4275 71.0041 48.6601 70.1201C48.7083 69.8323 48.6977 69.5377 48.629 69.2541C48.5602 68.9705 48.4347 68.7038 48.2601 68.4701C47.7572 67.7981 47.0585 67.2986 46.2601 67.0401L45.2601 66.6401L45.5901 65.8L61.6401 72.2101L61.3101 73.05L60.0001 72.5201C58.6667 71.9867 57.6667 71.9334 57.0001 72.36C56.0551 73.2413 55.3644 74.3604 55.0001 75.6001L47.2301 95.0701C46.8393 95.9599 46.5864 96.9041 46.4801 97.8701C46.4306 98.1483 46.4407 98.4339 46.5096 98.7079C46.5786 98.982 46.7048 99.2383 46.8801 99.4601C48.525 100.412 50.2601 101.2 52.0601 101.81C53.0467 102.266 54.1159 102.517 55.2026 102.546C56.2892 102.575 57.3703 102.383 58.3801 101.98C60.2734 101.167 62.3567 99.3001 64.6301 96.3801L65.5801 96.7401Z" fill="white"/>
<path d="M45.72 128.65L37 130.25L36.85 129.42C38.3332 128.787 39.6887 127.889 40.85 126.77C41.6803 126.04 42.2667 125.074 42.53 124C42.6563 122.936 42.6056 121.858 42.38 120.81L41.95 118.45L17 123.06C16.0969 123.205 15.2048 123.413 14.33 123.68C14.0605 123.793 13.8173 123.961 13.6159 124.172C13.4145 124.384 13.2593 124.635 13.16 124.91C12.8658 125.697 12.8135 126.554 13.01 127.37L13.21 128.44L12.32 128.6L9.29004 112L10.18 111.84L10.37 112.84C10.4523 113.592 10.7432 114.305 11.21 114.9C11.5491 115.272 11.9802 115.548 12.46 115.7C13.5271 115.798 14.603 115.71 15.64 115.44L40.55 110.87L40.13 108.58C39.9501 107.404 39.5388 106.276 38.92 105.26C38.2536 104.334 37.3177 103.635 36.24 103.26C34.862 102.741 33.3903 102.516 31.92 102.6L31.76 101.71L40.49 100.11L45.72 128.65Z" fill="white"/>
<path d="M49.93 106L60.07 108.69L59.86 109.46C57.2553 109.556 54.7311 110.388 52.58 111.86C50.6288 113.212 49.23 115.221 48.64 117.52C47.7667 120.8 48.4333 123.49 50.64 125.59C53.2283 127.882 56.3503 129.488 59.72 130.26C68.5867 132.613 73.83 130.74 75.45 124.64C75.8112 123.158 75.9027 121.624 75.72 120.11L69.72 118.53C67.3867 117.91 65.96 118.577 65.44 120.53L65.25 121.26L64.46 121.05L68.11 107.29L68.9 107.5C68.6684 107.946 68.5564 108.445 68.575 108.948C68.5935 109.45 68.742 109.939 69.0059 110.367C69.2698 110.795 69.6401 111.148 70.0807 111.39C70.5213 111.632 71.0172 111.756 71.52 111.75L77.52 113.33C78.1993 117.461 77.9811 121.691 76.88 125.73C76.174 128.65 74.7511 131.348 72.74 133.58C70.9325 135.563 68.6306 137.029 66.07 137.83C63.4223 138.605 60.6077 138.605 57.96 137.83C55.1623 137.148 52.608 135.705 50.58 133.66C48.671 131.706 47.294 129.297 46.58 126.66C45.8468 123.811 45.8883 120.818 46.7 117.99C47.349 115.7 48.3986 113.544 49.8 111.62C50.3539 110.911 50.8331 110.147 51.23 109.34C51.4567 108.487 50.9433 107.64 49.69 106.8L49.93 106Z" fill="white"/>
<path d="M225.26 102.32L217.37 113L216.37 112.26C217.83 109.616 218.411 106.576 218.03 103.58C217.899 102.201 217.488 100.863 216.82 99.6486C216.153 98.4344 215.244 97.3696 214.15 96.52C212.901 95.5366 211.386 94.9513 209.8 94.84C209.028 94.7746 208.252 94.913 207.55 95.2411C206.849 95.5692 206.245 96.0757 205.8 96.71C205.362 97.2987 205.055 97.9751 204.902 98.693C204.748 99.4108 204.751 100.153 204.91 100.87C205.19 102.523 206.31 105.367 208.27 109.4C210.69 114.34 211.847 118.083 211.74 120.63C211.678 123.046 210.848 125.379 209.37 127.29C208.374 128.628 207.087 129.723 205.606 130.49C204.124 131.258 202.488 131.678 200.82 131.72C197.262 131.876 193.771 130.72 191.01 128.47C188.958 126.75 187.26 124.648 186.01 122.28C185.639 121.56 185.134 120.918 184.52 120.39C183.5 119.597 182.227 119.613 180.7 120.44L179.84 119.77L189.06 107.89L189.92 108.56C188.267 111.713 187.549 115.273 187.85 118.82C187.969 120.375 188.415 121.887 189.16 123.257C189.904 124.627 190.93 125.824 192.17 126.77C193.565 127.875 195.272 128.512 197.05 128.59C197.912 128.648 198.774 128.485 199.555 128.115C200.335 127.746 201.008 127.183 201.51 126.48C201.985 125.865 202.33 125.159 202.525 124.406C202.719 123.653 202.758 122.869 202.64 122.1C202.125 119.516 201.221 117.024 199.96 114.71C197.713 110.097 196.437 106.397 196.13 103.61C195.973 102.247 196.09 100.866 196.474 99.5484C196.859 98.2311 197.504 97.0042 198.37 95.94C199.288 94.7049 200.462 93.6829 201.812 92.9442C203.161 92.2054 204.655 91.7673 206.19 91.66C209.415 91.3887 212.619 92.3861 215.12 94.44C216.691 95.7502 217.991 97.3533 218.95 99.16C219.589 100.416 220.368 101.597 221.27 102.68C222.037 103.267 223.13 102.96 224.55 101.76L225.26 102.32Z" fill="white"/>
<path d="M174.78 120.5L190.78 133.5C192.238 134.742 193.832 135.815 195.53 136.7C196.732 137.315 198.11 137.495 199.43 137.21L199.65 138.21L181.24 142.32L181.02 141.32C182.827 140.747 183.633 140.034 183.44 139.18C183.247 138.327 182.137 137.107 180.11 135.52L169.66 127L168.6 128.39L170.79 138.2C170.986 139.222 171.267 140.225 171.63 141.2C171.785 141.51 172.006 141.783 172.277 141.999C172.548 142.215 172.863 142.369 173.2 142.45C174.219 142.724 175.291 142.724 176.31 142.45L176.53 143.45L158.69 147.45L158.47 146.45L159.64 146.19C161.127 145.857 162.057 145.287 162.43 144.48C162.803 143.674 162.76 142.24 162.3 140.18L157 116.49C156.802 115.471 156.528 114.468 156.18 113.49C156.04 113.195 155.843 112.932 155.599 112.715C155.355 112.499 155.069 112.334 154.76 112.23C153.878 111.93 152.926 111.906 152.03 112.16L150.87 112.42L150.65 111.42L168.25 107.49L168.47 108.49C167.662 108.646 166.893 108.962 166.21 109.42C165.691 109.773 165.307 110.291 165.12 110.89C165 112.13 165.129 113.381 165.5 114.57L168 125.74L178.71 112.04C180.203 110.134 180.85 108.734 180.65 107.84C180.588 107.586 180.472 107.348 180.31 107.143C180.148 106.937 179.943 106.769 179.71 106.65C179.19 106.35 178.033 106.387 176.24 106.76L176.02 105.76L189.81 102.68L190.03 103.68C189.032 103.953 188.1 104.426 187.29 105.07C185.822 106.524 184.468 108.088 183.24 109.75L174.78 120.5Z" fill="white"/>
<path d="M236.49 93.8901L233.15 108.82L233.89 108.99C238.117 109.93 241.177 107.597 243.07 101.99L244.07 102.22L239.77 121.42L238.77 121.18C239.143 117.92 238.867 115.533 237.94 114.02C237.013 112.507 235.267 111.463 232.7 110.89L230.39 121.21C229.83 123.723 229.78 125.29 230.24 125.91C230.7 126.53 232.297 127.143 235.03 127.75C241.857 129.283 246.907 127.043 250.18 121.03L251.18 121.26L246.87 132.54L214.4 125.27L214.63 124.27L215.89 124.55C217.54 124.92 218.7 124.81 219.38 124.21C220.06 123.61 220.63 122.28 221.09 120.21L226.49 96.0801C226.745 95.0396 226.936 93.9843 227.06 92.9201C227.066 92.5882 226.998 92.2592 226.861 91.9566C226.725 91.6541 226.523 91.3855 226.27 91.1701C225.525 90.5117 224.61 90.0752 223.63 89.9101L222.37 89.6301L222.59 88.6301L254.03 95.6301L251.61 106.47L250.56 106.24C250.64 103.113 250.197 100.85 249.23 99.4501C248.409 98.1663 247.254 97.1294 245.89 96.4501C244.092 95.6974 242.222 95.1278 240.31 94.7501L236.49 93.8901Z" fill="white"/>
</g>
</g>
<defs>
<clipPath id="clip0_1105_7810">
<rect width="400" height="400" fill="white" transform="translate(-49 -243)"/>
</clipPath>
</defs>
</svg>
