<svg width="111" height="169" viewBox="0 0 111 169" fill="none" xmlns="http://www.w3.org/2000/svg">
<mask id="mask0_967_8099" style="mask-type:alpha" maskUnits="userSpaceOnUse" x="0" y="0" width="111" height="169">
<rect x="111" width="169" height="111" transform="rotate(90 111 0)" fill="#1A1A1A"/>
</mask>
<g mask="url(#mask0_967_8099)">
<g clip-path="url(#clip0_967_8099)">
<path d="M-25.9301 16.1901C-27.7768 21.5234 -26.4034 25.9834 -21.8101 29.5701C-21.1405 30.0837 -20.4278 30.5387 -19.6801 30.9301L-20.8001 32.3701C-23.2891 31.3298 -25.6402 29.9863 -27.8001 28.3701C-34.0934 23.4701 -36.2068 17.2734 -34.1401 9.78006C-36.2609 7.3444 -37.7603 4.43139 -38.5101 1.29006C-39.2081 -1.71663 -39.2081 -4.84324 -38.5101 -7.84994C-37.7303 -11.0686 -36.252 -14.0763 -34.1801 -16.6599C-31.864 -19.76 -28.7549 -22.1782 -25.1801 -23.6599C-21.8472 -25.0311 -18.2101 -25.4935 -14.6401 -24.9999C-10.7984 -24.4035 -7.18462 -22.7951 -4.17012 -20.3399C-1.8744 -18.6862 0.056039 -16.5772 1.50084 -14.1446C2.94564 -11.7119 3.87384 -9.00771 4.22755 -6.20055C4.58126 -3.39339 4.35289 -0.543459 3.55672 2.17157C2.76054 4.88659 1.41361 7.4085 -0.400102 9.58007C-3.37993 13.5275 -7.61028 16.3477 -12.4001 17.5801C-16.9193 18.8933 -21.7723 18.3947 -25.9301 16.1901ZM-5.61009 -18.5399C-11.2034 -22.9133 -17.9268 -20.0666 -25.7801 -9.99994C-33.6334 0.0667288 -34.7301 7.2734 -29.0701 11.6201C-23.4368 16.0001 -16.8501 13.3334 -9.31011 3.62007C-1.2101 -6.79327 0.0232406 -14.1799 -5.61009 -18.5399Z" fill="white"/>
<path d="M-25.8201 65.7099L-26.3401 64.9999C-26.0358 64.7734 -25.7843 64.4835 -25.603 64.1503C-25.4217 63.817 -25.315 63.4484 -25.2901 63.0699C-25.4376 61.4204 -25.7731 59.7932 -26.2901 58.2199L-33.9101 31.0999L-33.1901 30.5699L-14.7101 42.5699L-20.0001 20.8899L-19.3001 20.3799L7.76987 37.3799C8.31482 37.6865 8.92957 37.8476 9.55487 37.8476C10.1802 37.8476 10.7949 37.6865 11.3399 37.3799L11.8599 38.0899L0.859862 46.1499L0.339873 45.4399C1.78654 44.3199 2.20321 43.3365 1.58987 42.4899C0.654479 41.544 -0.413314 40.7389 -1.58011 40.0999L-15.7201 31.2399L-12.5501 43.9999L-9.50012 45.9999C-8.14714 46.9902 -6.64954 47.766 -5.06012 48.2999C-4.51781 48.3545 -3.97008 48.2935 -3.453 48.1212C-2.93593 47.9488 -2.46123 47.6689 -2.06012 47.2999L-1.54013 48.0099L-13.8501 57.0099L-14.3701 56.2999C-12.5901 54.9665 -12.0235 53.8532 -12.6701 52.9599C-13.5217 52.1656 -14.4611 51.4711 -15.4701 50.8899L-29.0801 41.9999L-25.1301 56.0899C-24.8042 57.5618 -24.2616 58.9772 -23.5201 60.2899C-22.7134 61.3965 -21.4534 61.3499 -19.7401 60.1499L-19.2201 60.8599L-25.8201 65.7099Z" fill="white"/>
<path d="M5.15994 29.8L11.9399 19.4L11.45 19.08C8.62328 17.2334 5.69662 18.19 2.66995 21.95L1.96994 21.49L10.6799 8.13003L11.3799 8.59003C10.1599 10.95 9.67329 12.8267 9.91995 14.22C10.1215 15.0181 10.487 15.7654 10.9932 16.4145C11.4993 17.0635 12.1351 17.6001 12.8599 17.99L17.5499 10.8C18.6899 9.05337 19.1799 7.88337 19.0199 7.29004C18.8599 6.69671 17.8599 5.80337 16.0199 4.61004C11.4533 1.63004 7.09993 1.96337 2.95993 5.61004L2.26993 5.16004L8.69995 -2.20996L30.4399 12L29.9799 12.7L29.1399 12.15C28.0333 11.43 27.1466 11.2034 26.4799 11.47C25.4521 12.0952 24.6125 12.9866 24.0499 14.05L13.0499 30.84C12.5597 31.5597 12.1122 32.3077 11.7099 33.08C11.6097 33.3248 11.5641 33.5885 11.5762 33.8528C11.5883 34.117 11.6578 34.3754 11.7799 34.61C12.1323 35.3006 12.6778 35.8738 13.3499 36.26L14.1899 36.81L13.7299 37.51L-7.27005 23.79L-2.35007 16.25L-1.65006 16.71C-2.61005 19.0434 -2.94339 20.87 -2.65006 22.19C-2.4204 23.3635 -1.87003 24.4504 -1.06006 25.33C0.0399119 26.3795 1.24646 27.3112 2.53995 28.11L5.15994 29.8Z" fill="white"/>
<path d="M3.83966 41.6899L3.98965 59.1399L-26.8503 81.5299C-26.7603 83.1599 -26.7203 84.5299 -26.7103 85.5299C-26.7103 86.0599 -26.7103 87.0199 -26.7903 88.3799L-7.52033 88.2199C-3.12033 88.1799 -0.370327 87.5533 0.729673 86.3399C1.88758 84.9409 2.4671 83.1522 2.34967 81.3399L2.34967 78.7799L4.16968 78.7799L4.40967 106.78L2.58966 106.78L2.58966 104.3C2.58966 101.6 1.863 99.7733 0.409665 98.8199C-1.04367 97.8666 -3.647 97.4066 -7.40033 97.4399L-50.2503 97.7999C-54.6503 97.8399 -57.4003 98.4733 -58.5003 99.6999C-59.6737 101.141 -60.2531 102.976 -60.1203 104.83L-60.1203 107.31L-62.0003 107.31L-62.2003 83.4999C-62.3476 78.7815 -62.0125 74.0603 -61.2003 69.4099C-60.432 65.8056 -58.5078 62.5507 -55.7203 60.1399C-52.8998 57.5466 -49.2019 56.1174 -45.3703 56.1399C-36.477 56.0666 -30.7737 61.3999 -28.2603 72.1399L-9.36032 58.4699C-4.69366 55.0699 -1.69365 52.1899 -0.360321 49.8299C0.970126 47.331 1.76696 44.583 1.97968 41.7599L3.83966 41.6899ZM-57.4903 88.6199L-29.8703 88.3899L-29.8703 85.6899C-29.957 79.8966 -31.2703 75.3333 -33.8103 71.9999C-35.0569 70.3462 -36.6916 69.025 -38.57 68.1529C-40.4484 67.2809 -42.5126 66.8849 -44.5803 66.9999C-49.347 67.0399 -52.8637 68.4899 -55.1303 71.3499C-57.36 74.1081 -58.5462 77.5639 -58.4803 81.1099C-58.5222 83.6491 -58.1852 86.1802 -57.4803 88.6199L-57.4903 88.6199Z" fill="white"/>
<path d="M1.99979 96.7197L3.27978 105.06L2.4798 105.18C1.92555 103.735 1.10841 102.406 0.0697935 101.26C-0.592482 100.47 -1.47776 99.8982 -2.47021 99.6197C-3.46684 99.4767 -4.48011 99.4969 -5.47021 99.6797L-7.73022 100.03L-4.09021 123.82C-3.98147 124.684 -3.81102 125.54 -3.5802 126.38C-3.48086 126.64 -3.32813 126.877 -3.13181 127.075C-2.93548 127.273 -2.69991 127.428 -2.44022 127.53C-1.70183 127.83 -0.89044 127.903 -0.1102 127.74L0.8898 127.58L1.01977 128.42L-14.8802 130.85L-15.0002 130L-14.0002 129.85C-13.2769 129.797 -12.5834 129.541 -12.0002 129.11C-11.6392 128.799 -11.3667 128.399 -11.2102 127.95C-11.0902 126.948 -11.1443 125.933 -11.3702 124.95L-15.0102 101.16L-17.2002 101.5C-18.3227 101.635 -19.4071 101.992 -20.3902 102.55C-21.2989 103.152 -21.9977 104.022 -22.3902 105.04C-22.9227 106.332 -23.1782 107.722 -23.1402 109.12L-23.9902 109.25L-25.2702 100.91L1.99979 96.7197Z" fill="white"/>
<path d="M8.69986 107.71L5.47986 64.5996L-0.460145 68.8796C-2.50961 70.2991 -4.39163 71.9463 -6.07016 73.7896C-7.47928 75.5294 -8.31118 77.6651 -8.45017 79.8996C-8.65831 82.7505 -8.09163 85.6046 -6.81015 88.1596L-7.72016 88.8096L-14.7202 76.4496L13.8398 55.8696L17.0898 98.9996L21.7099 95.6696C23.375 94.5307 24.8902 93.1868 26.2198 91.6696C27.2391 90.3438 27.8319 88.7397 27.9198 87.0696C28.0322 84.8491 27.5996 82.6347 26.6598 80.6196L27.5098 79.9996L33.3398 89.8896L8.69986 107.71Z" fill="white"/>
<path d="M25.3999 158.67L14.2899 158.67L14.2899 157.82C16.9311 157.013 19.2891 155.473 21.0899 153.38C22.7204 151.464 23.6046 149.025 23.5799 146.51C23.5799 142.916 22.1599 140.346 19.3199 138.8C16.0482 137.159 12.4176 136.365 8.75988 136.49C-0.95345 136.49 -5.81012 139.823 -5.81012 146.49C-5.77808 148.104 -5.45629 149.699 -4.86011 151.2L1.68988 151.2C4.24988 151.2 5.52987 150.13 5.52987 147.99L5.52987 147.19L6.38989 147.19L6.38989 162.27L5.52987 162.27C5.64376 161.75 5.62144 161.209 5.46505 160.701C5.30866 160.192 5.02351 159.732 4.63723 159.366C4.25096 159 3.77666 158.74 3.26028 158.611C2.7439 158.482 2.20296 158.488 1.68988 158.63L-4.86011 158.63C-6.67605 154.587 -7.60034 150.201 -7.57013 145.77C-7.64309 142.589 -6.92128 139.441 -5.47013 136.61C-4.16037 134.09 -2.20335 131.963 0.199886 130.45C2.69228 128.926 5.56922 128.149 8.48986 128.21C11.5398 128.145 14.5478 128.928 17.1799 130.47C19.6738 131.963 21.7403 134.074 23.1799 136.6C24.7085 139.317 25.482 142.393 25.4199 145.51C25.3782 148.032 24.8907 150.527 23.9799 152.88C23.6048 153.755 23.32 154.667 23.1299 155.6C23.1299 156.533 23.8865 157.263 25.3999 157.79L25.3999 158.67Z" fill="white"/>
<path d="M39.5601 135.31L38.4801 135.53C37.9691 134.155 36.9586 133.023 35.6501 132.36C33.1462 131.315 30.5333 130.553 27.8601 130.09L-4.91995 123.09L-5.11994 122.09L27.8801 99.0896C28.567 98.519 29.1033 97.7882 29.4415 96.9617C29.7798 96.1352 29.9098 95.2382 29.8201 94.3496L30.8901 94.1196L34.7801 112.65L33.7101 112.87L33.5801 112.24C33.0067 109.52 32.0867 108.293 30.8201 108.56C29.1547 109.311 27.5866 110.261 26.1501 111.39L8.34006 123.74L27.3401 127.74C30.6734 128.406 32.8301 128.653 33.8101 128.48C35.8101 128.053 36.4767 126.156 35.8101 122.79L36.8801 122.56L39.5601 135.31Z" fill="white"/>
<path d="M29.8099 146.47L26.8099 136.96L27.5799 136.71C28.7178 138.736 30.4681 140.35 32.5799 141.32C34.535 142.2 36.7513 142.303 38.7799 141.61C40.0406 141.232 41.1927 140.558 42.1406 139.645C43.0885 138.732 43.8048 137.606 44.2299 136.36C45.2233 133.693 45.1066 130.44 43.8799 126.6C41.1399 118.053 36.8066 114.72 30.8799 116.6C27.6333 117.64 25.1233 120.307 23.3499 124.6L22.5899 122.23C23.4424 120.347 24.6859 118.667 26.2376 117.302C27.7893 115.936 29.6138 114.916 31.5899 114.31C36.4299 112.763 40.5366 112.99 43.9099 114.99C47.1623 116.847 49.5916 119.866 50.7099 123.44C51.3526 125.379 51.5954 127.427 51.4235 129.463C51.2516 131.498 50.6687 133.477 49.7099 135.28C48.8232 137.12 47.5662 138.757 46.0175 140.089C44.4689 141.421 42.662 142.419 40.7099 143.02C38.6312 143.645 36.453 143.873 34.2899 143.69C33.4438 143.575 32.586 143.575 31.7399 143.69C30.7399 144 30.4099 144.84 30.6499 146.22L29.8099 146.47Z" fill="white"/>
<path d="M37.5897 74L24.9597 86C23.7622 87.0926 22.6921 88.317 21.7697 89.65C21.1257 90.5939 20.8288 91.7318 20.9297 92.87L20.0797 92.95L18.5797 77.05L19.4297 76.97C19.7163 78.55 20.2297 79.3033 20.9697 79.23C21.7097 79.1567 22.8497 78.3533 24.3897 76.82L32.6597 69L31.5997 68L23.1297 68.8C22.2604 68.8587 21.3975 68.9892 20.5497 69.19C20.2712 69.2863 20.0175 69.4428 19.8066 69.6485C19.5957 69.8543 19.4328 70.104 19.3297 70.38C19.0021 71.2085 18.8986 72.1088 19.0297 72.99L18.1797 73.07L16.7297 57.67L17.5797 57.59L17.6697 58.59C17.6539 59.0708 17.7485 59.5487 17.9461 59.9873C18.1437 60.4259 18.4391 60.8133 18.8097 61.12C19.9578 61.582 21.2156 61.7002 22.4297 61.46L42.8297 59.54C43.6976 59.4806 44.56 59.3569 45.4097 59.17C45.6737 59.0867 45.9176 58.9495 46.1259 58.767C46.3342 58.5845 46.5023 58.3608 46.6197 58.11C46.9648 57.4031 47.0868 56.6079 46.9697 55.83L46.8797 54.83L47.7297 54.75L49.1597 69.95L48.3097 70.03C48.2651 69.334 48.0815 68.6539 47.7697 68.03C47.5273 67.5575 47.1327 67.1805 46.6497 66.96C45.6213 66.7289 44.5573 66.7051 43.5197 66.89L33.8797 67.8L44.2497 78.25C45.6897 79.71 46.7963 80.4033 47.5697 80.33C47.7897 80.3055 48.0018 80.2339 48.1916 80.12C48.3815 80.0061 48.5445 79.8526 48.6697 79.67C48.9763 79.27 49.0663 78.2933 48.9397 76.74L49.7897 76.66L50.9097 88.57L50.0597 88.65C49.9362 87.7819 49.6367 86.9482 49.1797 86.2C48.1151 84.8119 46.9449 83.508 45.6797 82.3L37.5897 74Z" fill="white"/>
<path d="M-1.39028 177.36L-2.28026 185.43C-2.4072 186.3 -2.45074 187.181 -2.41027 188.06C-2.33594 188.581 -2.05929 189.051 -1.64028 189.37C-0.772 189.87 0.207824 190.145 1.20973 190.17L1.11973 190.97L-13.4203 189.36L-13.3302 188.56C-12.5419 188.685 -11.7387 188.685 -10.9503 188.56C-10.415 188.479 -9.92775 188.205 -9.58025 187.79C-9.14535 186.827 -8.90737 185.786 -8.88027 184.73L-6.80025 165.86C-6.67367 164.983 -6.63348 164.095 -6.68025 163.21C-6.75958 162.691 -7.03972 162.224 -7.46025 161.91C-8.32145 161.41 -9.29473 161.135 -10.2903 161.11L-10.2003 160.32L2.27974 161.7C9.97307 162.553 13.5298 165.583 12.9498 170.79C12.8314 172.535 12.0938 174.18 10.8697 175.43C9.63992 176.593 8.07003 177.333 6.38975 177.54C3.79865 177.794 1.18631 177.733 -1.39028 177.36ZM0.179731 163.13L-1.21025 175.7C1.89641 176.04 3.81974 175.54 4.55974 174.2C5.2786 172.93 5.73752 171.529 5.90974 170.08C6.36974 165.92 4.74973 163.636 1.04973 163.23L0.179731 163.13Z" fill="white"/>
<path d="M52.0599 91.6899L44.1899 110.77L32.5499 110.7L32.5499 109.91L33.4699 109.91C34.0729 109.933 34.6736 109.824 35.2299 109.59C35.655 109.396 36.0059 109.07 36.2299 108.66C36.5234 107.733 36.6387 106.759 36.5699 105.79L36.6799 86.6599C36.7044 85.8517 36.6677 85.0427 36.5699 84.2399C36.4445 83.7486 36.1371 83.3232 35.7099 83.0499C35.0846 82.6424 34.345 82.4462 33.5999 82.4899L32.6799 82.4899L32.6799 81.6899L47.6099 81.7799L47.6099 82.5799L46.6899 82.5799C45.4032 82.5799 44.5632 82.8599 44.1699 83.4199C43.6806 84.4508 43.4736 85.593 43.5699 86.7299L43.4499 108.24L54.5599 81.8299L55.0699 81.8299L66.0699 108.17L66.1899 87.7299C66.2226 86.7644 66.1758 85.7978 66.0499 84.8399C65.9715 84.519 65.8258 84.2183 65.6223 83.958C65.4189 83.6977 65.1624 83.4836 64.8699 83.3299C64.0069 82.8496 63.0264 82.6209 62.0399 82.6699L62.0399 81.8699L70.8999 81.9299L70.8999 82.7299L70.5999 82.7299C69.5999 82.7299 69.6999 82.9199 69.1399 83.3199C68.6312 83.657 68.248 84.1527 68.0499 84.7299C67.839 85.6882 67.7516 86.6695 67.7899 87.6499L67.6899 106C67.6664 106.805 67.6998 107.61 67.7899 108.41C67.8438 108.659 67.949 108.895 68.0987 109.101C68.2485 109.308 68.4396 109.481 68.6599 109.61C69.2918 109.991 70.0228 110.175 70.7599 110.14L70.7599 110.94L59.9999 110.86L52.0599 91.6899Z" fill="white"/>
<path d="M44.5999 118.85L43.8199 118.43L51.6999 103.68L52.4899 104.1L51.9899 105.04C51.3232 106.28 51.1666 107.243 51.5199 107.93C52.2901 108.964 53.3271 109.769 54.5199 110.26L73.3699 120.33C74.1576 120.775 74.9764 121.163 75.8199 121.49C76.0981 121.569 76.3894 121.591 76.6763 121.555C76.9633 121.519 77.24 121.425 77.4899 121.28C78.1983 120.869 78.7638 120.252 79.1099 119.51L79.6099 118.57L80.3999 118.99L72.5199 133.74L71.7399 133.32L72.2399 132.39C72.9066 131.13 73.0666 130.156 72.7199 129.47C71.9512 128.434 70.9137 127.628 69.7199 127.14L50.8699 117.08C50.0817 116.633 49.263 116.242 48.4199 115.91C48.143 115.83 47.8526 115.808 47.5669 115.846C47.2812 115.884 47.0065 115.981 46.7599 116.13C46.0485 116.553 45.4806 117.18 45.1299 117.93L44.5999 118.85Z" fill="white"/>
<path d="M35.1798 56.65C32.5368 57.8989 29.6306 58.4891 26.7098 58.37C24.032 58.1694 21.4628 57.2276 19.2898 55.65C16.8835 53.9068 15.0102 51.5279 13.8798 48.78C12.0936 44.9257 11.8608 40.5315 13.2298 36.51C14.5631 32.4367 17.5098 29.41 22.0698 27.43C27.0098 25.2633 31.3931 25.16 35.2198 27.12C38.9089 28.9398 41.8298 32.0132 43.4598 35.79C44.5416 38.2 45.0385 40.8315 44.9098 43.47C44.7538 46.15 43.8762 48.738 42.3698 50.96C40.5843 53.522 38.0835 55.5011 35.1798 56.65ZM34.3498 55.43C39.3165 53.2567 39.8531 47.7267 35.9598 38.84C32.1265 30.0933 27.7465 26.8 22.8198 28.96C17.8931 31.12 17.3298 36.5167 21.1298 45.15C25.0431 54.1433 29.4498 57.57 34.3498 55.43Z" fill="white"/>
<path d="M44.68 7.86L35.25 4.68C34.4229 4.37837 33.5737 4.141 32.7101 3.97C32.42 3.93565 32.126 3.96048 31.8459 4.04298C31.5657 4.12548 31.3052 4.26395 31.08 4.45C30.4571 4.97034 30.0072 5.66789 29.79 6.45L29.45 7.45L28.62 7.17L33.91 -8.5L34.7401 -8.22L34.41 -7.22C34.1927 -6.77464 34.0797 -6.28558 34.0797 -5.79C34.0797 -5.29442 34.1927 -4.80536 34.41 -4.36C35.2978 -3.43957 36.4338 -2.79686 37.68 -2.51L57.68 4.25C58.5208 4.55689 59.3831 4.8009 60.26 4.98C60.5429 5.00955 60.8287 4.98136 61.1003 4.89713C61.3719 4.8129 61.6236 4.67439 61.84 4.49C62.463 3.96966 62.9129 3.27211 63.1301 2.49L63.4601 1.49L64.29 1.77L59 17.44L58.17 17.16L58.51 16.16C58.7267 15.7144 58.8393 15.2255 58.8393 14.73C58.8393 14.2345 58.7267 13.7456 58.51 13.3C58.0767 12.6333 56.99 12.0133 55.25 11.44L46.64 8.53L43.06 19.12L51.67 22.03C52.5119 22.3359 53.374 22.5831 54.25 22.77C54.5353 22.802 54.8241 22.7741 55.0979 22.688C55.3717 22.6019 55.6245 22.4595 55.84 22.27C56.4616 21.7465 56.914 21.0505 57.14 20.27L57.47 19.27L58.3 19.55L53 35.2L52.17 34.92L52.5 33.92C52.9534 32.5867 52.9534 31.61 52.5 30.99C51.5947 30.1103 50.4682 29.4918 49.24 29.2L29.24 22.44C28.3946 22.1345 27.5293 21.8872 26.65 21.7C26.3677 21.6629 26.0807 21.6865 25.8082 21.7693C25.5357 21.8521 25.2841 21.9921 25.0701 22.18C24.4522 22.7048 24.0034 23.4007 23.78 24.18L23.45 25.18L22.61 24.9L27.89 9.25L28.73 9.53L28.4 10.53C27.9467 11.8633 27.9467 12.8433 28.4 13.47C29.3026 14.3481 30.4254 14.9665 31.65 15.26L41.08 18.44L44.68 7.86Z" fill="white"/>
<path d="M39.55 48.6097L40.4 46.9397L42.55 48.0197C44.63 49.0197 46.23 49.2497 47.29 48.5797C48.35 47.9097 49.94 45.5798 51.29 42.8498L67.56 10.3597C69.47 6.53975 69.8 3.98975 69.56 3.14975C69.22 1.94975 68.15 0.889749 66.4 0.00974878L64.25 -1.07025L65.13 -2.51026L102.77 16.3397L97.37 28.4598L96.07 27.7797L96.14 27.4398C96.99 24.6398 97.61 22.5997 96.81 20.1397C96.18 18.1397 92.81 15.8297 88.81 13.7897L78.28 8.51974L68.79 27.4598L77.41 31.7797C79.59 32.8697 81.97 33.4197 83.22 32.7797C84.9523 31.7495 86.3888 30.2889 87.39 28.5397L87.61 28.1997L89.1 28.9697L80.16 46.8097L78.63 46.0198L78.83 45.6197C80.03 43.1297 80.41 41.1398 79.95 39.6897C79.49 38.2397 77.57 36.6897 75.46 35.6397L66.84 31.3198L59.13 46.7098C57.45 50.0698 56.86 51.9197 56.87 52.4497C56.9341 53.3341 57.2852 54.1733 57.87 54.8397C58.5106 55.6773 59.3307 56.3607 60.27 56.8397L62.48 57.9397L61.63 59.6097L39.55 48.6097Z" fill="white"/>
<path d="M61 42.1997L61.1 41.1997L78.98 42.9197L78.88 43.9197L77.79 43.8197C76.2766 43.6731 75.2566 43.943 74.73 44.6297C74.0311 45.9169 73.657 47.3552 73.64 48.8197L71.89 67.0697C71.7082 69.3896 71.262 71.6811 70.56 73.8997C69.9283 75.7427 68.6633 77.3018 66.99 78.2997C64.942 79.4565 62.5664 79.8964 60.24 79.5497C57.9363 79.3112 55.7633 78.3644 54.02 76.8397C53.1116 76.1153 52.4059 75.1684 51.9713 74.0908C51.5368 73.0132 51.3882 71.8416 51.54 70.6897C51.6348 69.6274 52.0576 68.6209 52.75 67.8097C53.0946 67.4002 53.5384 67.0859 54.0392 66.8968C54.5399 66.7077 55.0807 66.6502 55.61 66.7297C56.512 66.8274 57.3474 67.2504 57.96 67.9197C58.3089 68.2992 58.5674 68.7527 58.7164 69.2462C58.8653 69.7398 58.9007 70.2606 58.82 70.7697C58.709 71.688 58.3378 72.5555 57.75 73.2697C57.2996 73.7473 56.9584 74.3172 56.75 74.9397C56.6233 76.273 57.5933 77.0397 59.66 77.2397C60.1879 77.3491 60.7373 77.2736 61.2161 77.026C61.6949 76.7784 62.0741 76.3737 62.29 75.8797C62.7566 74.853 63.1967 72.203 63.61 67.9297L65.5 47.9997C65.6217 46.9643 65.6784 45.9222 65.67 44.8797C65.6419 44.5582 65.5496 44.2456 65.3984 43.9604C65.2472 43.6753 65.0403 43.4234 64.79 43.2197C64.1064 42.6634 63.2607 42.3441 62.38 42.3097L61 42.1997Z" fill="white"/>
<path d="M70.5298 95.0998L71.2998 94.9398L71.4898 95.8598C71.5919 96.4532 71.8241 97.0167 72.1698 97.5098C72.4364 97.8922 72.8238 98.1739 73.2698 98.3098C74.246 98.389 75.2285 98.2908 76.1698 98.0198L94.7598 94.1898C95.5534 94.0475 96.3356 93.847 97.0998 93.5898C97.3325 93.484 97.5412 93.332 97.7131 93.1428C97.8851 92.9537 98.0166 92.7315 98.0998 92.4898C98.3487 91.8064 98.3836 91.0635 98.1998 90.3598L98.0098 89.4398L98.7798 89.2798L101.35 101.73C102.436 106.983 101.97 111.156 99.9498 114.25C97.9298 117.343 94.7364 119.343 90.3698 120.25C85.8164 121.19 82.0531 120.523 79.0798 118.25C76.1064 115.976 74.1064 112.403 73.0798 107.53L70.5298 95.0998ZM99.3498 100.21L77.3498 104.76C76.5182 104.867 75.7234 105.169 75.0298 105.64C74.6431 105.986 74.5564 106.676 74.7698 107.71C75.8298 112.836 80.4664 114.553 88.6798 112.86C91.2937 112.421 93.7991 111.484 96.0598 110.1C97.5582 109.201 98.7449 107.864 99.4598 106.27C99.9664 104.896 99.9331 102.876 99.3598 100.21L99.3498 100.21Z" fill="white"/>
<path d="M70.27 135.64L60.68 171.15L76.74 159.15C79.2867 157.243 80.62 155.577 80.74 154.15C80.7201 152.363 80.0602 150.642 78.88 149.3L79.88 148.53L88.98 160.69L87.98 161.45C86.34 159.637 84.8933 158.703 83.64 158.65C82.3866 158.597 80.5933 159.44 78.26 161.18L47.14 184.46L46.45 183.54L58.95 135.36L35.2 153.12C31.54 155.86 30.9 158.82 33.28 162L33.93 162.86L32.93 163.63L23.16 150.56L24.16 149.79C25.66 151.79 27.1233 152.883 28.55 153.07C29.9767 153.257 31.6967 152.59 33.71 151.07L60.09 131.34L60.49 129.82C60.8289 128.73 60.915 127.578 60.7417 126.45C60.5684 125.322 60.1404 124.248 59.49 123.31L60.49 122.54L70.27 135.64Z" fill="white"/>
<path d="M42.7599 189.16L41.9199 188.93C42.0538 188.161 42.0128 187.371 41.7999 186.62C41.5866 185.913 40.1366 184.167 37.4499 181.38L28.1199 171.71L20.6699 169.64C19.8174 169.385 18.9488 169.188 18.0699 169.05C17.7884 169.03 17.5059 169.068 17.2394 169.161C16.9729 169.253 16.7281 169.4 16.5199 169.59C15.9354 170.119 15.5329 170.819 15.3699 171.59L14.8899 173.3L13.9999 173L18.7299 156L19.5699 156.23L19.1299 157.82C18.8799 158.519 18.8348 159.276 18.9999 160C19.1439 160.462 19.4058 160.879 19.7599 161.21C20.6536 161.741 21.6308 162.116 22.6499 162.32L28.8299 164.03L44.0099 160.56C45.7573 160.233 47.464 159.716 49.0999 159.02C49.5258 158.772 49.8969 158.441 50.1908 158.045C50.4847 157.65 50.6954 157.199 50.8099 156.72L51.6499 156.95L47.6499 171.5L46.8099 171.27L46.9899 170.62C47.4299 169.04 47.2499 168.14 46.4399 167.91C45.8999 167.763 44.3632 167.977 41.8299 168.55L30.1099 171.22L37.8699 179.22C39.8032 181.22 41.1366 182.317 41.8699 182.51C42.8766 182.79 43.7599 181.817 44.5199 179.59L45.3599 179.82L42.7599 189.16Z" fill="white"/>
<path d="M105.61 146.58L93.0001 140.13L92.6901 140.73C90.9368 144.163 92.3768 147.373 97.0101 150.36L96.5701 151.21L80.3401 142.91L80.7801 142.06C83.6134 143.167 85.8068 143.5 87.3601 143.06C88.9134 142.62 90.2234 141.357 91.2901 139.27L82.5601 134.81C80.4334 133.723 79.0434 133.307 78.3901 133.56C77.7368 133.813 76.8434 135.05 75.7101 137.27C72.8701 142.823 73.7834 147.733 78.4501 152L78.0201 152.84L68.8701 146.42L82.3401 120L83.1901 120.44L82.6701 121.44C82.0034 122.773 81.8534 123.81 82.2201 124.55C82.5868 125.29 83.6634 126.107 85.4501 127L105.86 137.43C106.735 137.899 107.636 138.317 108.56 138.68C108.851 138.763 109.156 138.783 109.455 138.736C109.754 138.689 110.039 138.578 110.29 138.41C111.036 137.922 111.623 137.227 111.98 136.41L112.5 135.41L113.35 135.84L100.28 161.41L91.1201 156.73L91.5601 155.88C94.3334 156.693 96.4501 156.85 97.9101 156.35C99.2166 155.95 100.387 155.195 101.29 154.17C102.348 152.792 103.26 151.307 104.01 149.74L105.61 146.58Z" fill="white"/>
<path d="M74.7701 184.8C71.7168 187.28 70.8901 190.416 72.2901 194.21C72.4944 194.76 72.7453 195.292 73.0401 195.8L71.8501 196.24C70.7593 194.706 69.8624 193.044 69.1801 191.29C67.2601 186.09 68.2868 181.656 72.2601 177.99C71.9034 175.775 72.0887 173.507 72.8001 171.38C73.4982 169.347 74.6547 167.503 76.1801 165.99C77.8215 164.376 79.7984 163.143 81.9701 162.38C84.4752 161.39 87.2006 161.093 89.8601 161.52C92.3266 161.95 94.6349 163.027 96.5501 164.64C98.5985 166.401 100.141 168.675 101.02 171.23C101.761 173.046 102.12 174.996 102.076 176.957C102.032 178.918 101.585 180.85 100.764 182.631C99.9426 184.413 98.7639 186.006 97.3011 187.313C95.8383 188.621 94.1225 189.613 92.2601 190.23C89.0574 191.459 85.5328 191.569 82.2601 190.54C79.1128 189.672 76.4266 187.613 74.7701 184.8ZM99.5101 171.8C97.7968 167.133 92.7968 166.343 84.5101 169.43C76.2235 172.516 72.9301 176.37 74.6301 180.99C76.3435 185.656 81.2068 186.506 89.2201 183.54C97.7935 180.34 101.223 176.413 99.5101 171.76L99.5101 171.8Z" fill="white"/>
<path d="M97.3799 55.5196L96.9699 67.6896L95.8899 67.6296C95.6271 64.885 94.5076 62.2927 92.6899 60.2196C91.8949 59.2501 90.9079 58.4556 89.791 57.886C88.6741 57.3163 87.4515 56.9839 86.1999 56.9096C84.7667 56.8205 83.3403 57.1692 82.1099 57.9096C81.5012 58.2715 80.9969 58.7852 80.6463 59.4004C80.2957 60.0157 80.1109 60.7115 80.1099 61.4196C80.0825 62.0906 80.1985 62.7596 80.4503 63.3822C80.702 64.0047 81.0838 64.5664 81.5699 65.0296C83.6567 66.8623 85.9566 68.4369 88.4199 69.7196C92.7466 72.1863 95.5199 74.4063 96.7399 76.3796C97.9301 78.2424 98.5039 80.4325 98.3799 82.6396C98.3259 84.1627 97.9292 85.654 97.2194 87.0027C96.5095 88.3514 95.5048 89.5227 94.2799 90.4296C91.7143 92.4024 88.5052 93.3473 85.2799 93.0796C82.8723 92.851 80.5339 92.1474 78.3999 91.0096C77.7552 90.6602 77.0488 90.4395 76.3199 90.3596C75.1599 90.2929 74.2232 90.9596 73.5099 92.3596L72.5099 92.2996L73.2999 78.5396L74.2999 78.5996C74.6767 81.8297 75.9594 84.8874 77.9999 87.4196C78.875 88.5261 79.9762 89.433 81.2299 90.0797C82.4837 90.7264 83.861 91.098 85.2699 91.1696C86.8723 91.2727 88.466 90.8629 89.8199 89.9996C90.4934 89.5904 91.0522 89.0172 91.4439 88.3334C91.8357 87.6495 92.0476 86.8776 92.0599 86.0896C92.0991 85.3805 91.9953 84.6707 91.7548 84.0025C91.5143 83.3342 91.142 82.7211 90.6599 82.1996C88.9653 80.5141 87.0228 79.0977 84.8999 77.9996C80.8999 75.6863 78.0599 73.5563 76.3799 71.6096C75.5648 70.6569 74.9463 69.5523 74.5602 68.3595C74.174 67.1667 74.0278 65.9092 74.1299 64.6596C74.1788 63.2542 74.5281 61.8756 75.1542 60.6164C75.7803 59.3572 76.6688 58.2468 77.7599 57.3596C80.0056 55.4807 82.9022 54.5643 85.8199 54.8096C87.6593 54.9828 89.4466 55.5162 91.0799 56.3796C92.1941 56.9957 93.3751 57.4822 94.5999 57.8296C95.4666 57.8763 96.1332 57.0763 96.5999 55.4296L97.3799 55.5196Z" fill="white"/>
<path d="M99.36 40.1001L103.77 50.79L107.29 50.79C108.217 50.8377 109.144 50.7052 110.02 50.4C110.321 50.2868 110.597 50.1142 110.831 49.8927C111.064 49.6711 111.251 49.405 111.38 49.11C111.64 48.5167 111.45 47.2834 110.81 45.41L111.65 45.06L115.79 55.11L114.95 55.4601C114.368 54.4703 113.454 53.719 112.37 53.34C110.545 52.8499 108.659 52.621 106.77 52.66L77.83 52L77.66 51.58L98.34 30.31C99.5928 29.1265 100.682 27.7813 101.58 26.31C101.797 25.857 101.92 25.3649 101.942 24.8633C101.964 24.3616 101.886 23.8606 101.71 23.39L102.55 23.04L108.55 37.67L107.71 38.02L107.46 37.41C106.647 35.41 105.727 34.6367 104.7 35.09C103.882 35.5863 103.144 36.2032 102.51 36.92L99.36 40.1001ZM98.01 41.55L89.29 50.42L101.78 50.69L98.01 41.55Z" fill="white"/>
<path d="M117.83 75.2899C116.017 81.9565 112.76 85.1465 108.06 84.8599C106.626 84.7941 105.232 84.3662 104.008 83.616C102.784 82.8659 101.77 81.8179 101.06 80.5699C99.3735 77.9032 98.6601 74.2132 98.9201 69.4999L99.9201 51.3599L100.92 51.4099C100.836 52.3948 100.907 53.3869 101.13 54.3499C101.255 54.9993 101.61 55.5818 102.13 55.9899C103.349 56.4655 104.652 56.6899 105.96 56.6499L129.5 57.9499C130.594 58.0569 131.696 58.0569 132.79 57.9499C133.106 57.8848 133.406 57.7576 133.672 57.5756C133.938 57.3937 134.165 57.1605 134.34 56.8899C134.903 55.786 135.178 54.5582 135.14 53.3199L136.14 53.3699L135.2 70.4899C135.107 72.8908 134.772 75.2762 134.2 77.6099C133.675 79.5292 132.52 81.2163 130.92 82.3999C129.334 83.6651 127.335 84.2959 125.31 84.1699C121.457 83.9499 118.963 80.9899 117.83 75.2899ZM119.09 65.7299C118.75 71.8632 120.983 75.0599 125.79 75.3199C127.62 75.4694 129.441 74.935 130.9 73.8199C132.333 72.7132 133.153 70.2765 133.36 66.5099L119.09 65.7299ZM117 65.6099L104.08 64.9199C102.08 64.7865 101.043 65.6765 100.97 67.5899C100.853 68.6171 100.962 69.6575 101.288 70.6385C101.615 71.6194 102.151 72.5175 102.86 73.2699C104.304 74.6977 106.24 75.5173 108.27 75.5599C111.037 75.7132 113.137 75.0465 114.57 73.5599C116.003 72.0732 116.813 69.4232 117 65.6099Z" fill="white"/>
<path d="M133.31 179.31L127.22 187.94L126.4 187.36C127.149 185.577 127.566 183.672 127.63 181.74C127.719 180.453 127.416 179.17 126.76 178.06C125.983 177.052 125.043 176.18 123.98 175.48L121.64 173.83L104.25 198.45C103.601 199.325 103.013 200.244 102.49 201.2C102.353 201.515 102.282 201.856 102.282 202.2C102.282 202.544 102.353 202.884 102.49 203.2C102.894 204.115 103.562 204.888 104.41 205.42L105.46 206.16L104.84 207.03L88.3801 195.41L89.0001 194.54L90.0001 195.27C90.7021 195.821 91.5432 196.167 92.4301 196.27C93.0283 196.303 93.6249 196.179 94.1601 195.91C95.1447 195.102 95.9835 194.131 96.6401 193.04L114.1 168.49L111.84 166.89C110.71 166.038 109.421 165.419 108.05 165.07C106.711 164.832 105.332 165.014 104.1 165.59C102.5 166.285 101.062 167.307 99.8801 168.59L99.0001 168L105.09 159.37L133.31 179.31Z" fill="white"/>
<path d="M54.1099 -18.5004L53.5999 -17.6804C53.244 -17.8981 52.845 -18.0359 52.4306 -18.0843C52.0163 -18.1326 51.5963 -18.0903 51.1999 -17.9604C49.5806 -17.1361 48.0607 -16.1296 46.6699 -14.9604L22.1199 3.99961L21.2799 3.47961L25.9399 -20.3404L5.93986 -6.04039L5.12987 -6.54039L11.3298 -41.1804C11.4225 -41.8621 11.3377 -42.5562 11.0837 -43.1956C10.8297 -43.835 10.4151 -44.3981 9.87987 -44.8304L10.3899 -45.6504L23.1599 -37.7304L22.6499 -36.9104C20.9099 -37.9304 19.7365 -37.9504 19.1299 -36.9704C18.5467 -35.6133 18.166 -34.178 17.9999 -32.7104L14.7799 -14.6204L26.4299 -23.0804L27.1799 -27.0004C27.6309 -28.7899 27.8029 -30.6384 27.6899 -32.4804C27.5248 -33.0484 27.243 -33.5758 26.8624 -34.0286C26.4819 -34.4815 26.011 -34.85 25.4799 -35.1104L25.9899 -35.9304L40.2599 -27.0804L39.7499 -26.2604C37.6432 -27.5204 36.2732 -27.6371 35.6399 -26.6104C35.1659 -25.416 34.8304 -24.1712 34.6399 -22.9004L31.2199 -5.40039L43.9999 -15.2404C45.3667 -16.1823 46.5866 -17.3213 47.6199 -18.6204C48.4132 -19.9004 47.8465 -21.1671 45.9199 -22.4204L46.4299 -23.2404L54.1099 -18.5004Z" fill="white"/>
<path d="M74.4201 -2.27029L74.9101 -3.00029L75.7701 -2.42029C76.3126 -2.03069 76.9338 -1.76447 77.5901 -1.64029C78.0963 -1.54125 78.621 -1.61521 79.0801 -1.85029C79.9092 -2.54746 80.6069 -3.38736 81.1401 -4.33029L92.8501 -21.7903C93.3662 -22.5184 93.8275 -23.2838 94.2301 -24.0803C94.3332 -24.3449 94.3811 -24.6277 94.3708 -24.9115C94.3605 -25.1953 94.2922 -25.4739 94.1701 -25.7303C93.8329 -26.4628 93.2821 -27.0763 92.5901 -27.4903L91.7301 -28.0703L92.2201 -28.8003L103.91 -20.9603C108.843 -17.627 111.71 -13.9603 112.51 -9.96029C113.31 -5.96029 112.337 -1.90696 109.59 2.19971C106.723 6.47304 103.247 8.87638 99.1601 9.40971C95.0734 9.94305 90.7401 8.66304 86.1601 5.56971L74.4201 -2.27029ZM101.15 -20.6003L87.2701 0.0797108C86.6971 0.808244 86.3032 1.66113 86.1201 2.56971C86.0801 3.14304 86.5468 3.75638 87.5201 4.40971C92.3334 7.63638 97.3334 5.39638 102.52 -2.31029C104.244 -4.68325 105.497 -7.3651 106.21 -10.2103C106.699 -12.0844 106.602 -14.0635 105.93 -15.8803C105.263 -17.3603 103.67 -18.9336 101.15 -20.6003Z" fill="white"/>
<path d="M139.37 95.34L104.15 127.21L111.87 129.47C114.469 130.29 117.153 130.813 119.87 131.03C122.331 131.082 124.746 130.365 126.78 128.98C129.394 127.235 131.487 124.816 132.84 121.98L134.02 122.33L128.02 136.72L90.9001 125.83L126.16 93.92L120.16 92.16C118.056 91.4822 115.876 91.069 113.67 90.9299C111.832 90.9428 110.04 91.5109 108.53 92.56C106.531 93.9606 104.904 95.828 103.79 98L102.68 97.6799L107.32 85.96L139.37 95.34Z" fill="white"/>
<path d="M124.91 158.48L131.02 164.08C131.661 164.706 132.361 165.268 133.11 165.76C133.578 166.005 134.125 166.056 134.63 165.9C135.551 165.495 136.356 164.866 136.97 164.07L137.57 164.61L127.49 175.61L126.89 175.06C127.457 174.471 127.926 173.796 128.28 173.06C128.531 172.58 128.602 172.027 128.48 171.5C127.957 170.564 127.249 169.744 126.4 169.09L112.27 156.09C111.633 155.467 110.94 154.904 110.2 154.41C109.968 154.283 109.714 154.204 109.451 154.177C109.188 154.149 108.923 154.174 108.67 154.25C107.744 154.655 106.936 155.288 106.32 156.09L105.72 155.54L114.87 145.54C118.79 141.273 121.867 139.13 124.1 139.11C126.231 139.046 128.301 139.826 129.86 141.28C132.707 143.893 133.073 147.16 130.96 151.08L143.07 152.68C144.117 152.853 145.18 152.913 146.24 152.86C146.952 152.746 147.605 152.394 148.09 151.86L148.69 152.41L142.49 159.17L126.23 156.96L124.91 158.48ZM114.23 148.67L123.77 157.42L124.59 156.52C126.377 154.573 127.337 152.826 127.47 151.28C127.603 149.733 126.81 148.173 125.09 146.6C121.85 143.62 118.747 143.746 115.78 146.98L114.23 148.67Z" fill="white"/>
<path d="M122.92 4.34972L116.92 13.8297C116.243 14.8336 115.66 15.8981 115.18 17.0097C114.965 17.6693 115.015 18.3865 115.32 19.0097C116.029 20.1092 117.016 21.0025 118.18 21.5997L117.6 22.5297L101.29 12.2397L101.87 11.3097C102.736 11.8951 103.692 12.3343 104.7 12.6097C105.382 12.8105 106.114 12.7572 106.76 12.4597C107.32 12.1664 108.217 11.0431 109.45 9.08972L123.3 -12.9103C123.955 -13.8894 124.523 -14.9232 125 -16.0003C125.226 -16.6567 125.182 -17.3756 124.88 -18.0003C124.164 -19.1036 123.171 -20.0001 122 -20.6003L122.58 -21.5303L137.4 -12.1803C143.74 -8.18028 147.16 -4.72028 147.66 -1.80028C148.179 1.01267 147.603 3.9176 146.05 6.31972C143.263 10.7397 139.113 12.0731 133.6 10.3197L134.05 26.6097C134.041 28.0207 134.182 29.4286 134.47 30.8097C134.754 31.7018 135.341 32.4661 136.13 32.9697L135.55 33.8997L125.55 27.5597L125.02 5.66972L122.92 4.34972ZM133.39 -12.2403L124 2.57973L125.34 3.41972C128.24 5.24639 130.703 6.03973 132.73 5.79973C134.757 5.55973 136.61 4.10972 138.29 1.44972C141.47 -3.59028 140.66 -7.62361 135.86 -10.6503L133.39 -12.2403Z" fill="white"/>
<path d="M118.8 59.4697L118.23 58.8597C118.94 57.996 119.297 56.8957 119.23 55.7797C118.933 53.7272 118.406 51.7146 117.66 49.7797L109.41 25.6597L109.95 25.1597L137.86 37.7097C138.5 37.933 139.184 37.9959 139.854 37.8931C140.523 37.7902 141.157 37.5246 141.7 37.1197L142.27 37.7297L131.71 47.5097L131.14 46.8997L131.5 46.5697C133.053 45.1297 133.493 44.0497 132.82 43.3297C131.68 42.537 130.447 41.8855 129.15 41.3897L114.15 34.6097L119 48.5597C119.427 50.1581 120.102 51.6799 121 53.0697C122.067 54.2163 123.56 53.8997 125.48 52.1197L126.05 52.7297L118.8 59.4697Z" fill="white"/>
</g>
</g>
<defs>
<clipPath id="clip0_967_8099">
<rect width="400" height="400" fill="white" transform="translate(270 -114) rotate(90)"/>
</clipPath>
</defs>
</svg>
