<svg width="312" height="312" viewBox="0 0 312 312" fill="none" xmlns="http://www.w3.org/2000/svg">
<path d="M285.411 156.634L287.394 156.787L294.289 173.377L291.117 173.131L286.165 160.432L286.355 160.547L285.86 160.508L286.065 160.425L279.22 172.212L276.048 171.967L285.411 156.634Z" fill="white"/>
<path d="M299.981 181.509L298.992 185.053L276.315 187.704L276.235 187.991L294.26 202.004L293.271 205.548L268.754 198.704L269.529 195.926L288.157 201.126L288.223 200.887L271.735 188.025L272.483 185.344L293.249 182.882L293.316 182.642L274.689 177.443L275.464 174.665L299.981 181.509Z" fill="white"/>
<path d="M267.599 200.925L290.494 212.049L283.781 225.866L281.321 224.671L286.688 213.626L278.951 209.868L273.933 220.197L271.473 219.002L276.492 208.673L268.711 204.892L263.258 216.116L260.798 214.921L267.599 200.925Z" fill="white"/>
<path d="M279.62 228.014L281.871 229.566L271.04 245.286L268.788 243.735L273.329 237.144L254.62 224.253L256.369 221.715L275.078 234.605L279.62 228.014Z" fill="white"/>
<path d="M248.687 232.517L250.922 230.182L262.845 254.536L260.645 256.835L235.794 245.984L238.029 243.649L258.768 252.973L258.905 252.829L248.687 232.517ZM255.044 240.254L246.037 249.664L244.062 247.773L253.069 238.364L255.044 240.254Z" fill="white"/>
<path d="M229.857 250.755L243.991 271.925L236.837 276.701C235.177 277.81 233.619 278.416 232.164 278.521C230.707 278.637 229.386 278.358 228.199 277.686C227.013 277.013 226.004 276.053 225.171 274.806C224.338 273.559 223.836 272.255 223.665 270.894C223.488 269.539 223.723 268.206 224.373 266.895C225.027 265.592 226.178 264.39 227.825 263.291L232.952 259.868L234.47 262.142L229.425 265.51C228.288 266.269 227.506 267.075 227.08 267.928C226.653 268.78 226.507 269.645 226.643 270.52C226.777 271.407 227.127 272.274 227.693 273.122C228.259 273.97 228.924 274.622 229.687 275.079C230.443 275.54 231.296 275.728 232.245 275.642C233.199 275.564 234.251 275.14 235.402 274.372L239.909 271.363L227.293 252.467L229.857 250.755Z" fill="white"/>
<path d="M214.096 261.151L224.707 284.289L216.889 287.874C215.081 288.703 213.456 289.075 212.012 288.989C210.573 288.911 209.329 288.465 208.281 287.651C207.233 286.837 206.397 285.748 205.772 284.385C205.147 283.022 204.871 281.685 204.945 280.375C205.018 279.065 205.493 277.845 206.369 276.714C207.249 275.59 208.585 274.617 210.378 273.795L216.704 270.894L217.865 273.425L211.628 276.285C210.393 276.851 209.482 277.488 208.895 278.195C208.3 278.905 207.985 279.669 207.95 280.488C207.911 281.317 208.104 282.195 208.528 283.121C208.953 284.047 209.498 284.778 210.162 285.312C210.826 285.846 211.625 286.127 212.558 286.154C213.495 286.19 214.589 285.921 215.839 285.347L220.765 283.088L211.294 262.436L214.096 261.151ZM207.971 276.54L197.511 268.757L200.765 267.265L211.135 275.089L207.971 276.54Z" fill="white"/>
<path d="M179.913 286.705C179.23 284.109 179.109 281.742 179.55 279.604C179.99 277.466 180.893 275.67 182.258 274.214C183.623 272.759 185.356 271.755 187.455 271.203C189.555 270.651 191.557 270.673 193.461 271.269C195.366 271.865 197.035 272.986 198.47 274.63C199.905 276.275 200.963 278.396 201.646 280.992C202.328 283.589 202.449 285.956 202.009 288.094C201.568 290.231 200.666 292.028 199.3 293.483C197.935 294.939 196.203 295.943 194.103 296.494C192.004 297.046 190.002 297.024 188.097 296.428C186.193 295.832 184.523 294.712 183.088 293.067C181.654 291.422 180.595 289.302 179.913 286.705ZM182.798 285.947C183.358 288.079 184.187 289.784 185.286 291.063C186.377 292.344 187.626 293.202 189.034 293.637C190.434 294.075 191.88 294.097 193.37 293.706C194.861 293.314 196.112 292.582 197.124 291.511C198.128 290.442 198.794 289.08 199.122 287.426C199.442 285.774 199.321 283.882 198.761 281.751C198.201 279.619 197.375 277.913 196.284 276.631C195.186 275.352 193.936 274.494 192.536 274.057C191.128 273.622 189.679 273.6 188.188 273.992C186.698 274.384 185.45 275.114 184.446 276.183C183.434 277.255 182.768 278.617 182.449 280.268C182.121 281.922 182.237 283.815 182.798 285.947Z" fill="white"/>
<path d="M175.414 274.455L177.669 299.81L169.102 300.571C167.113 300.748 165.455 300.534 164.128 299.928C162.794 299.331 161.768 298.454 161.049 297.295C160.33 296.136 159.905 294.809 159.772 293.315C159.639 291.822 159.824 290.437 160.326 289.161C160.82 287.886 161.666 286.829 162.864 285.99C164.063 285.16 165.648 284.657 167.621 284.482L173.762 283.936L174.004 286.659L167.962 287.197C166.6 287.318 165.528 287.65 164.744 288.194C163.961 288.738 163.419 289.427 163.119 290.26C162.811 291.103 162.702 292.032 162.793 293.047C162.883 294.062 163.153 294.953 163.604 295.72C164.047 296.487 164.705 297.061 165.579 297.441C166.454 297.829 167.58 297.962 168.959 297.839L174.356 297.359L172.344 274.728L175.414 274.455Z" fill="white"/>
<path d="M155.892 275.944L154.224 301.344L138.895 300.337L139.074 297.609L151.328 298.413L151.891 289.831L140.432 289.078L140.611 286.35L152.071 287.102L152.637 278.471L140.186 277.653L140.365 274.924L155.892 275.944Z" fill="white"/>
<path d="M138.913 274.807L133.477 299.675L125.075 297.838C123.132 297.413 121.61 296.733 120.508 295.797C119.405 294.869 118.679 293.764 118.332 292.484C117.984 291.203 117.97 289.831 118.29 288.365C118.611 286.9 119.194 285.667 120.041 284.664C120.887 283.662 122.001 282.972 123.381 282.595C124.759 282.227 126.412 282.253 128.338 282.674L135.138 284.16L134.543 286.88L127.841 285.415C126.513 285.125 125.402 285.086 124.508 285.297C123.605 285.507 122.894 285.928 122.374 286.561C121.844 287.2 121.471 288.017 121.253 289.013C121.035 290.009 121.031 290.92 121.241 291.746C121.45 292.572 121.92 293.277 122.649 293.86C123.376 294.452 124.412 294.894 125.756 295.188L131.05 296.345L135.901 274.149L138.913 274.807ZM124.766 283.42L121.088 270.911L124.585 271.675L128.165 284.163L124.766 283.42Z" fill="white"/>
<path d="M113.545 292.366L112.546 294.911L94.7746 287.937L95.7735 285.392L103.225 288.316L111.524 267.166L114.394 268.292L106.094 289.442L113.545 292.366Z" fill="white"/>
<path d="M92.0469 286.842L89.0078 285.047L88.973 271.226L88.7162 271.074L76.5944 277.714L73.5552 275.919L89.0854 267.712L94.4209 258.681L97.0748 260.248L91.7393 269.28L92.0469 286.842Z" fill="white"/>
<path d="M77.6983 262.626L75.9726 264.683L64.2427 254.84L65.9684 252.783L77.6983 262.626ZM82.428 256.99L80.7023 259.046L68.9724 249.204L70.6981 247.147L82.428 256.99Z" fill="white"/>
<path d="M50.3979 255.694L56.8489 249.782L58.6962 251.798L52.2452 257.71L50.3979 255.694ZM46.0985 251.002L52.5495 245.09L54.3969 247.106L47.9459 253.018L46.0985 251.002Z" fill="white"/>
<path d="M40.3971 221.734C42.6134 220.219 44.8023 219.31 46.9637 219.007C49.1251 218.703 51.1206 218.95 52.9501 219.747C54.7796 220.544 56.307 221.838 57.5321 223.631C58.7573 225.423 59.4091 227.316 59.4874 229.31C59.5658 231.304 59.0714 233.253 58.0042 235.157C56.937 237.061 55.2952 238.77 53.0789 240.285C50.8626 241.8 48.6738 242.71 46.5123 243.013C44.3509 243.316 42.3554 243.069 40.5259 242.272C38.6964 241.475 37.169 240.181 35.9439 238.389C34.7187 236.597 34.067 234.703 33.9886 232.709C33.9102 230.715 34.4046 228.767 35.4719 226.863C36.5391 224.959 38.1808 223.249 40.3971 221.734ZM42.0805 224.197C40.261 225.441 38.9334 226.795 38.0978 228.259C37.2575 229.717 36.8689 231.182 36.932 232.655C36.9905 234.12 37.4546 235.489 38.3243 236.761C39.1941 238.034 40.3035 238.967 41.6526 239.56C42.9971 240.146 44.5033 240.316 46.1712 240.069C47.8345 239.815 49.5759 239.067 51.3955 237.823C53.215 236.579 54.5449 235.228 55.3852 233.77C56.2208 232.306 56.6094 230.841 56.551 229.375C56.4879 227.903 56.0215 226.53 55.1517 225.258C54.2819 223.986 53.1748 223.056 51.8304 222.47C50.4813 221.876 48.9751 221.707 47.3118 221.96C45.6438 222.207 43.9001 222.953 42.0805 224.197Z" fill="white"/>
<path d="M27.5394 205.172C26.8838 205.76 26.3429 206.392 25.9168 207.069C25.4797 207.741 25.1687 208.453 24.9838 209.205C24.7955 209.949 24.743 210.723 24.8262 211.529C24.9095 212.334 25.1366 213.158 25.5075 213.999C26.1156 215.379 27.025 216.477 28.2356 217.293C29.4462 218.109 30.8923 218.544 32.5739 218.6C34.2556 218.656 36.1048 218.239 38.1218 217.351C40.1387 216.462 41.6922 215.374 42.7824 214.088C43.8726 212.802 44.5202 211.425 44.725 209.959C44.9299 208.492 44.7149 207.038 44.08 205.598C43.4919 204.263 42.6897 203.213 41.6733 202.448C40.6459 201.678 39.4838 201.239 38.1868 201.132C36.8789 201.02 35.5122 201.278 34.0867 201.906L33.8878 200.962L36.9752 207.968L34.473 209.071L30.5636 200.199L33.0658 199.097C34.9841 198.251 36.8327 197.926 38.6115 198.12C40.3869 198.306 41.9809 198.944 43.3934 200.033C44.795 201.117 45.9034 202.585 46.7187 204.435C47.6275 206.497 47.9409 208.523 47.6586 210.513C47.3731 212.495 46.5277 214.316 45.1225 215.977C43.714 217.63 41.7813 218.998 39.3246 220.08C37.4821 220.892 35.7168 221.376 34.0286 221.531C32.3295 221.682 30.7601 221.532 29.3203 221.08C27.8806 220.628 26.6099 219.902 25.5084 218.902C24.4069 217.903 23.5271 216.656 22.8688 215.162C22.3275 213.934 22.0087 212.707 21.9125 211.482C21.8053 210.252 21.9054 209.072 22.2127 207.94C22.509 206.805 22.9999 205.751 23.6853 204.779C24.3631 203.81 25.2201 202.971 26.2563 202.26L27.5394 205.172Z" fill="white"/>
<path d="M41.2026 189.998C41.3764 190.586 41.3149 191.153 41.0183 191.698C40.7216 192.244 40.2792 192.604 39.6912 192.778C39.1032 192.951 38.5364 192.89 37.9908 192.593C37.4451 192.297 37.0854 191.854 36.9116 191.266C36.7379 190.678 36.7993 190.111 37.096 189.566C37.3927 189.02 37.835 188.66 38.423 188.487C38.8124 188.372 39.1993 188.365 39.5838 188.468C39.966 188.562 40.3045 188.743 40.5995 189.01C40.8841 189.271 41.0852 189.601 41.2026 189.998ZM27.6146 194.014C27.7884 194.602 27.7269 195.169 27.4303 195.714C27.1336 196.26 26.6912 196.62 26.1032 196.794C25.5152 196.967 24.9484 196.906 24.4028 196.609C23.8571 196.312 23.4974 195.87 23.3236 195.282C23.1499 194.694 23.2113 194.127 23.508 193.582C23.8047 193.036 24.247 192.676 24.835 192.503C25.2244 192.387 25.6113 192.381 25.9958 192.483C26.378 192.578 26.7165 192.759 27.0115 193.026C27.2961 193.287 27.4972 193.617 27.6146 194.014Z" fill="white"/>
<path d="M39.4184 185.127L14.3966 189.801L13.8307 186.771L36.1646 182.599L33.9922 170.968L36.68 170.466L39.4184 185.127Z" fill="white"/>
<path d="M23.0833 148.496C25.7672 148.434 28.0979 148.865 30.0753 149.789C32.0527 150.713 33.5912 152.007 34.6906 153.673C35.7901 155.338 36.365 157.256 36.4152 159.426C36.4655 161.596 35.9801 163.539 34.9589 165.253C33.9377 166.968 32.4609 168.332 30.5283 169.347C28.5958 170.361 26.2876 170.899 23.6037 170.962C20.9197 171.024 18.589 170.593 16.6116 169.669C14.6342 168.745 13.0958 167.451 11.9963 165.785C10.8968 164.12 10.322 162.202 10.2717 160.032C10.2214 157.861 10.7069 155.919 11.728 154.204C12.7492 152.49 14.2261 151.126 16.1586 150.111C18.0911 149.097 20.3993 148.558 23.0833 148.496ZM23.1524 151.478C20.9489 151.529 19.0977 151.941 17.5989 152.713C16.0998 153.477 14.9754 154.494 14.2257 155.763C13.4759 157.023 13.1188 158.424 13.1544 159.965C13.1901 161.506 13.6118 162.892 14.4194 164.125C15.2269 165.35 16.3971 166.313 17.9301 167.015C19.463 167.709 21.3311 168.031 23.5346 167.98C25.7381 167.928 27.5893 167.521 29.0884 166.757C30.5872 165.984 31.7116 164.968 32.4615 163.707C33.2112 162.438 33.5682 161.034 33.5325 159.493C33.4968 157.952 33.0752 156.569 32.2678 155.345C31.4601 154.112 30.2899 153.149 28.7571 152.455C27.2241 151.753 25.3558 151.427 23.1524 151.478Z" fill="white"/>
<path d="M21.7566 124.213L21.2721 127.258C20.3679 127.298 19.5485 127.491 18.814 127.835C18.0809 128.172 17.4385 128.623 16.8868 129.19C16.3283 129.747 15.8732 130.392 15.5217 131.125C15.1701 131.857 14.9279 132.641 14.795 133.476C14.5528 134.998 14.7179 136.438 15.2904 137.796C15.8642 139.146 16.8419 140.304 18.2235 141.271C19.6063 142.229 21.3861 142.882 23.5627 143.228C25.7394 143.575 27.6338 143.507 29.2459 143.025C30.8593 142.535 32.1483 141.738 33.1129 140.633C34.0788 139.52 34.6829 138.202 34.9251 136.68C35.058 135.845 35.0711 135.025 34.9644 134.22C34.8577 133.414 34.6295 132.66 34.2797 131.958C33.9231 131.247 33.4485 130.618 32.856 130.071C32.2567 129.514 31.5376 129.076 30.6989 128.758L31.1834 125.714C32.4317 126.148 33.5149 126.748 34.4332 127.515C35.3515 128.282 36.095 129.172 36.6636 130.186C37.2241 131.198 37.5992 132.294 37.789 133.474C37.9801 134.645 37.9747 135.865 37.7728 137.133C37.4315 139.277 36.6043 141.101 35.2912 142.603C33.9781 144.106 32.2797 145.182 30.1961 145.832C28.1125 146.482 25.7451 146.596 23.0938 146.174C20.4425 145.752 18.2275 144.909 16.4487 143.644C14.67 142.379 13.3897 140.829 12.608 138.992C11.8263 137.156 11.6061 135.166 11.9474 133.022C12.1493 131.754 12.5229 130.593 13.0683 129.539C13.615 128.476 14.3159 127.551 15.1711 126.765C16.0181 125.977 16.9971 125.36 18.1082 124.916C19.2111 124.471 20.4273 124.237 21.7566 124.213Z" fill="white"/>
<path d="M39.7459 124.531L38.6906 127.586L17.6837 110.439L18.7228 107.432L45.834 106.91L44.7787 109.964L22.0419 110.156L21.977 110.344L39.7459 124.531ZM30.7374 120.156L34.991 107.845L37.5755 108.738L33.3219 121.049L30.7374 120.156Z" fill="white"/>
<path d="M46.0398 106.879L23.4843 95.0815L24.913 92.3502L45.0455 102.881L50.5295 92.3958L52.9525 93.6631L46.0398 106.879Z" fill="white"/>
<path d="M53.5658 92.5313L32.8724 77.7085L41.8182 65.2197L44.0411 66.812L36.8902 76.7949L43.8824 81.8034L50.57 72.4671L52.7929 74.0594L46.1053 83.3957L53.1378 88.4332L60.4045 78.2885L62.6274 79.8808L53.5658 92.5313Z" fill="white"/>
<path d="M47.2005 59.0294L53.63 64.9644L51.7753 66.9736L45.3458 61.0386L47.2005 59.0294ZM51.5169 54.3534L57.9463 60.2884L56.0917 62.2976L49.6622 56.3626L51.5169 54.3534Z" fill="white"/>
<path d="M83.482 38.3504L80.9827 40.1545C80.316 39.5423 79.6015 39.0975 78.8391 38.82C78.0835 38.5377 77.3103 38.401 76.5195 38.4097C75.7306 38.4069 74.9525 38.5394 74.1852 38.8072C73.4179 39.0749 72.6915 39.4561 72.0063 39.9508C70.7566 40.8528 69.8525 41.9858 69.2939 43.3496C68.742 44.7086 68.6108 46.2187 68.9004 47.8798C69.1966 49.536 69.9898 51.2577 71.2798 53.0448C72.5698 54.8319 73.9542 56.1268 75.4329 56.9295C76.9184 57.7274 78.3929 58.0784 79.8566 57.9824C81.3269 57.8817 82.6869 57.3803 83.9366 56.4782C84.6219 55.9835 85.2124 55.4142 85.7081 54.7702C86.2039 54.1262 86.577 53.4328 86.8276 52.6898C87.0801 51.9353 87.1913 51.155 87.1612 50.3489C87.1331 49.5313 86.9359 48.713 86.5696 47.8942L89.0689 46.0901C89.6422 47.2807 89.9809 48.472 90.0851 49.6639C90.1893 50.8559 90.0829 52.0109 89.7657 53.1288C89.4438 54.2401 88.9317 55.2791 88.2295 56.2458C87.534 57.2077 86.6656 58.0645 85.6243 58.8162C83.864 60.0869 81.9882 60.7869 79.9969 60.9163C78.0056 61.0456 76.0446 60.6013 74.114 59.5831C72.1834 58.565 70.4325 56.9675 68.8612 54.7907C67.2899 52.6139 66.325 50.4491 65.9665 48.2961C65.608 46.1431 65.8037 44.142 66.5535 42.2927C67.3033 40.4434 68.5583 38.8834 70.3186 37.6128C71.3599 36.8611 72.4466 36.3066 73.5785 35.9494C74.7172 35.5873 75.867 35.4318 77.028 35.4828C78.1841 35.5271 79.3114 35.7864 80.4099 36.2606C81.5036 36.7281 82.5276 37.4247 83.482 38.3504Z" fill="white"/>
<path d="M108.053 31.3663C109.208 33.7897 109.769 36.0925 109.735 38.2749C109.701 40.4572 109.15 42.3908 108.08 44.0756C107.011 45.7603 105.496 47.0698 103.537 48.004C101.577 48.9382 99.6062 49.2903 97.624 49.0603C95.6418 48.8303 93.7924 48.0413 92.0758 46.6932C90.3592 45.3452 88.9233 43.4595 87.768 41.0362C86.6127 38.6128 86.0519 36.3099 86.0856 34.1276C86.1192 31.9452 86.6707 30.0116 87.7402 28.3269C88.8096 26.6421 90.3241 25.3326 92.2838 24.3984C94.2434 23.4643 96.2144 23.1122 98.1966 23.3422C100.179 23.5722 102.028 24.3612 103.745 25.7092C105.461 27.0572 106.897 28.9429 108.053 31.3663ZM105.36 32.6499C104.412 30.6603 103.278 29.1398 101.96 28.0884C100.649 27.0334 99.2617 26.4236 97.7971 26.2589C96.34 26.0907 94.9158 26.3381 93.5246 27.0013C92.1334 27.6645 91.0407 28.6169 90.2464 29.8584C89.4597 31.0963 89.0597 32.5583 89.0465 34.2444C89.0408 35.9269 89.5122 37.763 90.4606 39.7526C91.4091 41.7421 92.5387 43.2644 93.8494 44.3194C95.1676 45.3708 96.5552 45.9806 98.0123 46.1489C99.4769 46.3136 100.905 46.0643 102.296 45.4011C103.687 44.7379 104.776 43.7873 105.563 42.5494C106.357 41.3079 106.757 39.8459 106.763 38.1634C106.776 36.4773 106.308 34.6395 105.36 32.6499Z" fill="white"/>
<path d="M126.62 12.8295L133.185 37.423L130.303 38.1923L111.747 22.4598L111.507 22.5239L116.661 41.8336L113.683 42.6285L107.118 18.035L110 17.2658L128.617 33.0335L128.857 32.9694L123.69 13.6116L126.62 12.8295Z" fill="white"/>
<path d="M132.437 14.365L132.194 11.6414L151.21 9.95025L151.452 12.6739L143.48 13.3829L145.492 36.0138L142.422 36.2868L140.409 13.656L132.437 14.365Z" fill="white"/>
<path d="M156.069 35.2908L157.737 9.89101L173.066 10.8978L172.887 13.6263L160.633 12.8215L160.07 21.4039L171.529 22.1566L171.35 24.8851L159.89 24.1324L159.323 32.7644L171.775 33.5822L171.596 36.3107L156.069 35.2908Z" fill="white"/>
<path d="M197.228 15.7354L191.509 40.539L188.602 39.8688L179.577 17.2774L179.334 17.2215L174.844 36.6963L171.84 36.0037L177.56 11.2L180.466 11.8703L189.529 34.5213L189.771 34.5772L194.273 15.054L197.228 15.7354Z" fill="white"/>
<path d="M201.817 19.8901L202.883 17.3718L220.465 24.8087L219.4 27.327L212.028 24.209L203.178 45.1343L200.339 43.9336L209.189 23.0082L201.817 19.8901Z" fill="white"/>
<path d="M218.366 38.4489L219.79 36.1734L232.769 44.2983L231.345 46.5739L218.366 38.4489ZM214.461 44.6856L215.886 42.4101L228.865 50.535L227.441 52.8106L214.461 44.6856Z" fill="white"/>
<path d="M247.011 41.9674L241.411 48.6906L239.31 46.9405L244.91 40.2173L247.011 41.9674ZM251.9 46.0402L246.3 52.7634L244.199 51.0133L249.799 44.2901L251.9 46.0402Z" fill="white"/>
<path d="M237.717 67.1882L256.231 49.7199L266.774 60.8937L264.785 62.7702L256.358 53.8384L250.102 59.7408L257.983 68.094L255.994 69.9705L248.113 61.6173L241.821 67.5538L250.384 76.6303L248.395 78.5067L237.717 67.1882Z" fill="white"/>
<path d="M281.826 81.8025L260.708 96.0135L259.043 93.5387L267.88 70.873L267.741 70.6668L251.16 81.8246L249.439 79.2673L270.558 65.0563L272.223 67.5311L263.372 90.2658L263.511 90.472L280.133 79.2864L281.826 81.8025Z" fill="white"/>
<path d="M267.684 110.63L265.216 111.807L258.37 97.4458L260.838 96.2691L267.684 110.63Z" fill="white"/>
<path d="M289.363 120.869C290.083 120.361 290.693 119.796 291.195 119.173C291.707 118.556 292.099 117.885 292.37 117.16C292.643 116.443 292.785 115.679 292.796 114.87C292.807 114.06 292.677 113.216 292.406 112.337C291.963 110.895 291.187 109.699 290.079 108.749C288.971 107.798 287.586 107.197 285.922 106.947C284.258 106.696 282.373 106.895 280.267 107.544C278.16 108.192 276.491 109.092 275.259 110.243C274.026 111.394 273.223 112.686 272.85 114.119C272.476 115.552 272.521 117.021 272.984 118.525C273.413 119.919 274.088 121.055 275.009 121.933C275.94 122.817 277.043 123.388 278.319 123.645C279.605 123.908 280.993 123.81 282.481 123.352L282.569 124.313L280.316 116.996L282.929 116.191L285.782 125.457L283.169 126.261C281.166 126.878 279.292 126.987 277.547 126.588C275.806 126.196 274.297 125.378 273.02 124.132C271.754 122.892 270.823 121.306 270.228 119.374C269.565 117.22 269.489 115.171 270 113.228C270.514 111.292 271.565 109.582 273.154 108.095C274.745 106.617 276.823 105.483 279.389 104.693C281.313 104.1 283.123 103.825 284.817 103.867C286.522 103.914 288.064 104.245 289.441 104.862C290.819 105.478 291.997 106.346 292.975 107.467C293.953 108.588 294.682 109.928 295.162 111.488C295.557 112.771 295.731 114.027 295.685 115.255C295.649 116.488 295.412 117.649 294.976 118.737C294.549 119.831 293.939 120.821 293.146 121.707C292.36 122.59 291.412 123.324 290.3 123.909L289.363 120.869Z" fill="white"/>
<path d="M274.011 131.128L299.26 127.9L300.388 136.727C300.613 138.486 300.494 139.976 300.032 141.196C299.578 142.415 298.878 143.369 297.93 144.058C296.99 144.746 295.904 145.169 294.671 145.327C293.586 145.466 292.666 145.387 291.91 145.091C291.154 144.803 290.531 144.374 290.041 143.801C289.551 143.238 289.161 142.607 288.871 141.908L288.625 141.94C288.674 142.719 288.502 143.53 288.109 144.374C287.716 145.218 287.092 145.962 286.239 146.606C285.386 147.249 284.293 147.656 282.962 147.826C281.696 147.988 280.521 147.846 279.437 147.4C278.352 146.954 277.435 146.148 276.684 144.983C275.934 143.817 275.431 142.24 275.177 140.251L274.011 131.128ZM277.114 133.839L277.889 139.904C278.145 141.902 278.712 143.27 279.592 144.01C280.481 144.756 281.48 145.059 282.59 144.917C283.445 144.808 284.206 144.489 284.873 143.961C285.549 143.432 286.054 142.737 286.386 141.875C286.727 141.013 286.827 140.031 286.686 138.93L285.892 132.716L277.114 133.839ZM288.555 132.376L289.28 138.047C289.398 138.968 289.684 139.775 290.141 140.468C290.598 141.17 291.183 141.696 291.896 142.048C292.611 142.408 293.412 142.531 294.299 142.417C295.409 142.276 296.301 141.769 296.974 140.898C297.656 140.025 297.89 138.751 297.676 137.074L296.938 131.304L288.555 132.376Z" fill="white"/>
</svg>
