<svg width="120" height="691" viewBox="0 0 116 691" fill="none" xmlns="http://www.w3.org/2000/svg">
<path d="M11.5329 105.397C12.3671 39.1084 29.1692 1.59289 73.5 5.24395M11.814 107.394C20.1585 27.9711 80.3655 18.0944 107 58.2337M12.005 108.62C22.64 67.3551 57.0566 84.2704 60.5 104.813M11 110.702L11 680.701L2.63457 689.659L1.84892 690.5H3H20H21.1511L20.3654 689.659L12 680.701L12 110.758C14.4867 99.8773 18.5365 92.8415 23.2143 88.6988C27.8891 84.5587 33.2264 83.2751 38.3716 83.9598C48.7151 85.3361 58.293 94.6707 60.0069 104.896L60.9931 104.73C59.207 94.075 49.2849 84.4031 38.5034 82.9685C33.0861 82.2477 27.4547 83.6076 22.5513 87.9501C18.5956 91.4534 15.1371 96.8762 12.6287 104.659C17.2165 67.3373 33.5291 46.1612 51.9367 38.754C71.3108 30.958 93.1953 38.3338 106.583 58.5101L107.417 57.9572C93.8047 37.4436 71.4392 29.8283 51.5633 37.8263C33.3021 45.1746 17.3028 65.6339 12.113 100.999C12.8347 70.8433 17.0528 47.0195 25.8773 30.7109C30.7466 21.7117 37.0108 15.0153 44.8541 10.7956C52.6977 6.57572 62.1596 4.81165 73.459 5.74226L73.541 4.74564C62.0904 3.80257 52.4273 5.58565 44.3803 9.91499C36.3329 14.2445 29.9409 21.0995 24.9977 30.235C15.1233 48.4841 11 75.891 11 110.702Z" stroke="#1A1A1A"/>
<polygon points="-10 700, 12 680, 30 700" fill="#1a1a1a"/>
<circle cx="80.5" cy="8.5" r="7.5" fill="#1E4FCD" stroke="white" stroke-width="2"/>
<circle cx="61.5" cy="100.986" r="7.5" fill="#1E4FCD" stroke="white" stroke-width="2"/>
<circle cx="109.5" cy="57.9863" r="7.5" fill="#1E4FCD" stroke="white" stroke-width="2"/>
</svg>
