<svg width="215" height="633" viewBox="0 0 215 630" fill="none" xmlns="http://www.w3.org/2000/svg">
<path d="M110.155 86.8576C93.1261 8.67979 29.8529 22.8048 8.5 68.9867M110.465 84.0814C108.932 -10.0969 58.0764 -12.5744 30.5 15.9868M110.816 85.3821C119.166 11.2237 179.367 2.00372 206 39.4869M110.993 86.5836C121.615 47.9939 156.055 63.7953 159.5 82.9869M121.564 67.203C117.605 70.4773 114.143 75.5474 111.632 82.8235C116.222 48.0083 132.519 28.2471 150.926 21.3299C170.321 14.0415 192.212 20.9455 205.592 39.7765L206.408 39.1973C192.788 20.0283 170.429 12.9323 150.574 20.3938C132.05 27.3552 115.838 46.9298 110.893 80.876C109.616 36.5314 97.1094 13.0623 81.2482 3.99018C64.4754 -5.60335 44.2309 1.0457 30.1403 15.6395L30.8597 16.334C44.7691 1.92786 64.5246 -4.42317 80.7518 4.85822C96.4779 13.8531 109.152 37.6636 109.959 83.7625C101.121 46.9698 81.6353 31.4701 61.3916 30.7994C40.3907 30.1036 18.8573 45.3947 8.04616 68.7768L8.95384 69.1965C19.6427 46.0786 40.8593 31.1197 61.3584 31.7989C81.778 32.4754 101.769 48.6969 110 88.5377L110 620.78L101.646 629.133L100.793 629.987H102H119H120.207L119.354 629.133L111 620.78L111 88.5469C113.484 78.3994 117.529 71.8385 122.201 67.9736C126.876 64.1077 132.22 62.9048 137.376 63.5455C147.74 64.8334 157.3 73.5588 159.008 83.0752L159.992 82.8986C158.2 72.915 148.26 63.8904 137.499 62.5531C132.093 61.8813 126.468 63.1472 121.564 67.203Z" stroke="#1A1A1A"/>
<polygon points="100 630, 110 620, 120 630" fill="#1a1a1a"/>
<circle cx="6.5" cy="72.9868" r="7.5" fill="#1E4FCD" stroke="white" stroke-width="2"/>
<circle cx="28.5" cy="17.9868" r="7.5" fill="#1E4FCD" stroke="white" stroke-width="2"/>
<circle cx="160.5" cy="85.9868" r="7.5" fill="#1E4FCD" stroke="white" stroke-width="2"/>
<circle cx="208.5" cy="42.9868" r="7.5" fill="#1E4FCD" stroke="white" stroke-width="2"/>
</svg>
