<svg width="466" height="464" viewBox="0 0 466 464" fill="none" xmlns="http://www.w3.org/2000/svg">
<path d="M233 444.693C350.615 444.693 445.961 349.347 445.961 231.732C445.961 114.117 350.615 18.7715 233 18.7715C115.385 18.7715 20.0393 114.117 20.0393 231.732C20.0393 349.347 115.385 444.693 233 444.693Z" fill="#1A1A1A"/>
<path d="M233 445.367C190.747 445.367 149.443 432.838 114.311 409.363C79.1785 385.889 51.7964 352.524 35.6268 313.487C19.4573 274.45 15.2266 231.495 23.4698 190.054C31.7129 148.613 52.0597 110.547 81.9371 80.6695C111.814 50.7921 149.881 30.4454 191.322 22.2022C232.763 13.959 275.718 18.1897 314.754 34.3593C353.791 50.5288 387.156 77.9109 410.631 113.043C434.105 148.175 446.635 189.479 446.635 231.732C446.571 288.372 424.042 342.674 383.992 382.724C343.941 422.775 289.64 445.303 233 445.367V445.367ZM233 19.4458C191.014 19.4458 149.97 31.8962 115.06 55.2225C80.1495 78.5489 52.9402 111.703 36.8727 150.494C20.8053 189.284 16.6013 231.968 24.7924 273.147C32.9835 314.327 53.2018 352.153 82.8906 381.841C112.579 411.53 150.405 431.749 191.585 439.94C232.764 448.131 275.448 443.927 314.238 427.859C353.029 411.792 386.183 384.583 409.51 349.672C432.836 314.762 445.286 273.719 445.286 231.732C445.222 175.45 422.836 121.492 383.038 81.694C343.241 41.8965 289.282 19.51 233 19.4458V19.4458Z" fill="white"/>
<path d="M233 415.133C334.289 415.133 416.401 333.022 416.401 231.732C416.401 130.443 334.289 48.3313 233 48.3313C131.71 48.3313 49.5991 130.443 49.5991 231.732C49.5991 333.022 131.71 415.133 233 415.133Z" fill="#1A1A1A"/>
<path d="M233 416.482C196.46 416.482 160.741 405.646 130.359 385.346C99.9769 365.045 76.2971 336.191 62.3139 302.433C48.3307 268.674 44.672 231.527 51.8006 195.69C58.9292 159.852 76.5249 126.933 102.363 101.095C128.2 75.2572 161.119 57.6615 196.957 50.5329C232.795 43.4043 269.942 47.063 303.701 61.0462C337.459 75.0294 366.313 98.7092 386.614 129.091C406.914 159.473 417.749 195.192 417.749 231.732C417.692 280.713 398.209 327.672 363.575 362.307C328.94 396.942 281.981 416.425 233 416.482V416.482ZM233 49.6801C196.994 49.6801 161.796 60.3572 131.857 80.3614C101.919 100.366 78.5848 128.798 64.8057 162.064C51.0266 195.33 47.4213 231.934 54.4458 267.249C61.4704 302.564 78.8092 335.002 104.27 360.463C129.73 385.923 162.169 403.262 197.483 410.287C232.798 417.311 269.403 413.706 302.668 399.927C335.934 386.148 364.367 362.814 384.371 332.875C404.375 302.937 415.052 267.739 415.052 231.732C414.995 183.467 395.797 137.194 361.667 103.065C327.538 68.936 281.266 49.7372 233 49.6801V49.6801Z" fill="white"/>
<path d="M227.983 136.256L243.006 40.7524L247.969 137.281L282.491 47.0096L267.253 142.459L319.819 61.3311L285.08 151.548L353.343 83.1234L300.615 164.116L381.609 111.389L313.184 179.652L403.401 144.913L322.246 197.452L417.722 182.241L327.451 216.763L423.979 221.726L328.476 236.722L421.876 261.643L325.375 256.464L411.546 300.265L318.2 275.128L393.395 335.893L307.304 291.904L368.231 366.963L293.172 306.036L337.161 392.1L276.423 316.933L301.532 410.251L257.759 324.08L262.91 420.608L238.016 327.208L222.994 422.712L218.031 326.157L183.509 416.427L198.72 321.005L146.181 402.106L180.919 311.916L112.657 380.341L165.384 299.321L84.3913 352.075L152.816 283.812L62.5989 318.551L143.754 265.985L48.2775 281.223L138.548 246.701L42.0472 241.738L137.524 226.716L44.124 201.822L140.625 206.973L54.4538 163.199L147.799 188.309L72.6051 127.571L158.696 171.56L97.7687 96.5009L172.828 157.428L128.839 71.3372L189.577 146.532L164.467 53.2129L208.241 139.357L203.089 42.8562L227.983 136.256Z" fill="white"/>
<path d="M213.635 140.571L208.645 0L233 138.522L257.355 0L252.392 140.571L304.985 10.141L270.921 146.586L349.513 29.9375L287.778 156.322L388.918 58.5804L302.261 169.376L421.498 94.7751L313.723 185.127L445.853 136.957L321.653 202.928L460.903 183.293L325.671 221.996L466 231.732L325.698 241.469L460.903 280.172L321.626 260.537L445.853 326.507L313.723 278.338L421.498 368.69L302.261 294.089L388.918 404.884L287.778 307.142L349.513 433.5L270.921 316.879L305.012 453.324L252.365 322.893L257.355 463.465L233 324.943L208.645 463.465L213.608 322.893L161.015 453.324L195.079 316.879L116.487 433.527L178.222 307.142L77.0823 404.884L163.739 294.089L44.5017 368.69L152.277 278.311L20.1471 326.507L144.347 260.537L5.09747 280.172L140.302 241.469L0 231.732L140.302 221.996L5.07049 183.293L144.374 202.928L20.1471 136.957L152.277 185.127L44.5017 94.7751L163.739 169.376L77.0823 58.5804L178.222 156.322L116.513 29.9375L195.079 146.586L160.988 10.141L213.635 140.571Z" fill="white"/>
<path d="M233 398.951C325.352 398.951 400.218 324.084 400.218 231.732C400.218 139.38 325.352 64.5137 233 64.5137C140.648 64.5137 65.7816 139.38 65.7816 231.732C65.7816 324.084 140.648 398.951 233 398.951Z" fill="#1A1A1A"/>
<path d="M233 402.996C199.127 402.996 166.015 392.952 137.851 374.133C109.687 355.314 87.7354 328.567 74.7729 297.272C61.8103 265.978 58.4187 231.542 65.027 198.32C71.6352 165.098 87.9465 134.582 111.898 110.63C135.85 86.6787 166.366 70.3674 199.588 63.7591C232.81 57.1509 267.246 60.5425 298.54 73.505C329.835 86.4676 356.582 108.419 375.401 136.583C394.22 164.747 404.264 197.86 404.264 231.732C404.214 277.139 386.154 320.672 354.047 352.779C321.94 384.887 278.407 402.946 233 402.996V402.996ZM233 68.5596C200.728 68.5596 169.18 78.1295 142.346 96.0591C115.513 113.989 94.5983 139.473 82.2482 169.289C69.898 199.105 66.6666 231.913 72.9627 263.566C79.2588 295.218 94.7995 324.293 117.62 347.113C140.44 369.933 169.514 385.474 201.167 391.77C232.819 398.066 265.628 394.835 295.444 382.484C325.26 370.134 350.744 349.22 368.673 322.386C386.603 295.553 396.173 264.005 396.173 231.732C396.123 188.472 378.916 146.997 348.326 116.407C317.736 85.8169 276.261 68.6095 233 68.5596V68.5596Z" fill="white"/>
<path d="M233 390.428C320.645 390.428 391.696 319.377 391.696 231.732C391.696 144.087 320.645 73.0364 233 73.0364C145.355 73.0364 74.3044 144.087 74.3044 231.732C74.3044 319.377 145.355 390.428 233 390.428Z" fill="#1A1A1A"/>
<path d="M233 391.776C201.346 391.776 170.403 382.39 144.084 364.804C117.765 347.218 97.2516 322.223 85.1383 292.978C73.0249 263.734 69.8555 231.555 76.0308 200.509C82.2062 169.463 97.4489 140.946 119.832 118.564C142.214 96.1811 170.731 80.9384 201.777 74.763C232.822 68.5877 265.002 71.7571 294.246 83.8705C323.49 95.9838 348.486 116.497 366.072 142.816C383.658 169.135 393.044 200.078 393.044 231.732C392.994 274.163 376.116 314.842 346.113 344.845C316.11 374.849 275.431 391.726 233 391.776V391.776ZM233 74.3849C201.88 74.3849 171.458 83.6131 145.582 100.903C119.707 118.192 99.5393 142.766 87.6301 171.518C75.7208 200.269 72.6048 231.907 78.6761 262.429C84.7474 292.951 99.7332 320.988 121.739 342.993C143.744 364.999 171.781 379.985 202.303 386.056C232.825 392.127 264.463 389.011 293.214 377.102C321.965 365.193 346.54 345.025 363.829 319.149C381.119 293.274 390.347 262.852 390.347 231.732C390.297 190.016 373.703 150.023 344.206 120.526C314.708 91.0285 274.716 74.4349 233 74.3849V74.3849Z" fill="white"/>
<path d="M233 367.475C307.969 367.475 368.744 306.701 368.744 231.732C368.744 156.763 307.969 95.9883 233 95.9883C158.031 95.9883 97.2566 156.763 97.2566 231.732C97.2566 306.701 158.031 367.475 233 367.475Z" fill="#1A1A1A"/>
<path d="M233 370.173C205.619 370.173 178.853 362.053 156.086 346.841C133.32 331.629 115.576 310.008 105.097 284.711C94.6192 259.414 91.8776 231.578 97.2194 204.724C102.561 177.869 115.746 153.201 135.108 133.84C154.469 114.478 179.137 101.293 205.992 95.9514C232.846 90.6097 260.682 93.3512 285.979 103.829C311.276 114.308 332.897 132.052 348.109 154.818C363.321 177.585 371.441 204.351 371.441 231.732C371.398 268.436 356.798 303.624 330.845 329.577C304.892 355.53 269.704 370.13 233 370.173V370.173ZM233 98.6585C206.687 98.6585 180.965 106.461 159.086 121.079C137.207 135.697 120.154 156.475 110.084 180.784C100.013 205.094 97.3764 231.843 102.508 257.651C107.639 283.459 120.308 307.166 138.912 325.774C157.517 344.382 181.221 357.055 207.027 362.192C232.834 367.328 259.584 364.698 283.896 354.632C308.207 344.566 328.988 327.517 343.611 305.641C358.234 283.766 366.041 258.045 366.046 231.732C366.004 196.459 351.973 162.643 327.031 137.701C302.089 112.759 268.273 98.7283 233 98.6855V98.6585Z" fill="white"/>
<path d="M224.37 149.499L233 25.0291L241.631 149.499L275.992 29.5601L258.541 153.086L317.068 42.8837L274.346 160.125L354.503 64.5142L288.317 170.293L386.625 93.4268L299.888 183.131L412.005 128.381L308.545 198.1L429.59 167.866L313.885 214.552L438.571 210.129L315.692 231.733L438.571 253.336L313.885 248.913L429.59 295.599L308.518 265.365L412.005 335.084L299.888 280.334L386.625 370.038L288.317 293.172L354.503 398.951L274.346 303.34L317.068 420.555L258.541 310.379L275.992 433.932L241.631 313.966L233 438.436L224.37 313.966L190.009 433.932L207.459 310.379L148.933 420.555L191.654 303.34L111.497 398.951L177.683 293.172L79.402 370.038L166.113 280.334L53.9956 335.084L157.455 265.365L36.4107 295.599L152.115 248.913L27.4294 253.336L150.308 231.733L27.4294 210.129L152.115 214.552L36.4107 167.866L157.482 198.1L53.9956 128.381L166.113 183.131L79.375 93.4268L177.683 170.293L111.497 64.5142L191.654 160.125L148.933 42.9106L207.459 153.086L190.009 29.5332L224.37 149.499Z" fill="white"/>
<path d="M233 153.652L249.317 76.4075L249.236 155.351L281.251 83.2041L264.772 160.394L311.107 96.4737L278.904 168.539L337.512 115.677L291.041 179.49L359.358 139.923L300.616 192.678L375.675 168.216L307.25 207.593L385.762 199.259L310.676 223.56L389.187 231.732L310.649 239.904L385.762 264.205L307.277 255.871L375.675 295.248L300.643 270.785L359.358 323.54L291.041 284.001L337.512 347.787L278.904 294.897L311.08 366.99L264.772 303.069L281.278 380.26L249.236 308.113L249.317 387.056L233 309.812L216.683 387.056L216.764 308.113L184.749 380.26L201.229 303.069L154.92 366.99L187.096 294.897L128.489 347.787L174.959 283.974L106.642 323.54L165.384 270.785L90.3249 295.248L158.75 255.871L80.2379 264.205L155.324 239.904L76.8126 231.732L155.324 223.56L80.2379 199.259L158.723 207.593L90.3249 168.216L165.384 192.678L106.642 139.923L174.959 179.49L128.489 115.677L187.096 168.539L154.92 96.4737L201.229 160.394L184.722 83.2041L216.764 155.351L216.683 76.4075L233 153.652Z" fill="white"/>
<path d="M52.8356 335.462L233 23.4104L413.164 335.462H52.8356Z" fill="#1A1A1A"/>
<path d="M417.83 338.159H48.1697L233 18.0161L417.83 338.159ZM57.5015 332.764H408.498L233 28.8044L57.5015 332.764Z" fill="white"/>
<path d="M88.1675 315.395L233 64.5137L377.833 315.395H88.1675Z" fill="#1A1A1A"/>
<path d="M391.857 323.433H74.1425L233 48.3313L391.857 323.433ZM102.165 307.25H363.781L233 80.6962L102.165 307.25Z" fill="white"/>
<path d="M233 286.294C182.106 286.294 142.055 241.846 140.356 239.958L135.636 234.564L140.059 229.035C141.731 226.958 181.756 177.17 233 177.17C284.244 177.17 324.269 226.958 325.941 229.035L330.364 234.591L325.644 239.985C323.945 241.846 283.894 286.294 233 286.294ZM158.264 233.998C169.862 245.002 199.395 269.491 233 269.491C266.606 269.491 296.138 245.218 307.763 234.106C296.354 221.834 266.686 193.973 233 193.973C199.314 193.973 169.646 221.834 158.264 233.998Z" fill="white"/>
<path d="M233.539 197.29C239.194 197.29 244.721 198.967 249.423 202.109C254.124 205.25 257.788 209.715 259.952 214.939C262.116 220.163 262.682 225.911 261.579 231.457C260.476 237.003 257.753 242.097 253.755 246.095C249.757 250.093 244.663 252.816 239.117 253.919C233.571 255.022 227.823 254.456 222.599 252.292C217.375 250.128 212.91 246.464 209.769 241.763C206.627 237.061 204.95 231.534 204.95 225.879C204.95 218.297 207.963 211.025 213.324 205.664C218.685 200.302 225.957 197.29 233.539 197.29V197.29ZM233.539 187.77C226.003 187.775 218.638 190.015 212.374 194.206C206.111 198.396 201.23 204.35 198.35 211.314C195.47 218.278 194.719 225.94 196.192 233.331C197.666 240.722 201.298 247.509 206.628 252.836C211.959 258.164 218.75 261.79 226.142 263.259C233.533 264.727 241.195 263.971 248.157 261.086C255.119 258.2 261.069 253.316 265.255 247.049C269.442 240.783 271.676 233.416 271.676 225.879C271.662 215.772 267.638 206.083 260.489 198.938C253.339 191.793 243.647 187.777 233.539 187.77V187.77Z" fill="white"/>
<path d="M233.539 244.651C243.907 244.651 252.311 236.247 252.311 225.88C252.311 215.512 243.907 207.108 233.539 207.108C223.172 207.108 214.768 215.512 214.768 225.88C214.768 236.247 223.172 244.651 233.539 244.651Z" fill="white"/>
<path d="M319.306 234.429C319.306 234.429 277.016 207.215 233.539 207.215C190.063 207.215 146.694 234.429 146.694 234.429C146.694 234.429 188.984 186.529 233 185.72C277.016 184.911 319.306 234.429 319.306 234.429Z" fill="#1A1A1A"/>
<path d="M149.256 238.448L143.08 231.166C144.833 229.036 187.15 181.648 233 180.812H234.133C279.498 180.812 321.329 229.17 323.136 231.22L316.609 238.394C316.205 238.125 274.967 211.963 233.459 211.963C191.951 211.963 149.661 238.179 149.256 238.448ZM233.54 202.308C254.766 202.308 275.479 208.43 291.527 214.957C276.153 202.874 255.17 190.468 234.052 190.468H233C211.909 190.845 190.899 202.982 175.337 214.741C191.654 208.349 212.475 202.308 233.54 202.308V202.308Z" fill="white"/>
</svg>
