<svg width="246" height="172" viewBox="0 0 246 172" fill="none" xmlns="http://www.w3.org/2000/svg">
<path d="M113.896 101.152L8.84973 171.048C7.99216 171.618 6.99585 171.944 5.96693 171.993C4.938 172.043 3.91499 171.812 3.00685 171.327C2.09872 170.842 1.33947 170.12 0.809962 169.238C0.280458 168.356 0.000532128 167.347 0 166.319V5.68058C0.000532128 4.65252 0.280458 3.64386 0.809962 2.76202C1.33947 1.88018 2.09872 1.15819 3.00685 0.672942C3.91499 0.187697 4.938 -0.0426305 5.96693 0.00649321C6.99585 0.0556169 7.99216 0.382354 8.84973 0.951899L113.896 70.8478V5.68058C113.897 4.65252 114.177 3.64386 114.706 2.76202C115.236 1.88018 115.995 1.15819 116.903 0.672942C117.811 0.187697 118.834 -0.0426305 119.863 0.00649321C120.892 0.0556169 121.888 0.382354 122.746 0.951899L243.465 81.2713C244.244 81.7904 244.884 82.4935 245.326 83.3184C245.769 84.1433 246 85.0644 246 86C246 86.9356 245.769 87.8567 245.326 88.6816C244.884 89.5065 244.244 90.2097 243.465 90.7287L122.746 171.048C121.888 171.618 120.892 171.944 119.863 171.993C118.834 172.043 117.811 171.812 116.903 171.327C115.995 170.842 115.236 170.12 114.706 169.238C114.177 168.356 113.897 167.347 113.896 166.319V101.152Z" fill="white"/>
</svg>
