<svg width="302" height="197" viewBox="0 0 302 197" fill="none" xmlns="http://www.w3.org/2000/svg">
<path d="M174.021 132.824L175.536 65.5885C175.679 57.8154 181.08 50.9846 188.577 48.9758C197.977 46.4572 207.631 52.0384 210.153 61.4491L220.409 99.727C222.296 106.771 222.019 114.27 219.645 121.095C218.224 125.25 220.069 129.83 223.815 132.044L248.805 146.882C253.883 149.914 260.36 147.56 262.656 142.057C269.938 124.945 271.374 105.625 266.575 87.4807L294.255 80.0637C299.33 78.7039 302.368 73.4345 301.007 68.3539L296.057 49.8789C294.695 44.7983 289.429 41.754 284.354 43.1138L256.674 50.5308L256.287 49.0874C246.433 12.3106 206.968 -8.79703 170.454 4.63772C144.519 14.186 128.338 40.303 127.71 67.9458L126.266 131.759C126.066 139.548 120.723 146.363 113.226 148.372C103.826 150.89 94.1719 145.309 91.6503 135.899L81.3938 97.6207C79.5065 90.5771 79.7838 83.0772 82.1582 76.2531C83.579 72.0977 81.7338 67.518 77.9883 65.3039L52.9976 50.4661C47.9201 47.4331 41.443 49.7875 39.1474 55.2911C31.8652 72.4028 30.4285 91.7229 35.2284 109.867L7.5477 117.284C2.47293 118.644 -0.565353 123.913 0.795997 128.994L5.74635 147.469C7.1077 152.549 12.3736 155.594 17.4484 154.234L45.2445 146.786C52.9724 173.551 75.7068 194.501 103.521 196.577C142.37 199.472 173.232 168.864 174.021 132.824Z" fill="#1E4FCD"/>
</svg>
