<svg width="442" height="258" viewBox="0 0 442 258" fill="none" xmlns="http://www.w3.org/2000/svg">
<path d="M1.03595 128.686C53.1781 188.771 125.233 257.833 221 257.833C259.675 257.833 295.127 246.898 332.536 223.532C364.074 203.734 396.419 175.879 440.849 130.068L442 128.917L434.288 120.974C370.866 56.0557 316.076 0 221 0C178.987 0 138.24 13.6974 96.4573 41.8979C60.8901 65.9547 30.6177 96.4573 6.33075 121.09L0 127.42L1.03595 128.686ZM221 36.8333C271.761 36.8333 313.083 78.1557 313.083 128.917C313.083 179.678 271.761 221 221 221C170.239 221 128.917 179.678 128.917 128.917C128.917 78.1557 170.239 36.8333 221 36.8333Z" fill="white"/>
<path d="M227.446 162.527C227.446 170.469 225.144 177.951 221.115 184.167C251.618 184.167 276.25 159.304 276.25 128.686C276.25 98.0687 251.503 73.3214 221.115 73.3214C190.728 73.3214 165.865 98.0687 165.865 128.686C172.081 124.658 179.562 122.356 187.505 122.356C209.49 122.471 227.446 140.427 227.446 162.527Z" fill="white"/>
</svg>
