<svg width="630" height="322" viewBox="0 0 630 322" fill="none" xmlns="http://www.w3.org/2000/svg">
<rect x="105" y="155" width="486" height="167" fill="#1E4FCD"/>
<rect x="30" width="486" height="173" fill="#1A1A1A"/>
<path d="M111.368 73.7469V88.6736H147.477C145.693 109.605 128.067 118.532 111.429 118.532C90.1428 118.532 71.5678 101.984 71.5678 78.7918C71.5678 56.1986 89.2745 38.7987 111.476 38.7987C128.605 38.7987 138.698 49.5868 138.698 49.5868L149.277 38.7638C149.277 38.7638 135.699 23.8297 110.935 23.8297C79.4017 23.8292 55.0068 50.1236 55.0068 78.5251C55.0068 106.355 77.9543 133.493 111.739 133.493C141.453 133.493 163.203 113.382 163.203 83.6428C163.203 77.3691 162.281 73.743 162.281 73.743L111.368 73.7469ZM203.99 62.9369C183.098 62.9369 168.126 79.0739 168.126 97.8939C168.126 116.992 182.648 133.429 204.235 133.429C223.777 133.429 239.787 118.672 239.787 98.3038C239.787 74.9595 221.164 62.9369 203.99 62.9369ZM204.197 76.7814C214.471 76.7814 224.207 84.9878 224.207 98.211C224.207 111.153 214.513 119.594 204.15 119.594C192.765 119.594 183.782 110.584 183.782 98.1081C183.782 85.8992 192.653 76.7814 204.197 76.7814ZM281.988 62.9369C261.096 62.9369 246.124 79.0739 246.124 97.8939C246.124 116.992 260.646 133.429 282.233 133.429C301.775 133.429 317.785 118.672 317.785 98.3038C317.785 74.9595 299.162 62.9369 281.988 62.9369ZM282.195 76.7814C292.469 76.7814 302.205 84.9878 302.205 98.211C302.205 111.153 292.511 119.594 282.148 119.594C270.763 119.594 261.781 110.584 261.781 98.1081C261.781 85.8992 270.651 76.7814 282.195 76.7814ZM358.492 62.974C339.316 62.974 324.244 79.5675 324.244 98.1918C324.244 119.407 341.718 133.475 358.161 133.475C368.329 133.475 373.736 129.488 377.727 124.911V131.861C377.727 144.021 370.254 151.303 358.974 151.303C348.077 151.303 342.612 143.298 340.712 138.755L327.001 144.418C331.865 154.579 341.657 165.176 359.087 165.176C378.153 165.176 392.685 153.311 392.685 128.428V65.0932H377.728V71.0637C373.128 66.1672 366.839 62.9748 358.492 62.9748V62.974ZM359.88 76.7904C369.282 76.7904 378.935 84.7221 378.935 98.2664C378.935 112.034 369.302 119.621 359.672 119.621C349.45 119.621 339.937 111.42 339.937 98.397C339.937 84.8657 349.816 76.7904 359.88 76.7904ZM459.19 62.8898C441.101 62.8898 425.913 77.1085 425.913 98.0889C425.913 120.29 442.842 133.457 460.927 133.457C476.021 133.457 485.285 125.298 490.814 117.988L478.481 109.881C475.281 114.788 469.931 119.584 461.002 119.584C450.974 119.584 446.362 114.158 443.505 108.902L491.34 89.2915L488.857 83.5444C484.236 72.2905 473.456 62.892 459.191 62.892L459.19 62.8898ZM459.813 76.4452C466.331 76.4452 471.022 79.8688 473.013 83.9741L441.069 97.1656C439.692 86.9525 449.485 76.4452 459.813 76.4452ZM403.108 131.364H418.821V27.4747H403.108V131.364Z" fill="white"/>
<path d="M159.028 309.094V256.607L124 162.663H141.625L167.408 235.188L197.114 147.469H213.266L175.161 257.233V309.076H159.028V309.094ZM262.862 309.094H249.344C248.736 306.792 248.147 303.569 247.963 300.862H246.913C242.382 306.626 236.618 310.531 227.557 310.531C212.86 310.531 202.805 299.462 202.805 279.149C202.805 257.049 214.057 243.126 242.953 243.126H245.218V236.993C245.218 223.457 240.688 217.692 231.682 217.692C223.487 217.692 216.507 222.002 211.203 226.716L208.127 212.609C212.842 208.686 222.234 204.377 232.732 204.377C250.964 204.377 260.965 212.186 260.965 237.177V285.723C260.965 295.558 261.978 304.177 262.806 309.057L262.862 309.094ZM245.274 255.225H243.414C223.524 255.225 219.233 264.047 219.233 277.325C219.233 289.204 223.1 296.976 231.296 296.976C236.821 296.976 242.364 293.293 245.237 288.781L245.274 255.225ZM296.877 309.094H280.873V205.574H296.877V214.617H297.909C300.745 210.749 308.553 204.377 318.185 204.377C331.666 204.377 338.83 211.965 338.83 227.729V309.094H322.661V229.166C322.661 221.376 319.198 218.668 313.01 218.668C306.307 218.668 300.579 223.807 296.859 228.963V309.076L296.877 309.094ZM354.613 261.358C354.613 223.051 368.979 204.377 389.624 204.377C394.559 204.377 399.661 206.034 402.755 208.263V162.663H418.759V309.076H406.88L405.609 300.88H404.596C400.084 306.626 394.357 310.475 385.94 310.475C365.682 310.475 354.65 293.293 354.65 261.358H354.613ZM402.773 222.407C399.532 219.166 396.033 217.508 390.692 217.508C377.8 217.508 371.63 236.974 371.63 258.062C371.63 282.243 376.161 296.994 387.856 296.994C395.885 296.994 400.121 293.072 402.791 288.983V222.407H402.773ZM469.147 310.531C447.875 310.531 434.726 293.514 434.726 261.782C434.726 228.558 443.953 204.395 465.85 204.395C483.07 204.395 494.285 217.305 494.285 252.352V261.156H451.356C451.356 284.508 457.894 296.792 470.602 296.792C479.607 296.792 486.201 292.703 490.271 289.83L493.954 302.114C487.434 307.234 479.405 310.512 469.184 310.512L469.147 310.531ZM451.522 248.024H477.95C477.95 230.4 475.095 217.508 465.869 217.508C456.071 217.508 452.609 229.608 451.504 248.024H451.522ZM563.772 205.813L544.526 254.157L566 309.094H549.443L533.421 266.478L517.877 309.076H502.131L523.605 255.594L504.138 205.832H520.732L534.121 243.31L548.21 205.813H563.79H563.772Z" fill="white"/>
</svg>
