<svg width="254" height="260" viewBox="0 0 254 260" fill="none" xmlns="http://www.w3.org/2000/svg">
<path d="M17.9823 191.062H16.8584C15.7345 191.062 13 188 13 188C5 172 1.12389 152.849 0 133.743V130.372V127C0 107.894 4.49557 89.9114 13.4867 73.053C17.9823 62.938 24.7256 53.9469 31.469 44.9557C56.1946 16.8584 92.1592 0 129.248 0C160.717 0 189.938 11.2389 214.664 32.5929C214.664 34.8407 215.787 35.9646 215.787 37.0885C215.787 38.2124 215.787 40.4601 214.664 41.584L178.699 77.5486C176.451 79.7964 173.08 79.7964 170.832 77.5486C158.469 68.5575 143.858 62.938 128.124 62.938C114.637 62.938 100.026 67.4336 88.7875 75.3008C77.5486 83.1681 68.5575 95.5309 64.0619 109.018C61.8141 114.637 60.6902 121.38 60.6902 127C60.6902 128.124 60.6902 129.248 60.6902 130.372C60.6902 131.495 60.6902 132.619 60.6902 132.619C60.6902 139.363 61.2522 144.881 63.5 150.5C64.7 153.5 64.0619 155.097 61.8141 157.345L20.2301 188.814C20.2301 189.938 19.1062 191.062 17.9823 191.062ZM128.124 12.3628C93.2831 12.3628 60.6902 26.9734 39.3363 52.823C32.5929 60.6902 26.9734 68.5575 22.4779 77.5486C14.6106 93.2831 11.2389 109.018 10.115 127V130.372V133.743C10.115 148.354 13.4867 162.964 19.1062 176.451L51.6991 151.726C50.5752 146.106 49.4513 140.487 49.4513 134.867C49.4513 133.743 49.4513 132.619 49.4513 131.495C49.4513 130.372 49.4513 129.248 49.4513 128.124C49.4513 120.257 50.5752 113.513 52.823 106.77C58.4424 91.0353 67.4336 77.5486 80.9203 67.4336C107.894 48.3274 144.982 47.2035 171.956 66.3097L200.053 38.2124C180.947 21.354 155.097 12.3628 128.124 12.3628Z" fill="white"/>
<path d="M128.124 259.619C91.0356 259.619 55.071 243.884 30.3454 214.663C22.4781 205.672 15.9956 193.991 11.5 185C9 179 12.3631 182.07 13.487 180.946L55.071 149.477C56.1949 148.354 56.2523 148 58.5001 148C60.7479 148 62.0001 147.5 64.0622 151.725C66.1242 155.951 76.425 176.451 88.7878 185.442C93.2834 188.814 98.9028 192.185 104.522 194.433C112.39 197.805 120.257 198.929 129.248 198.929C143.859 198.929 157.345 195.557 167.46 188.814C177.575 182.07 184.319 173.079 188.814 161.84H129.248C125.876 161.84 123.628 159.592 123.628 156.221V107.893C123.628 104.522 125.876 102.274 129.248 102.274H245.009C247.257 102.274 249.505 104.522 250.628 106.769C252.876 114.637 254 123.628 254 130.371C254 151.725 250.628 170.831 242.761 188.814C236.018 203.424 227.027 216.911 214.664 228.15C201.177 240.513 183.195 250.628 165.213 256.247C151.726 258.495 140.487 259.619 128.124 259.619ZM24.7259 186.566C29.2215 194.433 33.7171 201.177 39.3365 207.92C61.8144 233.769 94.4072 248.38 129.248 248.38C140.487 248.38 150.602 247.256 160.717 243.884C177.575 239.389 193.31 230.398 205.673 219.159C215.788 209.044 224.779 197.805 230.398 184.318C237.142 168.584 241.637 150.601 241.637 130.371C241.637 124.752 240.513 119.132 239.389 113.513H133.743V150.601H194.434C196.682 150.601 197.805 151.725 198.929 152.849C200.053 153.973 200.053 156.221 200.053 157.345C196.682 174.203 186.567 188.814 171.956 197.805C159.593 205.672 144.982 209.044 128.124 209.044C118.009 209.044 109.018 206.796 100.027 203.424C93.2834 201.177 87.6639 197.805 82.0444 193.309C70.8055 185.442 61.8144 174.203 56.1949 161.84L24.7259 186.566Z" fill="white"/>
<path d="M58.5329 112C57.4589 112 56.3848 112 55.3108 110.951L15.5711 80.5343C12.349 79.4854 12.349 75.29 14.4971 73.1923C16.6452 71.0946 19.8673 70.0457 22.0154 72.1434L61.7551 101.511C63.9032 103.609 64.9772 106.756 62.8291 108.853C61.7551 110.951 59.607 112 58.5329 112Z" fill="white"/>
<path d="M200.18 235.706C199.073 235.706 197.967 235.706 196.86 234.628L167.313 198.803C165.1 196.646 163.993 193.411 166.206 191.254C168.42 189.097 171.74 188.019 173.953 190.176L203.5 226C205.713 228.157 206.82 231.392 204.607 233.549C203.5 234.628 202.393 235.706 200.18 235.706Z" fill="white"/>
<path d="M210.168 161.841H143.859C140.487 161.841 138.239 159.593 138.239 156.221C138.239 152.85 140.487 150.602 143.859 150.602H210.168C213.54 150.602 215.788 152.85 215.788 156.221C215.788 159.593 213.54 161.841 210.168 161.841Z" fill="white"/>
</svg>
