<svg width="442" height="164" viewBox="0 0 442 164" fill="none" xmlns="http://www.w3.org/2000/svg">
<path d="M35.0285 162.094V109.607L0 15.6632H17.6248L43.4081 88.188L73.1142 0.469421H89.2656L51.1615 110.233V162.076H35.0285V162.094ZM138.862 162.094H125.344C124.736 159.792 124.147 156.569 123.963 153.862H122.913C118.382 159.626 112.618 163.531 103.557 163.531C88.8604 163.531 78.8049 152.462 78.8049 132.149C78.8049 110.049 90.0575 96.1256 118.953 96.1256H121.218V89.9928C121.218 76.4566 116.688 70.6922 107.682 70.6922C99.4868 70.6922 92.5069 75.0017 87.2029 79.7164L84.1273 65.6092C88.842 61.6864 98.2345 57.3769 108.732 57.3769C126.964 57.3769 136.965 65.1856 136.965 90.177V138.723C136.965 148.558 137.978 157.177 138.806 162.057L138.862 162.094ZM121.274 108.225H119.414C99.5237 108.225 95.2326 117.047 95.2326 130.325C95.2326 142.204 99.1001 149.976 107.296 149.976C112.821 149.976 118.364 146.293 121.237 141.781L121.274 108.225ZM172.877 162.094H156.873V58.574H172.877V67.6166H173.909C176.745 63.7491 184.553 57.3769 194.185 57.3769C207.666 57.3769 214.83 64.9646 214.83 80.7293V162.094H198.661V82.1658C198.661 74.3755 195.198 71.6683 189.01 71.6683C182.307 71.6683 176.579 76.8065 172.859 81.9632V162.076L172.877 162.094ZM230.613 114.358C230.613 76.0514 244.979 57.3769 265.624 57.3769C270.559 57.3769 275.661 59.0344 278.755 61.2628V15.6632H294.759V162.076H282.88L281.609 153.88H280.596C276.084 159.626 270.357 163.475 261.94 163.475C241.682 163.475 230.65 146.293 230.65 114.358H230.613ZM278.773 75.4068C275.532 72.1655 272.033 70.508 266.692 70.508C253.8 70.508 247.63 89.9744 247.63 111.062C247.63 135.243 252.161 149.994 263.856 149.994C271.885 149.994 276.121 146.072 278.791 141.983V75.4068H278.773ZM345.147 163.531C323.875 163.531 310.726 146.514 310.726 114.782C310.726 81.558 319.953 57.3953 341.85 57.3953C359.07 57.3953 370.285 70.3054 370.285 105.352V114.156H327.356C327.356 137.508 333.894 149.792 346.602 149.792C355.607 149.792 362.201 145.703 366.271 142.83L369.954 155.114C363.434 160.234 355.405 163.512 345.184 163.512L345.147 163.531ZM327.522 101.024H353.95C353.95 83.3997 351.095 70.508 341.869 70.508C332.071 70.508 328.609 82.6078 327.504 101.024H327.522ZM439.772 58.8134L420.526 107.157L442 162.094H425.443L409.421 119.478L393.877 162.076H378.131L399.605 108.594L380.138 58.8318H396.732L410.121 96.3098L424.21 58.8134H439.79H439.772Z" fill="white"/>
</svg>
