<svg width="140" height="294" viewBox="0 0 140 294" fill="none" xmlns="http://www.w3.org/2000/svg">
<path d="M135.708 0H91.2525C47.5719 0 10.5266 33.32 10.5266 98.003C10.5266 136.813 28.4664 165.425 60.4408 179.538L0.782088 287.735C-1.17058 291.266 0.782085 294 3.89347 294H31.5838C33.927 294 35.4861 293.218 36.2662 291.268L90.4724 185.026H109.968V291.268C109.968 292.44 111.141 294 112.693 294H136.88C139.22 294 140 292.831 140 290.875V3.91965C140 1.17209 138.439 0 135.708 0ZM109.968 159.944H93.5896C67.853 159.944 42.8984 141.121 42.8984 94.0834C42.8984 45.0749 66.2919 25.0833 90.0788 25.0833H109.968V159.944Z" fill="#1A1A1A"/>
</svg>
