<svg width="358" height="324" viewBox="0 0 358 324" fill="none" xmlns="http://www.w3.org/2000/svg">
<path d="M282.924 58.3333C299.033 58.3333 312.091 45.275 312.091 29.1667C312.091 13.0584 299.033 0 282.924 0C266.816 0 253.758 13.0584 253.758 29.1667C253.758 45.275 266.816 58.3333 282.924 58.3333Z" fill="#1A1A1A"/>
<path d="M74.5885 58.3333C90.6968 58.3333 103.755 45.275 103.755 29.1667C103.755 13.0584 90.6968 0 74.5885 0C58.4802 0 45.4219 13.0584 45.4219 29.1667C45.4219 45.275 58.4802 58.3333 74.5885 58.3333Z" fill="#1A1A1A"/>
<path d="M178.757 58.3333C194.865 58.3333 207.923 45.275 207.923 29.1667C207.923 13.0584 194.865 0 178.757 0C162.648 0 149.59 13.0584 149.59 29.1667C149.59 45.275 162.648 58.3333 178.757 58.3333Z" fill="#1A1A1A"/>
<path d="M252.923 165L234.173 95.8333C233.339 93.3333 232.089 90.8333 230.423 89.1667C222.506 80.8333 212.506 74.5833 201.673 70.8333C194.589 68.3333 187.089 67.0833 179.173 67.0833C171.256 67.0833 163.756 68.3333 156.673 70.8333C145.423 74.5833 135.839 80.8333 127.923 89.1667C126.256 91.25 125.006 93.3333 124.173 95.8333L105.423 165C103.756 171.667 107.089 179.167 114.173 180.833C115.423 181.25 116.256 181.25 117.506 181.25C122.923 181.25 127.923 177.5 129.589 172.083L146.256 111.25V323.333H171.256V204.167H187.923V322.917H212.923V111.25L229.589 172.083C231.256 177.5 236.256 181.25 241.673 181.25C242.923 181.25 243.756 181.25 245.006 180.833C250.839 179.167 254.589 171.667 252.923 165Z" fill="#1A1A1A"/>
<path d="M96.6726 162.917L115.423 93.75C116.256 90 118.339 86.6667 120.423 83.75C113.756 77.9167 105.423 73.3333 96.6726 70.4167C89.5893 67.9167 82.0893 66.6667 74.1726 66.6667C66.256 66.6667 58.756 67.9167 51.6726 70.4167C40.4226 74.1667 30.8393 80.4167 22.9226 88.75C21.256 90.8333 20.006 92.9166 19.1726 95.4166L0.422642 165C-1.24402 171.667 2.08931 179.167 9.17264 180.833C10.4226 181.25 11.256 181.25 12.506 181.25C17.9226 181.25 22.9226 177.5 24.5893 172.083L41.256 111.25V323.333H66.256V204.167H82.9226V322.917H107.923V187.917C99.1726 183.75 94.1726 173.333 96.6726 162.917Z" fill="#1A1A1A"/>
<path d="M357.089 165L337.922 95.8333C337.089 93.3333 335.839 90.8333 334.172 89.1667C326.255 80.8333 316.255 74.5833 305.422 70.8333C298.339 68.3333 290.839 67.0833 282.922 67.0833C275.005 67.0833 267.505 68.3333 260.422 70.8333C251.672 73.75 243.755 78.3333 236.672 84.1666C239.172 87.0833 240.839 90.4167 241.672 93.75L260.422 162.917C263.339 173.333 257.922 183.75 249.172 187.917V323.333H274.172V204.167H290.839V322.917H315.839V111.25L332.505 172.083C334.172 177.5 339.172 181.25 344.589 181.25C345.839 181.25 346.672 181.25 347.922 180.833C355.005 179.167 358.755 171.667 357.089 165Z" fill="#1A1A1A"/>
</svg>
