<svg width="219" height="261" viewBox="0 0 219 261" fill="none" xmlns="http://www.w3.org/2000/svg">
<path d="M91.5931 238.706L92.7374 228.397H14.1578C12.6702 228.396 11.2438 227.805 10.192 226.753C9.14014 225.701 8.54901 224.275 8.54852 222.787V33.79C8.54901 32.3025 9.14014 30.8761 10.192 29.8242C11.2438 28.7724 12.6702 28.1813 14.1578 28.1808H132.591C134.079 28.1813 135.505 28.7725 136.557 29.8243C137.609 30.8761 138.2 32.3025 138.2 33.79V122.679C140.758 120.525 143.644 118.794 146.749 117.553V18.3422C146.749 13.4775 144.816 8.81213 141.376 5.3723C137.937 1.93248 133.271 0 128.407 0H18.3422C13.4775 0 8.81213 1.93248 5.3723 5.3723C1.93247 8.81213 0 13.4775 0 18.3422V238.538C0 243.403 1.93247 248.068 5.3723 251.508C8.81213 254.948 13.4775 256.88 18.3422 256.88H96.591C92.6639 251.684 90.8755 245.18 91.5931 238.706ZM86.2082 245.538H60.5404V238.807H86.2082V245.538Z" fill="white"/>
<path d="M51.5411 77.9291C51.3317 80.5261 50.37 83.0058 48.7736 85.0649C47.1772 87.124 45.0154 88.6733 42.5525 89.5233C40.0896 90.3734 37.4324 90.4872 34.9058 89.851C32.3793 89.2149 30.0928 87.8562 28.3262 85.9412C26.5595 84.0262 25.3892 81.6378 24.9583 79.0683C24.5274 76.4987 24.8547 73.8592 25.9001 71.4727C26.9455 69.0862 28.6637 67.056 30.8446 65.6305C33.0255 64.205 35.5745 63.4459 38.1799 63.446V57.2759C34.3546 57.2757 30.6131 58.3964 27.4178 60.4994C24.2225 62.6025 21.7134 65.5958 20.2008 69.1093C18.6882 72.6229 18.2382 76.5026 18.9065 80.2691C19.5749 84.0356 21.3322 87.5237 23.9614 90.3022C26.5906 93.0808 29.9763 95.0281 33.7001 95.9034C37.4239 96.7787 41.3226 96.5437 44.9143 95.2273C48.506 93.911 51.6332 91.5711 53.9096 88.4968C56.1859 85.4225 57.5115 81.7485 57.7225 77.9291H51.5411Z" fill="white"/>
<path d="M32.7652 70.423L27.7969 74.9641L35.194 83.0569C35.5069 83.3992 35.8872 83.6732 36.3109 83.8616C36.7347 84.0501 37.1928 84.1489 37.6565 84.152H37.6784C38.1384 84.1519 38.5936 84.0576 39.0157 83.8749C39.4379 83.6921 39.8181 83.4247 40.133 83.0893L55.8359 66.3516L50.9268 61.7459L37.7105 75.833L32.7652 70.423Z" fill="white"/>
<path d="M51.5412 131.263C51.3318 133.86 50.3701 136.34 48.7737 138.399C47.1774 140.458 45.0156 142.007 42.5527 142.857C40.0898 143.707 37.4325 143.821 34.906 143.185C32.3794 142.549 30.0929 141.19 28.3263 139.275C26.5596 137.36 25.3893 134.972 24.9584 132.402C24.5276 129.833 24.8548 127.193 25.9002 124.807C26.9456 122.42 28.6638 120.39 30.8447 118.965C33.0256 117.539 35.5746 116.78 38.18 116.78V110.61C34.3547 110.61 30.6132 111.73 27.4179 113.833C24.2225 115.937 21.7135 118.93 20.2008 122.443C18.6882 125.957 18.2382 129.837 18.9065 133.603C19.5749 137.37 21.3323 140.858 23.9614 143.636C26.5906 146.415 29.9763 148.362 33.7002 149.238C37.424 150.113 41.3227 149.878 44.9144 148.561C48.5061 147.245 51.6334 144.905 53.9097 141.831C56.186 138.757 57.5116 135.083 57.7226 131.263H51.5412Z" fill="white"/>
<path d="M32.7652 123.757L27.7969 128.298L35.194 136.391C35.5069 136.733 35.8872 137.007 36.3109 137.196C36.7347 137.384 37.1928 137.483 37.6565 137.486H37.6784C38.1384 137.486 38.5936 137.392 39.0157 137.209C39.4379 137.026 39.8182 136.759 40.133 136.423L55.8361 119.686L50.9269 115.08L37.7105 129.167L32.7652 123.757Z" fill="white"/>
<path d="M18.6055 183.522C18.6069 188.62 20.5966 193.515 24.1514 197.168C27.7063 200.821 32.5459 202.944 37.6411 203.084C42.7364 203.224 47.6855 201.371 51.4359 197.92C55.1864 194.468 57.4424 189.689 57.7242 184.599H51.5429C51.3334 187.196 50.3717 189.676 48.7754 191.735C47.179 193.794 45.0172 195.344 42.5543 196.194C40.0914 197.044 37.4342 197.158 34.9076 196.521C32.381 195.885 30.0946 194.527 28.3279 192.612C26.5612 190.697 25.3909 188.308 24.96 185.739C24.5292 183.169 24.8565 180.53 25.9019 178.143C26.9473 175.757 28.6655 173.726 30.8463 172.301C33.0272 170.875 35.5762 170.116 38.1817 170.116V163.946C32.9915 163.952 28.0155 166.016 24.3455 169.686C20.6754 173.356 18.6111 178.332 18.6055 183.522Z" fill="white"/>
<path d="M32.7652 177.093L27.7969 181.635L35.194 189.727C35.5069 190.07 35.8872 190.344 36.3109 190.532C36.7347 190.72 37.1928 190.819 37.6565 190.822H37.6784C38.1384 190.822 38.5936 190.728 39.0157 190.545C39.4379 190.363 39.8182 190.095 40.133 189.76L55.8359 173.022L50.9268 168.417L37.7105 182.504L32.7652 177.093Z" fill="white"/>
<path d="M112.477 66.7269H71.707V73.458H112.477V66.7269Z" fill="white"/>
<path d="M100.089 80.2411H71.707V86.9722H100.089V80.2411Z" fill="white"/>
<path d="M100.089 118.949H71.707V125.68H100.089V118.949Z" fill="white"/>
<path d="M112.28 132.463H71.707V139.194H112.28V132.463Z" fill="white"/>
<path d="M218.169 239.172L210.254 168.014C209.944 165.2 208.605 162.599 206.495 160.71C204.385 158.822 201.652 157.779 198.821 157.782H183.096V146.928C183.088 140.413 180.526 134.161 175.959 129.514C171.393 124.867 165.186 122.196 158.672 122.076C144.765 121.837 133.383 133.461 133.383 147.369V157.782H117.658C114.826 157.779 112.093 158.822 109.983 160.711C107.873 162.599 106.534 165.2 106.224 168.015L98.2789 239.448C97.9877 242.066 98.2519 244.715 99.0543 247.224C99.8567 249.732 101.179 252.043 102.936 254.006C104.692 255.968 106.842 257.538 109.247 258.613C111.651 259.688 114.255 260.244 116.889 260.244H199.311C201.98 260.244 204.618 259.681 207.055 258.592C209.491 257.502 211.67 255.912 213.45 253.923C215.229 251.935 216.569 249.593 217.382 247.051C218.196 244.509 218.463 241.825 218.168 239.173L218.169 239.172ZM140.114 146.928C140.119 142.177 141.988 137.617 145.319 134.229C148.649 130.84 153.176 128.893 157.926 128.806C168.066 128.633 176.364 137.149 176.364 147.29V157.782H140.114V146.928ZM208.435 249.434C207.286 250.716 205.879 251.742 204.307 252.445C202.736 253.148 201.033 253.511 199.311 253.512H116.889C115.202 253.512 113.534 253.156 111.994 252.468C110.454 251.779 109.077 250.774 107.952 249.517C106.827 248.26 105.979 246.779 105.465 245.173C104.951 243.566 104.782 241.869 104.969 240.192L112.914 168.759C113.042 167.591 113.598 166.512 114.473 165.728C115.349 164.945 116.483 164.512 117.658 164.513H133.383V177.863H140.114V164.513H176.365V177.863H183.096V164.513H198.821C199.996 164.512 201.13 164.945 202.005 165.728C202.881 166.512 203.436 167.591 203.565 168.758L211.479 239.917C211.669 241.628 211.495 243.36 210.971 245C210.446 246.639 209.582 248.15 208.435 249.434Z" fill="white"/>
</svg>
