<svg width="198" height="184" viewBox="0 0 198 184" fill="none" xmlns="http://www.w3.org/2000/svg">
<path d="M5.79872 108.99C7.45339 113.954 12.0628 117.105 17.0269 117.105C18.2482 117.105 19.5089 116.908 20.7302 116.514L21.3999 116.278L52.2477 180.968C52.9175 182.386 54.3358 183.213 55.7934 183.213C56.1874 183.213 56.6208 183.135 57.0147 183.016L72.6159 177.855C74.6646 177.186 75.8071 174.94 75.1373 172.891L56.2662 115.687C55.5965 113.638 53.3508 112.496 51.3022 113.166C49.2535 113.835 48.111 116.081 48.7808 118.13L66.3912 171.591L57.8421 174.428L28.9247 113.757L41.3348 109.659L65.4851 105.483C87.7838 101.622 111.067 105.483 130.923 116.317C133.169 117.657 135.73 118.445 138.409 118.445C139.906 118.445 141.442 118.208 142.939 117.696C150.543 115.175 154.68 106.941 152.198 99.3373L144.752 76.8023C148.573 74.7143 151.646 71.5625 153.655 67.6228C156.256 62.4618 156.689 56.6311 154.877 51.1549C153.064 45.6787 149.243 41.2269 144.082 38.6267C140.142 36.6174 135.769 35.9477 131.475 36.5386L124.029 14.0036C121.508 6.39998 113.313 2.2633 105.67 4.7453C101.967 5.96661 98.9725 8.52741 97.239 11.9943C97.0814 12.3095 97.0026 12.6641 96.845 12.9793C96.845 12.9793 96.845 13.0187 96.8056 13.0187C87.2716 33.5839 70.8825 50.4851 50.6324 60.6496L28.7277 71.6413L8.12314 78.4176C5.12898 79.4025 2.68637 81.4905 1.26808 84.3271C-0.150213 87.1243 -0.386595 90.3549 0.598328 93.349L5.79872 108.99ZM140.536 45.7575C143.806 47.4122 146.249 50.2094 147.391 53.7157C148.534 57.1826 148.258 60.9253 146.603 64.1953C145.579 66.2439 144.043 67.938 142.191 69.1987L134.036 44.3392C136.281 44.2604 138.488 44.6938 140.536 45.7575ZM108.152 12.3095C108.822 12.0731 109.531 11.9943 110.24 11.9943C113.037 11.9943 115.637 13.7672 116.583 16.5644L125.132 42.4482L136.163 75.9356L144.712 101.819C145.855 105.286 143.964 109.068 140.457 110.211C138.448 110.881 136.36 110.487 134.706 109.423L134.666 109.384C134.666 109.384 134.627 109.384 134.627 109.344C133.484 108.556 132.539 107.414 132.066 105.956L103.937 20.7011C103.464 19.3222 103.503 17.8251 103.976 16.4856C103.976 16.4462 104.015 16.4462 104.015 16.4068C104.015 16.4068 104.015 16.3674 104.015 16.328C104.094 16.0916 104.173 15.8552 104.291 15.6189C105.118 14.043 106.497 12.8611 108.152 12.3095ZM54.257 67.7804C72.2614 58.7191 87.3898 44.6544 97.9088 27.5955L123.123 104.104C104.488 96.6584 83.9622 94.3339 64.1062 97.7615L43.0288 101.425L41.059 95.4764L35.11 77.3933L54.257 67.7804ZM8.39892 87.991C8.87169 87.0455 9.69902 86.3758 10.6839 86.0212L27.8216 80.3874L35.3858 103.395L18.2482 109.029C16.1995 109.699 13.9539 108.596 13.2841 106.547L8.16254 90.9852C7.84736 90.0003 7.92616 88.9366 8.39892 87.991Z" fill="#1A1A1A"/>
<path d="M161.11 49.185C161.661 50.8397 163.198 51.9034 164.852 51.9034C165.246 51.9034 165.68 51.8246 166.074 51.7065L189.003 44.1422C191.051 43.4725 192.194 41.2269 191.524 39.1782C190.854 37.1296 188.648 35.9871 186.56 36.6568L163.631 44.221C161.543 44.8908 160.44 47.097 161.11 49.185Z" fill="#1A1A1A"/>
<path d="M155.149 34.1748C155.622 34.3718 156.134 34.4506 156.646 34.4506C158.183 34.4506 159.68 33.505 160.31 32.008L171.145 5.41502C171.972 3.40578 170.987 1.08136 168.978 0.29342C166.968 -0.533916 164.644 0.451006 163.856 2.46025L153.022 29.0532C152.195 31.0624 153.14 33.3475 155.149 34.1748Z" fill="#1A1A1A"/>
<path d="M165.247 64.7468C164.104 66.5985 164.695 69.0411 166.547 70.1442L191.052 85.0756C191.682 85.4696 192.392 85.6666 193.101 85.6666C194.44 85.6666 195.74 84.9968 196.449 83.7755C197.592 81.9239 197.001 79.4813 195.149 78.3781L170.644 63.4467C168.832 62.3042 166.39 62.8952 165.247 64.7468Z" fill="#1A1A1A"/>
</svg>
