<svg width="94" height="77" viewBox="0 0 94 77" fill="none" xmlns="http://www.w3.org/2000/svg">
<path d="M93.4478 7.60547C93.4921 4.95601 92.5328 2.51302 90.7465 0.726778C89.7772 -0.24228 88.206 -0.24228 87.2369 0.726902C86.2679 1.69608 86.2678 3.2673 87.2369 4.23635C88.0637 5.06297 88.507 6.22993 88.4855 7.52246C88.465 8.75556 87.9982 9.94623 87.2369 10.7074C85.658 12.2864 69.9192 26.1039 57.6273 36.8551L54.6147 33.8427C63.5881 23.5756 74.7239 10.8802 79.0796 6.0597L80.0705 7.05071C81.0397 8.0199 82.611 8.02002 83.58 7.05096C84.5493 6.08191 84.5494 4.51069 83.5803 3.54151L80.7661 0.727026C80.3008 0.261605 79.6695 4.62756e-05 79.0114 4.62756e-05H79.0112C78.353 4.62756e-05 77.7219 0.261481 77.2565 0.726778C75.7463 2.23682 66.509 12.7283 58.1741 22.2397C55.9327 18.847 52.9388 15.9284 49.3776 13.6881C44.1726 10.4135 38.1044 8.7532 31.3412 8.7532C29.8533 8.7532 28.3814 8.84701 26.9665 9.03226C25.6075 9.21019 24.6501 10.4559 24.8279 11.815C25.0058 13.1739 26.2515 14.1313 27.6105 13.9535C28.8127 13.7961 30.0679 13.7164 31.3411 13.7164C41.6389 13.7164 50.277 18.3331 54.7565 26.1424C50.5765 30.9188 46.9852 35.0328 45.2533 37.0178C42.1615 37.439 39.8545 38.7043 38.2278 40.8739C36.7154 42.8911 36.0525 45.3002 35.3507 47.8508C34.5044 50.9262 33.6294 54.1063 31.1341 56.6016C30.4242 57.3113 30.2119 58.3786 30.5961 59.306C30.9802 60.2334 31.8851 60.838 32.8888 60.838C39.5674 60.838 44.8607 59.4144 48.6219 56.607C52.0114 54.0769 54.0318 50.4848 54.5095 46.1714C60.9036 40.5869 88.4532 16.5101 90.7464 14.2169C92.421 12.5425 93.4057 10.1326 93.4478 7.60547ZM53.8824 40.1293C53.1367 40.7809 52.4138 41.4124 51.7187 42.0193L49.4529 39.7536C50.0592 39.0586 50.6907 38.3351 51.3421 37.5892L53.8824 40.1293ZM45.6531 52.6297C43.7011 54.0869 41.1033 55.0579 37.897 55.5335C38.988 53.3396 39.6001 51.1153 40.136 49.1674C41.2862 44.9874 41.9868 42.8895 44.821 42.1408L49.4031 46.7228C48.8986 49.1619 47.6433 51.1441 45.6531 52.6297Z" fill="#1A1A1A"/>
<path d="M19.2184 16.3425C19.5798 16.3425 19.947 16.2631 20.2943 16.0957C20.517 15.9882 20.7458 15.8826 20.9741 15.782C22.2279 15.2285 22.7957 13.7634 22.2422 12.5095C21.6887 11.2559 20.2237 10.6881 18.9697 11.2415C18.6909 11.3645 18.4114 11.4936 18.1388 11.625C16.9043 12.2202 16.386 13.7036 16.9811 14.938C17.4089 15.8252 18.2952 16.3425 19.2184 16.3425Z" fill="#1A1A1A"/>
<path d="M37.1501 63.5955C35.7809 63.5821 34.6563 64.6786 34.6408 66.049C34.5337 75.589 33.0935 79.8451 24.843 79.8451C20.2178 79.8451 15.3638 76.4616 11.5258 70.5623C7.29386 64.0572 4.96316 55.6116 4.96316 46.781C4.96316 35.3169 8.42497 25.7782 14.7109 19.9222C15.7137 18.988 15.7693 17.4177 14.8351 16.4149C13.901 15.4121 12.3306 15.3565 11.3278 16.2907C7.62515 19.7402 4.76029 24.2222 2.81262 29.6122C0.946227 34.7771 0 40.5536 0 46.781C0 56.561 2.61596 65.9681 7.36571 73.2689C12.1367 80.6024 18.507 84.8083 24.843 84.8083C30.9031 84.8083 35.1269 82.6758 37.3967 78.4701C39.3455 74.8589 39.5576 70.1939 39.6036 66.1048C39.6189 64.7343 38.5206 63.6108 37.1501 63.5955Z" fill="#1A1A1A"/>
<path d="M49.3614 26.8443C49.3614 22.2856 45.6526 18.5768 41.0939 18.5768C36.5351 18.5768 32.8262 22.2856 32.8262 26.8443C32.8262 31.4031 36.5351 35.1121 41.0939 35.1121C45.6526 35.1119 49.3614 31.4031 49.3614 26.8443ZM37.7893 26.8443C37.7893 25.0222 39.2717 23.5399 41.0939 23.5399C42.916 23.5399 44.3983 25.0222 44.3983 26.8443C44.3983 28.6665 42.916 30.1489 41.0939 30.1489C39.2717 30.1488 37.7893 28.6664 37.7893 26.8443Z" fill="#1A1A1A"/>
<path d="M21.3926 38.0834C25.9514 38.0834 29.6603 34.3745 29.6603 29.8159C29.6603 25.2571 25.9514 21.5482 21.3926 21.5482C16.8338 21.5482 13.125 25.2571 13.125 29.8159C13.125 34.3745 16.8338 38.0834 21.3926 38.0834ZM21.3926 26.5114C23.2147 26.5114 24.6971 27.9938 24.6971 29.8159C24.6971 31.638 23.2147 33.1202 21.3926 33.1202C19.5705 33.1202 18.0882 31.638 18.0882 29.8159C18.0882 27.9938 19.5707 26.5114 21.3926 26.5114Z" fill="#1A1A1A"/>
<path d="M23.3263 48.8114C23.3263 44.2526 19.6174 40.5436 15.0587 40.5436C10.4999 40.5436 6.79102 44.2526 6.79102 48.8114C6.79102 53.3701 10.4999 57.0789 15.0587 57.0789C19.6174 57.0789 23.3263 53.3701 23.3263 48.8114ZM15.0587 52.1158C13.2366 52.1158 11.7542 50.6335 11.7542 48.8114C11.7542 46.9892 13.2366 45.5068 15.0587 45.5068C16.8808 45.5068 18.3631 46.9892 18.3631 48.8114C18.3631 50.6334 16.8808 52.1158 15.0587 52.1158Z" fill="#1A1A1A"/>
<path d="M23.7441 76.4235C28.3029 76.4235 32.0118 72.7147 32.0118 68.156C32.0118 63.5974 28.3029 59.8885 23.7441 59.8885C19.1854 59.8885 15.4766 63.5974 15.4766 68.156C15.4766 72.7147 19.1854 76.4235 23.7441 76.4235ZM23.7441 64.8517C25.5663 64.8517 27.0487 66.3339 27.0487 68.156C27.0487 69.9781 25.5663 71.4604 23.7441 71.4604C21.9221 71.4604 20.4397 69.9781 20.4397 68.156C20.4397 66.3339 21.9221 64.8517 23.7441 64.8517Z" fill="#1A1A1A"/>
</svg>
