<svg width="94" height="78" viewBox="0 0 94 78" fill="none" xmlns="http://www.w3.org/2000/svg">
<path d="M75.0151 70.1957C75.5491 70.1957 76.071 70.0373 76.515 69.7407C76.959 69.444 77.305 69.0224 77.5093 68.5291C77.7137 68.0358 77.7671 67.4929 77.663 66.9692C77.5588 66.4455 77.3017 65.9645 76.9241 65.5869C76.5465 65.2094 76.0655 64.9522 75.5418 64.8481C75.0181 64.7439 74.4753 64.7974 73.982 65.0017C73.4886 65.206 73.067 65.5521 72.7703 65.996C72.4737 66.44 72.3154 66.962 72.3154 67.4959C72.3154 68.212 72.5998 68.8986 73.1061 69.4049C73.6124 69.9112 74.2991 70.1957 75.0151 70.1957Z" fill="#1A1A1A"/>
<path d="M31.2521 25.0488H12.2859C11.1925 25.0488 10.1098 25.2642 9.0996 25.6826C8.08944 26.101 7.17158 26.7143 6.39843 27.4874C5.62528 28.2606 5.01199 29.1785 4.59357 30.1886C4.17514 31.1988 3.95978 32.2815 3.95978 33.3749C3.94953 35.0908 4.4815 36.7661 5.4798 38.1618C4.12665 38.8546 2.991 39.9075 2.19798 41.2045C1.40496 42.5015 0.985336 43.9922 0.985336 45.5124C0.985336 47.0326 1.40496 48.5233 2.19798 49.8202C2.991 51.1172 4.12665 52.1701 5.4798 52.8629C4.84253 53.7766 4.3951 54.8089 4.16399 55.8986C3.93288 56.9884 3.92281 58.1134 4.13435 59.2071C4.3459 60.3008 4.77477 61.341 5.39557 62.2659C6.01637 63.1909 6.81647 63.9819 7.74849 64.592C6.79779 65.8115 6.2065 67.2722 6.0412 68.8096C5.87589 70.347 6.14317 71.9 6.81289 73.2937C7.48261 74.6874 8.52819 75.8664 9.83184 76.6979C11.1355 77.5294 12.6454 77.9804 14.1916 78H47.5413C53.5293 77.9677 59.4097 76.4058 64.6245 73.4626C65.0084 74.7631 65.7998 75.906 66.8822 76.7229C67.9645 77.5397 69.2806 77.9874 70.6366 78H79.3937C81.0706 77.994 82.6771 77.3252 83.8628 76.1395C85.0486 74.9537 85.7174 73.3472 85.7233 71.6704V71.1259H91.6219C92.2236 71.1259 92.8007 70.8868 93.2261 70.4614C93.6516 70.0359 93.8906 69.4589 93.8906 68.8572C93.8906 68.2555 93.6516 67.6784 93.2261 67.253C92.8007 66.8275 92.2236 66.5885 91.6219 66.5885H85.7233V44.741H91.6219C92.2236 44.741 92.8007 44.502 93.2261 44.0765C93.6516 43.6511 93.8906 43.074 93.8906 42.4723C93.8906 41.8706 93.6516 41.2936 93.2261 40.8681C92.8007 40.4427 92.2236 40.2036 91.6219 40.2036H85.7007V39.6365C85.6947 37.9617 85.0251 36.3575 83.8387 35.1754C82.6524 33.9933 81.0458 33.3295 79.371 33.3295H70.6366C69.3336 33.3294 68.0626 33.7329 66.9983 34.4844C65.9339 35.236 65.1285 36.2987 64.6926 37.5266L55.6178 25.6613C52.1268 20.1001 50.5346 13.5562 51.0805 7.01271L51.2166 5.47C51.3237 4.21035 50.9282 2.95947 50.1164 1.99037C49.3045 1.02128 48.1423 0.412682 46.8834 0.297394H45.6583C42.234 0.328934 38.9439 1.63306 36.428 3.95612C33.912 6.27918 32.3501 9.45504 32.0461 12.8659L31.7285 16.632C31.5165 18.9295 31.779 21.2462 32.4999 23.438C32.5604 23.6231 32.5775 23.8196 32.55 24.0123C32.5224 24.2051 32.451 24.3889 32.3411 24.5497C32.216 24.7175 32.0507 24.8512 31.8604 24.9385C31.6701 25.0257 31.4609 25.0636 31.2521 25.0488ZM70.6366 37.8442H79.371C79.6053 37.8412 79.8378 37.8848 80.0552 37.9723C80.2725 38.0599 80.4703 38.1898 80.637 38.3544C80.8037 38.519 80.9361 38.7151 81.0264 38.9313C81.1168 39.1475 81.1633 39.3795 81.1633 39.6138V71.6477C81.1633 72.123 80.9745 72.5789 80.6383 72.915C80.3022 73.2511 79.8463 73.4399 79.371 73.4399H70.6139C70.1385 73.4399 69.6827 73.2511 69.3465 72.915C69.0104 72.5789 68.8216 72.123 68.8216 71.6477V66.9288V39.7045C68.8124 39.4616 68.8526 39.2193 68.94 38.9924C69.0273 38.7655 69.1599 38.5588 69.3297 38.3847C69.4995 38.2107 69.7029 38.073 69.9276 37.9801C70.1522 37.8872 70.3935 37.8409 70.6366 37.8442ZM36.0164 27.1133C36.5457 26.3562 36.8875 25.4842 37.0137 24.5691C37.1399 23.654 37.0469 22.722 36.7423 21.8499C36.245 20.275 36.06 18.6181 36.1979 16.9723L36.5155 13.2062C36.7282 10.7612 37.9034 8.50078 39.7824 6.92197C40.7158 6.12925 41.8 5.53366 42.9697 5.17106C44.1394 4.80846 45.3703 4.68635 46.5885 4.81208C46.6203 4.81192 46.6517 4.81845 46.6808 4.83125C46.71 4.84404 46.7361 4.86282 46.7575 4.88634C46.7789 4.90988 46.7951 4.93764 46.805 4.96784C46.815 4.99805 46.8185 5.03 46.8153 5.06164L46.6792 6.58167C46.0354 14.1794 47.8916 21.7794 51.9652 28.225L63.3087 43.1529L63.5129 43.3798C64.0209 43.8931 64.3062 44.586 64.3069 45.3082V66.9288C64.2879 67.3879 64.1557 67.8352 63.9222 68.231C63.6887 68.6268 63.361 68.9588 62.9684 69.1975C58.283 71.9198 52.9601 73.3523 47.5413 73.3492H14.1916C13.1867 73.3492 12.2231 72.95 11.5125 72.2395C10.802 71.529 10.4029 70.5653 10.4029 69.5605C10.4029 68.5556 10.802 67.592 11.5125 66.8815C12.2231 66.1709 13.1867 65.7718 14.1916 65.7718H19.954C20.5557 65.7718 21.1328 65.5327 21.5582 65.1073C21.9837 64.6818 22.2227 64.1048 22.2227 63.5031C22.2227 62.9014 21.9837 62.3243 21.5582 61.8989C21.1328 61.4734 20.5557 61.2344 19.954 61.2344H12.1497C11.1985 61.1606 10.3101 60.7306 9.66203 60.0304C9.01398 59.3301 8.65399 58.4111 8.65399 57.457C8.65399 56.5029 9.01398 55.5839 9.66203 54.8837C10.3101 54.1834 11.1985 53.7534 12.1497 53.6797H20.8161C21.4178 53.6797 21.9949 53.4406 22.4203 53.0152C22.8458 52.5897 23.0848 52.0127 23.0848 51.411C23.0848 50.8093 22.8458 50.2322 22.4203 49.8068C21.9949 49.3813 21.4178 49.1423 20.8161 49.1423H9.2912C8.77053 49.1827 8.24715 49.115 7.75388 48.9434C7.26063 48.7719 6.80815 48.5003 6.42487 48.1456C6.04159 47.7909 5.73578 47.3608 5.52663 46.8822C5.31749 46.4037 5.20952 45.8871 5.20952 45.3649C5.20952 44.8427 5.31749 44.3261 5.52663 43.8476C5.73578 43.3691 6.04159 42.9389 6.42487 42.5842C6.80815 42.2295 7.26063 41.9579 7.75388 41.7864C8.24715 41.6148 8.77053 41.5472 9.2912 41.5875H19.6364C20.2381 41.5875 20.8152 41.3485 21.2406 40.923C21.6661 40.4976 21.9051 39.9205 21.9051 39.3189C21.9051 38.7172 21.6661 38.1401 21.2406 37.7146C20.8152 37.2892 20.2381 37.0502 19.6364 37.0502H12.2859C11.281 37.0502 10.3174 36.651 9.60685 35.9405C8.89632 35.23 8.49715 34.2663 8.49715 33.2614C8.49715 32.2566 8.89632 31.2929 9.60685 30.5824C10.3174 29.8719 11.281 29.4727 12.2859 29.4727H31.2521C32.1761 29.4834 33.0895 29.2752 33.9176 28.8651C34.7456 28.4551 35.4649 27.8547 36.0164 27.1133Z" fill="#1A1A1A"/>
</svg>
