<svg width="206" height="218" viewBox="0 0 206 218" fill="none" xmlns="http://www.w3.org/2000/svg">
<path d="M122.074 103.755C123.375 103.755 124.623 103.238 125.543 102.318C126.463 101.398 126.98 100.15 126.98 98.849C126.98 93.9979 128.198 85.8565 136.335 85.8565C144.473 85.8565 145.694 93.9968 145.694 98.849C145.694 100.15 146.211 101.398 147.131 102.318C148.051 103.238 149.299 103.755 150.6 103.755H174.182C175.483 103.755 176.731 103.238 177.651 102.318C178.571 101.398 179.088 100.15 179.088 98.849V28.3944C179.086 25.706 178.017 23.1284 176.116 21.2274C174.215 19.3265 171.637 18.2576 168.949 18.2553H155.214C153.731 7.02319 146.65 0 136.334 0C126.018 0 118.941 7.02319 117.457 18.2553H28.036C25.3477 18.2576 22.7702 19.3266 20.8692 21.2275C18.9683 23.1285 17.8993 25.706 17.897 28.3944V117.865C6.87419 119.451 0 126.492 0 136.695C0 146.898 6.87419 153.936 17.897 155.522V169.306C17.8993 171.994 18.9683 174.572 20.8692 176.473C22.7702 178.374 25.3477 179.442 28.036 179.445H93.254C95.9423 179.442 98.5199 178.374 100.421 176.473C102.322 174.572 103.391 171.994 103.393 169.306V103.755H122.074ZM118.459 28.0644C118.815 28.0643 119.171 28.0263 119.52 27.951C119.8 27.9259 120.183 27.9012 120.57 27.8765C122.324 27.7591 126.98 27.4542 126.98 22.7979C126.98 17.9464 128.197 9.80906 136.335 9.80906C144.472 9.80906 145.692 17.9464 145.692 22.7979C145.692 27.4495 150.348 27.7591 152.101 27.8765C152.485 27.9012 152.865 27.9259 153.145 27.9474C153.495 28.026 153.854 28.0653 154.213 28.0644H168.945C168.988 28.064 169.031 28.0723 169.071 28.0887C169.111 28.1052 169.148 28.1295 169.179 28.1602C169.209 28.1909 169.234 28.2274 169.25 28.2676C169.267 28.3078 169.275 28.3509 169.275 28.3944V93.9459H155.163C153.576 82.9231 146.535 76.0489 136.333 76.0489C126.13 76.0489 119.092 82.9231 117.506 93.9459H103.393V73.5788C103.394 72.2972 102.893 71.066 101.998 70.1491C101.102 69.2321 99.8835 68.7022 98.6022 68.6728C92.8139 68.538 85.9146 66.8097 85.9146 59.3358C85.9146 51.862 92.8139 50.1337 98.6022 49.9989C99.8835 49.9694 101.102 49.4395 101.998 48.5225C102.893 47.6056 103.394 46.3745 103.393 45.0929V28.0644H118.459ZM93.584 169.307C93.5836 169.394 93.5487 169.478 93.4869 169.54C93.4251 169.601 93.3414 169.636 93.254 169.637H28.036C27.9486 169.636 27.8649 169.601 27.8031 169.54C27.7413 169.478 27.7065 169.394 27.7061 169.307V150.954C27.7061 149.653 27.1892 148.405 26.2691 147.485C25.3491 146.565 24.1012 146.049 22.8001 146.049C17.9486 146.049 9.8076 144.831 9.8076 136.694C9.8076 128.556 17.9479 127.335 22.8001 127.335C23.4444 127.335 24.0823 127.208 24.6775 126.962C25.2728 126.715 25.8136 126.354 26.2691 125.898C26.7247 125.443 27.0861 124.902 27.3326 124.307C27.5792 123.712 27.7061 123.074 27.7061 122.429V103.75H41.8164C43.4027 114.773 50.4437 121.644 60.6466 121.644C70.8496 121.644 77.8874 114.773 79.4736 103.75H93.584V169.307Z" fill="white"/>
<path d="M205.662 188.212C205.658 186.913 205.14 185.67 204.22 184.754C203.3 183.837 202.054 183.324 200.756 183.325H200.735C197.116 183.457 193.537 182.535 190.432 180.672C189.279 179.833 188.356 178.718 187.746 177.429C187.137 176.14 186.861 174.718 186.943 173.295V173.291C186.901 164.511 195.489 163.156 200.614 163.131C201.258 163.128 201.894 162.999 202.488 162.75C203.082 162.501 203.62 162.138 204.074 161.681C204.527 161.223 204.885 160.682 205.129 160.086C205.373 159.49 205.496 158.852 205.493 158.208L205.408 136.681C205.403 135.383 204.884 134.14 203.965 133.224C203.045 132.308 201.8 131.794 200.502 131.794H200.485L181.466 131.869C180.987 128.062 179.593 124.427 177.404 121.276C175.726 118.96 173.504 117.092 170.934 115.836C168.363 114.581 165.524 113.976 162.666 114.075H162.557C159.676 113.985 156.818 114.61 154.237 115.894C151.657 117.177 149.434 119.08 147.769 121.432C145.612 124.607 144.253 128.256 143.807 132.068L124.801 132.141C124.156 132.142 123.518 132.271 122.923 132.52C122.328 132.768 121.787 133.132 121.333 133.589C120.879 134.047 120.519 134.59 120.275 135.187C120.031 135.784 119.907 136.423 119.91 137.068L120.233 207.528C120.245 210.208 121.319 212.775 123.218 214.665C125.118 216.556 127.689 217.618 130.369 217.618H130.418L195.644 217.316C198.331 217.301 200.903 216.22 202.794 214.311C204.686 212.402 205.743 209.821 205.733 207.133L205.662 188.212Z" fill="white"/>
</svg>
