<svg width="207" height="207" viewBox="0 0 207 207" fill="none" xmlns="http://www.w3.org/2000/svg">
<path d="M103.5 194.062C79.4813 194.062 56.4464 184.521 39.4626 167.537C22.4789 150.554 12.9375 127.519 12.9375 103.5C12.9375 79.4813 22.4789 56.4464 39.4626 39.4626C56.4464 22.4789 79.4813 12.9375 103.5 12.9375C127.519 12.9375 150.554 22.4789 167.537 39.4626C184.521 56.4464 194.062 79.4813 194.062 103.5C194.062 127.519 184.521 150.554 167.537 167.537C150.554 184.521 127.519 194.062 103.5 194.062ZM103.5 207C130.95 207 157.276 196.096 176.686 176.686C196.096 157.276 207 130.95 207 103.5C207 76.0501 196.096 49.7245 176.686 30.3144C157.276 10.9044 130.95 0 103.5 0C76.0501 0 49.7245 10.9044 30.3144 30.3144C10.9044 49.7245 0 76.0501 0 103.5C0 130.95 10.9044 157.276 30.3144 176.686C49.7245 196.096 76.0501 207 103.5 207Z" fill="white"/>
<path d="M55.4432 160.852C56.9289 161.71 58.6945 161.942 60.3517 161.498C62.0088 161.054 63.4217 159.97 64.2795 158.484C68.2527 151.597 73.9704 145.878 80.8567 141.904C87.743 137.929 95.555 135.839 103.506 135.844C120.26 135.844 134.892 144.939 142.732 158.484C143.596 159.958 145.008 161.03 146.66 161.467C148.311 161.903 150.068 161.669 151.547 160.815C153.027 159.961 154.108 158.556 154.556 156.908C155.003 155.259 154.781 153.501 153.936 152.016C148.828 143.162 141.477 135.81 132.624 130.7C123.771 125.59 113.728 122.902 103.506 122.906C93.2845 122.904 83.2427 125.593 74.3901 130.703C65.5376 135.813 58.1864 143.163 53.0756 152.016C52.2179 153.501 51.9854 155.267 52.4294 156.924C52.8734 158.581 53.9575 159.994 55.4432 160.852ZM145.889 52.4356C146.649 52.0472 147.479 51.8132 148.33 51.747C149.181 51.6807 150.037 51.7836 150.848 52.0498C151.66 52.3159 152.41 52.7399 153.057 53.2974C153.703 53.8549 154.233 54.5349 154.615 55.2981C154.998 56.0614 155.225 56.8928 155.285 57.7444C155.345 58.596 155.235 59.451 154.963 60.2601C154.69 61.0692 154.261 61.8164 153.698 62.4585C153.135 63.1007 152.451 63.6252 151.685 64.0017L138.631 70.5222C140.908 74.0154 142.318 78.8022 142.318 84.0937C142.318 94.8059 136.522 103.5 129.381 103.5C122.239 103.5 116.443 94.8059 116.443 84.0937C116.443 80.8981 116.961 77.8837 117.867 75.2186C117.265 74.464 116.839 73.5848 116.62 72.6449C116.4 71.705 116.393 70.728 116.599 69.7851C116.805 68.8421 117.218 67.9568 117.809 67.1936C118.399 66.4305 119.153 65.8085 120.014 65.3731L145.889 52.4356ZM61.1227 52.4356C59.5908 51.6827 57.8234 51.5658 56.2057 52.1104C54.5879 52.6551 53.251 53.817 52.4863 55.343C51.7216 56.8691 51.591 58.6355 52.1231 60.2574C52.6551 61.8793 53.8067 63.2252 55.3267 64.0017L68.3807 70.5222C65.8834 74.6022 64.6041 79.3109 64.6935 84.0937C64.6935 94.8059 70.4895 103.5 77.631 103.5C84.7725 103.5 90.5685 94.8059 90.5685 84.0937C90.5685 80.8981 90.051 77.8837 89.1454 75.2186C89.7471 74.464 90.1731 73.5848 90.3924 72.6449C90.6117 71.705 90.6188 70.728 90.4131 69.7851C90.2074 68.8421 89.7941 67.9568 89.2033 67.1936C88.6125 66.4305 87.8591 65.8085 86.9977 65.3731L61.1227 52.4356Z" fill="white"/>
</svg>
